G04 ================== begin FILE IDENTIFICATION RECORD ==================*
G04 Layout Name:  hyp_ot_evt_042624.brd*
G04 Film Name:    bottom_paste*
G04 File Format:  Gerber RS274X*
G04 File Origin:  Cadence Allegro 22.1-P001*
G04 Origin Date:  Fri Apr 26 16:23:38 2024*
G04 *
G04 Layer:  VIA CLASS/PASTEMASK_BOTTOM*
G04 Layer:  PIN/PASTEMASK_BOTTOM*
G04 Layer:  PACKAGE GEOMETRY/PASTEMASK_BOTTOM*
G04 Layer:  DRAWING FORMAT/OUTLINE*
G04 *
G04 Offset:    (0.0000 0.0000)*
G04 Mirror:    No*
G04 Mode:      Positive*
G04 Rotation:  0*
G04 FullContactRelief:  No*
G04 UndefLineWidth:     0.1016*
G04 ================== end FILE IDENTIFICATION RECORD ====================*
%FSLAX55Y55*MOMM*%
%IR0*IPPOS*OFA0.00000B0.00000*MIA0B0*SFA1.00000B1.00000*%
%AMMACRO18*
4,1,40,-.205,-.16,
-.205,.16,
-.203481,.177365,
-.198969,.194202,
-.191603,.21,
-.181604,.224279,
-.169279,.236604,
-.155,.246603,
-.139202,.253969,
-.122365,.258481,
-.105,.26,
.105,.26,
.122365,.258481,
.139202,.253969,
.155,.246603,
.169279,.236604,
.181604,.224279,
.191603,.21,
.198969,.194202,
.203481,.177365,
.205,.16,
.205,-.16,
.203481,-.177365,
.198969,-.194202,
.191603,-.21,
.181604,-.224279,
.169279,-.236604,
.155,-.246603,
.139202,-.253969,
.122365,-.258481,
.105,-.26,
-.105,-.26,
-.122365,-.258481,
-.139202,-.253969,
-.155,-.246603,
-.169279,-.236604,
-.181604,-.224279,
-.191603,-.21,
-.198969,-.194202,
-.203481,-.177365,
-.205,-.16,
0.0*
%
%ADD18MACRO18*%
%AMMACRO13*
4,1,40,-.16,.205,
.16,.205,
.177365,.203481,
.194202,.198969,
.21,.191603,
.224279,.181604,
.236604,.169279,
.246603,.155,
.253969,.139202,
.258481,.122365,
.26,.105,
.26,-.105,
.258481,-.122365,
.253969,-.139202,
.246603,-.155,
.236604,-.169279,
.224279,-.181604,
.21,-.191603,
.194202,-.198969,
.177365,-.203481,
.16,-.205,
-.16,-.205,
-.177365,-.203481,
-.194202,-.198969,
-.21,-.191603,
-.224279,-.181604,
-.236604,-.169279,
-.246603,-.155,
-.253969,-.139202,
-.258481,-.122365,
-.26,-.105,
-.26,.105,
-.258481,.122365,
-.253969,.139202,
-.246603,.155,
-.236604,.169279,
-.224279,.181604,
-.21,.191603,
-.194202,.198969,
-.177365,.203481,
-.16,.205,
0.0*
%
%ADD13MACRO13*%
%AMMACRO22*
4,1,40,.175,-.15,
-.175,-.15,
-.183682,-.14924,
-.192101,-.146985,
-.2,-.143301,
-.207139,-.138302,
-.213302,-.132139,
-.218301,-.125,
-.221985,-.117101,
-.22424,-.108682,
-.225,-.1,
-.225,.1,
-.22424,.108682,
-.221985,.117101,
-.218301,.125,
-.213302,.132139,
-.207139,.138302,
-.2,.143301,
-.192101,.146985,
-.183682,.14924,
-.175,.15,
.175,.15,
.183682,.14924,
.192101,.146985,
.2,.143301,
.207139,.138302,
.213302,.132139,
.218301,.125,
.221985,.117101,
.22424,.108682,
.225,.1,
.225,-.1,
.22424,-.108682,
.221985,-.117101,
.218301,-.125,
.213302,-.132139,
.207139,-.138302,
.2,-.143301,
.192101,-.146985,
.183682,-.14924,
.175,-.15,
0.0*
%
%ADD22MACRO22*%
%AMMACRO28*
4,1,40,-.13,-.08,
-.13,.08,
-.128937,.092155,
-.125778,.103941,
-.120622,.115,
-.113623,.124995,
-.104995,.133623,
-.095,.140622,
-.083941,.145778,
-.072155,.148937,
-.06,.15,
.06,.15,
.072155,.148937,
.083941,.145778,
.095,.140622,
.104995,.133623,
.113623,.124995,
.120622,.115,
.125778,.103941,
.128937,.092155,
.13,.08,
.13,-.08,
.128937,-.092155,
.125778,-.103941,
.120622,-.115,
.113623,-.124995,
.104995,-.133623,
.095,-.140622,
.083941,-.145778,
.072155,-.148937,
.06,-.15,
-.06,-.15,
-.072155,-.148937,
-.083941,-.145778,
-.095,-.140622,
-.104995,-.133623,
-.113623,-.124995,
-.120622,-.115,
-.125778,-.103941,
-.128937,-.092155,
-.13,-.08,
0.0*
%
%ADD28MACRO28*%
%AMMACRO24*
4,1,40,-.08,.13,
.08,.13,
.092155,.128937,
.103941,.125778,
.115,.120622,
.124995,.113623,
.133623,.104995,
.140622,.095,
.145778,.083941,
.148937,.072155,
.15,.06,
.15,-.06,
.148937,-.072155,
.145778,-.083941,
.140622,-.095,
.133623,-.104995,
.124995,-.113623,
.115,-.120622,
.103941,-.125778,
.092155,-.128937,
.08,-.13,
-.08,-.13,
-.092155,-.128937,
-.103941,-.125778,
-.115,-.120622,
-.124995,-.113623,
-.133623,-.104995,
-.140622,-.095,
-.145778,-.083941,
-.148937,-.072155,
-.15,-.06,
-.15,.06,
-.148937,.072155,
-.145778,.083941,
-.140622,.095,
-.133623,.104995,
-.124995,.113623,
-.115,.120622,
-.103941,.125778,
-.092155,.128937,
-.08,.13,
0.0*
%
%ADD24MACRO24*%
%AMMACRO11*
4,1,40,.275,-.125,
-.275,-.125,
-.283682,-.12424,
-.292101,-.121985,
-.3,-.118301,
-.307139,-.113302,
-.313302,-.107139,
-.318301,-.1,
-.321985,-.092101,
-.32424,-.083682,
-.325,-.075,
-.325,.075,
-.32424,.083682,
-.321985,.092101,
-.318301,.1,
-.313302,.107139,
-.307139,.113302,
-.3,.118301,
-.292101,.121985,
-.283682,.12424,
-.275,.125,
.275,.125,
.283682,.12424,
.292101,.121985,
.3,.118301,
.307139,.113302,
.313302,.107139,
.318301,.1,
.321985,.092101,
.32424,.083682,
.325,.075,
.325,-.075,
.32424,-.083682,
.321985,-.092101,
.318301,-.1,
.313302,-.107139,
.307139,-.113302,
.3,-.118301,
.292101,-.121985,
.283682,-.12424,
.275,-.125,
0.0*
%
%ADD11MACRO11*%
%ADD33C,.22*%
%AMMACRO32*
4,1,40,-.21,.225,
.21,.225,
.225628,.223633,
.240782,.219572,
.255,.212942,
.267851,.203944,
.278944,.192851,
.287942,.18,
.294572,.165782,
.298633,.150628,
.3,.135,
.3,-.135,
.298633,-.150628,
.294572,-.165782,
.287942,-.18,
.278944,-.192851,
.267851,-.203944,
.255,-.212942,
.240782,-.219572,
.225628,-.223633,
.21,-.225,
-.21,-.225,
-.225628,-.223633,
-.240782,-.219572,
-.255,-.212942,
-.267851,-.203944,
-.278944,-.192851,
-.287942,-.18,
-.294572,-.165782,
-.298633,-.150628,
-.3,-.135,
-.3,.135,
-.298633,.150628,
-.294572,.165782,
-.287942,.18,
-.278944,.192851,
-.267851,.203944,
-.255,.212942,
-.240782,.219572,
-.225628,.223633,
-.21,.225,
0.0*
%
%ADD32MACRO32*%
%AMMACRO20*
4,1,40,-.3,-.285,
-.3,.285,
-.297721,.311047,
-.290954,.336303,
-.279904,.36,
-.264907,.381418,
-.246418,.399907,
-.225,.414904,
-.201303,.425954,
-.176047,.432721,
-.15,.435,
.15,.435,
.176047,.432721,
.201303,.425954,
.225,.414904,
.246418,.399907,
.264907,.381418,
.279904,.36,
.290954,.336303,
.297721,.311047,
.3,.285,
.3,-.285,
.297721,-.311047,
.290954,-.336303,
.279904,-.36,
.264907,-.381418,
.246418,-.399907,
.225,-.414904,
.201303,-.425954,
.176047,-.432721,
.15,-.435,
-.15,-.435,
-.176047,-.432721,
-.201303,-.425954,
-.225,-.414904,
-.246418,-.399907,
-.264907,-.381418,
-.279904,-.36,
-.290954,-.336303,
-.297721,-.311047,
-.3,-.285,
0.0*
%
%ADD20MACRO20*%
%AMMACRO26*
4,1,40,-.285,.3,
.285,.3,
.311047,.297721,
.336303,.290954,
.36,.279904,
.381418,.264907,
.399907,.246418,
.414904,.225,
.425954,.201303,
.432721,.176047,
.435,.15,
.435,-.15,
.432721,-.176047,
.425954,-.201303,
.414904,-.225,
.399907,-.246418,
.381418,-.264907,
.36,-.279904,
.336303,-.290954,
.311047,-.297721,
.285,-.3,
-.285,-.3,
-.311047,-.297721,
-.336303,-.290954,
-.36,-.279904,
-.381418,-.264907,
-.399907,-.246418,
-.414904,-.225,
-.425954,-.201303,
-.432721,-.176047,
-.435,-.15,
-.435,.15,
-.432721,.176047,
-.425954,.201303,
-.414904,.225,
-.399907,.246418,
-.381418,.264907,
-.36,.279904,
-.336303,.290954,
-.311047,.297721,
-.285,.3,
0.0*
%
%ADD26MACRO26*%
%AMMACRO15*
4,1,40,-.15,.435,
.15,.435,
.176047,.432721,
.201303,.425954,
.225,.414904,
.246418,.399907,
.264907,.381418,
.279904,.36,
.290954,.336303,
.297721,.311047,
.3,.285,
.3,-.285,
.297721,-.311047,
.290954,-.336303,
.279904,-.36,
.264907,-.381418,
.246418,-.399907,
.225,-.414904,
.201303,-.425954,
.176047,-.432721,
.15,-.435,
-.15,-.435,
-.176047,-.432721,
-.201303,-.425954,
-.225,-.414904,
-.246418,-.399907,
-.264907,-.381418,
-.279904,-.36,
-.290954,-.336303,
-.297721,-.311047,
-.3,-.285,
-.3,.285,
-.297721,.311047,
-.290954,.336303,
-.279904,.36,
-.264907,.381418,
-.246418,.399907,
-.225,.414904,
-.201303,.425954,
-.176047,.432721,
-.15,.435,
0.0*
%
%ADD15MACRO15*%
%AMMACRO30*
4,1,40,-.175,-.2988,
-.175,.2988,
-.173842,.312032,
-.170405,.324862,
-.164791,.3369,
-.157173,.34778,
-.14778,.357173,
-.1369,.364791,
-.124862,.370405,
-.112032,.373842,
-.0988,.375,
.0988,.375,
.112032,.373842,
.124862,.370405,
.1369,.364791,
.14778,.357173,
.157173,.34778,
.164791,.3369,
.170405,.324862,
.173842,.312032,
.175,.2988,
.175,-.2988,
.173842,-.312032,
.170405,-.324862,
.164791,-.3369,
.157173,-.34778,
.14778,-.357173,
.1369,-.364791,
.124862,-.370405,
.112032,-.373842,
.0988,-.375,
-.0988,-.375,
-.112032,-.373842,
-.124862,-.370405,
-.1369,-.364791,
-.14778,-.357173,
-.157173,-.34778,
-.164791,-.3369,
-.170405,-.324862,
-.173842,-.312032,
-.175,-.2988,
0.0*
%
%ADD30MACRO30*%
%AMMACRO21*
4,1,40,.205,.16,
.205,-.16,
.203481,-.177365,
.198969,-.194202,
.191603,-.21,
.181604,-.224279,
.169279,-.236604,
.155,-.246603,
.139202,-.253969,
.122365,-.258481,
.105,-.26,
-.105,-.26,
-.122365,-.258481,
-.139202,-.253969,
-.155,-.246603,
-.169279,-.236604,
-.181604,-.224279,
-.191603,-.21,
-.198969,-.194202,
-.203481,-.177365,
-.205,-.16,
-.205,.16,
-.203481,.177365,
-.198969,.194202,
-.191603,.21,
-.181604,.224279,
-.169279,.236604,
-.155,.246603,
-.139202,.253969,
-.122365,.258481,
-.105,.26,
.105,.26,
.122365,.258481,
.139202,.253969,
.155,.246603,
.169279,.236604,
.181604,.224279,
.191603,.21,
.198969,.194202,
.203481,.177365,
.205,.16,
0.0*
%
%ADD21MACRO21*%
%AMMACRO19*
4,1,40,.16,-.205,
-.16,-.205,
-.177365,-.203481,
-.194202,-.198969,
-.21,-.191603,
-.224279,-.181604,
-.236604,-.169279,
-.246603,-.155,
-.253969,-.139202,
-.258481,-.122365,
-.26,-.105,
-.26,.105,
-.258481,.122365,
-.253969,.139202,
-.246603,.155,
-.236604,.169279,
-.224279,.181604,
-.21,.191603,
-.194202,.198969,
-.177365,.203481,
-.16,.205,
.16,.205,
.177365,.203481,
.194202,.198969,
.21,.191603,
.224279,.181604,
.236604,.169279,
.246603,.155,
.253969,.139202,
.258481,.122365,
.26,.105,
.26,-.105,
.258481,-.122365,
.253969,-.139202,
.246603,-.155,
.236604,-.169279,
.224279,-.181604,
.21,-.191603,
.194202,-.198969,
.177365,-.203481,
.16,-.205,
0.0*
%
%ADD19MACRO19*%
%AMMACRO34*
4,1,40,.2,-.235,
-.2,-.235,
-.217365,-.233481,
-.234202,-.228969,
-.25,-.221603,
-.264279,-.211604,
-.276604,-.199279,
-.286603,-.185,
-.293969,-.169202,
-.298481,-.152365,
-.3,-.135,
-.3,.135,
-.298481,.152365,
-.293969,.169202,
-.286603,.185,
-.276604,.199279,
-.264279,.211604,
-.25,.221603,
-.234202,.228969,
-.217365,.233481,
-.2,.235,
.2,.235,
.217365,.233481,
.234202,.228969,
.25,.221603,
.264279,.211604,
.276604,.199279,
.286603,.185,
.293969,.169202,
.298481,.152365,
.3,.135,
.3,-.135,
.298481,-.152365,
.293969,-.169202,
.286603,-.185,
.276604,-.199279,
.264279,-.211604,
.25,-.221603,
.234202,-.228969,
.217365,-.233481,
.2,-.235,
0.0*
%
%ADD34MACRO34*%
%AMMACRO29*
4,1,40,.13,.08,
.13,-.08,
.128937,-.092155,
.125778,-.103941,
.120622,-.115,
.113623,-.124995,
.104995,-.133623,
.095,-.140622,
.083941,-.145778,
.072155,-.148937,
.06,-.15,
-.06,-.15,
-.072155,-.148937,
-.083941,-.145778,
-.095,-.140622,
-.104995,-.133623,
-.113623,-.124995,
-.120622,-.115,
-.125778,-.103941,
-.128937,-.092155,
-.13,-.08,
-.13,.08,
-.128937,.092155,
-.125778,.103941,
-.120622,.115,
-.113623,.124995,
-.104995,.133623,
-.095,.140622,
-.083941,.145778,
-.072155,.148937,
-.06,.15,
.06,.15,
.072155,.148937,
.083941,.145778,
.095,.140622,
.104995,.133623,
.113623,.124995,
.120622,.115,
.125778,.103941,
.128937,.092155,
.13,.08,
0.0*
%
%ADD29MACRO29*%
%AMMACRO25*
4,1,40,.08,-.13,
-.08,-.13,
-.092155,-.128937,
-.103941,-.125778,
-.115,-.120622,
-.124995,-.113623,
-.133623,-.104995,
-.140622,-.095,
-.145778,-.083941,
-.148937,-.072155,
-.15,-.06,
-.15,.06,
-.148937,.072155,
-.145778,.083941,
-.140622,.095,
-.133623,.104995,
-.124995,.113623,
-.115,.120622,
-.103941,.125778,
-.092155,.128937,
-.08,.13,
.08,.13,
.092155,.128937,
.103941,.125778,
.115,.120622,
.124995,.113623,
.133623,.104995,
.140622,.095,
.145778,.083941,
.148937,.072155,
.15,.06,
.15,-.06,
.148937,-.072155,
.145778,-.083941,
.140622,-.095,
.133623,-.104995,
.124995,-.113623,
.115,-.120622,
.103941,-.125778,
.092155,-.128937,
.08,-.13,
0.0*
%
%ADD25MACRO25*%
%ADD23O,.18X.25*%
%AMMACRO17*
4,1,40,.3,.285,
.3,-.285,
.297721,-.311047,
.290954,-.336303,
.279904,-.36,
.264907,-.381418,
.246418,-.399907,
.225,-.414904,
.201303,-.425954,
.176047,-.432721,
.15,-.435,
-.15,-.435,
-.176047,-.432721,
-.201303,-.425954,
-.225,-.414904,
-.246418,-.399907,
-.264907,-.381418,
-.279904,-.36,
-.290954,-.336303,
-.297721,-.311047,
-.3,-.285,
-.3,.285,
-.297721,.311047,
-.290954,.336303,
-.279904,.36,
-.264907,.381418,
-.246418,.399907,
-.225,.414904,
-.201303,.425954,
-.176047,.432721,
-.15,.435,
.15,.435,
.176047,.432721,
.201303,.425954,
.225,.414904,
.246418,.399907,
.264907,.381418,
.279904,.36,
.290954,.336303,
.297721,.311047,
.3,.285,
0.0*
%
%ADD17MACRO17*%
%AMMACRO16*
4,1,40,.15,-.435,
-.15,-.435,
-.176047,-.432721,
-.201303,-.425954,
-.225,-.414904,
-.246418,-.399907,
-.264907,-.381418,
-.279904,-.36,
-.290954,-.336303,
-.297721,-.311047,
-.3,-.285,
-.3,.285,
-.297721,.311047,
-.290954,.336303,
-.279904,.36,
-.264907,.381418,
-.246418,.399907,
-.225,.414904,
-.201303,.425954,
-.176047,.432721,
-.15,.435,
.15,.435,
.176047,.432721,
.201303,.425954,
.225,.414904,
.246418,.399907,
.264907,.381418,
.279904,.36,
.290954,.336303,
.297721,.311047,
.3,.285,
.3,-.285,
.297721,-.311047,
.290954,-.336303,
.279904,-.36,
.264907,-.381418,
.246418,-.399907,
.225,-.414904,
.201303,-.425954,
.176047,-.432721,
.15,-.435,
0.0*
%
%ADD16MACRO16*%
%AMMACRO14*
4,1,40,.285,-.3,
-.285,-.3,
-.311047,-.297721,
-.336303,-.290954,
-.36,-.279904,
-.381418,-.264907,
-.399907,-.246418,
-.414904,-.225,
-.425954,-.201303,
-.432721,-.176047,
-.435,-.15,
-.435,.15,
-.432721,.176047,
-.425954,.201303,
-.414904,.225,
-.399907,.246418,
-.381418,.264907,
-.36,.279904,
-.336303,.290954,
-.311047,.297721,
-.285,.3,
.285,.3,
.311047,.297721,
.336303,.290954,
.36,.279904,
.381418,.264907,
.399907,.246418,
.414904,.225,
.425954,.201303,
.432721,.176047,
.435,.15,
.435,-.15,
.432721,-.176047,
.425954,-.201303,
.414904,-.225,
.399907,-.246418,
.381418,-.264907,
.36,-.279904,
.336303,-.290954,
.311047,-.297721,
.285,-.3,
0.0*
%
%ADD14MACRO14*%
%AMMACRO10*
4,1,40,.435,.15,
.435,-.15,
.432721,-.176047,
.425954,-.201303,
.414904,-.225,
.399907,-.246418,
.381418,-.264907,
.36,-.279904,
.336303,-.290954,
.311047,-.297721,
.285,-.3,
-.285,-.3,
-.311047,-.297721,
-.336303,-.290954,
-.36,-.279904,
-.381418,-.264907,
-.399907,-.246418,
-.414904,-.225,
-.425954,-.201303,
-.432721,-.176047,
-.435,-.15,
-.435,.15,
-.432721,.176047,
-.425954,.201303,
-.414904,.225,
-.399907,.246418,
-.381418,.264907,
-.36,.279904,
-.336303,.290954,
-.311047,.297721,
-.285,.3,
.285,.3,
.311047,.297721,
.336303,.290954,
.36,.279904,
.381418,.264907,
.399907,.246418,
.414904,.225,
.425954,.201303,
.432721,.176047,
.435,.15,
0.0*
%
%ADD10MACRO10*%
%AMMACRO12*
4,1,40,-.125,-.275,
-.125,.275,
-.12424,.283682,
-.121985,.292101,
-.118301,.3,
-.113302,.307139,
-.107139,.313302,
-.1,.318301,
-.092101,.321985,
-.083682,.32424,
-.075,.325,
.075,.325,
.083682,.32424,
.092101,.321985,
.1,.318301,
.107139,.313302,
.113302,.307139,
.118301,.3,
.121985,.292101,
.12424,.283682,
.125,.275,
.125,-.275,
.12424,-.283682,
.121985,-.292101,
.118301,-.3,
.113302,-.307139,
.107139,-.313302,
.1,-.318301,
.092101,-.321985,
.083682,-.32424,
.075,-.325,
-.075,-.325,
-.083682,-.32424,
-.092101,-.321985,
-.1,-.318301,
-.107139,-.313302,
-.113302,-.307139,
-.118301,-.3,
-.121985,-.292101,
-.12424,-.283682,
-.125,-.275,
0.0*
%
%ADD12MACRO12*%
%AMMACRO31*
4,1,40,.34,.3,
.34,-.3,
.337721,-.326047,
.330954,-.351303,
.319904,-.375,
.304907,-.396418,
.286418,-.414907,
.265,-.429904,
.241303,-.440954,
.216047,-.447721,
.19,-.45,
-.19,-.45,
-.216047,-.447721,
-.241303,-.440954,
-.265,-.429904,
-.286418,-.414907,
-.304907,-.396418,
-.319904,-.375,
-.330954,-.351303,
-.337721,-.326047,
-.34,-.3,
-.34,.3,
-.337721,.326047,
-.330954,.351303,
-.319904,.375,
-.304907,.396418,
-.286418,.414907,
-.265,.429904,
-.241303,.440954,
-.216047,.447721,
-.19,.45,
.19,.45,
.216047,.447721,
.241303,.440954,
.265,.429904,
.286418,.414907,
.304907,.396418,
.319904,.375,
.330954,.351303,
.337721,.326047,
.34,.3,
0.0*
%
%ADD31MACRO31*%
%AMMACRO27*
4,1,40,-.275,.125,
.275,.125,
.283682,.12424,
.292101,.121985,
.3,.118301,
.307139,.113302,
.313302,.107139,
.318301,.1,
.321985,.092101,
.32424,.083682,
.325,.075,
.325,-.075,
.32424,-.083682,
.321985,-.092101,
.318301,-.1,
.313302,-.107139,
.307139,-.113302,
.3,-.118301,
.292101,-.121985,
.283682,-.12424,
.275,-.125,
-.275,-.125,
-.283682,-.12424,
-.292101,-.121985,
-.3,-.118301,
-.307139,-.113302,
-.313302,-.107139,
-.318301,-.1,
-.321985,-.092101,
-.32424,-.083682,
-.325,-.075,
-.325,.075,
-.32424,.083682,
-.321985,.092101,
-.318301,.1,
-.313302,.107139,
-.307139,.113302,
-.3,.118301,
-.292101,.121985,
-.283682,.12424,
-.275,.125,
0.0*
%
%ADD27MACRO27*%
%ADD35C,.254*%
G75*
%LPD*%
G75*
G36*
G01X-624500Y-2012500D02*
X-524500D01*
Y-2112500D01*
X-624500D01*
Y-2012500D01*
G37*
G36*
G01Y-1887500D02*
X-524500D01*
Y-1987500D01*
X-624500D01*
Y-1887500D01*
G37*
G36*
G01X-499500Y-2012500D02*
X-399500D01*
Y-2112500D01*
X-499500D01*
Y-2012500D01*
G37*
G36*
G01Y-1887500D02*
X-399500D01*
Y-1987500D01*
X-499500D01*
Y-1887500D01*
G37*
G36*
G01X3643680Y3515050D02*
Y3415050D01*
X3543680D01*
Y3515050D01*
X3643680D01*
G37*
G36*
G01X3518680D02*
Y3415050D01*
X3418680D01*
Y3515050D01*
X3518680D01*
G37*
G36*
G01X3643680Y3390050D02*
Y3290050D01*
X3543680D01*
Y3390050D01*
X3643680D01*
G37*
G36*
G01X3518680D02*
Y3290050D01*
X3418680D01*
Y3390050D01*
X3518680D01*
G37*
G54D10*
X-582000Y-2743500D03*
Y-2616500D03*
G54D20*
X1934500Y630000D03*
X2061500D03*
X3216420Y2507450D03*
X3343420D03*
X3342740Y3865260D03*
X3469740D03*
X3816420Y2507450D03*
X3943420D03*
X3972740Y4125260D03*
X3972710Y4355260D03*
X4058990Y-2532750D03*
X4185990D03*
X4099740Y4125260D03*
X4099710Y4355260D03*
G54D11*
X-699500Y-2075000D03*
Y-2125000D03*
Y-1875000D03*
Y-1925000D03*
Y-1975000D03*
Y-2025000D03*
X-324500Y-2125000D03*
Y-2075000D03*
Y-2025000D03*
Y-1975000D03*
Y-1925000D03*
Y-1875000D03*
G54D12*
X-637000Y-2187500D03*
X-587000D03*
Y-1812500D03*
X-637000D03*
X-537000Y-2187500D03*
X-487000D03*
X-437000D03*
X-387000D03*
Y-1812500D03*
X-437000D03*
X-487000D03*
X-537000D03*
X3656180Y3215050D03*
X3606180D03*
X3556180D03*
X3506180D03*
X3456180D03*
X3406180D03*
Y3590050D03*
X3456180D03*
X3506180D03*
X3556180D03*
X3606180D03*
X3656180D03*
G54D21*
X2702000Y-640000D03*
X2554000Y-230000D03*
X2482000D03*
X2774000Y-640000D03*
X3185180Y3494550D03*
X3257180D03*
X3185180Y3424550D03*
X3257180D03*
X3714000Y4220000D03*
X3642000D03*
X3802000Y3610000D03*
X3874000D03*
G54D30*
X3561240Y4035760D03*
X3496240D03*
X3431240D03*
Y4214760D03*
X3561240D03*
G54D31*
X3926290Y-2692750D03*
X3798690D03*
G54D22*
X3020500Y-3410000D03*
Y-3360000D03*
Y-3310000D03*
X3155500Y-3410000D03*
Y-3310000D03*
Y-3360000D03*
G54D13*
X-784000Y-1854000D03*
Y-1926000D03*
X588000Y-944000D03*
Y-1016000D03*
Y-604000D03*
Y-676000D03*
Y-244000D03*
Y-316000D03*
X1938000Y496000D03*
Y424000D03*
X4096500Y-1916650D03*
Y-1988650D03*
G54D14*
X-252000Y4266500D03*
Y4393500D03*
X-452000Y4266500D03*
Y4393500D03*
X-352000Y4266500D03*
Y4393500D03*
X-2000Y4266500D03*
Y4393500D03*
X98000Y4266500D03*
Y4393500D03*
X198000Y4266500D03*
Y4393500D03*
X448000Y4266500D03*
Y4393500D03*
X588000Y-873500D03*
Y-746500D03*
Y-533500D03*
Y-406500D03*
Y-173500D03*
Y-46500D03*
X648000Y4266500D03*
Y4393500D03*
X548000Y4266500D03*
Y4393500D03*
X1098000Y4266500D03*
Y4393500D03*
X898000Y4266500D03*
Y4393500D03*
X998000Y4266500D03*
Y4393500D03*
X1753050Y2568860D03*
Y2695860D03*
X1873050Y2568860D03*
Y2695860D03*
X3918000Y2816500D03*
Y2943500D03*
X4118000Y2866500D03*
X4238000D03*
X4118000Y2993500D03*
X4238000D03*
G54D23*
X3005500Y-3030000D03*
X2970500D03*
X3180500D03*
X3215500D03*
G54D32*
X4037490Y-2852750D03*
X3827490D03*
G54D15*
X384500Y-3050000D03*
X511500D03*
X624500D03*
X751500D03*
X1424470Y-270000D03*
X1551470D03*
X3699710Y3865260D03*
X3572710D03*
X3559720Y4325260D03*
X3432720D03*
X3934650Y3324550D03*
X3807650D03*
G54D33*
X4016240Y4225260D03*
Y4265260D03*
X4056240Y4225260D03*
Y4265260D03*
G54D24*
X2828000Y-2442500D03*
Y-2397500D03*
X3118000Y-3162500D03*
Y-3117500D03*
X3068000Y-3162500D03*
Y-3117500D03*
X3686500Y-2025150D03*
Y-1980150D03*
X3798000Y-3232500D03*
Y-3187500D03*
G54D16*
X1271500Y-3050000D03*
X1144500D03*
X2671500Y-320000D03*
X2544500D03*
G54D25*
X3068000Y-3207500D03*
Y-3252500D03*
X3118000Y-3207500D03*
Y-3252500D03*
G54D34*
X4186240Y4134260D03*
Y4056260D03*
G54D35*
G01X-289140Y-5715450D02*
X-268820Y-5730790D01*
X-245960Y-5740000D01*
X-225640D01*
X-205320Y-5730790D01*
X-190080Y-5715450D01*
X-182460Y-5693960D01*
X-187540Y-5672480D01*
X-200240Y-5654060D01*
X-223100Y-5641790D01*
X-253580Y-5635650D01*
X-271360Y-5623370D01*
X-278980Y-5601890D01*
X-273900Y-5580400D01*
X-261200Y-5565060D01*
X-243420Y-5555850D01*
X-225640D01*
X-207860Y-5561990D01*
X-192620Y-5577340D01*
G01X-17360Y-5740000D02*
X-37680Y-5736930D01*
X-55460Y-5724660D01*
X-70700Y-5706240D01*
X-80860Y-5684760D01*
X-85940Y-5660200D01*
Y-5635650D01*
X-80860Y-5611090D01*
X-70700Y-5589610D01*
X-55460Y-5571200D01*
X-37680Y-5558920D01*
X-17360Y-5555850D01*
X2960Y-5558920D01*
X20740Y-5571200D01*
X35980Y-5589610D01*
X46140Y-5611090D01*
X51220Y-5635650D01*
Y-5660200D01*
X46140Y-5684760D01*
X35980Y-5706240D01*
X20740Y-5724660D01*
X2960Y-5736930D01*
X-17360Y-5740000D01*
G01X150280Y-5555850D02*
Y-5740000D01*
X251880D01*
G01X363640D02*
Y-5555850D01*
X414440D01*
X434760Y-5565060D01*
X450000Y-5577340D01*
X462700Y-5595750D01*
X472860Y-5617240D01*
X475400Y-5647930D01*
X472860Y-5678620D01*
X462700Y-5700100D01*
X450000Y-5718520D01*
X434760Y-5730790D01*
X414440Y-5740000D01*
X363640D01*
G01X688760D02*
X587160D01*
Y-5555850D01*
X688760D01*
G01X648120Y-5644850D02*
X587160D01*
G01X805600Y-5740000D02*
Y-5555850D01*
X869100D01*
X889420Y-5565060D01*
X902120Y-5577340D01*
X907200Y-5601890D01*
X902120Y-5626440D01*
X886880Y-5641790D01*
X869100Y-5651000D01*
X805600D01*
G01X869100D02*
X907200Y-5740000D01*
G01X1024040D02*
Y-5555850D01*
X1085000D01*
X1105320Y-5565060D01*
X1120560Y-5586540D01*
X1125640Y-5611090D01*
X1120560Y-5635650D01*
X1107860Y-5654060D01*
X1085000Y-5663280D01*
X1024040D01*
G01X1229780Y-5740000D02*
X1293280Y-5555850D01*
X1356780Y-5740000D01*
G01X1333920Y-5675550D02*
X1252640D01*
G01X1458380Y-5715450D02*
X1478700Y-5730790D01*
X1501560Y-5740000D01*
X1521880D01*
X1542200Y-5730790D01*
X1557440Y-5715450D01*
X1565060Y-5693960D01*
X1559980Y-5672480D01*
X1547280Y-5654060D01*
X1524420Y-5641790D01*
X1493940Y-5635650D01*
X1476160Y-5623370D01*
X1468540Y-5601890D01*
X1473620Y-5580400D01*
X1486320Y-5565060D01*
X1504100Y-5555850D01*
X1521880D01*
X1539660Y-5561990D01*
X1554900Y-5577340D01*
G01X1730160Y-5555850D02*
Y-5740000D01*
G01X1671740Y-5555850D02*
X1788580D01*
G01X1999400Y-5740000D02*
X1897800D01*
Y-5555850D01*
X1999400D01*
G01X1958760Y-5644850D02*
X1897800D01*
G01X2405800Y-5641790D02*
X2415960Y-5632580D01*
X2423580Y-5617240D01*
X2428660Y-5595750D01*
X2423580Y-5577340D01*
X2413420Y-5565060D01*
X2395640Y-5555850D01*
X2327060D01*
Y-5740000D01*
X2410880D01*
X2428660Y-5727730D01*
X2438820Y-5709310D01*
X2443900Y-5687820D01*
X2438820Y-5666340D01*
X2423580Y-5647930D01*
X2405800Y-5641790D01*
X2327060D01*
G01X2603920Y-5740000D02*
X2583600Y-5736930D01*
X2565820Y-5724660D01*
X2550580Y-5706240D01*
X2540420Y-5684760D01*
X2535340Y-5660200D01*
Y-5635650D01*
X2540420Y-5611090D01*
X2550580Y-5589610D01*
X2565820Y-5571200D01*
X2583600Y-5558920D01*
X2603920Y-5555850D01*
X2624240Y-5558920D01*
X2642020Y-5571200D01*
X2657260Y-5589610D01*
X2667420Y-5611090D01*
X2672500Y-5635650D01*
Y-5660200D01*
X2667420Y-5684760D01*
X2657260Y-5706240D01*
X2642020Y-5724660D01*
X2624240Y-5736930D01*
X2603920Y-5740000D01*
G01X2822360Y-5555850D02*
Y-5740000D01*
G01X2763940Y-5555850D02*
X2880780D01*
G01X3040800D02*
Y-5740000D01*
G01X2982380Y-5555850D02*
X3099220D01*
G01X3259240Y-5740000D02*
X3238920Y-5736930D01*
X3221140Y-5724660D01*
X3205900Y-5706240D01*
X3195740Y-5684760D01*
X3190660Y-5660200D01*
Y-5635650D01*
X3195740Y-5611090D01*
X3205900Y-5589610D01*
X3221140Y-5571200D01*
X3238920Y-5558920D01*
X3259240Y-5555850D01*
X3279560Y-5558920D01*
X3297340Y-5571200D01*
X3312580Y-5589610D01*
X3322740Y-5611090D01*
X3327820Y-5635650D01*
Y-5660200D01*
X3322740Y-5684760D01*
X3312580Y-5706240D01*
X3297340Y-5724660D01*
X3279560Y-5736930D01*
X3259240Y-5740000D01*
G01X3411640D02*
Y-5555850D01*
X3477680Y-5709310D01*
X3543720Y-5555850D01*
Y-5740000D01*
G01X-289140Y-5240000D02*
Y-5055850D01*
G01X-182460D02*
Y-5240000D01*
G01Y-5147930D02*
X-289140D01*
G01X-17360Y-5240000D02*
Y-5157130D01*
X-68160Y-5055850D01*
G01X33440D02*
X-17360Y-5157130D01*
G01X150280Y-5240000D02*
Y-5055850D01*
X211240D01*
X231560Y-5065060D01*
X246800Y-5086540D01*
X251880Y-5111090D01*
X246800Y-5135650D01*
X234100Y-5154060D01*
X211240Y-5163280D01*
X150280D01*
G01X343320Y-5301380D02*
X495720D01*
G01X637960Y-5240000D02*
X617640Y-5236930D01*
X599860Y-5224660D01*
X584620Y-5206240D01*
X574460Y-5184760D01*
X569380Y-5160200D01*
Y-5135650D01*
X574460Y-5111090D01*
X584620Y-5089610D01*
X599860Y-5071200D01*
X617640Y-5058920D01*
X637960Y-5055850D01*
X658280Y-5058920D01*
X676060Y-5071200D01*
X691300Y-5089610D01*
X701460Y-5111090D01*
X706540Y-5135650D01*
Y-5160200D01*
X701460Y-5184760D01*
X691300Y-5206240D01*
X676060Y-5224660D01*
X658280Y-5236930D01*
X637960Y-5240000D01*
G01X856400Y-5055850D02*
Y-5240000D01*
G01X797980Y-5055850D02*
X914820D01*
G54D17*
X1424500Y-550000D03*
Y-660000D03*
Y-420000D03*
Y-160000D03*
Y-50000D03*
Y80000D03*
Y400000D03*
X1389500Y4390000D03*
X1262500D03*
X1551500Y-550000D03*
Y-660000D03*
Y-420000D03*
Y-160000D03*
Y-50000D03*
Y80000D03*
Y400000D03*
X1634500Y460000D03*
X1729550Y2802360D03*
Y2962360D03*
X1761500Y460000D03*
X1856550Y2802360D03*
Y2962360D03*
X2674500Y-540000D03*
Y-430000D03*
X2801500Y-540000D03*
Y-430000D03*
X3553420Y2507450D03*
X3426420D03*
X3701500Y2790000D03*
X3574500D03*
X4026420Y2507450D03*
X4153420D03*
G54D26*
X3249920Y2740950D03*
Y2613950D03*
X3849920Y2740950D03*
Y2613950D03*
X4248000Y2743500D03*
Y2616500D03*
G54D27*
X3343680Y3277550D03*
Y3327550D03*
Y3377550D03*
Y3427550D03*
Y3477550D03*
Y3527550D03*
X3718680Y3477550D03*
Y3427550D03*
Y3377550D03*
Y3327550D03*
Y3277550D03*
Y3527550D03*
G54D18*
X1492000Y180000D03*
X1564000D03*
X1712000Y360000D03*
X1784000D03*
X2882000Y-3430000D03*
X2954000D03*
X3052000Y-3520000D03*
X2852000Y-3300000D03*
X2924000D03*
X2752000Y-2510000D03*
X2824000D03*
X3124000Y-3520000D03*
X3342000Y3130000D03*
X3644000D03*
X3572000D03*
X3414000D03*
X3804000Y3170000D03*
X3732000D03*
X3877180Y3504550D03*
X3805180D03*
X3877180Y3424550D03*
X3805180D03*
X3892240Y4215260D03*
X3820240D03*
G54D19*
X1938000Y-476000D03*
Y-404000D03*
X2398000Y-466000D03*
Y-394000D03*
X3286240Y4141260D03*
Y4069260D03*
X3728000Y-3306000D03*
Y-3234000D03*
G54D28*
X3620500Y-2340000D03*
X3575500D03*
X3950500Y-2350000D03*
X3905500D03*
G54D29*
X3575500Y-2290000D03*
X3620500D03*
X3905500D03*
X3950500D03*
M02*
