G04 ================== begin FILE IDENTIFICATION RECORD ==================*
G04 Layout Name:  hyp_ot_evt_042624.brd*
G04 Film Name:    bottom*
G04 File Format:  Gerber RS274X*
G04 File Origin:  Cadence Allegro 22.1-P001*
G04 Origin Date:  Fri Apr 26 16:23:38 2024*
G04 *
G04 Layer:  VIA CLASS/BOTTOM*
G04 Layer:  PIN/BOTTOM*
G04 Layer:  ETCH/BOTTOM*
G04 Layer:  DRAWING FORMAT/BOTTOM*
G04 *
G04 Offset:    (0.0000 0.0000)*
G04 Mirror:    No*
G04 Mode:      Positive*
G04 Rotation:  0*
G04 FullContactRelief:  No*
G04 UndefLineWidth:     0.1016*
G04 ================== end FILE IDENTIFICATION RECORD ====================*
%FSLAX55Y55*MOMM*%
%IR0*IPPOS*OFA0.00000B0.00000*MIA0B0*SFA1.00000B1.00000*%
%AMMACRO29*
4,1,40,-.205,-.16,
-.205,.16,
-.203481,.177365,
-.198969,.194202,
-.191603,.21,
-.181604,.224279,
-.169279,.236604,
-.155,.246603,
-.139202,.253969,
-.122365,.258481,
-.105,.26,
.105,.26,
.122365,.258481,
.139202,.253969,
.155,.246603,
.169279,.236604,
.181604,.224279,
.191603,.21,
.198969,.194202,
.203481,.177365,
.205,.16,
.205,-.16,
.203481,-.177365,
.198969,-.194202,
.191603,-.21,
.181604,-.224279,
.169279,-.236604,
.155,-.246603,
.139202,-.253969,
.122365,-.258481,
.105,-.26,
-.105,-.26,
-.122365,-.258481,
-.139202,-.253969,
-.155,-.246603,
-.169279,-.236604,
-.181604,-.224279,
-.191603,-.21,
-.198969,-.194202,
-.203481,-.177365,
-.205,-.16,
0.0*
%
%ADD29MACRO29*%
%AMMACRO16*
4,1,40,-.16,.205,
.16,.205,
.177365,.203481,
.194202,.198969,
.21,.191603,
.224279,.181604,
.236604,.169279,
.246603,.155,
.253969,.139202,
.258481,.122365,
.26,.105,
.26,-.105,
.258481,-.122365,
.253969,-.139202,
.246603,-.155,
.236604,-.169279,
.224279,-.181604,
.21,-.191603,
.194202,-.198969,
.177365,-.203481,
.16,-.205,
-.16,-.205,
-.177365,-.203481,
-.194202,-.198969,
-.21,-.191603,
-.224279,-.181604,
-.236604,-.169279,
-.246603,-.155,
-.253969,-.139202,
-.258481,-.122365,
-.26,-.105,
-.26,.105,
-.258481,.122365,
-.253969,.139202,
-.246603,.155,
-.236604,.169279,
-.224279,.181604,
-.21,.191603,
-.194202,.198969,
-.177365,.203481,
-.16,.205,
0.0*
%
%ADD16MACRO16*%
%AMMACRO34*
4,1,40,.175,-.15,
-.175,-.15,
-.183682,-.14924,
-.192101,-.146985,
-.2,-.143301,
-.207139,-.138302,
-.213302,-.132139,
-.218301,-.125,
-.221985,-.117101,
-.22424,-.108682,
-.225,-.1,
-.225,.1,
-.22424,.108682,
-.221985,.117101,
-.218301,.125,
-.213302,.132139,
-.207139,.138302,
-.2,.143301,
-.192101,.146985,
-.183682,.14924,
-.175,.15,
.175,.15,
.183682,.14924,
.192101,.146985,
.2,.143301,
.207139,.138302,
.213302,.132139,
.218301,.125,
.221985,.117101,
.22424,.108682,
.225,.1,
.225,-.1,
.22424,-.108682,
.221985,-.117101,
.218301,-.125,
.213302,-.132139,
.207139,-.138302,
.2,-.143301,
.192101,-.146985,
.183682,-.14924,
.175,-.15,
0.0*
%
%ADD34MACRO34*%
%ADD32O,.8X1.4*%
%AMMACRO41*
4,1,40,-.13,-.08,
-.13,.08,
-.128937,.092155,
-.125778,.103941,
-.120622,.115,
-.113623,.124995,
-.104995,.133623,
-.095,.140622,
-.083941,.145778,
-.072155,.148937,
-.06,.15,
.06,.15,
.072155,.148937,
.083941,.145778,
.095,.140622,
.104995,.133623,
.113623,.124995,
.120622,.115,
.125778,.103941,
.128937,.092155,
.13,.08,
.13,-.08,
.128937,-.092155,
.125778,-.103941,
.120622,-.115,
.113623,-.124995,
.104995,-.133623,
.095,-.140622,
.083941,-.145778,
.072155,-.148937,
.06,-.15,
-.06,-.15,
-.072155,-.148937,
-.083941,-.145778,
-.095,-.140622,
-.104995,-.133623,
-.113623,-.124995,
-.120622,-.115,
-.125778,-.103941,
-.128937,-.092155,
-.13,-.08,
0.0*
%
%ADD41MACRO41*%
%AMMACRO36*
4,1,40,-.08,.13,
.08,.13,
.092155,.128937,
.103941,.125778,
.115,.120622,
.124995,.113623,
.133623,.104995,
.140622,.095,
.145778,.083941,
.148937,.072155,
.15,.06,
.15,-.06,
.148937,-.072155,
.145778,-.083941,
.140622,-.095,
.133623,-.104995,
.124995,-.113623,
.115,-.120622,
.103941,-.125778,
.092155,-.128937,
.08,-.13,
-.08,-.13,
-.092155,-.128937,
-.103941,-.125778,
-.115,-.120622,
-.124995,-.113623,
-.133623,-.104995,
-.140622,-.095,
-.145778,-.083941,
-.148937,-.072155,
-.15,-.06,
-.15,.06,
-.148937,.072155,
-.145778,.083941,
-.140622,.095,
-.133623,.104995,
-.124995,.113623,
-.115,.120622,
-.103941,.125778,
-.092155,.128937,
-.08,.13,
0.0*
%
%ADD36MACRO36*%
%AMMACRO14*
4,1,40,.275,-.125,
-.275,-.125,
-.283682,-.12424,
-.292101,-.121985,
-.3,-.118301,
-.307139,-.113302,
-.313302,-.107139,
-.318301,-.1,
-.321985,-.092101,
-.32424,-.083682,
-.325,-.075,
-.325,.075,
-.32424,.083682,
-.321985,.092101,
-.318301,.1,
-.313302,.107139,
-.307139,.113302,
-.3,.118301,
-.292101,.121985,
-.283682,.12424,
-.275,.125,
.275,.125,
.283682,.12424,
.292101,.121985,
.3,.118301,
.307139,.113302,
.313302,.107139,
.318301,.1,
.321985,.092101,
.32424,.083682,
.325,.075,
.325,-.075,
.32424,-.083682,
.321985,-.092101,
.318301,-.1,
.313302,-.107139,
.307139,-.113302,
.3,-.118301,
.292101,-.121985,
.283682,-.12424,
.275,-.125,
0.0*
%
%ADD14MACRO14*%
%ADD46C,.22*%
%AMMACRO45*
4,1,40,-.21,.225,
.21,.225,
.225628,.223633,
.240782,.219572,
.255,.212942,
.267851,.203944,
.278944,.192851,
.287942,.18,
.294572,.165782,
.298633,.150628,
.3,.135,
.3,-.135,
.298633,-.150628,
.294572,-.165782,
.287942,-.18,
.278944,-.192851,
.267851,-.203944,
.255,-.212942,
.240782,-.219572,
.225628,-.223633,
.21,-.225,
-.21,-.225,
-.225628,-.223633,
-.240782,-.219572,
-.255,-.212942,
-.267851,-.203944,
-.278944,-.192851,
-.287942,-.18,
-.294572,-.165782,
-.298633,-.150628,
-.3,-.135,
-.3,.135,
-.298633,.150628,
-.294572,.165782,
-.287942,.18,
-.278944,.192851,
-.267851,.203944,
-.255,.212942,
-.240782,.219572,
-.225628,.223633,
-.21,.225,
0.0*
%
%ADD45MACRO45*%
%AMMACRO31*
4,1,40,-.3,-.285,
-.3,.285,
-.297721,.311047,
-.290954,.336303,
-.279904,.36,
-.264907,.381418,
-.246418,.399907,
-.225,.414904,
-.201303,.425954,
-.176047,.432721,
-.15,.435,
.15,.435,
.176047,.432721,
.201303,.425954,
.225,.414904,
.246418,.399907,
.264907,.381418,
.279904,.36,
.290954,.336303,
.297721,.311047,
.3,.285,
.3,-.285,
.297721,-.311047,
.290954,-.336303,
.279904,-.36,
.264907,-.381418,
.246418,-.399907,
.225,-.414904,
.201303,-.425954,
.176047,-.432721,
.15,-.435,
-.15,-.435,
-.176047,-.432721,
-.201303,-.425954,
-.225,-.414904,
-.246418,-.399907,
-.264907,-.381418,
-.279904,-.36,
-.290954,-.336303,
-.297721,-.311047,
-.3,-.285,
0.0*
%
%ADD31MACRO31*%
%AMMACRO39*
4,1,40,-.285,.3,
.285,.3,
.311047,.297721,
.336303,.290954,
.36,.279904,
.381418,.264907,
.399907,.246418,
.414904,.225,
.425954,.201303,
.432721,.176047,
.435,.15,
.435,-.15,
.432721,-.176047,
.425954,-.201303,
.414904,-.225,
.399907,-.246418,
.381418,-.264907,
.36,-.279904,
.336303,-.290954,
.311047,-.297721,
.285,-.3,
-.285,-.3,
-.311047,-.297721,
-.336303,-.290954,
-.36,-.279904,
-.381418,-.264907,
-.399907,-.246418,
-.414904,-.225,
-.425954,-.201303,
-.432721,-.176047,
-.435,-.15,
-.435,.15,
-.432721,.176047,
-.425954,.201303,
-.414904,.225,
-.399907,.246418,
-.381418,.264907,
-.36,.279904,
-.336303,.290954,
-.311047,.297721,
-.285,.3,
0.0*
%
%ADD39MACRO39*%
%AMMACRO22*
4,1,40,-.15,.435,
.15,.435,
.176047,.432721,
.201303,.425954,
.225,.414904,
.246418,.399907,
.264907,.381418,
.279904,.36,
.290954,.336303,
.297721,.311047,
.3,.285,
.3,-.285,
.297721,-.311047,
.290954,-.336303,
.279904,-.36,
.264907,-.381418,
.246418,-.399907,
.225,-.414904,
.201303,-.425954,
.176047,-.432721,
.15,-.435,
-.15,-.435,
-.176047,-.432721,
-.201303,-.425954,
-.225,-.414904,
-.246418,-.399907,
-.264907,-.381418,
-.279904,-.36,
-.290954,-.336303,
-.297721,-.311047,
-.3,-.285,
-.3,.285,
-.297721,.311047,
-.290954,.336303,
-.279904,.36,
-.264907,.381418,
-.246418,.399907,
-.225,.414904,
-.201303,.425954,
-.176047,.432721,
-.15,.435,
0.0*
%
%ADD22MACRO22*%
%AMMACRO43*
4,1,40,-.175,-.2988,
-.175,.2988,
-.173842,.312032,
-.170405,.324862,
-.164791,.3369,
-.157173,.34778,
-.14778,.357173,
-.1369,.364791,
-.124862,.370405,
-.112032,.373842,
-.0988,.375,
.0988,.375,
.112032,.373842,
.124862,.370405,
.1369,.364791,
.14778,.357173,
.157173,.34778,
.164791,.3369,
.170405,.324862,
.173842,.312032,
.175,.2988,
.175,-.2988,
.173842,-.312032,
.170405,-.324862,
.164791,-.3369,
.157173,-.34778,
.14778,-.357173,
.1369,-.364791,
.124862,-.370405,
.112032,-.373842,
.0988,-.375,
-.0988,-.375,
-.112032,-.373842,
-.124862,-.370405,
-.1369,-.364791,
-.14778,-.357173,
-.157173,-.34778,
-.164791,-.3369,
-.170405,-.324862,
-.173842,-.312032,
-.175,-.2988,
0.0*
%
%ADD43MACRO43*%
%ADD10C,.4064*%
%AMMACRO33*
4,1,40,.205,.16,
.205,-.16,
.203481,-.177365,
.198969,-.194202,
.191603,-.21,
.181604,-.224279,
.169279,-.236604,
.155,-.246603,
.139202,-.253969,
.122365,-.258481,
.105,-.26,
-.105,-.26,
-.122365,-.258481,
-.139202,-.253969,
-.155,-.246603,
-.169279,-.236604,
-.181604,-.224279,
-.191603,-.21,
-.198969,-.194202,
-.203481,-.177365,
-.205,-.16,
-.205,.16,
-.203481,.177365,
-.198969,.194202,
-.191603,.21,
-.181604,.224279,
-.169279,.236604,
-.155,.246603,
-.139202,.253969,
-.122365,.258481,
-.105,.26,
.105,.26,
.122365,.258481,
.139202,.253969,
.155,.246603,
.169279,.236604,
.181604,.224279,
.191603,.21,
.198969,.194202,
.203481,.177365,
.205,.16,
0.0*
%
%ADD33MACRO33*%
%AMMACRO30*
4,1,40,.16,-.205,
-.16,-.205,
-.177365,-.203481,
-.194202,-.198969,
-.21,-.191603,
-.224279,-.181604,
-.236604,-.169279,
-.246603,-.155,
-.253969,-.139202,
-.258481,-.122365,
-.26,-.105,
-.26,.105,
-.258481,.122365,
-.253969,.139202,
-.246603,.155,
-.236604,.169279,
-.224279,.181604,
-.21,.191603,
-.194202,.198969,
-.177365,.203481,
-.16,.205,
.16,.205,
.177365,.203481,
.194202,.198969,
.21,.191603,
.224279,.181604,
.236604,.169279,
.246603,.155,
.253969,.139202,
.258481,.122365,
.26,.105,
.26,-.105,
.258481,-.122365,
.253969,-.139202,
.246603,-.155,
.236604,-.169279,
.224279,-.181604,
.21,-.191603,
.194202,-.198969,
.177365,-.203481,
.16,-.205,
0.0*
%
%ADD30MACRO30*%
%AMMACRO38*
4,1,40,-.1,-.11,
-.1,.11,
-.099392,.116946,
-.097588,.123681,
-.094641,.13,
-.090642,.135712,
-.085712,.140642,
-.08,.144641,
-.073681,.147588,
-.066946,.149392,
-.06,.15,
.06,.15,
.066946,.149392,
.073681,.147588,
.08,.144641,
.085712,.140642,
.090642,.135712,
.094641,.13,
.097588,.123681,
.099392,.116946,
.1,.11,
.1,-.11,
.099392,-.116946,
.097588,-.123681,
.094641,-.13,
.090642,-.135712,
.085712,-.140642,
.08,-.144641,
.073681,-.147588,
.066946,-.149392,
.06,-.15,
-.06,-.15,
-.066946,-.149392,
-.073681,-.147588,
-.08,-.144641,
-.085712,-.140642,
-.090642,-.135712,
-.094641,-.13,
-.097588,-.123681,
-.099392,-.116946,
-.1,-.11,
0.0*
%
%ADD38MACRO38*%
%AMMACRO47*
4,1,40,.2,-.235,
-.2,-.235,
-.217365,-.233481,
-.234202,-.228969,
-.25,-.221603,
-.264279,-.211604,
-.276604,-.199279,
-.286603,-.185,
-.293969,-.169202,
-.298481,-.152365,
-.3,-.135,
-.3,.135,
-.298481,.152365,
-.293969,.169202,
-.286603,.185,
-.276604,.199279,
-.264279,.211604,
-.25,.221603,
-.234202,.228969,
-.217365,.233481,
-.2,.235,
.2,.235,
.217365,.233481,
.234202,.228969,
.25,.221603,
.264279,.211604,
.276604,.199279,
.286603,.185,
.293969,.169202,
.298481,.152365,
.3,.135,
.3,-.135,
.298481,-.152365,
.293969,-.169202,
.286603,-.185,
.276604,-.199279,
.264279,-.211604,
.25,-.221603,
.234202,-.228969,
.217365,-.233481,
.2,-.235,
0.0*
%
%ADD47MACRO47*%
%AMMACRO42*
4,1,40,.13,.08,
.13,-.08,
.128937,-.092155,
.125778,-.103941,
.120622,-.115,
.113623,-.124995,
.104995,-.133623,
.095,-.140622,
.083941,-.145778,
.072155,-.148937,
.06,-.15,
-.06,-.15,
-.072155,-.148937,
-.083941,-.145778,
-.095,-.140622,
-.104995,-.133623,
-.113623,-.124995,
-.120622,-.115,
-.125778,-.103941,
-.128937,-.092155,
-.13,-.08,
-.13,.08,
-.128937,.092155,
-.125778,.103941,
-.120622,.115,
-.113623,.124995,
-.104995,.133623,
-.095,.140622,
-.083941,.145778,
-.072155,.148937,
-.06,.15,
.06,.15,
.072155,.148937,
.083941,.145778,
.095,.140622,
.104995,.133623,
.113623,.124995,
.120622,.115,
.125778,.103941,
.128937,.092155,
.13,.08,
0.0*
%
%ADD42MACRO42*%
%AMMACRO37*
4,1,40,.08,-.13,
-.08,-.13,
-.092155,-.128937,
-.103941,-.125778,
-.115,-.120622,
-.124995,-.113623,
-.133623,-.104995,
-.140622,-.095,
-.145778,-.083941,
-.148937,-.072155,
-.15,-.06,
-.15,.06,
-.148937,.072155,
-.145778,.083941,
-.140622,.095,
-.133623,.104995,
-.124995,.113623,
-.115,.120622,
-.103941,.125778,
-.092155,.128937,
-.08,.13,
.08,.13,
.092155,.128937,
.103941,.125778,
.115,.120622,
.124995,.113623,
.133623,.104995,
.140622,.095,
.145778,.083941,
.148937,.072155,
.15,.06,
.15,-.06,
.148937,-.072155,
.145778,-.083941,
.140622,-.095,
.133623,-.104995,
.124995,-.113623,
.115,-.120622,
.103941,-.125778,
.092155,-.128937,
.08,-.13,
0.0*
%
%ADD37MACRO37*%
%ADD23C,2.3*%
%AMMACRO27*
4,1,40,.3,.285,
.3,-.285,
.297721,-.311047,
.290954,-.336303,
.279904,-.36,
.264907,-.381418,
.246418,-.399907,
.225,-.414904,
.201303,-.425954,
.176047,-.432721,
.15,-.435,
-.15,-.435,
-.176047,-.432721,
-.201303,-.425954,
-.225,-.414904,
-.246418,-.399907,
-.264907,-.381418,
-.279904,-.36,
-.290954,-.336303,
-.297721,-.311047,
-.3,-.285,
-.3,.285,
-.297721,.311047,
-.290954,.336303,
-.279904,.36,
-.264907,.381418,
-.246418,.399907,
-.225,.414904,
-.201303,.425954,
-.176047,.432721,
-.15,.435,
.15,.435,
.176047,.432721,
.201303,.425954,
.225,.414904,
.246418,.399907,
.264907,.381418,
.279904,.36,
.290954,.336303,
.297721,.311047,
.3,.285,
0.0*
%
%ADD27MACRO27*%
%AMMACRO26*
4,1,40,.15,-.435,
-.15,-.435,
-.176047,-.432721,
-.201303,-.425954,
-.225,-.414904,
-.246418,-.399907,
-.264907,-.381418,
-.279904,-.36,
-.290954,-.336303,
-.297721,-.311047,
-.3,-.285,
-.3,.285,
-.297721,.311047,
-.290954,.336303,
-.279904,.36,
-.264907,.381418,
-.246418,.399907,
-.225,.414904,
-.201303,.425954,
-.176047,.432721,
-.15,.435,
.15,.435,
.176047,.432721,
.201303,.425954,
.225,.414904,
.246418,.399907,
.264907,.381418,
.279904,.36,
.290954,.336303,
.297721,.311047,
.3,.285,
.3,-.285,
.297721,-.311047,
.290954,-.336303,
.279904,-.36,
.264907,-.381418,
.246418,-.399907,
.225,-.414904,
.201303,-.425954,
.176047,-.432721,
.15,-.435,
0.0*
%
%ADD26MACRO26*%
%ADD25C,2.4*%
%AMMACRO19*
4,1,40,.285,-.3,
-.285,-.3,
-.311047,-.297721,
-.336303,-.290954,
-.36,-.279904,
-.381418,-.264907,
-.399907,-.246418,
-.414904,-.225,
-.425954,-.201303,
-.432721,-.176047,
-.435,-.15,
-.435,.15,
-.432721,.176047,
-.425954,.201303,
-.414904,.225,
-.399907,.246418,
-.381418,.264907,
-.36,.279904,
-.336303,.290954,
-.311047,.297721,
-.285,.3,
.285,.3,
.311047,.297721,
.336303,.290954,
.36,.279904,
.381418,.264907,
.399907,.246418,
.414904,.225,
.425954,.201303,
.432721,.176047,
.435,.15,
.435,-.15,
.432721,-.176047,
.425954,-.201303,
.414904,-.225,
.399907,-.246418,
.381418,-.264907,
.36,-.279904,
.336303,-.290954,
.311047,-.297721,
.285,-.3,
0.0*
%
%ADD19MACRO19*%
%ADD17C,1.5*%
%AMMACRO12*
4,1,40,.435,.15,
.435,-.15,
.432721,-.176047,
.425954,-.201303,
.414904,-.225,
.399907,-.246418,
.381418,-.264907,
.36,-.279904,
.336303,-.290954,
.311047,-.297721,
.285,-.3,
-.285,-.3,
-.311047,-.297721,
-.336303,-.290954,
-.36,-.279904,
-.381418,-.264907,
-.399907,-.246418,
-.414904,-.225,
-.425954,-.201303,
-.432721,-.176047,
-.435,-.15,
-.435,.15,
-.432721,.176047,
-.425954,.201303,
-.414904,.225,
-.399907,.246418,
-.381418,.264907,
-.36,.279904,
-.336303,.290954,
-.311047,.297721,
-.285,.3,
.285,.3,
.311047,.297721,
.336303,.290954,
.36,.279904,
.381418,.264907,
.399907,.246418,
.414904,.225,
.425954,.201303,
.432721,.176047,
.435,.15,
0.0*
%
%ADD12MACRO12*%
%AMMACRO15*
4,1,40,-.125,-.275,
-.125,.275,
-.12424,.283682,
-.121985,.292101,
-.118301,.3,
-.113302,.307139,
-.107139,.313302,
-.1,.318301,
-.092101,.321985,
-.083682,.32424,
-.075,.325,
.075,.325,
.083682,.32424,
.092101,.321985,
.1,.318301,
.107139,.313302,
.113302,.307139,
.118301,.3,
.121985,.292101,
.12424,.283682,
.125,.275,
.125,-.275,
.12424,-.283682,
.121985,-.292101,
.118301,-.3,
.113302,-.307139,
.107139,-.313302,
.1,-.318301,
.092101,-.321985,
.083682,-.32424,
.075,-.325,
-.075,-.325,
-.083682,-.32424,
-.092101,-.321985,
-.1,-.318301,
-.107139,-.313302,
-.113302,-.307139,
-.118301,-.3,
-.121985,-.292101,
-.12424,-.283682,
-.125,-.275,
0.0*
%
%ADD15MACRO15*%
%AMMACRO44*
4,1,40,.34,.3,
.34,-.3,
.337721,-.326047,
.330954,-.351303,
.319904,-.375,
.304907,-.396418,
.286418,-.414907,
.265,-.429904,
.241303,-.440954,
.216047,-.447721,
.19,-.45,
-.19,-.45,
-.216047,-.447721,
-.241303,-.440954,
-.265,-.429904,
-.286418,-.414907,
-.304907,-.396418,
-.319904,-.375,
-.330954,-.351303,
-.337721,-.326047,
-.34,-.3,
-.34,.3,
-.337721,.326047,
-.330954,.351303,
-.319904,.375,
-.304907,.396418,
-.286418,.414907,
-.265,.429904,
-.241303,.440954,
-.216047,.447721,
-.19,.45,
.19,.45,
.216047,.447721,
.241303,.440954,
.265,.429904,
.286418,.414907,
.304907,.396418,
.319904,.375,
.330954,.351303,
.337721,.326047,
.34,.3,
0.0*
%
%ADD44MACRO44*%
%AMMACRO40*
4,1,40,-.275,.125,
.275,.125,
.283682,.12424,
.292101,.121985,
.3,.118301,
.307139,.113302,
.313302,.107139,
.318301,.1,
.321985,.092101,
.32424,.083682,
.325,.075,
.325,-.075,
.32424,-.083682,
.321985,-.092101,
.318301,-.1,
.313302,-.107139,
.307139,-.113302,
.3,-.118301,
.292101,-.121985,
.283682,-.12424,
.275,-.125,
-.275,-.125,
-.283682,-.12424,
-.292101,-.121985,
-.3,-.118301,
-.307139,-.113302,
-.313302,-.107139,
-.318301,-.1,
-.321985,-.092101,
-.32424,-.083682,
-.325,-.075,
-.325,.075,
-.32424,.083682,
-.321985,.092101,
-.318301,.1,
-.313302,.107139,
-.307139,.113302,
-.3,.118301,
-.292101,.121985,
-.283682,.12424,
-.275,.125,
0.0*
%
%ADD40MACRO40*%
%ADD11C,1.016*%
%ADD28C,1.55*%
%ADD20C,1.65*%
%ADD18R,1.5X1.5*%
%ADD24R,1.55X1.55*%
%ADD13R,2.45X2.45*%
%ADD21R,1.65X1.65*%
%AMMACRO35*
4,1,40,.1,.11,
.1,-.11,
.099392,-.116946,
.097588,-.123681,
.094641,-.13,
.090642,-.135712,
.085712,-.140642,
.08,-.144641,
.073681,-.147588,
.066946,-.149392,
.06,-.15,
-.06,-.15,
-.066946,-.149392,
-.073681,-.147588,
-.08,-.144641,
-.085712,-.140642,
-.090642,-.135712,
-.094641,-.13,
-.097588,-.123681,
-.099392,-.116946,
-.1,-.11,
-.1,.11,
-.099392,.116946,
-.097588,.123681,
-.094641,.13,
-.090642,.135712,
-.085712,.140642,
-.08,.144641,
-.073681,.147588,
-.066946,.149392,
-.06,.15,
.06,.15,
.066946,.149392,
.073681,.147588,
.08,.144641,
.085712,.140642,
.090642,.135712,
.094641,.13,
.097588,.123681,
.099392,.116946,
.1,.11,
0.0*
%
%ADD35MACRO35*%
%ADD48C,.2*%
%ADD49C,.122*%
%ADD50C,.114*%
%ADD51C,.145*%
%ADD52C,.254*%
%ADD53C,.08*%
G75*
%LPD*%
G75*
G36*
G01X3713000Y-2245000D02*
X3758000D01*
X3808000Y-2295000D01*
Y-2310000D01*
X3862550Y-2364550D01*
X3862860Y-2365980D01*
G03X3878000Y-2388720I36639J7984D01*
G01Y-2420000D01*
X3868000Y-2430000D01*
X3853000D01*
X3788000Y-2365000D01*
X3759830D01*
X3759120Y-2364790D01*
G03X3753000Y-2363880I-6132J-20208D01*
G01X3651880D01*
X3648000Y-2360000D01*
Y-2328720D01*
G03X3664000Y-2298000I-21491J30720D01*
G01Y-2294000D01*
X3713000Y-2245000D01*
G37*
G54D10*
X-942000Y-1795000D03*
X-952000Y-1730000D03*
Y-1660000D03*
X-892000Y-390000D03*
Y-280000D03*
X-582000Y-2550000D03*
X-767000Y-2215000D03*
X-614000Y-2260000D03*
X-782000Y-2130000D03*
X-784000Y-2060000D03*
X-612000Y-2000000D03*
X-852000Y-2015000D03*
Y-1850000D03*
X-844000Y-1930000D03*
X-784000Y-1990000D03*
X-802000Y-1780000D03*
X-882000D03*
X-732000Y-1540000D03*
Y-1270000D03*
X-682000Y-1020000D03*
X-882000Y-910000D03*
X-852000Y-180000D03*
X-812000Y-280000D03*
X-702000Y1470000D03*
X-612000Y1560000D03*
X-862000Y1690000D03*
X-822000Y1600000D03*
X-812000Y3820000D03*
Y3740000D03*
X-712000Y4040000D03*
X-722000Y3960000D03*
X-872000Y3900000D03*
X-383000Y-3121000D03*
X-492000Y-2740000D03*
X-512000Y-2100000D03*
X-537000Y-2330000D03*
X-302000Y-2210000D03*
X-544000Y-2260000D03*
X-404000D03*
X-474000D03*
X-512000Y-1900000D03*
X-412000Y-2000000D03*
X-512000D03*
X-364000Y-1740000D03*
X-434000D03*
X-237000Y-1490000D03*
X-372000Y-1485000D03*
X-482000Y-1590000D03*
X-307000Y-1430000D03*
X-302000Y-1340000D03*
X-312000Y225000D03*
X-422000Y200000D03*
X-242000Y140000D03*
X-432000Y330000D03*
X-467000Y415000D03*
X-402000Y405000D03*
X-422000Y470000D03*
X-442000Y880000D03*
X-492000Y1490000D03*
X-232000Y1650000D03*
X-257000Y4035000D03*
X-362000Y3970000D03*
X-482000Y4040000D03*
X-552000Y4170000D03*
X-532000Y4430000D03*
X-272000Y4460000D03*
X-432000D03*
X-352000D03*
X-162000Y-2410000D03*
X-222000Y-2370000D03*
X-162000Y-1830000D03*
Y-830000D03*
X-137000Y555000D03*
X-172640Y650000D03*
X-112000D03*
X-202000Y1169870D03*
X-217000Y3780000D03*
X-222000Y3705000D03*
X-137000Y3795000D03*
X-12000Y4030000D03*
X-137000Y3975000D03*
X-177000Y3865000D03*
X-172000Y4420000D03*
X-82000Y4430000D03*
X18000Y4460000D03*
X98000D03*
X378000Y-3130000D03*
X379000Y-2435000D03*
X125000D03*
X408000Y-1590000D03*
X398000Y30000D03*
X428000Y850000D03*
X193000Y3775000D03*
X248000Y3705000D03*
X398000Y3660000D03*
X208000Y4035000D03*
X108000Y3975000D03*
X303000D03*
X368000Y4430000D03*
X178000Y4460000D03*
X628000Y-3130000D03*
X508000D03*
X633000Y-2435000D03*
X458000Y-1840640D03*
Y-1750000D03*
X568000Y-1260000D03*
X668000Y-750000D03*
Y-410000D03*
Y-170000D03*
Y-70000D03*
X458000Y560000D03*
X518000Y480000D03*
X748000D03*
X628000Y510000D03*
X498000Y850000D03*
X698000Y710000D03*
X558000Y1070000D03*
X468000Y1820000D03*
X588000Y1790000D03*
X598000Y2060000D03*
X708000Y1940000D03*
X588000Y2460000D03*
Y2370000D03*
X468000Y2630000D03*
X448000Y3865000D03*
X628000Y4460000D03*
X468000D03*
X548000D03*
X818000Y-3050000D03*
X887000Y-2435000D03*
X818000Y-864860D03*
X808000Y-533500D03*
X1043000Y105000D03*
X1008000Y160000D03*
X868000D03*
X918000Y470000D03*
X878000Y290000D03*
X768000Y250000D03*
X828000Y1220000D03*
X878000Y1290000D03*
X798000Y1650000D03*
X883000Y2000000D03*
X818000Y4430000D03*
X1078000Y4460000D03*
X918000D03*
X998000D03*
X1338000Y-3050000D03*
X1138000Y-3130000D03*
X1395000Y-2435000D03*
X1141000D03*
X1248000Y-2290000D03*
X1298000Y-1360000D03*
X1198000Y-740000D03*
X1358000Y-420000D03*
Y-660000D03*
Y-550000D03*
X1318000Y-270000D03*
X1358000Y80000D03*
Y-10000D03*
Y400000D03*
X1318000Y990000D03*
X1308000Y1780000D03*
X1278000Y1600000D03*
X1398000Y1780000D03*
X1113000Y3755000D03*
Y3820000D03*
X1388000Y3960000D03*
X1246000Y4080000D03*
X1170500Y4467500D03*
X1158000Y4340000D03*
X1396000Y4470000D03*
X1649000Y-2435000D03*
X1478000Y-1590000D03*
X1648000Y-1270000D03*
X1728000Y-680000D03*
X1618000Y-270000D03*
X1738000Y-140000D03*
Y-240000D03*
X1638000Y-140000D03*
X1738000Y170000D03*
Y-40000D03*
X1638000D03*
X1428000Y190000D03*
X1638000Y60000D03*
X1738000D03*
X1658000Y380000D03*
X1738000Y540000D03*
X1568000Y490000D03*
X1738000Y260000D03*
X1638000Y600000D03*
X1668000Y1350000D03*
X1458000Y1650000D03*
X1538000Y2220000D03*
X1673050Y2662360D03*
Y2742360D03*
Y2592360D03*
X1703050Y2882360D03*
X1642180Y3228860D03*
X1503000Y3830000D03*
X1652180Y3678860D03*
X1455830Y3907750D03*
X1478000Y4120000D03*
X1598000D03*
X1666000Y4040000D03*
X1728000D03*
X1466000Y4510000D03*
X1598000Y4240000D03*
X1556000Y4380000D03*
X1646000Y4450000D03*
Y4380000D03*
X1556000Y4450000D03*
X1903000Y-2435000D03*
X1788000Y-930000D03*
Y-440000D03*
X2038000Y-540000D03*
X1998000Y-460000D03*
X1868000Y-440000D03*
X2038000Y-90000D03*
Y-400000D03*
X1838000Y-240000D03*
X1748000Y-340000D03*
X1938000D03*
X1838000Y-140000D03*
Y160000D03*
X2038000Y10000D03*
X1813000Y260000D03*
X1938000Y550000D03*
X1998000Y400000D03*
X1838000Y460000D03*
X1928000Y360000D03*
X2058000Y340000D03*
X1838000Y360000D03*
X2031400Y500000D03*
X1838000Y620000D03*
X2038000Y2110000D03*
X2028000Y2020000D03*
X2048000Y2530000D03*
X1938000Y2520000D03*
X2043050Y2792360D03*
X1853050Y2882360D03*
X1773050D03*
X2058000Y3080000D03*
X2062180Y3228860D03*
X2058000Y3540000D03*
X1746000Y4160000D03*
X1843240Y4430230D03*
X1748000Y4279360D03*
Y4340000D03*
X1778000Y4570000D03*
X2078000Y-1820000D03*
X2363000Y-1485000D03*
X2228000Y-1530000D03*
X2363000Y-1365000D03*
X2358000Y-1190000D03*
X2368000Y-760000D03*
X2128000Y-970000D03*
X2338000Y-410000D03*
X2238000Y-540000D03*
X2138000Y-630000D03*
X2273000Y-340000D03*
X2388000D03*
X2138000D03*
X2188000Y-140000D03*
X2238000Y-90000D03*
X2138000D03*
X2088000Y60000D03*
X2188000Y10000D03*
X2338000Y360000D03*
X2238000Y430000D03*
Y340000D03*
Y260000D03*
X2158000Y340000D03*
X2338000Y260000D03*
X2138000Y430000D03*
Y510000D03*
X2378000Y700000D03*
X2098000Y900000D03*
X2338000Y920000D03*
X2333000Y2005000D03*
X2208000Y2210000D03*
X2183050Y2592360D03*
X2258000Y3110000D03*
X2218000Y3270000D03*
X2392180Y3228860D03*
X2072180Y3678860D03*
X2468000Y-3364000D03*
X2668000Y-2515000D03*
X2693000Y-2355000D03*
X2488000Y-2200000D03*
X2493000Y-1490000D03*
X2418000Y-1430000D03*
X2493000Y-1365000D03*
X2433000Y-520000D03*
X2608000Y-230000D03*
X2418000D03*
X2498640Y160000D03*
X2438000D03*
X2498000Y80000D03*
X2438000Y260000D03*
X2448000Y700000D03*
X2638000Y890000D03*
X2558000Y1520000D03*
X2658000Y1400000D03*
X2418000Y1440000D03*
X2678000Y1330000D03*
X2558000Y1440000D03*
X2468000Y1360000D03*
X2508000Y1250000D03*
X2473000Y2025000D03*
X2488000Y3690000D03*
X2708000Y4140000D03*
X2488000D03*
X2898000Y-3510000D03*
X2970500Y-3095000D03*
X3013000Y-3155000D03*
X2848000Y-3215000D03*
X2924000Y-3240000D03*
X2773000Y-3290000D03*
X2768000Y-2735000D03*
X2903000Y-3030000D03*
X3054720D03*
X2828000Y-2575000D03*
X2968000Y-2395000D03*
X3008000Y-2605000D03*
X2768000Y-2397500D03*
X2778000Y-2060000D03*
X3041440Y-2182600D03*
X3051440Y-1952600D03*
X2928000Y-1820000D03*
X3041440Y-2042600D03*
X2833000Y-640000D03*
X2868000Y-540000D03*
X3038000Y350000D03*
X2958000Y430000D03*
X2738000Y1060000D03*
X2908000Y1020000D03*
X2753000Y1345000D03*
X2758000Y1470000D03*
X2748000Y1280000D03*
X2758000Y1650000D03*
X2898000Y2020000D03*
X2968000Y2700000D03*
X2812180Y3228860D03*
Y3678860D03*
X2878000Y3900000D03*
X3058000Y-3605000D03*
X3215500Y-3090000D03*
X3263000Y-3245000D03*
X3178000Y-3160000D03*
X3283000Y-3310000D03*
X3173000Y-2850000D03*
X3133000Y-3030000D03*
X3103000Y-2850000D03*
X3223000Y-2625000D03*
X3188500Y-2690000D03*
X3074720Y-2625000D03*
X3153000D03*
X3283000Y-2515000D03*
X3261440Y-2182600D03*
X3178000Y-1890000D03*
X3261440Y-2042600D03*
X3118000Y-740000D03*
X3318700Y-529300D03*
X3368000Y-130000D03*
X3338000Y555000D03*
X3104420Y1120000D03*
X3273000Y2005000D03*
X3283000Y2270000D03*
X3218000Y2430000D03*
X3178000Y2310000D03*
X3279920Y2427450D03*
X3359920D03*
X3339920Y2697450D03*
Y2637450D03*
X3169920Y2717450D03*
Y2647450D03*
Y2577450D03*
X3278000Y2920000D03*
X3168000Y3330000D03*
X3271180Y3364550D03*
X3131180Y3424550D03*
X3328000Y3780000D03*
X3176240Y3765260D03*
X3356240Y4075260D03*
Y4145260D03*
X3366240Y4325260D03*
X3593000Y-3155000D03*
X3598000Y-3235000D03*
X3388500Y-2695000D03*
X3643000Y-2575000D03*
X3669980Y-2335010D03*
X3660200Y-2244850D03*
X3523000Y-2290000D03*
X3418000Y-2200000D03*
X3636500Y-2042650D03*
X3608000Y-1330000D03*
X3593000Y-760000D03*
X3708000Y-810000D03*
X3648000Y-850000D03*
X3428000Y-595000D03*
Y-530000D03*
X3578000Y140000D03*
X3388000Y630000D03*
X3448000Y1740000D03*
X3608000Y2030000D03*
X3628000Y2200000D03*
X3518000Y2350000D03*
X3508000Y2430000D03*
X3428000D03*
X3399920Y2697450D03*
Y2637450D03*
X3569920Y2657450D03*
Y2587450D03*
X3498000Y2860000D03*
X3481180Y3144550D03*
X3478000Y3070000D03*
X3388000Y2960000D03*
X3628000Y2990000D03*
X3676680Y3029610D03*
X3533000Y3300000D03*
X3428000Y3405000D03*
X3533000Y3505000D03*
Y3405000D03*
X3633000D03*
X3558000Y3660000D03*
X3398000Y3780000D03*
X3696240Y3775260D03*
X3658000Y4105000D03*
Y3965000D03*
X3428000Y4120000D03*
X3646240Y4295260D03*
X3698000Y4350000D03*
X3728000Y-3370000D03*
X3812490Y-2782750D03*
X3948000Y-2410000D03*
X3848000D03*
X3733000Y-2589250D03*
X4002490Y-2642750D03*
X3738000Y-2265000D03*
X3858000Y-2290000D03*
X3848000Y-2120000D03*
X4036500Y-1912650D03*
X3758000Y-1730000D03*
X3913000Y-1090000D03*
X3768000Y-785000D03*
X3833000Y-880000D03*
X4013000Y-1055000D03*
X3748000Y-890000D03*
X3948000Y-960000D03*
Y-1030000D03*
X3878000D03*
X3798000Y2430000D03*
X4039920Y2427450D03*
X3879920D03*
X3959920D03*
X3939920Y2697450D03*
X3999920D03*
Y2637450D03*
X3939920D03*
X3769920Y2647450D03*
Y2577450D03*
X3839920Y2807450D03*
X3769920Y2787450D03*
Y2717450D03*
X3838000Y2880000D03*
Y2960000D03*
X3734830Y3046830D03*
X3918000Y3087800D03*
X3778000Y3240000D03*
X3988000Y3390000D03*
X4018000Y3500000D03*
X3958000Y3240000D03*
X3878000Y3250000D03*
X3798000Y3670000D03*
X3878000D03*
X3968000Y3840000D03*
X3973000Y4030000D03*
X3908000Y3860000D03*
X3758000Y4283280D03*
X3956240Y4205260D03*
Y4275260D03*
X4242490Y-2922750D03*
X4052490D03*
X4122490Y-2822750D03*
X4262490Y-2532750D03*
X4096500Y-2192650D03*
Y-2042650D03*
X4323000Y-515000D03*
X4328000Y-450000D03*
X4219920Y2507450D03*
X4119920Y2427450D03*
X4169920Y2797450D03*
X4099920D03*
X4169920Y2657450D03*
Y2587450D03*
X4268000Y2550000D03*
X4169920Y2727450D03*
X4118000Y3060000D03*
X4048000Y3110000D03*
X4068000Y2930000D03*
X4238000Y3060000D03*
X4068000Y3465000D03*
X4158000Y3210000D03*
X4088000Y3220000D03*
X4158000Y3450000D03*
Y3360000D03*
X4353000Y3800000D03*
X4248000Y3780000D03*
X4256240Y4055260D03*
X4233000Y3905000D03*
X4258000Y3985000D03*
X4178000Y4310000D03*
X4253000D03*
X4178000Y4440000D03*
X4423000Y-2740000D03*
X4398000Y-2390000D03*
X4428000Y-2080000D03*
X4483000Y-1135000D03*
X4428000Y-1270000D03*
X4443000Y-830000D03*
X4388000Y-730000D03*
X4398000Y1480000D03*
X4408000Y2430000D03*
X4418000Y3320000D03*
X4408000Y3260000D03*
X4738000Y-2460000D03*
X4828000Y1990000D03*
X4968000Y2550000D03*
Y3070000D03*
X4983000Y3295000D03*
X4968000Y3225000D03*
X4993000Y3365000D03*
X4968000Y3530000D03*
X5003000Y3620000D03*
X4918000Y3570000D03*
X4968000Y4350000D03*
X5038000Y-2160000D03*
Y2820000D03*
Y2910000D03*
X5068000Y3470000D03*
X5071580Y3380000D03*
G54D20*
X0Y-2286000D03*
Y-2032000D03*
Y-1778000D03*
Y-1524000D03*
Y-1270000D03*
Y-1016000D03*
Y-762000D03*
Y-508000D03*
Y-254000D03*
Y0D03*
Y254000D03*
Y508000D03*
Y762000D03*
Y1016000D03*
Y1778000D03*
Y2032000D03*
Y2286000D03*
Y2540000D03*
Y2794000D03*
Y3048000D03*
Y3302000D03*
X254000Y-2286000D03*
Y-2032000D03*
Y-1778000D03*
Y-1524000D03*
Y-1270000D03*
Y-1016000D03*
Y-762000D03*
Y-508000D03*
Y-254000D03*
Y0D03*
Y254000D03*
Y508000D03*
Y762000D03*
Y1016000D03*
Y1270000D03*
Y1778000D03*
Y2032000D03*
Y2286000D03*
Y2540000D03*
Y2794000D03*
Y3048000D03*
Y3302000D03*
Y3556000D03*
X4572000Y-2286000D03*
Y-2032000D03*
Y-1778000D03*
Y-1524000D03*
Y-1270000D03*
Y-1016000D03*
Y-762000D03*
Y-508000D03*
Y-254000D03*
Y0D03*
Y254000D03*
Y508000D03*
Y762000D03*
Y1016000D03*
Y1270000D03*
Y1524000D03*
Y2184400D03*
Y2438400D03*
Y2692400D03*
Y2946400D03*
Y3200400D03*
Y3454400D03*
Y3708400D03*
Y3962400D03*
Y4216400D03*
X4826000Y-2286000D03*
Y-2032000D03*
Y-1778000D03*
Y-1524000D03*
Y-1270000D03*
Y-1016000D03*
Y-762000D03*
Y-508000D03*
Y-254000D03*
Y0D03*
Y254000D03*
Y508000D03*
Y762000D03*
Y1016000D03*
Y1270000D03*
Y1524000D03*
Y1778000D03*
Y2184400D03*
Y2438400D03*
Y2692400D03*
Y2946400D03*
Y3200400D03*
Y3454400D03*
Y3708400D03*
Y3962400D03*
Y4216400D03*
Y4470400D03*
G54D11*
X-810000Y4430000D03*
X-750000Y-3380000D03*
X4900000D03*
G54D21*
X0Y1270000D03*
Y3556000D03*
X4572000Y1778000D03*
Y4470400D03*
G54D12*
X-582000Y-2743500D03*
Y-2616500D03*
G54D30*
X1938000Y-476000D03*
Y-404000D03*
X2398000Y-466000D03*
Y-394000D03*
X3286240Y4141260D03*
Y4069260D03*
X3728000Y-3306000D03*
Y-3234000D03*
G54D13*
X-512000Y-2000000D03*
X3531180Y3402550D03*
G54D40*
X3343680Y3277550D03*
Y3327550D03*
Y3377550D03*
Y3427550D03*
Y3477550D03*
Y3527550D03*
X3718680Y3477550D03*
Y3427550D03*
Y3377550D03*
Y3327550D03*
Y3277550D03*
Y3527550D03*
G54D22*
X384500Y-3050000D03*
X511500D03*
X624500D03*
X751500D03*
X1424470Y-270000D03*
X1551470D03*
X3699710Y3865260D03*
X3572710D03*
X3559720Y4325260D03*
X3432720D03*
X3934650Y3324550D03*
X3807650D03*
G54D31*
X1934500Y630000D03*
X2061500D03*
X3216420Y2507450D03*
X3343420D03*
X3342740Y3865260D03*
X3469740D03*
X3816420Y2507450D03*
X3943420D03*
X3972740Y4125260D03*
X3972710Y4355260D03*
X4058990Y-2532750D03*
X4185990D03*
X4099740Y4125260D03*
X4099710Y4355260D03*
G54D50*
G01X-704000Y-1820000D02*
X-699500Y-1824500D01*
Y-1875000D01*
G01X-704000Y-1820000D02*
X-744000Y-1780000D01*
X-802000D01*
G01X2038000Y10000D02*
X2010620Y37380D01*
Y361110D01*
X2021580Y372070D01*
G01X588000Y-244000D02*
Y-173500D01*
G01X1424500Y-550000D02*
X1358000D01*
G01X1424470Y-270000D02*
X1318000D01*
G01X1389500Y4390000D02*
X1396000Y4396500D01*
Y4470000D01*
G01X1551500Y-160000D02*
Y-163500D01*
X1564020Y-176020D01*
X1652920D01*
X1678000Y-150940D01*
Y-100000D01*
X1738000Y-40000D01*
G01X1424500Y-160000D02*
Y-269970D01*
X1424470Y-270000D01*
G01X3342740Y3865260D02*
Y3794740D01*
X3328000Y3780000D01*
G01X3286240Y4141260D02*
X3352240D01*
X3356240Y4145260D01*
G01X3432720Y4325260D02*
X3366240D01*
G01X3476240Y3871760D02*
X3496240Y3891760D01*
Y4035760D01*
G01X3561240D02*
Y3876730D01*
X3572710Y3865260D01*
G01X4185990Y-2532750D02*
X4262490D01*
G54D23*
X814000Y3236000D03*
Y3744000D03*
X1322000Y3236000D03*
Y3744000D03*
X2394000Y2376000D03*
Y2884000D03*
X2902000Y2376000D03*
Y2884000D03*
G54D14*
X-699500Y-2075000D03*
Y-2125000D03*
Y-1875000D03*
Y-1925000D03*
Y-1975000D03*
Y-2025000D03*
X-324500Y-2125000D03*
Y-2075000D03*
Y-2025000D03*
Y-1975000D03*
Y-1925000D03*
Y-1875000D03*
G54D41*
X3620500Y-2340000D03*
X3575500D03*
X3950500Y-2350000D03*
X3905500D03*
G54D32*
X2664500Y-3553500D03*
X2700500Y-2958500D03*
X3562500Y-3553500D03*
X3526500Y-2958500D03*
G54D51*
G01X3020500Y-3410000D02*
X3053000D01*
X3068000Y-3395000D01*
Y-3252500D01*
G01X3020500Y-3310000D02*
X2974460D01*
X2964460Y-3300000D01*
X2924000D01*
G01X3013000Y-3155000D02*
X3018280D01*
X3025780Y-3162500D01*
X3068000D01*
G01X2924000Y-3300000D02*
Y-3240000D01*
G01X3153000Y-2625000D02*
X3152640Y-2624640D01*
Y-2594650D01*
X3130050Y-2572060D01*
Y-2530310D01*
X3091700Y-2491960D01*
X2979310D01*
X2904960Y-2566310D01*
Y-2883690D01*
X2949310Y-2928040D01*
X3061030D01*
X3076870Y-2943880D01*
Y-2967570D01*
X3054720Y-2989720D01*
Y-3030000D01*
G01X3074720Y-2625000D02*
Y-2593290D01*
X3097010Y-2571000D01*
Y-2544000D01*
X3078010Y-2525000D01*
X2993000D01*
X2938000Y-2580000D01*
Y-2870000D01*
X2963000Y-2895000D01*
X3078000D01*
X3110380Y-2927380D01*
Y-2977370D01*
X3133000Y-2999990D01*
Y-3030000D01*
G01X3005500D02*
X3054720D01*
G01X3103000Y-2850000D02*
Y-2779500D01*
X3122500Y-2760000D01*
X3163010D01*
X3288000Y-2884990D01*
Y-3129990D01*
X3218000Y-3199990D01*
Y-3389960D01*
X3197960Y-3410000D01*
X3155500D01*
G01D02*
Y-3483000D01*
X3124000Y-3514500D01*
Y-3520000D01*
G01X3118000Y-3252500D02*
Y-3280000D01*
X3148000Y-3310000D01*
X3155500D01*
G01X3263000Y-3245000D02*
Y-3204720D01*
X3323000Y-3144720D01*
Y-2870000D01*
X3188500Y-2735500D01*
Y-2690000D01*
G01X3054720Y-3030000D02*
X3061980D01*
X3076480Y-3044500D01*
Y-3066530D01*
X3068000Y-3075010D01*
Y-3117500D01*
G01X3133000Y-3030000D02*
X3124020D01*
X3109520Y-3044500D01*
Y-3066530D01*
X3118000Y-3075010D01*
Y-3117500D01*
G01Y-3162500D02*
X3175500D01*
X3178000Y-3160000D01*
G01X3118000Y-3162500D02*
Y-3207500D01*
G01X3068000D02*
Y-3162500D01*
G01X3133000Y-3030000D02*
X3180500D01*
G54D24*
X911000Y1780000D03*
X1714180Y3378860D03*
X1724180Y3828860D03*
X2464180Y3378860D03*
Y3828860D03*
Y4278860D03*
X4078000Y-547000D03*
G54D15*
X-637000Y-2187500D03*
X-587000D03*
Y-1812500D03*
X-637000D03*
X-537000Y-2187500D03*
X-487000D03*
X-437000D03*
X-387000D03*
Y-1812500D03*
X-437000D03*
X-487000D03*
X-537000D03*
X3656180Y3215050D03*
X3606180D03*
X3556180D03*
X3506180D03*
X3456180D03*
X3406180D03*
Y3590050D03*
X3456180D03*
X3506180D03*
X3556180D03*
X3606180D03*
X3656180D03*
G54D42*
X3575500Y-2290000D03*
X3620500D03*
X3905500D03*
X3950500D03*
G54D33*
X2702000Y-640000D03*
X2554000Y-230000D03*
X2482000D03*
X2774000Y-640000D03*
X3185180Y3494550D03*
X3257180D03*
X3185180Y3424550D03*
X3257180D03*
X3714000Y4220000D03*
X3642000D03*
X3802000Y3610000D03*
X3874000D03*
G54D52*
G01X-215480Y-5641790D02*
X-205320Y-5632580D01*
X-197700Y-5617240D01*
X-192620Y-5595750D01*
X-197700Y-5577340D01*
X-207860Y-5565060D01*
X-225640Y-5555850D01*
X-294220D01*
Y-5740000D01*
X-210400D01*
X-192620Y-5727730D01*
X-182460Y-5709310D01*
X-177380Y-5687820D01*
X-182460Y-5666340D01*
X-197700Y-5647930D01*
X-215480Y-5641790D01*
X-294220D01*
G01X-17360Y-5740000D02*
X-37680Y-5736930D01*
X-55460Y-5724660D01*
X-70700Y-5706240D01*
X-80860Y-5684760D01*
X-85940Y-5660200D01*
Y-5635650D01*
X-80860Y-5611090D01*
X-70700Y-5589610D01*
X-55460Y-5571200D01*
X-37680Y-5558920D01*
X-17360Y-5555850D01*
X2960Y-5558920D01*
X20740Y-5571200D01*
X35980Y-5589610D01*
X46140Y-5611090D01*
X51220Y-5635650D01*
Y-5660200D01*
X46140Y-5684760D01*
X35980Y-5706240D01*
X20740Y-5724660D01*
X2960Y-5736930D01*
X-17360Y-5740000D01*
G01X201080Y-5555850D02*
Y-5740000D01*
G01X142660Y-5555850D02*
X259500D01*
G01X419520D02*
Y-5740000D01*
G01X361100Y-5555850D02*
X477940D01*
G01X637960Y-5740000D02*
X617640Y-5736930D01*
X599860Y-5724660D01*
X584620Y-5706240D01*
X574460Y-5684760D01*
X569380Y-5660200D01*
Y-5635650D01*
X574460Y-5611090D01*
X584620Y-5589610D01*
X599860Y-5571200D01*
X617640Y-5558920D01*
X637960Y-5555850D01*
X658280Y-5558920D01*
X676060Y-5571200D01*
X691300Y-5589610D01*
X701460Y-5611090D01*
X706540Y-5635650D01*
Y-5660200D01*
X701460Y-5684760D01*
X691300Y-5706240D01*
X676060Y-5724660D01*
X658280Y-5736930D01*
X637960Y-5740000D01*
G01X790360D02*
Y-5555850D01*
X856400Y-5709310D01*
X922440Y-5555850D01*
Y-5740000D01*
G01X1242480Y-5555850D02*
Y-5740000D01*
X1344080D01*
G01X1448220D02*
X1511720Y-5555850D01*
X1575220Y-5740000D01*
G01X1552360Y-5675550D02*
X1471080D01*
G01X1730160Y-5740000D02*
Y-5657130D01*
X1679360Y-5555850D01*
G01X1780960D02*
X1730160Y-5657130D01*
G01X1999400Y-5740000D02*
X1897800D01*
Y-5555850D01*
X1999400D01*
G01X1958760Y-5644850D02*
X1897800D01*
G01X2116240Y-5740000D02*
Y-5555850D01*
X2179740D01*
X2200060Y-5565060D01*
X2212760Y-5577340D01*
X2217840Y-5601890D01*
X2212760Y-5626440D01*
X2197520Y-5641790D01*
X2179740Y-5651000D01*
X2116240D01*
G01X2179740D02*
X2217840Y-5740000D01*
G01X2634400D02*
Y-5555850D01*
X2540420Y-5687820D01*
X2667420D01*
G01X-289140Y-5240000D02*
Y-5055850D01*
G01X-182460D02*
Y-5240000D01*
G01Y-5147930D02*
X-289140D01*
G01X-17360Y-5240000D02*
Y-5157130D01*
X-68160Y-5055850D01*
G01X33440D02*
X-17360Y-5157130D01*
G01X150280Y-5240000D02*
Y-5055850D01*
X211240D01*
X231560Y-5065060D01*
X246800Y-5086540D01*
X251880Y-5111090D01*
X246800Y-5135650D01*
X234100Y-5154060D01*
X211240Y-5163280D01*
X150280D01*
G01X343320Y-5301380D02*
X495720D01*
G01X637960Y-5240000D02*
X617640Y-5236930D01*
X599860Y-5224660D01*
X584620Y-5206240D01*
X574460Y-5184760D01*
X569380Y-5160200D01*
Y-5135650D01*
X574460Y-5111090D01*
X584620Y-5089610D01*
X599860Y-5071200D01*
X617640Y-5058920D01*
X637960Y-5055850D01*
X658280Y-5058920D01*
X676060Y-5071200D01*
X691300Y-5089610D01*
X701460Y-5111090D01*
X706540Y-5135650D01*
Y-5160200D01*
X701460Y-5184760D01*
X691300Y-5206240D01*
X676060Y-5224660D01*
X658280Y-5236930D01*
X637960Y-5240000D01*
G01X856400Y-5055850D02*
Y-5240000D01*
G01X797980Y-5055850D02*
X914820D01*
G54D25*
X1068000Y3490000D03*
X2648000Y2630000D03*
G54D43*
X3561240Y4035760D03*
X3496240D03*
X3431240D03*
Y4214760D03*
X3561240D03*
G54D34*
X3020500Y-3410000D03*
Y-3360000D03*
Y-3310000D03*
X3155500Y-3410000D03*
Y-3310000D03*
Y-3360000D03*
G54D16*
X-784000Y-1854000D03*
Y-1926000D03*
X588000Y-944000D03*
Y-1016000D03*
Y-604000D03*
Y-676000D03*
Y-244000D03*
Y-316000D03*
X1938000Y496000D03*
Y424000D03*
X4096500Y-1916650D03*
Y-1988650D03*
G54D53*
G01X2152220Y-124320D02*
X2172320Y-104220D01*
G54D35*
X3005500Y-3030000D03*
X2970500D03*
G54D44*
X3926290Y-2692750D03*
X3798690D03*
G54D17*
X-553800Y0D03*
Y254000D03*
X-807800D03*
X-553800Y508000D03*
X-807800D03*
X-553800Y762000D03*
X-807800D03*
X-553800Y1016000D03*
Y1270000D03*
X-807800D03*
Y1016000D03*
X-553800Y2286000D03*
Y2540000D03*
X-807800D03*
X-553800Y2794000D03*
X-807800D03*
X-553800Y3048000D03*
X-807800D03*
X-553800Y3302000D03*
Y3556000D03*
X-807800D03*
Y3302000D03*
G54D26*
X1271500Y-3050000D03*
X1144500D03*
X2671500Y-320000D03*
X2544500D03*
G54D18*
X-807800Y0D03*
Y2286000D03*
G54D27*
X1424500Y-550000D03*
Y-660000D03*
Y-420000D03*
Y-160000D03*
Y-50000D03*
Y80000D03*
Y400000D03*
X1389500Y4390000D03*
X1262500D03*
X1551500Y-550000D03*
Y-660000D03*
Y-420000D03*
Y-160000D03*
Y-50000D03*
Y80000D03*
Y400000D03*
X1634500Y460000D03*
X1729550Y2802360D03*
Y2962360D03*
X1761500Y460000D03*
X1856550Y2802360D03*
Y2962360D03*
X2674500Y-540000D03*
Y-430000D03*
X2801500Y-540000D03*
Y-430000D03*
X3553420Y2507450D03*
X3426420D03*
X3701500Y2790000D03*
X3574500D03*
X4026420Y2507450D03*
X4153420D03*
G54D45*
X4037490Y-2852750D03*
X3827490D03*
G54D36*
X2828000Y-2442500D03*
Y-2397500D03*
X3118000Y-3162500D03*
Y-3117500D03*
X3068000Y-3162500D03*
Y-3117500D03*
X3686500Y-2025150D03*
Y-1980150D03*
X3798000Y-3232500D03*
Y-3187500D03*
G54D28*
X1165000Y1780000D03*
X1968180Y3378860D03*
X1978180Y3828860D03*
X2718180Y3378860D03*
Y3828860D03*
Y4278860D03*
X4078000Y-293000D03*
G54D19*
X-252000Y4266500D03*
Y4393500D03*
X-452000Y4266500D03*
Y4393500D03*
X-352000Y4266500D03*
Y4393500D03*
X-2000Y4266500D03*
Y4393500D03*
X98000Y4266500D03*
Y4393500D03*
X198000Y4266500D03*
Y4393500D03*
X448000Y4266500D03*
Y4393500D03*
X588000Y-873500D03*
Y-746500D03*
Y-533500D03*
Y-406500D03*
Y-173500D03*
Y-46500D03*
X648000Y4266500D03*
Y4393500D03*
X548000Y4266500D03*
Y4393500D03*
X1098000Y4266500D03*
Y4393500D03*
X898000Y4266500D03*
Y4393500D03*
X998000Y4266500D03*
Y4393500D03*
X1753050Y2568860D03*
Y2695860D03*
X1873050Y2568860D03*
Y2695860D03*
X3918000Y2816500D03*
Y2943500D03*
X4118000Y2866500D03*
X4238000D03*
X4118000Y2993500D03*
X4238000D03*
G54D37*
X3068000Y-3207500D03*
Y-3252500D03*
X3118000Y-3207500D03*
Y-3252500D03*
G54D46*
X4016240Y4225260D03*
Y4265260D03*
X4056240Y4225260D03*
Y4265260D03*
G54D47*
X4186240Y4134260D03*
Y4056260D03*
G54D38*
X3180500Y-3030000D03*
X3215500D03*
G54D29*
X1492000Y180000D03*
X1564000D03*
X1712000Y360000D03*
X1784000D03*
X2882000Y-3430000D03*
X2954000D03*
X3052000Y-3520000D03*
X2852000Y-3300000D03*
X2924000D03*
X2752000Y-2510000D03*
X2824000D03*
X3124000Y-3520000D03*
X3342000Y3130000D03*
X3644000D03*
X3572000D03*
X3414000D03*
X3804000Y3170000D03*
X3732000D03*
X3877180Y3504550D03*
X3805180D03*
X3877180Y3424550D03*
X3805180D03*
X3892240Y4215260D03*
X3820240D03*
G54D48*
G01X-582000Y-2743500D02*
X-495500D01*
X-492000Y-2740000D01*
G01X-512000Y-2000000D02*
X-587000Y-2075000D01*
G01D02*
X-699500D01*
G01X-784000Y-1854000D02*
X-848000D01*
X-852000Y-1850000D01*
G01X-784000Y-1926000D02*
X-840000D01*
X-844000Y-1930000D01*
G01X-699500Y-1925000D02*
X-783000D01*
X-784000Y-1926000D01*
G01X-324500Y-2075000D02*
X-437000D01*
X-512000Y-2000000D01*
G01D02*
X-502000D01*
G01X1455830Y3907750D02*
X1453580Y3910000D01*
X1117460D01*
X1087460Y3940000D01*
X562350D01*
X433730Y4068620D01*
X369660D01*
X358280Y4080000D01*
X358010D01*
X318010Y4120000D01*
X-272000D01*
X-352000Y4200000D01*
Y4266500D01*
G01X1503000Y3830000D02*
X1459980D01*
X1409980Y3880000D01*
X1105030D01*
X1075030Y3910000D01*
X549920D01*
X421300Y4038620D01*
X357230D01*
X355850Y4040000D01*
X355580D01*
X305580Y4090000D01*
X-342000D01*
X-452000Y4200000D01*
Y4266500D01*
G01X-252000Y4393500D02*
Y4440000D01*
X-272000Y4460000D01*
G01X-452000Y4393500D02*
Y4440000D01*
X-432000Y4460000D01*
G01X-352000D02*
Y4393500D01*
G01X1388000Y3960000D02*
X1368000Y3940000D01*
X1129890D01*
X1099890Y3970000D01*
X574780D01*
X446160Y4098620D01*
X382090D01*
X330710Y4150000D01*
X-202000D01*
X-252000Y4200000D01*
Y4266500D01*
G01X-2000Y4393500D02*
Y4440000D01*
X18000Y4460000D01*
G01X1746000Y4160000D02*
X1778000Y4128000D01*
Y4030000D01*
X1717680Y3969680D01*
X1636860D01*
X1601540Y4005000D01*
X1363010D01*
X1328010Y3970000D01*
X1142320D01*
X1112320Y4000000D01*
X587210D01*
X458590Y4128620D01*
X394520D01*
X343140Y4180000D01*
X84540D01*
X-2000Y4266500D01*
G01X1728000Y4040000D02*
X1687680Y3999680D01*
X1649290D01*
X1613970Y4035000D01*
X1343000D01*
X1308000Y4000000D01*
X1154750D01*
X1124750Y4030000D01*
X599640D01*
X471020Y4158620D01*
X406950D01*
X355570Y4210000D01*
X154500D01*
X98000Y4266500D01*
G01X198000Y4393500D02*
Y4440000D01*
X178000Y4460000D01*
G01X98000D02*
Y4393500D01*
G01X1666000Y4040000D02*
X1635580Y4070420D01*
X1328410D01*
X1287990Y4030000D01*
X1167180D01*
X1137180Y4060000D01*
X612070D01*
X483450Y4188620D01*
X419380D01*
X341500Y4266500D01*
X198000D01*
G01X511500Y-3050000D02*
Y-3126500D01*
X508000Y-3130000D01*
G01X648000Y4266500D02*
Y4200000D01*
X698000Y4150000D01*
X1172870D01*
X1208240Y4185370D01*
Y4185380D01*
X1215310Y4192450D01*
X1406560D01*
X1444110Y4230000D01*
X1490860D01*
X1550860Y4290000D01*
X1737360D01*
X1748000Y4279360D01*
G01X548000Y4266500D02*
X588000Y4226500D01*
Y4200000D01*
X668000Y4120000D01*
X1185580D01*
X1228030Y4162450D01*
X1418990D01*
X1450120Y4193580D01*
X1680120D01*
X1716860Y4230320D01*
X1768000D01*
X1788000Y4250320D01*
Y4262330D01*
X1788320Y4262650D01*
Y4296070D01*
X1788000Y4296390D01*
Y4300000D01*
X1748000Y4340000D01*
G01X448000Y4266500D02*
X624500Y4090000D01*
X1198010D01*
X1240460Y4132450D01*
X1431420D01*
X1458970Y4160000D01*
X1460970D01*
X1461290Y4160320D01*
X1689290D01*
X1729290Y4200320D01*
X1780430D01*
X1818320Y4238210D01*
Y4339690D01*
X1768010Y4390000D01*
X1656000D01*
X1646000Y4380000D01*
G01X648000Y4393500D02*
Y4440000D01*
X628000Y4460000D01*
G01X448000Y4393500D02*
Y4440000D01*
X468000Y4460000D01*
G01X548000D02*
Y4393500D01*
G01X751500Y-3050000D02*
X818000D01*
G01X1556000Y4450000D02*
X1598880Y4407120D01*
Y4365850D01*
X1553030Y4320000D01*
X1502860D01*
X1442860Y4260000D01*
X1240430D01*
X1178240Y4197810D01*
Y4197800D01*
X1160440Y4180000D01*
X1042070D01*
X1015220Y4206850D01*
X957650D01*
X898000Y4266500D01*
G01X1098000Y4393500D02*
Y4440000D01*
X1078000Y4460000D01*
G01X898000Y4393500D02*
Y4440000D01*
X918000Y4460000D01*
G01X998000D02*
Y4393500D01*
G01X1556000Y4380000D02*
X1520430D01*
X1430430Y4290000D01*
X1228000D01*
X1148000Y4210000D01*
X1054500D01*
X998000Y4266500D01*
G01X1271500Y-3050000D02*
X1338000D01*
G01X1424500Y-660000D02*
X1358000D01*
G01X1424500Y-420000D02*
X1358000D01*
G01X1424500Y80000D02*
X1358000D01*
G01Y-10000D02*
X1398000D01*
X1424500Y-36500D01*
Y-50000D01*
G01X1358000Y400000D02*
X1424500D01*
G01X1646000Y4450000D02*
X1605680Y4490320D01*
X1539290D01*
X1468000Y4419030D01*
Y4370000D01*
X1418000Y4320000D01*
X1197990D01*
X1167670Y4289680D01*
X1121180D01*
X1098000Y4266500D01*
G01X1551470Y-270000D02*
X1618000D01*
G01X1658000Y380000D02*
X1692000D01*
X1712000Y360000D01*
G01X1634500Y460000D02*
X1598000D01*
X1568000Y490000D01*
G01X1729550Y2802360D02*
Y2798860D01*
X1673050Y2742360D01*
G01X1753050Y2695860D02*
X1736550Y2712360D01*
X1703050D01*
X1673050Y2742360D01*
G01X1729550Y2962360D02*
Y2948860D01*
X1703050Y2922360D01*
Y2882360D01*
G01X1784000Y360000D02*
Y289000D01*
X1813000Y260000D01*
G01X1938000Y496000D02*
Y550000D01*
G01X1934500Y630000D02*
Y553500D01*
X1938000Y550000D01*
G01Y424000D02*
X1974000D01*
X1998000Y400000D01*
G01X1856550Y2802360D02*
Y2712360D01*
X1873050Y2695860D01*
G01X1856550Y2802360D02*
Y2878860D01*
X1853050Y2882360D01*
G01X1856550Y2962360D02*
Y2885860D01*
X1853050Y2882360D01*
G01X2258000Y3110000D02*
X2148000Y3220000D01*
Y3790000D01*
X2109140Y3828860D01*
X1978180D01*
G01X2398000Y-394000D02*
Y-350000D01*
X2388000Y-340000D01*
G01X2468000Y-3364000D02*
X2511020D01*
X2512020Y-3365000D01*
X2953000D01*
G01X2668000Y-2515000D02*
X2673000Y-2510000D01*
X2752000D01*
G01X2398000Y-466000D02*
X2404000D01*
X2433000Y-495000D01*
Y-520000D01*
G01X2482000Y-230000D02*
Y-280000D01*
X2502000Y-300000D01*
X2524500D01*
X2544500Y-320000D01*
G01X2554000Y-230000D02*
X2608000D01*
G01X2482000D02*
X2418000D01*
G01X4178000Y4440000D02*
X4168000Y4450000D01*
X3239120D01*
X2718180Y3929060D01*
Y3828860D01*
G01X2882000Y-3430000D02*
Y-3494000D01*
X2898000Y-3510000D01*
G01X2954000Y-3430000D02*
Y-3366000D01*
X2953000Y-3365000D01*
G01X3155500Y-3360000D02*
X3123000D01*
X3103000Y-3380000D01*
Y-3420000D01*
X3063000Y-3460000D01*
X2978000D01*
X2954000Y-3436000D01*
Y-3430000D01*
G01X2970500Y-3095000D02*
Y-3030000D01*
G01X2852000Y-3300000D02*
Y-3219000D01*
X2848000Y-3215000D01*
G01X2852000Y-3300000D02*
X2783000D01*
X2773000Y-3290000D01*
G01X2953000Y-3365000D02*
X2970300D01*
X2975300Y-3360000D01*
X3020500D01*
G01X2774000Y-640000D02*
X2833000D01*
G01X2801500Y-540000D02*
X2868000D01*
G01X3052000Y-3520000D02*
Y-3599000D01*
X3058000Y-3605000D01*
G01X3215500Y-3090000D02*
Y-3030000D01*
G01X3283000Y-2515000D02*
X3658750D01*
X3733000Y-2589250D01*
G01X3216420Y2507450D02*
X3218000Y2430000D01*
G01X3249920Y2613950D02*
X3316420D01*
X3339920Y2637450D01*
G01X3620500Y-2340000D02*
X3664990D01*
G01D02*
X3669980Y-2335010D01*
G01X3518000Y2350000D02*
X3553420Y2385420D01*
Y2507450D01*
G01X3574500Y2790000D02*
X3568000D01*
X3498000Y2860000D01*
G01X3456180Y3215050D02*
Y3169550D01*
X3481180Y3144550D01*
G01X3456180Y3590050D02*
Y3477550D01*
X3531180Y3402550D01*
G01X3533000Y3405000D02*
Y3404370D01*
X3531180Y3402550D01*
G01X3606180Y3643550D02*
Y3590050D01*
G01Y3643550D02*
X3610810Y3648180D01*
X3732840D01*
X3771020Y3610000D01*
X3802000D01*
G01X3699710Y3865260D02*
X3696240Y3861790D01*
Y3775260D01*
G01X3428000Y4120000D02*
Y4039000D01*
X3431240Y4035760D01*
G01X3642000Y4220000D02*
Y4291020D01*
X3646240Y4295260D01*
G01X3561240Y4214760D02*
X3636760D01*
X3642000Y4220000D01*
G01X3561240Y4214760D02*
Y4323740D01*
X3559720Y4325260D01*
G01X3728000Y-3306000D02*
Y-3370000D01*
G01X3827490Y-2852750D02*
Y-2797750D01*
X3812490Y-2782750D01*
G01X3798690Y-2692750D02*
Y-2768950D01*
X3812490Y-2782750D01*
G01X3950500Y-2350000D02*
Y-2407500D01*
X3948000Y-2410000D01*
G01X3926290Y-2692750D02*
X3976290Y-2642750D01*
X4002490D01*
G01X3816420Y2507450D02*
X3798000Y2489030D01*
Y2430000D01*
G01X3849920Y2613950D02*
X3916420D01*
X3939920Y2637450D01*
G01X3838000Y2960000D02*
X3901500D01*
X3918000Y2943500D01*
G01X3934650Y3324550D02*
Y3336650D01*
X3988000Y3390000D01*
G01X3802000Y3610000D02*
Y3666000D01*
X3798000Y3670000D01*
G01X3874000Y3610000D02*
Y3666000D01*
X3878000Y3670000D01*
G01X4258000Y3985000D02*
X4099500D01*
X3972740Y4111760D01*
Y4125260D01*
G01D02*
X3956240Y4141760D01*
Y4205260D01*
G01X4016240Y4225260D02*
Y4178240D01*
X3972740Y4134740D01*
Y4125260D01*
G01X4053000Y3955000D02*
X4048000D01*
X3973000Y4030000D01*
G01X3820240Y4215260D02*
Y4264060D01*
X3801020Y4283280D01*
X3758000D01*
G01X3714000Y4220000D02*
Y4239280D01*
X3758000Y4283280D01*
G01X3956240Y4275260D02*
X4006240D01*
X4016240Y4265260D01*
G01X3956240Y4205260D02*
X3946240Y4215260D01*
X3892240D01*
G01X3972710Y4355260D02*
X3956240Y4338790D01*
Y4275260D01*
G01X4037490Y-2852750D02*
Y-2907750D01*
X4052490Y-2922750D01*
G01X4096500Y-1988650D02*
Y-2042650D01*
G01Y-1916650D02*
X4092500Y-1912650D01*
X4036500D01*
G01X4153420Y2507450D02*
X4219920D01*
G01X4248000Y2616500D02*
X4268000Y2596500D01*
Y2550000D01*
G01X4118000Y2993500D02*
Y3060000D01*
G01X4238000Y2993500D02*
Y3060000D01*
G01X4186240Y4134260D02*
X4108740D01*
X4099740Y4125260D01*
G01D02*
Y4131760D01*
X4056240Y4175260D01*
Y4225260D01*
G01X4178000Y4310000D02*
Y4266980D01*
X4186240Y4258740D01*
Y4134260D01*
G01Y4056260D02*
X4255240D01*
X4256240Y4055260D01*
G54D39*
X3249920Y2740950D03*
Y2613950D03*
X3849920Y2740950D03*
Y2613950D03*
X4248000Y2743500D03*
Y2616500D03*
G54D49*
G01X-487000Y-1812500D02*
Y-1755000D01*
X-582000Y-1660000D01*
X-952000D01*
G01X-587000Y-1788020D02*
Y-1775000D01*
X-662000Y-1700000D01*
X-922000D01*
X-952000Y-1730000D01*
G01X-852000Y-180000D02*
X-908900Y-123100D01*
Y1327740D01*
X-846640Y1390000D01*
X-102000D01*
X-47600Y1444400D01*
X2273590D01*
X2394410Y1323580D01*
X2493090D01*
X2499510Y1330000D01*
X2678000D01*
G01X2558000Y1440000D02*
X2464800Y1533200D01*
X-538800D01*
X-552000Y1520000D01*
X-779440D01*
X-953300Y1346140D01*
Y-218700D01*
X-892000Y-280000D01*
G01X-812000D02*
X-931100Y-160900D01*
Y1336940D01*
X-848040Y1420000D01*
X-112000D01*
X-65400Y1466600D01*
X2291400D01*
X2398000Y1360000D01*
X2468000D01*
G01X-807800Y2794000D02*
X-921100Y2907300D01*
Y4070890D01*
X-642000Y4349990D01*
Y4520000D01*
X-568100Y4593900D01*
X1754100D01*
X1778000Y4570000D01*
G01X4826000Y4216400D02*
X4712400Y4330000D01*
X4482990D01*
X4310790Y4502200D01*
X1850200D01*
X1830200Y4482200D01*
X1743000D01*
X1697900Y4527300D01*
X1538000D01*
X1480700Y4470000D01*
X1448000D01*
X1390700Y4527300D01*
X-540500D01*
X-575400Y4492400D01*
Y4296600D01*
X-762000Y4110000D01*
Y3810010D01*
X-788430Y3783580D01*
X-848410D01*
X-898900Y3733090D01*
Y3139100D01*
X-807800Y3048000D01*
G01X-582000Y-2616500D02*
Y-2550000D01*
G01X-474000Y-2260000D02*
Y-2442000D01*
X-582000Y-2550000D01*
G01X-587000Y-2187500D02*
Y-2233000D01*
X-614000Y-2260000D01*
G01X-699500Y-2125000D02*
X-777000D01*
X-782000Y-2130000D01*
G01X-587000Y-1812500D02*
Y-1788020D01*
G01X-784000Y-1990000D02*
X-769000Y-1975000D01*
X-699500D01*
G01X-784000Y-2060000D02*
X-749000Y-2025000D01*
X-699500D01*
G01X-637000Y-1812500D02*
Y-1808020D01*
G01D02*
Y-1785000D01*
X-682000Y-1740000D01*
X-842000D01*
X-882000Y-1780000D01*
G01X0Y-1270000D02*
X-732000D01*
G01X-682000Y-1020000D02*
X-4000D01*
X0Y-1016000D01*
G01X-882000Y-910000D02*
X378000D01*
X538000Y-1070000D01*
X818000D01*
X994420Y-893580D01*
X2051580D01*
X2128000Y-970000D01*
G01X1838000Y-140000D02*
X1798000Y-180000D01*
X1746490D01*
X1688000Y-238490D01*
Y-282910D01*
X1619110Y-351800D01*
X1249800D01*
X898000Y0D01*
X678000D01*
X656200Y21800D01*
X479800D01*
X318000Y-140000D01*
X-667800D01*
X-807800Y0D01*
G01X-242000Y140000D02*
X-693800D01*
X-807800Y254000D01*
G01X2658000Y1400000D02*
X2398000D01*
X2309200Y1488800D01*
X-83200D01*
X-122000Y1450000D01*
X-532000D01*
X-552000Y1470000D01*
X-702000D01*
G01X1278000Y1600000D02*
X-822000D01*
G01X2758000Y1470000D02*
X2668000Y1560000D01*
X-612000D01*
G01X588000Y2370000D02*
X558000Y2400000D01*
X-572000D01*
X-672000Y2500000D01*
Y2675800D01*
X-553800Y2794000D01*
G01X-812000Y3820000D02*
Y4100000D01*
X-597600Y4314400D01*
Y4501600D01*
X-549700Y4549500D01*
X1707100D01*
X1752200Y4504400D01*
X1812400D01*
X1838000Y4530000D01*
X4317990D01*
X4487990Y4360000D01*
X4918880D01*
X4928880Y4350000D01*
X4968000D01*
G01X-812000Y3740000D02*
X-742000Y3670000D01*
X-512000D01*
X-262000Y3420000D01*
X136000D01*
X254000Y3302000D01*
G01X4572000Y4470400D02*
X4412600D01*
X4330800Y4552200D01*
X1820200D01*
X1794600Y4526600D01*
X1761400D01*
X1716300Y4571700D01*
X-558900D01*
X-619800Y4510800D01*
Y4332200D01*
X-872000Y4080000D01*
Y3900000D01*
G01X-544000Y-2260000D02*
X-537000Y-2253000D01*
Y-2187500D01*
G01X-324500Y-2125000D02*
X-298220D01*
G01X-222000Y-2370000D02*
Y-2160000D01*
X-257000Y-2125000D01*
X-298220D01*
G01X-437000Y-2187500D02*
Y-2227000D01*
X-404000Y-2260000D01*
G01X-487000Y-2187500D02*
Y-2247000D01*
X-474000Y-2260000D01*
G01X-324500Y-2025000D02*
X-217000D01*
X-162000Y-2080000D01*
Y-2410000D01*
G01X-324500Y-1975000D02*
X-252000D01*
X-197000Y-1920000D01*
X368000D01*
X447360Y-1840640D01*
X458000D01*
G01X-324500Y-1925000D02*
X-317000D01*
G01D02*
X-269000D01*
X-241800Y-1897800D01*
X338000D01*
X435800Y-1800000D01*
X558000D01*
X818000Y-2060000D01*
X2778000D01*
G01X-387000Y-1812500D02*
Y-1763000D01*
X-364000Y-1740000D01*
G01X-437000Y-1812500D02*
Y-1743000D01*
X-434000Y-1740000D01*
G01X-482000Y-1590000D02*
X-192000D01*
X-122000Y-1660000D01*
X4200000D01*
X4572000Y-2032000D01*
G01X-307000Y-1430000D02*
X-274000Y-1397000D01*
X315000D01*
X348000Y-1430000D01*
X2418000D01*
G01X-432000Y330000D02*
X-377000D01*
X-312000Y265000D01*
Y225000D01*
G01X-402000Y405000D02*
X-177000D01*
X-132000Y360000D01*
X78010D01*
X128000Y310010D01*
Y199990D01*
X193590Y134400D01*
X703600D01*
X714420Y123580D01*
X891580D01*
X994420Y226420D01*
X1517580D01*
X1564000Y180000D01*
G01X-422000Y470000D02*
X-182000D01*
X-99200Y387200D01*
X100800D01*
X118000Y370000D01*
X778000D01*
X841580Y433580D01*
X941580D01*
X978000Y470000D01*
X1481500D01*
X1551500Y400000D01*
G01X2638000Y890000D02*
X2498000Y1030000D01*
X1298010D01*
X1258000Y989990D01*
Y930010D01*
X1198890Y870900D01*
X907100D01*
X878000Y900000D01*
X-382000D01*
X-402000Y920000D01*
X-462000D01*
X-553800Y828200D01*
Y762000D01*
G01X-442000Y880000D02*
X-432000Y870000D01*
X78010D01*
X128000Y820010D01*
Y709990D01*
X187990Y650000D01*
X698000D01*
X788000Y740000D01*
X1408000D01*
X1498000Y830000D01*
X2117990D01*
X2238000Y709990D01*
Y430000D01*
G01X-492000Y1490000D02*
X-122000D01*
X-101000Y1511000D01*
X2347000D01*
X2418000Y1440000D01*
G01X588000Y2460000D02*
X558000Y2430000D01*
X-443800D01*
X-553800Y2540000D01*
G01X2693000Y-2355000D02*
X363000D01*
X328000Y-2390000D01*
X104000D01*
X0Y-2286000D01*
G01Y-1016000D02*
X104000Y-1120000D01*
X868000D01*
X1058000Y-930000D01*
X1788000D01*
G01X0Y-1270000D02*
X120000Y-1150000D01*
X388010D01*
X568020Y-1330010D01*
X1197990D01*
X1258000Y-1270000D01*
X1648000D01*
G01X588000Y-1016000D02*
X446990Y-874990D01*
X112990D01*
X0Y-762000D01*
G01X588000Y-676000D02*
X524000D01*
X478000Y-630000D01*
X122000D01*
X0Y-508000D01*
G01Y254000D02*
X-112000Y142000D01*
Y-50010D01*
X-52010Y-110000D01*
X308010D01*
X358000Y-60010D01*
Y41510D01*
X396360Y79870D01*
X678130D01*
X698000Y60000D01*
X1318000D01*
X1348000Y30000D01*
X1378000D01*
X1391900Y16100D01*
X1485400D01*
X1551500Y-50000D01*
G01X0Y-254000D02*
X126000Y-380000D01*
X318000D01*
X382000Y-316000D01*
X588000D01*
G01X1008000Y160000D02*
X949380Y101380D01*
X696620D01*
X695930Y102070D01*
X102070D01*
X0Y0D01*
G01X2021580Y372070D02*
X2034420Y384910D01*
Y423580D01*
X1994980Y463020D01*
Y665120D01*
X1962300Y697800D01*
X1905810D01*
X1878000Y669990D01*
Y608490D01*
X1845930Y576420D01*
X1674420D01*
X1658000Y560000D01*
X1508000D01*
X1474420Y526420D01*
X894430D01*
X768010Y400000D01*
X187990D01*
X128000Y459990D01*
Y580010D01*
X90210Y617800D01*
X-82690D01*
X-90490Y610000D01*
X-132640D01*
X-172640Y650000D01*
G01X2138000Y430000D02*
X2174420Y466420D01*
Y673570D01*
X2077990Y770000D01*
X1518000D01*
X1428000Y680000D01*
X808000D01*
X678000Y550000D01*
X608000D01*
X581580Y523580D01*
X434420D01*
X338000Y620000D01*
X157990D01*
X127990Y650000D01*
X-112000D01*
G01X-202000Y1169870D02*
X-172130Y1140000D01*
X92600D01*
X128000Y1175400D01*
Y1330000D01*
X178000Y1380000D01*
X438000D01*
X648000Y1170000D01*
X877990D01*
X897990Y1190000D01*
X3338000D01*
X3512000Y1016000D01*
X4572000D01*
G01X3104420Y1120000D02*
X3081420Y1143000D01*
X127000D01*
X0Y1016000D01*
G01X1668000Y1350000D02*
X518000D01*
X458000Y1410000D01*
X138000D01*
X0Y1272000D01*
Y1270000D01*
G01X-232000Y1650000D02*
X448000D01*
X588000Y1790000D01*
G01X248000Y3705000D02*
X-222000D01*
G01X1113000Y3820000D02*
X1053000Y3880000D01*
X509510D01*
X474510Y3915000D01*
X423000D01*
X363000Y3855000D01*
X-77000D01*
X-137000Y3795000D01*
G01X384500Y-3050000D02*
Y-3123500D01*
X378000Y-3130000D01*
G01X2228000Y-1530000D02*
X260000D01*
X254000Y-1524000D01*
G01Y-508000D02*
X405500Y-356500D01*
X628000D01*
X644500Y-340000D01*
X868000D01*
X1268000Y-740000D01*
X1569400D01*
X1828000Y-481400D01*
Y-398490D01*
X1922910Y-303580D01*
X1953090D01*
X2038000Y-388490D01*
Y-400000D01*
G01X254000Y-254000D02*
X507600Y-400D01*
X638400D01*
X668000Y-30000D01*
X868000D01*
X1317600Y-479600D01*
X1608400D01*
X1748000Y-340000D01*
G01X398000Y30000D02*
X425670Y57670D01*
X660330D01*
X688000Y30000D01*
X938000D01*
X1297600Y-329600D01*
X1609910D01*
X1658000Y-281510D01*
Y-220000D01*
X1738000Y-140000D01*
G01X254000Y508000D02*
X339800Y422200D01*
X758810D01*
X896610Y560000D01*
X1468000D01*
X1508000Y600000D01*
X1638000D01*
G01X1838000Y360000D02*
X1837160Y360840D01*
Y400840D01*
X1848530Y412210D01*
X1875790D01*
X1888000Y400000D01*
Y240010D01*
X1871570Y223580D01*
X1704420D01*
X1601580Y326420D01*
X1307970D01*
X1295770Y338620D01*
Y427800D01*
X1283570Y440000D01*
X1259170D01*
X1246970Y427800D01*
Y338620D01*
X1234770Y326420D01*
X1210370D01*
X1198170Y338620D01*
Y427800D01*
X1185970Y440000D01*
X1161570D01*
X1149370Y427800D01*
Y338620D01*
X1137170Y326420D01*
X1112770D01*
X1100570Y338620D01*
Y427800D01*
X1088370Y440000D01*
X1063970D01*
X1051770Y427800D01*
Y338620D01*
X1039570Y326420D01*
X1015170D01*
X1002970Y338620D01*
Y407800D01*
X990770Y420000D01*
X966370D01*
X954170Y407800D01*
Y338620D01*
X941970Y326420D01*
X912600D01*
X900400Y338620D01*
Y387800D01*
X888200Y400000D01*
X863800D01*
X851600Y387800D01*
Y338620D01*
X839400Y326420D01*
X714190D01*
X701990Y314220D01*
Y172200D01*
X689790Y160000D01*
X665390D01*
X653190Y172200D01*
Y314220D01*
X640990Y326420D01*
X616590D01*
X604390Y314220D01*
Y172200D01*
X592190Y160000D01*
X567790D01*
X555590Y172200D01*
Y314220D01*
X543390Y326420D01*
X518990D01*
X506790Y314220D01*
Y172200D01*
X494590Y160000D01*
X470190D01*
X457990Y172200D01*
Y314220D01*
X445790Y326420D01*
X326420D01*
X254000Y254000D01*
G01X2098000Y900000D02*
X1488000D01*
X1378000Y790000D01*
X498000D01*
X470000Y762000D01*
X254000D01*
G01Y1016000D02*
X884000D01*
X965800Y1097800D01*
X2490200D01*
X2568000Y1020000D01*
X2908000D01*
G01X624500Y-3050000D02*
Y-3126500D01*
X628000Y-3130000D01*
G01X458000Y-1750000D02*
X3668000D01*
X4073000Y-2155000D01*
X4695000D01*
X4826000Y-2286000D01*
G01X2358000Y-1190000D02*
X1248000D01*
X1178000Y-1260000D01*
X568000D01*
G01X588000Y-944000D02*
Y-873500D01*
G01X818000Y-864860D02*
X683140D01*
X674500Y-873500D01*
X588000D01*
G01Y-746500D02*
X664500D01*
X668000Y-750000D01*
G01X588000Y-604000D02*
Y-533500D01*
G01X808000D02*
X588000D01*
G01Y-173500D02*
X664500D01*
X668000Y-170000D01*
G01X588000Y-406500D02*
X664500D01*
X668000Y-410000D01*
G01Y-70000D02*
X611500D01*
X588000Y-46500D01*
G01X458000Y560000D02*
X578000D01*
X598000Y580000D01*
X668000D01*
X798000Y710000D01*
X1418000D01*
X1508000Y800000D01*
X2097990D01*
X2200200Y697790D01*
Y407810D01*
X2218010Y390000D01*
X2308000D01*
X2338000Y360000D01*
G01X2061500Y630000D02*
Y646500D01*
X1988000Y720000D01*
X1548000D01*
X1448000Y620000D01*
X828000D01*
X681580Y473580D01*
X604420D01*
X598000Y480000D01*
X518000D01*
G01X2138000Y510000D02*
Y659990D01*
X2055790Y742200D01*
X1530200D01*
X1438000Y650000D01*
X818000D01*
X678000Y510000D01*
X628000D01*
G01X498000Y850000D02*
X499300Y848700D01*
X1356700D01*
X1466620Y958620D01*
X2189380D01*
X2448000Y700000D01*
G01X428000Y850000D02*
X464420Y813580D01*
X1361580D01*
X1484420Y936420D01*
X2141580D01*
X2378000Y700000D01*
G01X4826000Y-508000D02*
X4684600Y-366600D01*
X4404600D01*
X4078000Y-40000D01*
X3858000D01*
X3450940Y367060D01*
X3130940D01*
X3028000Y470000D01*
X2528000D01*
X2138000Y860000D01*
X1488000D01*
X1395800Y767800D01*
X755800D01*
X698000Y710000D01*
G01X2738000Y1060000D02*
X2678000Y1120000D01*
X842310D01*
X792310Y1070000D01*
X558000D01*
G01X588000Y1790000D02*
X901000D01*
X911000Y1780000D01*
G01X2028000Y2020000D02*
X1373000D01*
X1333000Y2060000D01*
X598000D01*
G01X708000Y1940000D02*
X1238000D01*
X1258000Y1920000D01*
X3608000D01*
X3958000Y2270000D01*
X4248000D01*
X4408000Y2430000D01*
G01X1551500Y80000D02*
Y96500D01*
X1518000Y130000D01*
X1468000D01*
X1448000Y150000D01*
X1408000D01*
X1398000Y160000D01*
X1008000D01*
G01X1738000Y60000D02*
Y69420D01*
X1558800Y248620D01*
X956620D01*
X868000Y160000D01*
G01X918000Y470000D02*
X948000Y500000D01*
X1488000D01*
X1518000Y530000D01*
X1688000D01*
X1698000Y540000D01*
X1738000D01*
G01X878000Y290000D02*
X881020Y293020D01*
X1594980D01*
X1718000Y170000D01*
X1738000D01*
G01X768000Y250000D02*
X898000D01*
X918820Y270820D01*
X1578580D01*
X1717070Y132330D01*
X1810330D01*
X1838000Y160000D01*
G01Y620000D02*
Y680000D01*
X1820200Y697800D01*
X1565800D01*
X1458000Y590000D01*
X829400D01*
X748000Y508600D01*
Y480000D01*
G01X2508000Y1250000D02*
X858000D01*
X828000Y1220000D01*
G01X878000Y1290000D02*
X2628000D01*
X2638000Y1280000D01*
X2748000D01*
G01X4826000Y2692400D02*
X4703600Y2570000D01*
X4527990D01*
X4448000Y2490010D01*
Y2330000D01*
X3998000Y1880000D01*
X1398000D01*
X1358000Y1840000D01*
Y1770010D01*
X1237990Y1650000D01*
X798000D01*
G01X1308000Y1780000D02*
X1214400Y1686400D01*
X1011600D01*
X918000Y1780000D01*
X911000D01*
G01X883000Y2000000D02*
X1293000D01*
X1328000Y1965000D01*
X2063000D01*
X2103000Y2005000D01*
X2333000D01*
G01X1144500Y-3050000D02*
Y-3123500D01*
X1138000Y-3130000D01*
G01X1248000Y-2290000D02*
X3156600D01*
X3251600Y-2385000D01*
X3753000D01*
X3833000Y-2465000D01*
X4131740D01*
X4185990Y-2519250D01*
Y-2532750D01*
G01X1298000Y-1360000D02*
X2108000D01*
X2183000Y-1285000D01*
X2833000D01*
X2927850Y-1379850D01*
Y-1388620D01*
X4309380D01*
X4428000Y-1270000D01*
G01X1198000Y-740000D02*
X1225670Y-767670D01*
X1579450D01*
X1868000Y-479120D01*
Y-440000D01*
G01X1318000Y990000D02*
X2468000D01*
X2618000Y840000D01*
X2843000D01*
X3213000Y470000D01*
X3928000D01*
X4268000Y130000D01*
X4702000D01*
X4826000Y254000D01*
G01X1398000Y1780000D02*
X1425670Y1807670D01*
X4017070D01*
X4519400Y2310000D01*
X4697600D01*
X4826000Y2438400D01*
G01X1278000Y1600000D02*
X1428000Y1750000D01*
X3406490D01*
X3432910Y1776420D01*
X3463090D01*
X3489510Y1750000D01*
X4078000D01*
X4298000Y1970000D01*
X4611600D01*
X4826000Y2184400D01*
G01X1262500Y4390000D02*
Y4455000D01*
X1250000Y4467500D01*
X1170500D01*
G01X1838000Y-240000D02*
Y-320000D01*
X1608000Y-550000D01*
X1551500D01*
G01X1788000Y-440000D02*
Y-490000D01*
X1618000Y-660000D01*
X1551500D01*
G01X1738000Y-240000D02*
Y-290000D01*
X1608000Y-420000D01*
X1551500D01*
G01Y-50000D02*
Y-53500D01*
X1638000Y-140000D01*
G01X1551500Y80000D02*
Y46500D01*
X1638000Y-40000D01*
G01X1492000Y180000D02*
X1482000Y190000D01*
X1428000D01*
G01X1638000Y60000D02*
Y106000D01*
X1564000Y180000D01*
G01X1738000Y260000D02*
X1710330Y287670D01*
X1690330D01*
X1609190Y368810D01*
X1569190D01*
X1551500Y386500D01*
Y400000D01*
G01X2183050Y2592360D02*
X2155380Y2620030D01*
X1700720D01*
X1673050Y2592360D01*
G01X1642180Y3228860D02*
X1839140D01*
X1853800Y3214200D01*
Y3109970D01*
X2233800Y2729970D01*
Y2560040D01*
X2208000Y2534240D01*
Y2300000D01*
X2317300Y2190700D01*
X3528700D01*
X3742200Y2404200D01*
Y2549730D01*
X3769920Y2577450D01*
G01X1652180Y3678860D02*
X1806850D01*
X1838000Y3710010D01*
Y3914240D01*
X1907960Y3984200D01*
X2103810D01*
X2227600Y3860410D01*
Y3394630D01*
X2322200Y3300030D01*
Y3237330D01*
X3179530Y2380000D01*
X3415800D01*
X3428000Y2392200D01*
Y2430000D01*
G01X3608000Y-1330000D02*
X3053000D01*
X2807670Y-1084670D01*
X2332670D01*
X1928000Y-680000D01*
X1728000D01*
G01X1938000Y-476000D02*
X1918000Y-496000D01*
Y-619990D01*
X2258010Y-960000D01*
X3528000D01*
X3598000Y-1030000D01*
X3878000D01*
G01X2038000Y-540000D02*
Y-645710D01*
X2292290Y-900000D01*
X3548000D01*
X3608000Y-960000D01*
X3948000D01*
G01X1998000Y-460000D02*
Y-649990D01*
X2278010Y-930000D01*
X3538000D01*
X3598000Y-990000D01*
X3908000D01*
X3948000Y-1030000D01*
G01X1938000Y-340000D02*
Y-404000D01*
G01X1928000Y360000D02*
Y250000D01*
X1918400Y240400D01*
Y-170400D01*
X2078000Y-330000D01*
Y-639990D01*
X2308010Y-870000D01*
X3568010D01*
X3628010Y-930000D01*
X3839510D01*
X3849510Y-920000D01*
X3948000D01*
X3951580Y-923580D01*
X3963090D01*
X3984420Y-944910D01*
Y-956420D01*
X4038000Y-1010000D01*
X4322750D01*
X4334950Y-1022200D01*
Y-1227800D01*
X4347150Y-1240000D01*
X4371550D01*
X4383750Y-1227800D01*
Y-956570D01*
X4395950Y-944370D01*
X4500370D01*
X4572000Y-1016000D01*
G01X1761500Y460000D02*
X1838000D01*
G01X2058000Y340000D02*
Y310000D01*
X2088000Y280000D01*
Y60000D01*
G01X2138000Y-90000D02*
X2128000Y-80000D01*
Y287090D01*
X2099380Y315710D01*
Y378630D01*
X2073000Y405010D01*
Y458400D01*
X2031400Y500000D01*
G01X4119920Y2427450D02*
X4099700Y2407230D01*
Y2364570D01*
X4065830Y2330700D01*
X3902930D01*
X3678530Y2106300D01*
X2157480D01*
X1809450Y2454330D01*
Y2512460D01*
X1753050Y2568860D01*
G01X4039920Y2427450D02*
X4075500Y2391870D01*
Y2374600D01*
X4055800Y2354900D01*
X3892900D01*
X3668500Y2130500D01*
X2167510D01*
X1833650Y2464360D01*
Y2529460D01*
X1873050Y2568860D01*
G01X3769920Y2647450D02*
X3718000Y2595530D01*
Y2414230D01*
X3518670Y2214900D01*
X2327330D01*
X2232200Y2310030D01*
Y2524210D01*
X2258000Y2550010D01*
Y2740000D01*
X1878000Y3120000D01*
Y3216660D01*
X1890200Y3228860D01*
X2062180D01*
G01X3508000Y2430000D02*
X3433800Y2355800D01*
X3169500D01*
X2298000Y3227300D01*
Y3290000D01*
X2203400Y3384600D01*
Y3850380D01*
X2093780Y3960000D01*
X1917990D01*
X1862200Y3904210D01*
Y3715790D01*
X1877990Y3700000D01*
X2051040D01*
X2072180Y3678860D01*
G01X4572000Y3962400D02*
X4453000Y4081400D01*
Y4324990D01*
X4297990Y4480000D01*
X1893010D01*
X1843240Y4430230D01*
G01X1778000Y4570000D02*
X1798000Y4590000D01*
X4706400D01*
X4826000Y4470400D01*
G01X2078000Y-1820000D02*
X2818840D01*
X3041440Y-2042600D01*
G01X2368000Y-760000D02*
Y-610000D01*
X2273000Y-515000D01*
Y-340000D01*
G01X3648000Y-850000D02*
X3608000Y-810000D01*
X2348010D01*
X2238000Y-699990D01*
Y-540000D01*
G01X2138000Y-340000D02*
X2188000Y-390000D01*
Y-699990D01*
X2328010Y-840000D01*
X3586490D01*
X3646490Y-900000D01*
X3738000D01*
X3748000Y-890000D01*
G01X2138000Y-630000D02*
X2101580Y-593580D01*
Y-174960D01*
X2152220Y-124320D01*
G01X2172320Y-104220D02*
X2188000Y-88540D01*
Y10000D01*
G01X2674500Y-430000D02*
X2523000D01*
X2473000Y-380000D01*
Y-340000D01*
X2423000Y-290000D01*
X2338000D01*
X2188000Y-140000D01*
G01X4388000Y-730000D02*
X3958000D01*
X3868000Y-640000D01*
X3318000D01*
X2658000Y20000D01*
X2478000D01*
X2238000Y260000D01*
G01X4572000Y-1270000D02*
X4698000Y-1144000D01*
Y-969990D01*
X4618010Y-890000D01*
X4282870D01*
X4270670Y-877800D01*
Y-782200D01*
X4258470Y-770000D01*
X4234070D01*
X4221870Y-782200D01*
Y-957800D01*
X4209670Y-970000D01*
X4185270D01*
X4173070Y-957800D01*
Y-782200D01*
X4160870Y-770000D01*
X4136470D01*
X4124270Y-782200D01*
Y-957800D01*
X4112070Y-970000D01*
X4087670D01*
X4075470Y-957800D01*
Y-782200D01*
X4063270Y-770000D01*
X4038870D01*
X4026670Y-782200D01*
Y-877800D01*
X4014470Y-890000D01*
X3987990D01*
X3772980Y-674990D01*
X3282990D01*
X2628000Y-20000D01*
X2466490D01*
X2188000Y258490D01*
Y310000D01*
X2158000Y340000D01*
G01X2338000Y260000D02*
Y208490D01*
X2422910Y123580D01*
X2714420D01*
X2804350Y33650D01*
X2821610D01*
X2899350Y111390D01*
X2916610D01*
X2933860Y94140D01*
Y76880D01*
X2831120Y-25860D01*
Y-43120D01*
X2848370Y-60370D01*
X2865630D01*
X3058370Y132370D01*
X3075630D01*
X3092880Y115120D01*
Y97860D01*
X2905140Y-89880D01*
Y-107140D01*
X3101930Y-303930D01*
X3119190D01*
X3251930Y-171190D01*
X3269190D01*
X3286440Y-188440D01*
Y-205700D01*
X3148700Y-343440D01*
Y-360700D01*
X3165950Y-377950D01*
X3183210D01*
X3328430Y-232730D01*
X3350740D01*
X3362940Y-244930D01*
Y-267240D01*
X3222720Y-407460D01*
Y-424720D01*
X3278000Y-480000D01*
X3468000D01*
X3568000Y-580000D01*
X3898000D01*
X3978000Y-660000D01*
X4420000D01*
X4572000Y-508000D01*
G01X2238000Y-90000D02*
Y20000D01*
X2158000Y100000D01*
Y288490D01*
X2121580Y324910D01*
Y387830D01*
X2098000Y411410D01*
Y593500D01*
X2061500Y630000D01*
G01X2338000Y360000D02*
X2588000D01*
X2598000Y350000D01*
X3038000D01*
G01X2958000Y430000D02*
X2238000D01*
G01Y340000D02*
X2268000Y310000D01*
X3308000D01*
X3329430Y288570D01*
Y271310D01*
X3256690Y198570D01*
Y181310D01*
X3273940Y164060D01*
X3291200D01*
X3418940Y291800D01*
X3436200D01*
X3453450Y274550D01*
Y257290D01*
X3325710Y129550D01*
Y112290D01*
X3342960Y95040D01*
X3360220D01*
X3492960Y227780D01*
X3510220D01*
X3527470Y210530D01*
Y193270D01*
X3394730Y60530D01*
Y43270D01*
X3411980Y26020D01*
X3429240D01*
X3501980Y98760D01*
X3519240D01*
X4018000Y-400000D01*
X4638010D01*
X4708000Y-469990D01*
Y-898000D01*
X4826000Y-1016000D01*
G01X4572000Y0D02*
X4323000D01*
X3908000Y415000D01*
X3168000D01*
X2803000Y780000D01*
X2603000D01*
X2463000Y920000D01*
X2338000D01*
G01X2708000Y4140000D02*
X2613000D01*
X2592200Y4119200D01*
Y4016370D01*
X2565830Y3990000D01*
X2418010D01*
X2318000Y3889990D01*
Y3662880D01*
X2460880Y3520000D01*
X2827990D01*
X2912200Y3435790D01*
Y3220030D01*
X3287330Y2844900D01*
X3346710D01*
X3534160Y2657450D01*
X3569920D01*
G01X2488000Y4140000D02*
X2548000D01*
X2568000Y4120000D01*
Y4026400D01*
X2555800Y4014200D01*
X2407980D01*
X2293800Y3900020D01*
Y3652850D01*
X2450850Y3495800D01*
X2817960D01*
X2888000Y3425760D01*
Y3210000D01*
X3277300Y2820700D01*
X3336680D01*
X3569920Y2587460D01*
Y2587450D01*
G01X2693000Y-2355000D02*
X2723000Y-2325000D01*
X3133000D01*
X3220200Y-2412200D01*
X3735200D01*
X3855750Y-2532750D01*
X4058990D01*
G01X2488000Y-2200000D02*
X2568000Y-2120000D01*
X3088000D01*
X3208000Y-2000000D01*
X3277990D01*
X3308000Y-2030010D01*
Y-2070000D01*
X3261440Y-2116560D01*
Y-2182600D01*
G01X2674500Y-540000D02*
Y-612500D01*
X2702000Y-640000D01*
G01X2674500Y-430000D02*
Y-540000D01*
G01X2671500Y-320000D02*
Y-427000D01*
X2674500Y-430000D01*
G01X4078000Y-547000D02*
X3715010D01*
X3298000Y-129990D01*
Y-20000D01*
X3118000Y160000D01*
X2498640D01*
G01X3368000Y-130000D02*
Y-40000D01*
X3131580Y196420D01*
X2474420D01*
X2438000Y160000D01*
G01X2498000Y80000D02*
X2658000D01*
X3267300Y-529300D01*
X3318700D01*
G01X4328000Y-450000D02*
X4318000Y-440000D01*
X3818000D01*
X3492200Y-114200D01*
Y-96940D01*
X3549940Y-39200D01*
Y-21940D01*
X3532690Y-4690D01*
X3515430D01*
X3457690Y-62430D01*
X3440430D01*
X3118000Y260000D01*
X2438000D01*
G01X4826000Y1524000D02*
X4702000Y1400000D01*
X2658000D01*
G01X3169920Y2647450D02*
X3134150D01*
X3082900Y2698700D01*
Y2949340D01*
X2968040Y3064200D01*
X2683790D01*
X2582200Y3165790D01*
Y3202280D01*
X2608780Y3228860D01*
X2812180D01*
G01X3169920Y2577450D02*
X3058700Y2688670D01*
Y2939310D01*
X2958010Y3040000D01*
X2673760D01*
X2558000Y3155760D01*
Y3204450D01*
X2533590Y3228860D01*
X2392180D01*
G01X4169920Y2657450D02*
X4135310D01*
X4112410Y2634550D01*
X4082280D01*
X4070080Y2646750D01*
Y2722150D01*
X4002200Y2790030D01*
Y3005800D01*
X3973800Y3034200D01*
X3826460D01*
X3712880Y2920620D01*
X3371610D01*
X3298030Y2994200D01*
X3268030D01*
X3002200Y3260030D01*
Y3510030D01*
X2908030Y3604200D01*
X2638030D01*
X2605110Y3637120D01*
Y3657120D01*
X2626850Y3678860D01*
X2812180D01*
G01X2488000Y3690000D02*
X2518000D01*
X2628000Y3580000D01*
X2898000D01*
X2978000Y3500000D01*
Y3250000D01*
X3258000Y2970000D01*
X3288000D01*
X3361580Y2896420D01*
X3722910D01*
X3836490Y3010000D01*
X3963770D01*
X3978000Y2995770D01*
Y2780000D01*
X4045880Y2712120D01*
Y2636720D01*
X4072250Y2610350D01*
X4112410D01*
X4135310Y2587450D01*
X4169920D01*
G01X2828000Y-2575000D02*
X2824000Y-2571000D01*
Y-2510000D01*
G01X2768000Y-2397500D02*
X2828000D01*
G01Y-2442500D02*
Y-2506000D01*
X2824000Y-2510000D01*
G01X3636500Y-1972650D02*
X3111390D01*
X3041440Y-2042600D01*
G01X2801500Y-430000D02*
X2908000D01*
X3188000Y-710000D01*
X3608000D01*
X3708000Y-810000D01*
G01X2758000Y1650000D02*
X4698000D01*
X4826000Y1778000D01*
G01X3261440Y-2042600D02*
X3213000Y-2091040D01*
Y-2204990D01*
X3253010Y-2245000D01*
X3442990D01*
X3482990Y-2205000D01*
X3773000D01*
X3858000Y-2290000D01*
G01X3041440Y-2182600D02*
X3120600D01*
X3228000Y-2290000D01*
X3523000D01*
G01X4096500Y-2192650D02*
X4057380D01*
X4028310Y-2163580D01*
X3384420D01*
X3365400Y-2182600D01*
X3261440D01*
G01X4572000Y508000D02*
X3424120D01*
X3377120Y555000D01*
X3338000D01*
G01X3178000Y2310000D02*
X3529510D01*
X3688000Y2468490D01*
Y2776500D01*
X3701500Y2790000D01*
G01X3343420Y2507450D02*
Y2490950D01*
X3279920Y2427450D01*
G01X3426420Y2507450D02*
Y2493950D01*
X3359920Y2427450D01*
G01X3169920Y2717450D02*
X3226420D01*
X3249920Y2740950D01*
G01X3406180Y3215050D02*
Y3194180D01*
X3342000Y3130000D01*
G01X3628000Y2990000D02*
X3580200D01*
X3570200Y3000000D01*
X3358000D01*
X3088000Y3270000D01*
Y3467800D01*
X3110200Y3490000D01*
X3180630D01*
X3185180Y3494550D01*
G01X3676680Y3029610D02*
X3676290Y3030000D01*
X3368000D01*
X3131180Y3266820D01*
Y3424550D01*
G01X3343680Y3427550D02*
X3260180D01*
X3257180Y3424550D01*
G01X3343680Y3477550D02*
X3274180D01*
X3257180Y3494550D01*
G01X3343680Y3377550D02*
X3284180D01*
X3271180Y3364550D01*
G01X3185180Y3424550D02*
X3131180D01*
G01X3168000Y3330000D02*
X3170450Y3327550D01*
X3343680D01*
G01X3185180Y3494550D02*
X3440630Y3750000D01*
X3608000D01*
X3619160Y3738840D01*
X3716840D01*
X3748000Y3770000D01*
X3898000D01*
X3968000Y3840000D01*
G01X3286240Y4069260D02*
X3268740D01*
X3228000Y4110000D01*
Y4250000D01*
X3398000Y4420000D01*
X4128010D01*
X4148010Y4400000D01*
X4308000D01*
X4418000Y4290000D01*
Y3865000D01*
X4353000Y3800000D01*
G01X3286240Y4069260D02*
X3350240D01*
X3356240Y4075260D01*
G01X3598000Y-3235000D02*
X3682200D01*
X3683200Y-3234000D01*
X3728000D01*
G01X3643000Y-2575000D02*
X3670670Y-2602670D01*
Y-2847670D01*
X3798000Y-2975000D01*
Y-3187500D01*
G01X3660200Y-2244850D02*
X3633150D01*
X3620500Y-2257500D01*
Y-2290000D01*
G01X3575500Y-2340000D02*
Y-2290000D01*
G01D02*
X3523000D01*
G01X3636500Y-1972650D02*
X3644000Y-1980150D01*
X3686500D01*
G01Y-2025150D02*
X3654000D01*
X3636500Y-2042650D01*
G01X3428000Y-530000D02*
X3508000Y-610000D01*
X3888000D01*
X3968000Y-690000D01*
X4500000D01*
X4572000Y-762000D01*
G01X3388000Y630000D02*
X4704000D01*
X4826000Y508000D01*
G01X3606180Y3215050D02*
Y3164180D01*
G01X3644000Y3130000D02*
X3664000Y3110000D01*
X3818000D01*
X3854420Y3146420D01*
X4271570D01*
X4358000Y3059990D01*
Y2949990D01*
X4467990Y2840000D01*
X5018000D01*
X5038000Y2820000D01*
G01X3606180Y3164180D02*
X3572000Y3130000D01*
G01X3414000D02*
X3418000D01*
X3478000Y3070000D01*
G01D02*
X3711660D01*
X3734830Y3046830D01*
G01X4048000Y3110000D02*
X3998000D01*
X3983780Y3124220D01*
X3872210D01*
X3701570Y2953580D01*
X3434420D01*
X3428000Y2960000D01*
X3388000D01*
G01X3506180Y3590050D02*
Y3670000D01*
G01X3556180Y3590050D02*
X3558000Y3591870D01*
Y3660000D01*
G01X3656180Y3590050D02*
X3718000D01*
G01X3406180D02*
X3408000Y3591870D01*
Y3606710D01*
X3521290Y3720000D01*
X3598000D01*
X3605200Y3712800D01*
X3740800D01*
X3756620Y3728620D01*
X4406620D01*
X4498000Y3820000D01*
X4878010D01*
X4954420Y3743590D01*
Y3536420D01*
X4968000Y3530000D01*
G01X3572710Y3865260D02*
X3487450Y3780000D01*
X3398000D01*
G01X4918000Y3570000D02*
X4900400Y3587600D01*
X4510400D01*
X4391580Y3706420D01*
X4262110D01*
X4249910Y3694220D01*
Y3602200D01*
X4237710Y3590000D01*
X4213310D01*
X4201110Y3602200D01*
Y3694220D01*
X4188910Y3706420D01*
X4164010D01*
X4151810Y3694220D01*
Y3602200D01*
X4139610Y3590000D01*
X4115210D01*
X4103010Y3602200D01*
Y3694220D01*
X4090810Y3706420D01*
X4066410D01*
X4054210Y3694220D01*
Y3602200D01*
X4042010Y3590000D01*
X4017610D01*
X4005410Y3602200D01*
Y3694220D01*
X3993210Y3706420D01*
X3774420D01*
X3758600Y3690600D01*
X3587400D01*
X3581580Y3696420D01*
X3532600D01*
X3506180Y3670000D01*
G01X3908000Y3860000D02*
X3728000Y4040000D01*
X3638000D01*
X3578000Y4100000D01*
X3508440D01*
X3496240Y4087800D01*
Y4035760D01*
G01X3431240Y4214760D02*
Y4194760D01*
X3476000Y4150000D01*
X3778000D01*
X4148000Y3780000D01*
X4248000D01*
G01X3469740Y3865260D02*
X3476240Y3871760D01*
G01X3432720Y4325260D02*
Y4216240D01*
X3431240Y4214760D01*
G01X3728000Y-3234000D02*
X3798000Y-3232500D01*
G01X4398000Y-2390000D02*
Y-2310000D01*
X4333000Y-2245000D01*
X3993500D01*
X3950500Y-2288000D01*
Y-2290000D01*
G01X3905500D02*
X3858000D01*
G01X3905500Y-2350000D02*
Y-2290000D01*
G01X3943420Y2507450D02*
Y2490950D01*
X3879920Y2427450D01*
G01X4026420Y2507450D02*
Y2493950D01*
X3959920Y2427450D01*
G01X3839920Y2807450D02*
X3848970Y2816500D01*
X3918000D01*
G01X3701500Y2790000D02*
X3767370D01*
X3769920Y2787450D01*
G01Y2717450D02*
X3826420D01*
X3849920Y2740950D01*
G01X3918000Y3087800D02*
X3970200D01*
X4028000Y3030000D01*
Y2817860D01*
X4118410Y2727450D01*
X4169920D01*
G01X3718680Y3277550D02*
Y3183320D01*
G01X4968000Y3070000D02*
X4964600Y3073400D01*
X4454600D01*
X4358000Y3170000D01*
X3804000D01*
G01X3718680Y3183320D02*
X3732000Y3170000D01*
G01X3718680Y3327550D02*
X3804650D01*
X3807650Y3324550D01*
G01X3718680Y3377550D02*
X3758180D01*
X3805180Y3424550D01*
G01X3718680Y3477550D02*
X3778180D01*
X3805180Y3504550D01*
G01X3807650Y3324550D02*
Y3269650D01*
G01X3877180Y3504550D02*
X4013450D01*
X4018000Y3500000D01*
G01X4983000Y3295000D02*
X4955330Y3322670D01*
X4808820D01*
X4796150Y3310000D01*
X4517990D01*
X4420470Y3212480D01*
X4217030D01*
X4003090Y3426420D01*
X3964420D01*
X3962550Y3424550D01*
X3877180D01*
G01X3807650Y3269650D02*
X3778000Y3240000D01*
G01X3958000D02*
X3974420Y3256420D01*
X4111580D01*
X4158000Y3210000D01*
G01X3878000Y3250000D02*
X3924420Y3203580D01*
X4071580D01*
X4088000Y3220000D01*
G01X4408000Y3260000D02*
X4364090D01*
X4351890Y3272200D01*
Y3317800D01*
X4339690Y3330000D01*
X4315290D01*
X4303090Y3317800D01*
Y3272200D01*
X4290890Y3260000D01*
X4206480D01*
X4108000Y3358480D01*
Y3520000D01*
X4068000Y3560000D01*
X3978000D01*
X3968000Y3570000D01*
Y3660000D01*
X3958000Y3670000D01*
X3928000D01*
X3918000Y3660000D01*
Y3570000D01*
X3908000Y3560000D01*
X3748050D01*
X3718000Y3590050D01*
G01X4826000Y-254000D02*
X4948000Y-376000D01*
Y-2360010D01*
X4485260Y-2822750D01*
X4122490D01*
G01X4238000Y2866500D02*
X4169920Y2798420D01*
Y2797450D01*
G01X4118000Y2866500D02*
X4099920Y2848420D01*
Y2797450D01*
G01X4169920Y2727450D02*
X4231950D01*
X4248000Y2743500D01*
G01X4048000Y3110000D02*
X4239510D01*
X4318000Y3031510D01*
Y2939990D01*
X4457990Y2800000D01*
X4857850D01*
X4968000Y2689850D01*
Y2550000D01*
G01X4158000Y3360000D02*
X4185670Y3387670D01*
X4430330D01*
X4478000Y3340000D01*
X4788000D01*
X4798000Y3350000D01*
X4893000D01*
X4953000Y3410000D01*
X5041580D01*
X5071580Y3380000D01*
G01X5068000Y3470000D02*
X4958000D01*
X4868000Y3560000D01*
X4268000D01*
X4158000Y3450000D01*
G01X4099710Y4355260D02*
X4148510D01*
X4158250Y4365000D01*
X4293000D01*
X4388000Y4270000D01*
Y3919990D01*
X4293000Y3824990D01*
Y3788340D01*
X4326340Y3755000D01*
X4378000D01*
X4473000Y3850000D01*
X5028010D01*
X5108000Y3770010D01*
Y3270000D01*
X5063000Y3225000D01*
X4968000D01*
G01X4056240Y4265260D02*
Y4263960D01*
G01X4099710Y4355260D02*
Y4338740D01*
X4056240Y4295270D01*
Y4265260D01*
M02*
