G04 ================== begin FILE IDENTIFICATION RECORD ==================*
G04 Layout Name:  hyp_ot_evt_042624.brd*
G04 Film Name:    bottom_silk*
G04 File Format:  Gerber RS274X*
G04 File Origin:  Cadence Allegro 22.1-P001*
G04 Origin Date:  Fri Apr 26 16:23:38 2024*
G04 *
G04 Layer:  DRAWING FORMAT/OUTLINE*
G04 Layer:  REF DES/SILKSCREEN_BOTTOM*
G04 Layer:  PACKAGE GEOMETRY/SILKSCREEN_BOTTOM*
G04 Layer:  BOARD GEOMETRY/SILKSCREEN_BOTTOM*
G04 *
G04 Offset:    (0.0000 0.0000)*
G04 Mirror:    No*
G04 Mode:      Positive*
G04 Rotation:  0*
G04 FullContactRelief:  No*
G04 UndefLineWidth:     0.1016*
G04 ================== end FILE IDENTIFICATION RECORD ====================*
%FSLAX55Y55*MOMM*%
%IR0*IPPOS*OFA0.00000B0.00000*MIA0B0*SFA1.00000B1.00000*%
%ADD10C,.1*%
%ADD11C,.2*%
%ADD12C,.127*%
%ADD13C,.254*%
G75*
%LPD*%
G75*
G36*
G01X-722000Y-2160000D02*
G03I-10000J0D01*
G37*
G36*
G01X3013000Y-3450000D02*
G03I-15000J0D01*
G37*
G36*
G01X3381180Y3622550D02*
G03I-10000J0D01*
G37*
G36*
G01X3611240Y3985260D02*
G03I-15000J0D01*
G37*
G36*
G01X3812490Y-2900250D02*
G03I-15000J0D01*
G37*
G36*
G01X3957710Y4213740D02*
G03I-10000J0D01*
G37*
G54D10*
G01X-632000Y-2697140D02*
Y-2662860D01*
G01X-665000Y-2200000D02*
X-712000D01*
Y-2153000D01*
G01X-665000Y-1800000D02*
X-712000D01*
Y-1847000D01*
G01X-532000Y-2697140D02*
Y-2662860D01*
G01X-359000Y-2200000D02*
X-312000D01*
Y-2153000D01*
G01X-359000Y-1800000D02*
X-312000D01*
Y-1847000D01*
G01X-292000Y4347140D02*
Y4312860D01*
G01X-492000Y4347140D02*
Y4312860D01*
G01X-412000Y4347140D02*
Y4312860D01*
G01X-392000Y4347140D02*
Y4312860D01*
G01X-312000Y4347140D02*
Y4312860D01*
G01X-137640Y1270000D02*
G03I-40160J0D01*
G01X-152400D02*
G03I-25400J0D01*
G01X-150340Y3556000D02*
G03I-40160J0D01*
G01X-165100D02*
G03I-25400J0D01*
G01X-212000Y4347140D02*
Y4312860D01*
G01X-42000Y4347140D02*
Y4312860D01*
G01X38000Y4347140D02*
Y4312860D01*
G01X58000Y4347140D02*
Y4312860D01*
G01X158000Y4347140D02*
Y4312860D01*
G01X238000Y4347140D02*
Y4312860D01*
G01X408000Y4347140D02*
Y4312860D01*
G01X138000Y4347140D02*
Y4312860D01*
G01X465140Y-3100000D02*
X430860D01*
G01X705140D02*
X670860D01*
G01X465140Y-3000000D02*
X430860D01*
G01X705140D02*
X670860D01*
G01X548000Y-792860D02*
Y-827140D01*
G01X628000Y-792860D02*
Y-827140D01*
G01X548000Y-452860D02*
Y-487140D01*
G01X628000Y-452860D02*
Y-487140D01*
G01X548000Y-92860D02*
Y-127140D01*
G01X628000Y-92860D02*
Y-127140D01*
G01X608000Y4347140D02*
Y4312860D01*
G01X688000Y4347140D02*
Y4312860D01*
G01X488000Y4347140D02*
Y4312860D01*
G01X508000Y4347140D02*
Y4312860D01*
G01X588000Y4347140D02*
Y4312860D01*
G01X1058000Y4347140D02*
Y4312860D01*
G01X858000Y4347140D02*
Y4312860D01*
G01X938000Y4347140D02*
Y4312860D01*
G01X958000Y4347140D02*
Y4312860D01*
G01X1038000Y4347140D02*
Y4312860D01*
G01X1190860Y-3100000D02*
X1225140D01*
G01X1190860Y-3000000D02*
X1225140D01*
G01X1138000Y4347140D02*
Y4312860D01*
G01X1308860Y4350000D02*
X1343140D01*
G01X1308860Y4430000D02*
X1343140D01*
G01X1470860Y-700000D02*
X1505140D01*
G01X1470860Y-620000D02*
X1505140D01*
G01X1470860Y-460000D02*
X1505140D01*
G01X1470860Y-590000D02*
X1505140D01*
G01X1470860Y-510000D02*
X1505140D01*
G01X1470860Y-380000D02*
X1505140D01*
G01X1470860Y-200000D02*
X1505140D01*
G01X1470860Y-120000D02*
X1505140D01*
G01X1505110Y-220000D02*
X1470830D01*
G01X1505110Y-320000D02*
X1470830D01*
G01X1470860Y-90000D02*
X1505140D01*
G01X1470860Y-10000D02*
X1505140D01*
G01X1470860Y40000D02*
X1505140D01*
G01X1470860Y120000D02*
X1505140D01*
G01X1470860Y360000D02*
X1505140D01*
G01X1470860Y440000D02*
X1505140D01*
G01X1680860Y420000D02*
X1715140D01*
G01X1680860Y500000D02*
X1715140D01*
G01X1713050Y2649500D02*
Y2615220D01*
G01X2015140Y670000D02*
X1980860D01*
G01X2015140Y590000D02*
X1980860D01*
G01X1833050Y2649500D02*
Y2615220D01*
G01X1913050Y2649500D02*
Y2615220D01*
G01X1793050Y2649500D02*
Y2615220D01*
G01X1775910Y2762360D02*
X1810190D01*
G01X1775910Y2842360D02*
X1810190D01*
G01X1775910Y2922360D02*
X1810190D01*
G01X1775910Y3002360D02*
X1810190D01*
G01X2590860Y-370000D02*
X2625140D01*
G01X2590860Y-270000D02*
X2625140D01*
G01X2720860Y-580000D02*
X2755140D01*
G01X2720860Y-500000D02*
X2755140D01*
G01X2720860Y-470000D02*
X2755140D01*
G01X2720860Y-390000D02*
X2755140D01*
G01X3297060Y2467450D02*
X3262780D01*
G01X3289920Y2660310D02*
Y2694590D01*
G01X3209920Y2660310D02*
Y2694590D01*
G01X3297060Y2547450D02*
X3262780D01*
G01X3331180Y3249550D02*
Y3202550D01*
X3378180D01*
G01X3331180Y3555550D02*
Y3602550D01*
X3378180D01*
G01X3472780Y2467450D02*
X3507060D01*
G01X3620860Y2750000D02*
X3655140D01*
G01X3620860Y2830000D02*
X3655140D01*
G01X3472780Y2547450D02*
X3507060D01*
G01X3731180Y3249550D02*
Y3202550D01*
X3684180D01*
G01X3731180Y3555550D02*
Y3602550D01*
X3684180D01*
G01X3423380Y3825260D02*
X3389100D01*
G01X3653350Y3815260D02*
X3619070D01*
G01X3423380Y3905260D02*
X3389100D01*
G01X3653350Y3915260D02*
X3619070D01*
G01X3513360Y4275260D02*
X3479080D01*
G01X3513360Y4375260D02*
X3479080D01*
G01X3897060Y2467450D02*
X3862780D01*
G01X3897060Y2547450D02*
X3862780D01*
G01X3889920Y2660310D02*
Y2694590D01*
G01X3809920Y2660310D02*
Y2694590D01*
G01X3878000Y2897140D02*
Y2862860D01*
G01X3958000Y2897140D02*
Y2862860D01*
G01X3888290Y3274550D02*
X3854010D01*
G01X3888290Y3374550D02*
X3854010D01*
G01X4053380Y4085260D02*
X4019100D01*
G01X4053380Y4165260D02*
X4019100D01*
G01X4053350Y4315260D02*
X4019070D01*
G01X4053350Y4395260D02*
X4019070D01*
G01X4139630Y-2492750D02*
X4105350D01*
G01X4139630Y-2572750D02*
X4105350D01*
G01X4072780Y2467450D02*
X4107060D01*
G01X4288000Y2662860D02*
Y2697140D01*
G01X4208000Y2662860D02*
Y2697140D01*
G01X4072780Y2547450D02*
X4107060D01*
G01X4078000Y2947140D02*
Y2912860D01*
G01X4158000Y2947140D02*
Y2912860D01*
G01X4198000Y2947140D02*
Y2912860D01*
G01X4278000Y2947140D02*
Y2912860D01*
G01X4419600Y4470400D02*
G03I-38100J0D01*
G01X4432300Y1778000D02*
G03I-38100J0D01*
G01X4422600D02*
G03I-28400J0D01*
G01X4406900Y4470400D02*
G03I-25400J0D01*
G54D11*
G01X-167800Y1270000D02*
G03I-10000J0D01*
G01X-180500Y3556000D02*
G03I-10000J0D01*
G01X4404200Y1778000D02*
G03I-10000J0D01*
G01X4391500Y4470400D02*
G03I-10000J0D01*
G54D12*
G01X-419860Y-2890000D02*
Y-2794750D01*
X-446320D01*
X-454790Y-2799510D01*
X-460080Y-2805860D01*
X-462200Y-2818560D01*
X-460080Y-2831260D01*
X-453730Y-2839200D01*
X-446320Y-2843960D01*
X-419860D01*
G01X-446320D02*
X-462200Y-2890000D01*
G01X-535010D02*
Y-2794750D01*
X-522310Y-2813800D01*
G01Y-2890000D02*
X-547710D01*
G01X-641690D02*
Y-2794750D01*
X-602530Y-2863010D01*
X-655450D01*
G01X-702860Y-2810620D02*
X-709210Y-2801100D01*
X-716620Y-2796340D01*
X-725090Y-2794750D01*
X-735670Y-2797920D01*
X-743080Y-2805860D01*
X-745200Y-2815390D01*
X-744140Y-2824910D01*
X-739900Y-2832850D01*
X-718740Y-2848730D01*
X-709210Y-2859840D01*
X-702860Y-2875720D01*
X-700740Y-2890000D01*
X-745200D01*
G01X-394740Y-2274750D02*
Y-2343010D01*
X-398970Y-2357300D01*
X-407440Y-2366830D01*
X-418020Y-2370000D01*
X-428600Y-2366830D01*
X-437070Y-2357300D01*
X-441300Y-2343010D01*
Y-2274750D01*
G01X-512000Y-2370000D02*
Y-2274750D01*
X-499300Y-2293800D01*
G01Y-2370000D02*
X-524700D01*
G01X-605980Y-2274750D02*
X-597510Y-2277920D01*
X-591160Y-2285860D01*
X-586930Y-2295390D01*
X-583750Y-2308090D01*
X-582700Y-2322380D01*
X-583750Y-2336660D01*
X-586930Y-2349360D01*
X-591160Y-2358890D01*
X-597510Y-2366830D01*
X-605980Y-2370000D01*
X-614450Y-2366830D01*
X-620800Y-2358890D01*
X-625030Y-2349360D01*
X-628210Y-2336660D01*
X-629260Y-2322380D01*
X-628210Y-2308090D01*
X-625030Y-2295390D01*
X-620800Y-2285860D01*
X-614450Y-2277920D01*
X-605980Y-2274750D01*
G01X-627030Y-1652690D02*
X-620680Y-1647920D01*
X-613280Y-1644750D01*
X-604810D01*
X-595280Y-1649510D01*
X-587880Y-1657450D01*
X-582580Y-1666980D01*
X-578350Y-1682850D01*
X-577290Y-1697140D01*
X-579410Y-1711430D01*
X-582580Y-1720950D01*
X-588930Y-1730480D01*
X-596340Y-1736830D01*
X-603750Y-1740000D01*
X-611160D01*
X-618570Y-1736830D01*
X-624920Y-1732060D01*
X-630210Y-1725720D01*
G01X-677620Y-1660620D02*
X-683970Y-1651100D01*
X-691380Y-1646340D01*
X-699850Y-1644750D01*
X-710430Y-1647920D01*
X-717840Y-1655860D01*
X-719960Y-1665390D01*
X-718900Y-1674910D01*
X-714660Y-1682850D01*
X-693500Y-1698730D01*
X-683970Y-1709840D01*
X-677620Y-1725720D01*
X-675500Y-1740000D01*
X-719960D01*
G01X-791710D02*
X-799120Y-1738410D01*
X-807580Y-1733650D01*
X-812880Y-1725720D01*
X-814990Y-1714600D01*
X-812880Y-1703490D01*
X-806530Y-1693960D01*
X-797000Y-1689200D01*
X-786420D01*
X-780070Y-1686020D01*
X-774780Y-1678090D01*
X-772660Y-1666980D01*
X-775840Y-1655860D01*
X-783240Y-1647920D01*
X-791710Y-1644750D01*
X-800180Y-1647920D01*
X-807580Y-1655860D01*
X-810760Y-1666980D01*
X-808640Y-1678090D01*
X-803350Y-1686020D01*
X-797000Y-1689200D01*
X-786420D01*
X-776890Y-1693960D01*
X-770540Y-1703490D01*
X-768430Y-1714600D01*
X-770540Y-1725720D01*
X-775840Y-1733650D01*
X-784300Y-1738410D01*
X-791710Y-1740000D01*
G01X-287000Y3978030D02*
X-217150D01*
Y3996550D01*
X-220640Y4002480D01*
X-225300Y4006180D01*
X-234610Y4007660D01*
X-243930Y4006180D01*
X-249750Y4001740D01*
X-253240Y3996550D01*
Y3978030D01*
G01Y3996550D02*
X-287000Y4007660D01*
G01Y4057610D02*
X-217150D01*
X-231120Y4048720D01*
G01X-287000D02*
Y4066500D01*
G01Y4120900D02*
X-271870Y4122380D01*
X-259060Y4124610D01*
X-247420Y4127570D01*
X-234610Y4131280D01*
X-217150Y4137200D01*
Y4107570D01*
G01X-287000Y4185670D02*
X-271870Y4187150D01*
X-259060Y4189380D01*
X-247420Y4192340D01*
X-234610Y4196050D01*
X-217150Y4201970D01*
Y4172340D01*
G01X-487000Y3978030D02*
X-417150D01*
Y3996550D01*
X-420640Y4002480D01*
X-425300Y4006180D01*
X-434610Y4007660D01*
X-443930Y4006180D01*
X-449750Y4001740D01*
X-453240Y3996550D01*
Y3978030D01*
G01Y3996550D02*
X-487000Y4007660D01*
G01Y4057610D02*
X-417150D01*
X-431120Y4048720D01*
G01X-487000D02*
Y4066500D01*
G01Y4120900D02*
X-471870Y4122380D01*
X-459060Y4124610D01*
X-447420Y4127570D01*
X-434610Y4131280D01*
X-417150Y4137200D01*
Y4107570D01*
G01X-478850Y4174560D02*
X-484670Y4179750D01*
X-487000Y4185670D01*
X-484670Y4191600D01*
X-477690Y4196790D01*
X-467210Y4200490D01*
X-456730Y4201970D01*
X-443930D01*
X-433450Y4200490D01*
X-424140Y4196790D01*
X-419480Y4192340D01*
X-417150Y4187150D01*
X-419480Y4181230D01*
X-424140Y4176780D01*
X-431120Y4173820D01*
X-440430Y4172340D01*
X-448580Y4173820D01*
X-456730Y4177520D01*
X-461390Y4181970D01*
X-462550Y4187150D01*
X-460230Y4193080D01*
X-454400Y4197530D01*
X-443930Y4201970D01*
G01X-387000Y3978030D02*
X-317150D01*
Y3996550D01*
X-320640Y4002480D01*
X-325300Y4006180D01*
X-334610Y4007660D01*
X-343930Y4006180D01*
X-349750Y4001740D01*
X-353240Y3996550D01*
Y3978030D01*
G01Y3996550D02*
X-387000Y4007660D01*
G01Y4057610D02*
X-317150D01*
X-331120Y4048720D01*
G01X-387000D02*
Y4066500D01*
G01Y4120900D02*
X-371870Y4122380D01*
X-359060Y4124610D01*
X-347420Y4127570D01*
X-334610Y4131280D01*
X-317150Y4137200D01*
Y4107570D01*
G01X-387000Y4187150D02*
X-385840Y4192340D01*
X-382340Y4198270D01*
X-376520Y4201970D01*
X-368370Y4203450D01*
X-360230Y4201970D01*
X-353240Y4197530D01*
X-349750Y4190860D01*
Y4183450D01*
X-347420Y4179010D01*
X-341600Y4175300D01*
X-333450Y4173820D01*
X-325300Y4176040D01*
X-319480Y4181230D01*
X-317150Y4187150D01*
X-319480Y4193080D01*
X-325300Y4198270D01*
X-333450Y4200490D01*
X-341600Y4199010D01*
X-347420Y4195300D01*
X-349750Y4190860D01*
Y4183450D01*
X-353240Y4176780D01*
X-360230Y4172340D01*
X-368370Y4170860D01*
X-376520Y4172340D01*
X-382340Y4176040D01*
X-385840Y4181970D01*
X-387000Y4187150D01*
G01X218700Y-2452690D02*
X225050Y-2447920D01*
X232450Y-2444750D01*
X240920D01*
X250450Y-2449510D01*
X257850Y-2457450D01*
X263150Y-2466980D01*
X267380Y-2482850D01*
X268440Y-2497140D01*
X266320Y-2511430D01*
X263150Y-2520950D01*
X256800Y-2530480D01*
X249390Y-2536830D01*
X241980Y-2540000D01*
X234570D01*
X227160Y-2536830D01*
X220810Y-2532060D01*
X215520Y-2525720D01*
G01X172340Y-2540000D02*
Y-2444750D01*
X123660Y-2540000D01*
Y-2444750D01*
G01X72010Y-2528890D02*
X64600Y-2536830D01*
X56140Y-2540000D01*
X47670Y-2536830D01*
X40260Y-2527300D01*
X34970Y-2513010D01*
X32850Y-2498730D01*
Y-2481260D01*
X34970Y-2466980D01*
X40260Y-2454280D01*
X46610Y-2447920D01*
X54020Y-2444750D01*
X62490Y-2447920D01*
X68840Y-2454280D01*
X73070Y-2463800D01*
X75190Y-2476500D01*
X73070Y-2487610D01*
X67780Y-2498730D01*
X61430Y-2505080D01*
X54020Y-2506660D01*
X45550Y-2503490D01*
X39200Y-2495550D01*
X32850Y-2481260D01*
G01X-127000Y1397000D02*
X381000D01*
Y-2413000D01*
X-127000D01*
Y1397000D01*
G01Y3683000D02*
X381000D01*
Y1651000D01*
X-127000D01*
Y3683000D01*
G01X-37000Y3978030D02*
X32850D01*
Y3996550D01*
X29360Y4002480D01*
X24700Y4006180D01*
X15390Y4007660D01*
X6070Y4006180D01*
X250Y4001740D01*
X-3240Y3996550D01*
Y3978030D01*
G01Y3996550D02*
X-37000Y4007660D01*
G01Y4057610D02*
X32850D01*
X18880Y4048720D01*
G01X-37000D02*
Y4066500D01*
G01Y4122380D02*
X-35840Y4127570D01*
X-32340Y4133500D01*
X-26520Y4137200D01*
X-18370Y4138680D01*
X-10230Y4137200D01*
X-3240Y4132760D01*
X250Y4126090D01*
Y4118680D01*
X2580Y4114240D01*
X8400Y4110530D01*
X16550Y4109050D01*
X24700Y4111270D01*
X30520Y4116460D01*
X32850Y4122380D01*
X30520Y4128310D01*
X24700Y4133500D01*
X16550Y4135720D01*
X8400Y4134240D01*
X2580Y4130530D01*
X250Y4126090D01*
Y4118680D01*
X-3240Y4112010D01*
X-10230Y4107570D01*
X-18370Y4106090D01*
X-26520Y4107570D01*
X-32340Y4111270D01*
X-35840Y4117200D01*
X-37000Y4122380D01*
G01X21210Y4173080D02*
X28190Y4177520D01*
X31690Y4182710D01*
X32850Y4188640D01*
X30520Y4196050D01*
X24700Y4201230D01*
X17720Y4202710D01*
X10730Y4201970D01*
X4910Y4199010D01*
X-6730Y4184190D01*
X-14880Y4177520D01*
X-26520Y4173080D01*
X-37000Y4171600D01*
Y4202710D01*
G01X63000Y3978030D02*
X132850D01*
Y3996550D01*
X129360Y4002480D01*
X124700Y4006180D01*
X115390Y4007660D01*
X106070Y4006180D01*
X100250Y4001740D01*
X96760Y3996550D01*
Y3978030D01*
G01Y3996550D02*
X63000Y4007660D01*
G01Y4057610D02*
X132850D01*
X118880Y4048720D01*
G01X63000D02*
Y4066500D01*
G01Y4122380D02*
X64160Y4127570D01*
X67660Y4133500D01*
X73480Y4137200D01*
X81630Y4138680D01*
X89770Y4137200D01*
X96760Y4132760D01*
X100250Y4126090D01*
Y4118680D01*
X102580Y4114240D01*
X108400Y4110530D01*
X116550Y4109050D01*
X124700Y4111270D01*
X130520Y4116460D01*
X132850Y4122380D01*
X130520Y4128310D01*
X124700Y4133500D01*
X116550Y4135720D01*
X108400Y4134240D01*
X102580Y4130530D01*
X100250Y4126090D01*
Y4118680D01*
X96760Y4112010D01*
X89770Y4107570D01*
X81630Y4106090D01*
X73480Y4107570D01*
X67660Y4111270D01*
X64160Y4117200D01*
X63000Y4122380D01*
G01Y4187150D02*
X132850D01*
X118880Y4178260D01*
G01X63000D02*
Y4196040D01*
G01X540140Y-3230000D02*
Y-3134750D01*
X513680D01*
X505210Y-3139510D01*
X499920Y-3145860D01*
X497800Y-3158560D01*
X499920Y-3171260D01*
X506270Y-3179200D01*
X513680Y-3183960D01*
X540140D01*
G01X513680D02*
X497800Y-3230000D01*
G01X424990D02*
Y-3134750D01*
X437690Y-3153800D01*
G01Y-3230000D02*
X412290D01*
G01X354290Y-3210950D02*
X347940Y-3222060D01*
X339480Y-3228410D01*
X329950Y-3230000D01*
X321480Y-3228410D01*
X313020Y-3220480D01*
X307730Y-3210950D01*
X306670Y-3201430D01*
X308780Y-3190320D01*
X316190Y-3182380D01*
X323600Y-3179200D01*
X333130D01*
G01X323600D02*
X317250Y-3174440D01*
X311960Y-3166500D01*
X309840Y-3156980D01*
X311960Y-3147450D01*
X317250Y-3139510D01*
X326780Y-3134750D01*
X336300Y-3136340D01*
X345830Y-3142690D01*
G01X255020Y-3218890D02*
X247610Y-3226830D01*
X239150Y-3230000D01*
X230680Y-3226830D01*
X223270Y-3217300D01*
X217980Y-3203010D01*
X215860Y-3188730D01*
Y-3171260D01*
X217980Y-3156980D01*
X223270Y-3144280D01*
X229620Y-3137920D01*
X237030Y-3134750D01*
X245500Y-3137920D01*
X251850Y-3144280D01*
X256080Y-3153800D01*
X258200Y-3166500D01*
X256080Y-3177610D01*
X250790Y-3188730D01*
X244440Y-3195080D01*
X237030Y-3196660D01*
X228560Y-3193490D01*
X222210Y-3185550D01*
X215860Y-3171260D01*
G01X163000Y3978030D02*
X232850D01*
Y3996550D01*
X229360Y4002480D01*
X224700Y4006180D01*
X215390Y4007660D01*
X206070Y4006180D01*
X200250Y4001740D01*
X196760Y3996550D01*
Y3978030D01*
G01Y3996550D02*
X163000Y4007660D01*
G01Y4057610D02*
X232850D01*
X218880Y4048720D01*
G01X163000D02*
Y4066500D01*
G01Y4122380D02*
X164160Y4127570D01*
X167660Y4133500D01*
X173480Y4137200D01*
X181630Y4138680D01*
X189770Y4137200D01*
X196760Y4132760D01*
X200250Y4126090D01*
Y4118680D01*
X202580Y4114240D01*
X208400Y4110530D01*
X216550Y4109050D01*
X224700Y4111270D01*
X230520Y4116460D01*
X232850Y4122380D01*
X230520Y4128310D01*
X224700Y4133500D01*
X216550Y4135720D01*
X208400Y4134240D01*
X202580Y4130530D01*
X200250Y4126090D01*
Y4118680D01*
X196760Y4112010D01*
X189770Y4107570D01*
X181630Y4106090D01*
X173480Y4107570D01*
X167660Y4111270D01*
X164160Y4117200D01*
X163000Y4122380D01*
G01X232850Y4187150D02*
X230520Y4181230D01*
X224700Y4176780D01*
X217720Y4173820D01*
X208400Y4171600D01*
X197920Y4170860D01*
X187450Y4171600D01*
X178130Y4173820D01*
X171150Y4176780D01*
X165330Y4181230D01*
X163000Y4187150D01*
X165330Y4193080D01*
X171150Y4197530D01*
X178130Y4200490D01*
X187450Y4202710D01*
X197920Y4203450D01*
X208400Y4202710D01*
X217720Y4200490D01*
X224700Y4197530D01*
X230520Y4193080D01*
X232850Y4187150D01*
G01X413000Y3978030D02*
X482850D01*
Y3996550D01*
X479360Y4002480D01*
X474700Y4006180D01*
X465390Y4007660D01*
X456070Y4006180D01*
X450250Y4001740D01*
X446760Y3996550D01*
Y3978030D01*
G01Y3996550D02*
X413000Y4007660D01*
G01Y4057610D02*
X482850D01*
X468880Y4048720D01*
G01X413000D02*
Y4066500D01*
G01Y4122380D02*
X414160Y4127570D01*
X417660Y4133500D01*
X423480Y4137200D01*
X431630Y4138680D01*
X439770Y4137200D01*
X446760Y4132760D01*
X450250Y4126090D01*
Y4118680D01*
X452580Y4114240D01*
X458400Y4110530D01*
X466550Y4109050D01*
X474700Y4111270D01*
X480520Y4116460D01*
X482850Y4122380D01*
X480520Y4128310D01*
X474700Y4133500D01*
X466550Y4135720D01*
X458400Y4134240D01*
X452580Y4130530D01*
X450250Y4126090D01*
Y4118680D01*
X446760Y4112010D01*
X439770Y4107570D01*
X431630Y4106090D01*
X423480Y4107570D01*
X417660Y4111270D01*
X414160Y4117200D01*
X413000Y4122380D01*
G01X423480Y4170860D02*
X417660Y4175300D01*
X414160Y4180490D01*
X413000Y4187150D01*
X415330Y4193820D01*
X419980Y4199010D01*
X428130Y4202710D01*
X437450Y4203450D01*
X446760Y4201970D01*
X452580Y4198270D01*
X457240Y4193080D01*
X458400Y4187900D01*
X457240Y4182710D01*
X452580Y4176040D01*
X482850Y4178260D01*
Y4198270D01*
G01X950140Y-3230000D02*
Y-3134750D01*
X923680D01*
X915210Y-3139510D01*
X909920Y-3145860D01*
X907800Y-3158560D01*
X909920Y-3171260D01*
X916270Y-3179200D01*
X923680Y-3183960D01*
X950140D01*
G01X923680D02*
X907800Y-3230000D01*
G01X834990D02*
Y-3134750D01*
X847690Y-3153800D01*
G01Y-3230000D02*
X822290D01*
G01X764290Y-3210950D02*
X757940Y-3222060D01*
X749480Y-3228410D01*
X739950Y-3230000D01*
X731480Y-3228410D01*
X723020Y-3220480D01*
X717730Y-3210950D01*
X716670Y-3201430D01*
X718780Y-3190320D01*
X726190Y-3182380D01*
X733600Y-3179200D01*
X743130D01*
G01X733600D02*
X727250Y-3174440D01*
X721960Y-3166500D01*
X719840Y-3156980D01*
X721960Y-3147450D01*
X727250Y-3139510D01*
X736780Y-3134750D01*
X746300Y-3136340D01*
X755830Y-3142690D01*
G01X647030Y-3230000D02*
Y-3134750D01*
X659730Y-3153800D01*
G01Y-3230000D02*
X634330D01*
G01X903150Y-1037620D02*
Y-942370D01*
X876690D01*
X868220Y-947130D01*
X862930Y-953480D01*
X860810Y-966180D01*
X862930Y-978880D01*
X869280Y-986820D01*
X876690Y-991580D01*
X903150D01*
G01X876690D02*
X860810Y-1037620D01*
G01X808110Y-958240D02*
X801760Y-948720D01*
X794350Y-943960D01*
X785880Y-942370D01*
X775300Y-945540D01*
X767890Y-953480D01*
X765770Y-963010D01*
X766830Y-972530D01*
X771070Y-980470D01*
X792230Y-996350D01*
X801760Y-1007460D01*
X808110Y-1023340D01*
X810230Y-1037620D01*
X765770D01*
G01X696140D02*
X694020Y-1016980D01*
X690840Y-999520D01*
X686610Y-983640D01*
X681320Y-966180D01*
X672850Y-942370D01*
X715190D01*
G01X903150Y-887630D02*
Y-792380D01*
X876690D01*
X868220Y-797140D01*
X862930Y-803490D01*
X860810Y-816190D01*
X862930Y-828890D01*
X869280Y-836830D01*
X876690Y-841590D01*
X903150D01*
G01X876690D02*
X860810Y-887630D01*
G01X808110Y-808250D02*
X801760Y-798730D01*
X794350Y-793970D01*
X785880Y-792380D01*
X775300Y-795550D01*
X767890Y-803490D01*
X765770Y-813020D01*
X766830Y-822540D01*
X771070Y-830480D01*
X792230Y-846360D01*
X801760Y-857470D01*
X808110Y-873350D01*
X810230Y-887630D01*
X765770D01*
G01X714130Y-847950D02*
X706720Y-836830D01*
X700370Y-830480D01*
X691900Y-827310D01*
X684490Y-830480D01*
X679200Y-836830D01*
X674970Y-846360D01*
X673910Y-857470D01*
X674970Y-866990D01*
X679200Y-876520D01*
X685550Y-884460D01*
X692960Y-887630D01*
X701430Y-884460D01*
X708840Y-874930D01*
X713070Y-860640D01*
X714130Y-844770D01*
X712010Y-824130D01*
X708840Y-813020D01*
X703550Y-801910D01*
X696140Y-793970D01*
X688730Y-792380D01*
X681320Y-795550D01*
X676030Y-803490D01*
G01X903150Y-677630D02*
Y-582380D01*
X876690D01*
X868220Y-587140D01*
X862930Y-593490D01*
X860810Y-606190D01*
X862930Y-618890D01*
X869280Y-626830D01*
X876690Y-631590D01*
X903150D01*
G01X876690D02*
X860810Y-677630D01*
G01X808110Y-598250D02*
X801760Y-588730D01*
X794350Y-583970D01*
X785880Y-582380D01*
X775300Y-585550D01*
X767890Y-593490D01*
X765770Y-603020D01*
X766830Y-612540D01*
X771070Y-620480D01*
X792230Y-636360D01*
X801760Y-647470D01*
X808110Y-663350D01*
X810230Y-677630D01*
X765770D01*
G01X717300Y-663350D02*
X710950Y-671280D01*
X703550Y-676040D01*
X694020Y-677630D01*
X684490Y-674460D01*
X677090Y-668110D01*
X671790Y-656990D01*
X670740Y-644290D01*
X672850Y-631590D01*
X678150Y-623650D01*
X685550Y-617310D01*
X692960Y-615720D01*
X700370Y-617310D01*
X709890Y-623650D01*
X706720Y-582380D01*
X678150D01*
G01X893150Y-507620D02*
Y-412370D01*
X866690D01*
X858220Y-417130D01*
X852930Y-423480D01*
X850810Y-436180D01*
X852930Y-448880D01*
X859280Y-456820D01*
X866690Y-461580D01*
X893150D01*
G01X866690D02*
X850810Y-507620D01*
G01X798110Y-428240D02*
X791760Y-418720D01*
X784350Y-413960D01*
X775880Y-412370D01*
X765300Y-415540D01*
X757890Y-423480D01*
X755770Y-433010D01*
X756830Y-442530D01*
X761070Y-450470D01*
X782230Y-466350D01*
X791760Y-477460D01*
X798110Y-493340D01*
X800230Y-507620D01*
X755770D01*
G01X671320D02*
Y-412370D01*
X710480Y-480630D01*
X657560D01*
G01X903150Y-317630D02*
Y-222380D01*
X876690D01*
X868220Y-227140D01*
X862930Y-233490D01*
X860810Y-246190D01*
X862930Y-258890D01*
X869280Y-266830D01*
X876690Y-271590D01*
X903150D01*
G01X876690D02*
X860810Y-317630D01*
G01X808110Y-238250D02*
X801760Y-228730D01*
X794350Y-223970D01*
X785880Y-222380D01*
X775300Y-225550D01*
X767890Y-233490D01*
X765770Y-243020D01*
X766830Y-252540D01*
X771070Y-260480D01*
X792230Y-276360D01*
X801760Y-287470D01*
X808110Y-303350D01*
X810230Y-317630D01*
X765770D01*
G01X717300Y-298580D02*
X710950Y-309690D01*
X702490Y-316040D01*
X692960Y-317630D01*
X684490Y-316040D01*
X676030Y-308110D01*
X670740Y-298580D01*
X669680Y-289060D01*
X671790Y-277950D01*
X679200Y-270010D01*
X686610Y-266830D01*
X696140D01*
G01X686610D02*
X680260Y-262070D01*
X674970Y-254130D01*
X672850Y-244610D01*
X674970Y-235080D01*
X680260Y-227140D01*
X689790Y-222380D01*
X699310Y-223970D01*
X708840Y-230320D01*
G01X893150Y-167630D02*
Y-72380D01*
X866690D01*
X858220Y-77140D01*
X852930Y-83490D01*
X850810Y-96190D01*
X852930Y-108890D01*
X859280Y-116830D01*
X866690Y-121590D01*
X893150D01*
G01X866690D02*
X850810Y-167630D01*
G01X778000D02*
Y-72380D01*
X790700Y-91430D01*
G01Y-167630D02*
X765300D01*
G01X686140D02*
X684020Y-146990D01*
X680840Y-129530D01*
X676610Y-113650D01*
X671320Y-96190D01*
X662850Y-72380D01*
X705190D01*
G01X618700Y3607310D02*
X625050Y3612080D01*
X632450Y3615250D01*
X640920D01*
X650450Y3610490D01*
X657850Y3602550D01*
X663150Y3593020D01*
X667380Y3577150D01*
X668440Y3562860D01*
X666320Y3548570D01*
X663150Y3539050D01*
X656800Y3529520D01*
X649390Y3523170D01*
X641980Y3520000D01*
X634570D01*
X627160Y3523170D01*
X620810Y3527940D01*
X615520Y3534280D01*
G01X572340Y3520000D02*
Y3615250D01*
X523660Y3520000D01*
Y3615250D01*
G01X454020Y3520000D02*
X446610Y3521590D01*
X438150Y3526350D01*
X432850Y3534280D01*
X430740Y3545400D01*
X432850Y3556510D01*
X439200Y3566040D01*
X448730Y3570800D01*
X459310D01*
X465660Y3573980D01*
X470950Y3581910D01*
X473070Y3593020D01*
X469890Y3604140D01*
X462490Y3612080D01*
X454020Y3615250D01*
X445550Y3612080D01*
X438150Y3604140D01*
X434970Y3593020D01*
X437090Y3581910D01*
X442380Y3573980D01*
X448730Y3570800D01*
X459310D01*
X468840Y3566040D01*
X475190Y3556510D01*
X477300Y3545400D01*
X475190Y3534280D01*
X469890Y3526350D01*
X461430Y3521590D01*
X454020Y3520000D01*
G01X613000Y3978030D02*
X682850D01*
Y3996550D01*
X679360Y4002480D01*
X674700Y4006180D01*
X665390Y4007660D01*
X656070Y4006180D01*
X650250Y4001740D01*
X646760Y3996550D01*
Y3978030D01*
G01Y3996550D02*
X613000Y4007660D01*
G01Y4057610D02*
X682850D01*
X668880Y4048720D01*
G01X613000D02*
Y4066500D01*
G01Y4122380D02*
X614160Y4127570D01*
X617660Y4133500D01*
X623480Y4137200D01*
X631630Y4138680D01*
X639770Y4137200D01*
X646760Y4132760D01*
X650250Y4126090D01*
Y4118680D01*
X652580Y4114240D01*
X658400Y4110530D01*
X666550Y4109050D01*
X674700Y4111270D01*
X680520Y4116460D01*
X682850Y4122380D01*
X680520Y4128310D01*
X674700Y4133500D01*
X666550Y4135720D01*
X658400Y4134240D01*
X652580Y4130530D01*
X650250Y4126090D01*
Y4118680D01*
X646760Y4112010D01*
X639770Y4107570D01*
X631630Y4106090D01*
X623480Y4107570D01*
X617660Y4111270D01*
X614160Y4117200D01*
X613000Y4122380D01*
G01X626970Y4170860D02*
X618820Y4175300D01*
X614160Y4181230D01*
X613000Y4187900D01*
X614160Y4193820D01*
X619980Y4199750D01*
X626970Y4203450D01*
X633950Y4204190D01*
X642100Y4202710D01*
X647920Y4197530D01*
X650250Y4192340D01*
Y4185670D01*
G01Y4192340D02*
X653750Y4196790D01*
X659570Y4200490D01*
X666550Y4201970D01*
X673540Y4200490D01*
X679360Y4196790D01*
X682850Y4190120D01*
X681690Y4183450D01*
X677030Y4176780D01*
G01X513000Y3978030D02*
X582850D01*
Y3996550D01*
X579360Y4002480D01*
X574700Y4006180D01*
X565390Y4007660D01*
X556070Y4006180D01*
X550250Y4001740D01*
X546760Y3996550D01*
Y3978030D01*
G01Y3996550D02*
X513000Y4007660D01*
G01Y4057610D02*
X582850D01*
X568880Y4048720D01*
G01X513000D02*
Y4066500D01*
G01Y4122380D02*
X514160Y4127570D01*
X517660Y4133500D01*
X523480Y4137200D01*
X531630Y4138680D01*
X539770Y4137200D01*
X546760Y4132760D01*
X550250Y4126090D01*
Y4118680D01*
X552580Y4114240D01*
X558400Y4110530D01*
X566550Y4109050D01*
X574700Y4111270D01*
X580520Y4116460D01*
X582850Y4122380D01*
X580520Y4128310D01*
X574700Y4133500D01*
X566550Y4135720D01*
X558400Y4134240D01*
X552580Y4130530D01*
X550250Y4126090D01*
Y4118680D01*
X546760Y4112010D01*
X539770Y4107570D01*
X531630Y4106090D01*
X523480Y4107570D01*
X517660Y4111270D01*
X514160Y4117200D01*
X513000Y4122380D01*
G01Y4196050D02*
X582850D01*
X532790Y4168630D01*
Y4205680D01*
G01X1330140Y-2970000D02*
Y-2874750D01*
X1303680D01*
X1295210Y-2879510D01*
X1289920Y-2885860D01*
X1287800Y-2898560D01*
X1289920Y-2911260D01*
X1296270Y-2919200D01*
X1303680Y-2923960D01*
X1330140D01*
G01X1303680D02*
X1287800Y-2970000D01*
G01X1214990D02*
Y-2874750D01*
X1227690Y-2893800D01*
G01Y-2970000D02*
X1202290D01*
G01X1108310D02*
Y-2874750D01*
X1147470Y-2943010D01*
X1094550D01*
G01X1027030Y-2874750D02*
X1035500Y-2877920D01*
X1041850Y-2885860D01*
X1046080Y-2895390D01*
X1049260Y-2908090D01*
X1050310Y-2922380D01*
X1049260Y-2936660D01*
X1046080Y-2949360D01*
X1041850Y-2958890D01*
X1035500Y-2966830D01*
X1027030Y-2970000D01*
X1018560Y-2966830D01*
X1012210Y-2958890D01*
X1007980Y-2949360D01*
X1004800Y-2936660D01*
X1003750Y-2922380D01*
X1004800Y-2908090D01*
X1007980Y-2895390D01*
X1012210Y-2885860D01*
X1018560Y-2877920D01*
X1027030Y-2874750D01*
G01X1360140Y42380D02*
Y137630D01*
X1333680D01*
X1325210Y132870D01*
X1319920Y126520D01*
X1317800Y113820D01*
X1319920Y101120D01*
X1326270Y93180D01*
X1333680Y88420D01*
X1360140D01*
G01X1333680D02*
X1317800Y42380D01*
G01X1244990D02*
Y137630D01*
X1257690Y118580D01*
G01Y42380D02*
X1232290D01*
G01X1174290Y61430D02*
X1167940Y50320D01*
X1159480Y43970D01*
X1149950Y42380D01*
X1141480Y43970D01*
X1133020Y51900D01*
X1127730Y61430D01*
X1126670Y70950D01*
X1128780Y82060D01*
X1136190Y90000D01*
X1143600Y93180D01*
X1153130D01*
G01X1143600D02*
X1137250Y97940D01*
X1131960Y105880D01*
X1129840Y115400D01*
X1131960Y124930D01*
X1137250Y132870D01*
X1146780Y137630D01*
X1156300Y136040D01*
X1165830Y129690D01*
G01X1077140Y82060D02*
X1069730Y93180D01*
X1063380Y99530D01*
X1054910Y102700D01*
X1047500Y99530D01*
X1042210Y93180D01*
X1037980Y83650D01*
X1036920Y72540D01*
X1037980Y63020D01*
X1042210Y53490D01*
X1048560Y45550D01*
X1055970Y42380D01*
X1064440Y45550D01*
X1071850Y55080D01*
X1076080Y69370D01*
X1077140Y85240D01*
X1075020Y105880D01*
X1071850Y116990D01*
X1066560Y128100D01*
X1059150Y136040D01*
X1051740Y137630D01*
X1044330Y134460D01*
X1039040Y126520D01*
G01X1063000Y3978030D02*
X1132850D01*
Y3996550D01*
X1129360Y4002480D01*
X1124700Y4006180D01*
X1115390Y4007660D01*
X1106070Y4006180D01*
X1100250Y4001740D01*
X1096760Y3996550D01*
Y3978030D01*
G01Y3996550D02*
X1063000Y4007660D01*
G01Y4057610D02*
X1132850D01*
X1118880Y4048720D01*
G01X1063000D02*
Y4066500D01*
G01Y4122380D02*
X1064160Y4127570D01*
X1067660Y4133500D01*
X1073480Y4137200D01*
X1081630Y4138680D01*
X1089770Y4137200D01*
X1096760Y4132760D01*
X1100250Y4126090D01*
Y4118680D01*
X1102580Y4114240D01*
X1108400Y4110530D01*
X1116550Y4109050D01*
X1124700Y4111270D01*
X1130520Y4116460D01*
X1132850Y4122380D01*
X1130520Y4128310D01*
X1124700Y4133500D01*
X1116550Y4135720D01*
X1108400Y4134240D01*
X1102580Y4130530D01*
X1100250Y4126090D01*
Y4118680D01*
X1096760Y4112010D01*
X1089770Y4107570D01*
X1081630Y4106090D01*
X1073480Y4107570D01*
X1067660Y4111270D01*
X1064160Y4117200D01*
X1063000Y4122380D01*
G01X1092100Y4173080D02*
X1100250Y4178260D01*
X1104910Y4182710D01*
X1107240Y4188640D01*
X1104910Y4193820D01*
X1100250Y4197530D01*
X1093270Y4200490D01*
X1085120Y4201230D01*
X1078130Y4200490D01*
X1071150Y4197530D01*
X1065330Y4193080D01*
X1063000Y4187900D01*
X1065330Y4181970D01*
X1072310Y4176780D01*
X1082790Y4173820D01*
X1094430Y4173080D01*
X1109570Y4174560D01*
X1117720Y4176780D01*
X1125860Y4180490D01*
X1131690Y4185670D01*
X1132850Y4190860D01*
X1130520Y4196050D01*
X1124700Y4199750D01*
G01X863000Y3978030D02*
X932850D01*
Y3996550D01*
X929360Y4002480D01*
X924700Y4006180D01*
X915390Y4007660D01*
X906070Y4006180D01*
X900250Y4001740D01*
X896760Y3996550D01*
Y3978030D01*
G01Y3996550D02*
X863000Y4007660D01*
G01Y4057610D02*
X932850D01*
X918880Y4048720D01*
G01X863000D02*
Y4066500D01*
G01Y4122380D02*
X864160Y4127570D01*
X867660Y4133500D01*
X873480Y4137200D01*
X881630Y4138680D01*
X889770Y4137200D01*
X896760Y4132760D01*
X900250Y4126090D01*
Y4118680D01*
X902580Y4114240D01*
X908400Y4110530D01*
X916550Y4109050D01*
X924700Y4111270D01*
X930520Y4116460D01*
X932850Y4122380D01*
X930520Y4128310D01*
X924700Y4133500D01*
X916550Y4135720D01*
X908400Y4134240D01*
X902580Y4130530D01*
X900250Y4126090D01*
Y4118680D01*
X896760Y4112010D01*
X889770Y4107570D01*
X881630Y4106090D01*
X873480Y4107570D01*
X867660Y4111270D01*
X864160Y4117200D01*
X863000Y4122380D01*
G01Y4187150D02*
X864160Y4192340D01*
X867660Y4198270D01*
X873480Y4201970D01*
X881630Y4203450D01*
X889770Y4201970D01*
X896760Y4197530D01*
X900250Y4190860D01*
Y4183450D01*
X902580Y4179010D01*
X908400Y4175300D01*
X916550Y4173820D01*
X924700Y4176040D01*
X930520Y4181230D01*
X932850Y4187150D01*
X930520Y4193080D01*
X924700Y4198270D01*
X916550Y4200490D01*
X908400Y4199010D01*
X902580Y4195300D01*
X900250Y4190860D01*
Y4183450D01*
X896760Y4176780D01*
X889770Y4172340D01*
X881630Y4170860D01*
X873480Y4172340D01*
X867660Y4176040D01*
X864160Y4181970D01*
X863000Y4187150D01*
G01X963000Y3978030D02*
X1032850D01*
Y3996550D01*
X1029360Y4002480D01*
X1024700Y4006180D01*
X1015390Y4007660D01*
X1006070Y4006180D01*
X1000250Y4001740D01*
X996760Y3996550D01*
Y3978030D01*
G01Y3996550D02*
X963000Y4007660D01*
G01Y4057610D02*
X1032850D01*
X1018880Y4048720D01*
G01X963000D02*
Y4066500D01*
G01Y4122380D02*
X964160Y4127570D01*
X967660Y4133500D01*
X973480Y4137200D01*
X981630Y4138680D01*
X989770Y4137200D01*
X996760Y4132760D01*
X1000250Y4126090D01*
Y4118680D01*
X1002580Y4114240D01*
X1008400Y4110530D01*
X1016550Y4109050D01*
X1024700Y4111270D01*
X1030520Y4116460D01*
X1032850Y4122380D01*
X1030520Y4128310D01*
X1024700Y4133500D01*
X1016550Y4135720D01*
X1008400Y4134240D01*
X1002580Y4130530D01*
X1000250Y4126090D01*
Y4118680D01*
X996760Y4112010D01*
X989770Y4107570D01*
X981630Y4106090D01*
X973480Y4107570D01*
X967660Y4111270D01*
X964160Y4117200D01*
X963000Y4122380D01*
G01Y4185670D02*
X978130Y4187150D01*
X990940Y4189380D01*
X1002580Y4192340D01*
X1015390Y4196050D01*
X1032850Y4201970D01*
Y4172340D01*
G01X1353150Y-717620D02*
Y-622370D01*
X1326690D01*
X1318220Y-627130D01*
X1312930Y-633480D01*
X1310810Y-646180D01*
X1312930Y-658880D01*
X1319280Y-666820D01*
X1326690Y-671580D01*
X1353150D01*
G01X1326690D02*
X1310810Y-717620D01*
G01X1238000D02*
Y-622370D01*
X1250700Y-641420D01*
G01Y-717620D02*
X1225300D01*
G01X1162010Y-706510D02*
X1154600Y-714450D01*
X1146140Y-717620D01*
X1137670Y-714450D01*
X1130260Y-704920D01*
X1124970Y-690630D01*
X1122850Y-676350D01*
Y-658880D01*
X1124970Y-644600D01*
X1130260Y-631900D01*
X1136610Y-625540D01*
X1144020Y-622370D01*
X1152490Y-625540D01*
X1158840Y-631900D01*
X1163070Y-641420D01*
X1165190Y-654120D01*
X1163070Y-665230D01*
X1157780Y-676350D01*
X1151430Y-682700D01*
X1144020Y-684280D01*
X1135550Y-681110D01*
X1129200Y-673170D01*
X1122850Y-658880D01*
G01X1343150Y-467620D02*
Y-372370D01*
X1316690D01*
X1308220Y-377130D01*
X1302930Y-383480D01*
X1300810Y-396180D01*
X1302930Y-408880D01*
X1309280Y-416820D01*
X1316690Y-421580D01*
X1343150D01*
G01X1316690D02*
X1300810Y-467620D01*
G01X1228000D02*
Y-372370D01*
X1240700Y-391420D01*
G01Y-467620D02*
X1215300D01*
G01X1134020D02*
X1126610Y-466030D01*
X1118150Y-461270D01*
X1112850Y-453340D01*
X1110740Y-442220D01*
X1112850Y-431110D01*
X1119200Y-421580D01*
X1128730Y-416820D01*
X1139310D01*
X1145660Y-413640D01*
X1150950Y-405710D01*
X1153070Y-394600D01*
X1149890Y-383480D01*
X1142490Y-375540D01*
X1134020Y-372370D01*
X1125550Y-375540D01*
X1118150Y-383480D01*
X1114970Y-394600D01*
X1117090Y-405710D01*
X1122380Y-413640D01*
X1128730Y-416820D01*
X1139310D01*
X1148840Y-421580D01*
X1155190Y-431110D01*
X1157300Y-442220D01*
X1155190Y-453340D01*
X1149890Y-461270D01*
X1141430Y-466030D01*
X1134020Y-467620D01*
G01X1358160Y-599620D02*
Y-504370D01*
X1331700D01*
X1323230Y-509130D01*
X1317940Y-515480D01*
X1315820Y-528180D01*
X1317940Y-540880D01*
X1324290Y-548820D01*
X1331700Y-553580D01*
X1358160D01*
G01X1331700D02*
X1315820Y-599620D01*
G01X1245130D02*
X1243010Y-578980D01*
X1239830Y-561520D01*
X1235600Y-545640D01*
X1230310Y-528180D01*
X1221840Y-504370D01*
X1264180D01*
G01X1333150Y-257630D02*
Y-162380D01*
X1306690D01*
X1298220Y-167140D01*
X1292930Y-173490D01*
X1290810Y-186190D01*
X1292930Y-198890D01*
X1299280Y-206830D01*
X1306690Y-211590D01*
X1333150D01*
G01X1306690D02*
X1290810Y-257630D01*
G01X1218000D02*
Y-162380D01*
X1230700Y-181430D01*
G01Y-257630D02*
X1205300D01*
G01X1124020D02*
Y-162380D01*
X1136720Y-181430D01*
G01Y-257630D02*
X1111320D01*
G01X1430140Y162380D02*
Y257630D01*
X1403680D01*
X1395210Y252870D01*
X1389920Y246520D01*
X1387800Y233820D01*
X1389920Y221120D01*
X1396270Y213180D01*
X1403680Y208420D01*
X1430140D01*
G01X1403680D02*
X1387800Y162380D01*
G01X1314990D02*
Y257630D01*
X1327690Y238580D01*
G01Y162380D02*
X1302290D01*
G01X1244290Y176660D02*
X1237940Y168730D01*
X1230540Y163970D01*
X1221010Y162380D01*
X1211480Y165550D01*
X1204080Y171900D01*
X1198780Y183020D01*
X1197730Y195720D01*
X1199840Y208420D01*
X1205140Y216360D01*
X1212540Y222700D01*
X1219950Y224290D01*
X1227360Y222700D01*
X1236880Y216360D01*
X1233710Y257630D01*
X1205140D01*
G01X1150310Y176660D02*
X1143960Y168730D01*
X1136560Y163970D01*
X1127030Y162380D01*
X1117500Y165550D01*
X1110100Y171900D01*
X1104800Y183020D01*
X1103750Y195720D01*
X1105860Y208420D01*
X1111160Y216360D01*
X1118560Y222700D01*
X1125970Y224290D01*
X1133380Y222700D01*
X1142900Y216360D01*
X1139730Y257630D01*
X1111160D01*
G01X1353150Y352370D02*
Y447620D01*
X1326690D01*
X1318220Y442860D01*
X1312930Y436510D01*
X1310810Y423810D01*
X1312930Y411110D01*
X1319280Y403170D01*
X1326690Y398410D01*
X1353150D01*
G01X1326690D02*
X1310810Y352370D01*
G01X1238000D02*
Y447620D01*
X1250700Y428570D01*
G01Y352370D02*
X1225300D01*
G01X1167300Y366650D02*
X1160950Y358720D01*
X1153550Y353960D01*
X1144020Y352370D01*
X1134490Y355540D01*
X1127090Y361890D01*
X1121790Y373010D01*
X1120740Y385710D01*
X1122850Y398410D01*
X1128150Y406350D01*
X1135550Y412690D01*
X1142960Y414280D01*
X1150370Y412690D01*
X1159890Y406350D01*
X1156720Y447620D01*
X1128150D01*
G01X1429970Y4250000D02*
Y4319850D01*
X1411450D01*
X1405520Y4316360D01*
X1401820Y4311700D01*
X1400340Y4302390D01*
X1401820Y4293070D01*
X1406260Y4287250D01*
X1411450Y4283760D01*
X1429970D01*
G01X1411450D02*
X1400340Y4250000D01*
G01X1350390D02*
Y4319850D01*
X1359280Y4305880D01*
G01Y4250000D02*
X1341500D01*
G01X1298210Y4258150D02*
X1293020Y4252330D01*
X1287100Y4250000D01*
X1281170Y4252330D01*
X1275980Y4259310D01*
X1272280Y4269790D01*
X1270800Y4280270D01*
Y4293070D01*
X1272280Y4303550D01*
X1275980Y4312860D01*
X1280430Y4317520D01*
X1285620Y4319850D01*
X1291540Y4317520D01*
X1295990Y4312860D01*
X1298950Y4305880D01*
X1300430Y4296570D01*
X1298950Y4288420D01*
X1295250Y4280270D01*
X1290800Y4275610D01*
X1285620Y4274450D01*
X1279690Y4276770D01*
X1275240Y4282600D01*
X1270800Y4293070D01*
G01X1234920Y4308210D02*
X1230480Y4315190D01*
X1225290Y4318690D01*
X1219360Y4319850D01*
X1211950Y4317520D01*
X1206770Y4311700D01*
X1205290Y4304720D01*
X1206030Y4297730D01*
X1208990Y4291910D01*
X1223810Y4280270D01*
X1230480Y4272120D01*
X1234920Y4260480D01*
X1236400Y4250000D01*
X1205290D01*
G01X1950140Y-87620D02*
Y7630D01*
X1923680D01*
X1915210Y2870D01*
X1909920Y-3480D01*
X1907800Y-16180D01*
X1909920Y-28880D01*
X1916270Y-36820D01*
X1923680Y-41580D01*
X1950140D01*
G01X1923680D02*
X1907800Y-87620D01*
G01X1834990D02*
Y7630D01*
X1847690Y-11420D01*
G01Y-87620D02*
X1822290D01*
G01X1764290Y-68570D02*
X1757940Y-79680D01*
X1749480Y-86030D01*
X1739950Y-87620D01*
X1731480Y-86030D01*
X1723020Y-78100D01*
X1717730Y-68570D01*
X1716670Y-59050D01*
X1718780Y-47940D01*
X1726190Y-40000D01*
X1733600Y-36820D01*
X1743130D01*
G01X1733600D02*
X1727250Y-32060D01*
X1721960Y-24120D01*
X1719840Y-14600D01*
X1721960Y-5070D01*
X1727250Y2870D01*
X1736780Y7630D01*
X1746300Y6040D01*
X1755830Y-310D01*
G01X1670310Y-73340D02*
X1663960Y-81270D01*
X1656560Y-86030D01*
X1647030Y-87620D01*
X1637500Y-84450D01*
X1630100Y-78100D01*
X1624800Y-66980D01*
X1623750Y-54280D01*
X1625860Y-41580D01*
X1631160Y-33640D01*
X1638560Y-27300D01*
X1645970Y-25710D01*
X1653380Y-27300D01*
X1662900Y-33640D01*
X1659730Y7630D01*
X1631160D01*
G01X1950140Y-307630D02*
Y-212380D01*
X1923680D01*
X1915210Y-217140D01*
X1909920Y-223490D01*
X1907800Y-236190D01*
X1909920Y-248890D01*
X1916270Y-256830D01*
X1923680Y-261590D01*
X1950140D01*
G01X1923680D02*
X1907800Y-307630D01*
G01X1834990D02*
Y-212380D01*
X1847690Y-231430D01*
G01Y-307630D02*
X1822290D01*
G01X1764290Y-288580D02*
X1757940Y-299690D01*
X1749480Y-306040D01*
X1739950Y-307630D01*
X1731480Y-306040D01*
X1723020Y-298110D01*
X1717730Y-288580D01*
X1716670Y-279060D01*
X1718780Y-267950D01*
X1726190Y-260010D01*
X1733600Y-256830D01*
X1743130D01*
G01X1733600D02*
X1727250Y-252070D01*
X1721960Y-244130D01*
X1719840Y-234610D01*
X1721960Y-225080D01*
X1727250Y-217140D01*
X1736780Y-212380D01*
X1746300Y-213970D01*
X1755830Y-220320D01*
G01X1634330Y-307630D02*
Y-212380D01*
X1673490Y-280640D01*
X1620570D01*
G01X1813150Y532380D02*
Y627630D01*
X1786690D01*
X1778220Y622870D01*
X1772930Y616520D01*
X1770810Y603820D01*
X1772930Y591120D01*
X1779280Y583180D01*
X1786690Y578420D01*
X1813150D01*
G01X1786690D02*
X1770810Y532380D01*
G01X1698000D02*
Y627630D01*
X1710700Y608580D01*
G01Y532380D02*
X1685300D01*
G01X1591320D02*
Y627630D01*
X1630480Y559370D01*
X1577560D01*
G01X1580370Y2494850D02*
X1675620D01*
Y2521310D01*
X1670860Y2529780D01*
X1664510Y2535070D01*
X1651810Y2537190D01*
X1639110Y2535070D01*
X1631170Y2528720D01*
X1626410Y2521310D01*
Y2494850D01*
G01Y2521310D02*
X1580370Y2537190D01*
G01X1591480Y2592010D02*
X1583540Y2599420D01*
X1580370Y2607880D01*
X1583540Y2616350D01*
X1593070Y2623760D01*
X1607360Y2629050D01*
X1621640Y2631170D01*
X1639110D01*
X1653390Y2629050D01*
X1666090Y2623760D01*
X1672450Y2617410D01*
X1675620Y2610000D01*
X1672450Y2601530D01*
X1666090Y2595180D01*
X1656570Y2590950D01*
X1643870Y2588830D01*
X1632760Y2590950D01*
X1621640Y2596240D01*
X1615290Y2602590D01*
X1613710Y2610000D01*
X1616880Y2618470D01*
X1624820Y2624820D01*
X1639110Y2631170D01*
G01X1620050Y2683870D02*
X1631170Y2691280D01*
X1637520Y2697630D01*
X1640690Y2706100D01*
X1637520Y2713510D01*
X1631170Y2718800D01*
X1621640Y2723030D01*
X1610530Y2724090D01*
X1601010Y2723030D01*
X1591480Y2718800D01*
X1583540Y2712450D01*
X1580370Y2705040D01*
X1583540Y2696570D01*
X1593070Y2689160D01*
X1607360Y2684930D01*
X1623230Y2683870D01*
X1643870Y2685990D01*
X1654980Y2689160D01*
X1666090Y2694450D01*
X1674030Y2701860D01*
X1675620Y2709270D01*
X1672450Y2716680D01*
X1664510Y2721970D01*
G01X2100140Y-617630D02*
Y-522380D01*
X2073680D01*
X2065210Y-527140D01*
X2059920Y-533490D01*
X2057800Y-546190D01*
X2059920Y-558890D01*
X2066270Y-566830D01*
X2073680Y-571590D01*
X2100140D01*
G01X2073680D02*
X2057800Y-617630D01*
G01X1984990D02*
Y-522380D01*
X1997690Y-541430D01*
G01Y-617630D02*
X1972290D01*
G01X1891010D02*
Y-522380D01*
X1903710Y-541430D01*
G01Y-617630D02*
X1878310D01*
G01X1797030D02*
X1789620Y-616040D01*
X1781160Y-611280D01*
X1775860Y-603350D01*
X1773750Y-592230D01*
X1775860Y-581120D01*
X1782210Y-571590D01*
X1791740Y-566830D01*
X1802320D01*
X1808670Y-563650D01*
X1813960Y-555720D01*
X1816080Y-544610D01*
X1812900Y-533490D01*
X1805500Y-525550D01*
X1797030Y-522380D01*
X1788560Y-525550D01*
X1781160Y-533490D01*
X1777980Y-544610D01*
X1780100Y-555720D01*
X1785390Y-563650D01*
X1791740Y-566830D01*
X1802320D01*
X1811850Y-571590D01*
X1818200Y-581120D01*
X1820310Y-592230D01*
X1818200Y-603350D01*
X1812900Y-611280D01*
X1804440Y-616040D01*
X1797030Y-617630D01*
G01X2091710Y499690D02*
X2098060Y504460D01*
X2105460Y507630D01*
X2113930D01*
X2123460Y502870D01*
X2130860Y494930D01*
X2136160Y485400D01*
X2140390Y469530D01*
X2141450Y455240D01*
X2139330Y440950D01*
X2136160Y431430D01*
X2129810Y421900D01*
X2122400Y415550D01*
X2114990Y412380D01*
X2107580D01*
X2100170Y415550D01*
X2093820Y420320D01*
X2088530Y426660D01*
G01X2008310Y412380D02*
Y507630D01*
X2047470Y439370D01*
X1994550D01*
G01X2018700Y359690D02*
X2025050Y364460D01*
X2032450Y367630D01*
X2040920D01*
X2050450Y362870D01*
X2057850Y354930D01*
X2063150Y345400D01*
X2067380Y329530D01*
X2068440Y315240D01*
X2066320Y300950D01*
X2063150Y291430D01*
X2056800Y281900D01*
X2049390Y275550D01*
X2041980Y272380D01*
X2034570D01*
X2027160Y275550D01*
X2020810Y280320D01*
X2015520Y286660D01*
G01X1948000Y272380D02*
Y367630D01*
X1960700Y348580D01*
G01Y272380D02*
X1935300D01*
G01X1877300Y291430D02*
X1870950Y280320D01*
X1862490Y273970D01*
X1852960Y272380D01*
X1844490Y273970D01*
X1836030Y281900D01*
X1830740Y291430D01*
X1829680Y300950D01*
X1831790Y312060D01*
X1839200Y320000D01*
X1846610Y323180D01*
X1856140D01*
G01X1846610D02*
X1840260Y327940D01*
X1834970Y335880D01*
X1832850Y345400D01*
X1834970Y354930D01*
X1840260Y362870D01*
X1849790Y367630D01*
X1859310Y366040D01*
X1868840Y359690D01*
G01X2160140Y705000D02*
Y800250D01*
X2133680D01*
X2125210Y795490D01*
X2119920Y789140D01*
X2117800Y776440D01*
X2119920Y763740D01*
X2126270Y755800D01*
X2133680Y751040D01*
X2160140D01*
G01X2133680D02*
X2117800Y705000D01*
G01X2044990D02*
Y800250D01*
X2057690Y781200D01*
G01Y705000D02*
X2032290D01*
G01X1974290Y719280D02*
X1967940Y711350D01*
X1960540Y706590D01*
X1951010Y705000D01*
X1941480Y708170D01*
X1934080Y714520D01*
X1928780Y725640D01*
X1927730Y738340D01*
X1929840Y751040D01*
X1935140Y758980D01*
X1942540Y765320D01*
X1949950Y766910D01*
X1957360Y765320D01*
X1966880Y758980D01*
X1963710Y800250D01*
X1935140D01*
G01X1857030D02*
X1865500Y797080D01*
X1871850Y789140D01*
X1876080Y779610D01*
X1879260Y766910D01*
X1880310Y752620D01*
X1879260Y738340D01*
X1876080Y725640D01*
X1871850Y716110D01*
X1865500Y708170D01*
X1857030Y705000D01*
X1848560Y708170D01*
X1842210Y716110D01*
X1837980Y725640D01*
X1834800Y738340D01*
X1833750Y752620D01*
X1834800Y766910D01*
X1837980Y779610D01*
X1842210Y789140D01*
X1848560Y797080D01*
X1857030Y800250D01*
G01X1940370Y2494850D02*
X2035620D01*
Y2521310D01*
X2030860Y2529780D01*
X2024510Y2535070D01*
X2011810Y2537190D01*
X1999110Y2535070D01*
X1991170Y2528720D01*
X1986410Y2521310D01*
Y2494850D01*
G01Y2521310D02*
X1940370Y2537190D01*
G01X1951480Y2592010D02*
X1943540Y2599420D01*
X1940370Y2607880D01*
X1943540Y2616350D01*
X1953070Y2623760D01*
X1967360Y2629050D01*
X1981640Y2631170D01*
X1999110D01*
X2013390Y2629050D01*
X2026090Y2623760D01*
X2032450Y2617410D01*
X2035620Y2610000D01*
X2032450Y2601530D01*
X2026090Y2595180D01*
X2016570Y2590950D01*
X2003870Y2588830D01*
X1992760Y2590950D01*
X1981640Y2596240D01*
X1975290Y2602590D01*
X1973710Y2610000D01*
X1976880Y2618470D01*
X1984820Y2624820D01*
X1999110Y2631170D01*
G01X1954650Y2680700D02*
X1946720Y2687050D01*
X1941960Y2694450D01*
X1940370Y2703980D01*
X1943540Y2713510D01*
X1949890Y2720910D01*
X1961010Y2726210D01*
X1973710Y2727260D01*
X1986410Y2725150D01*
X1994350Y2719850D01*
X2000690Y2712450D01*
X2002280Y2705040D01*
X2000690Y2697630D01*
X1994350Y2688110D01*
X2035620Y2691280D01*
Y2719850D01*
G01X2153150Y2762370D02*
Y2857620D01*
X2126690D01*
X2118220Y2852860D01*
X2112930Y2846510D01*
X2110810Y2833810D01*
X2112930Y2821110D01*
X2119280Y2813170D01*
X2126690Y2808410D01*
X2153150D01*
G01X2126690D02*
X2110810Y2762370D01*
G01X2055990Y2773480D02*
X2048580Y2765540D01*
X2040120Y2762370D01*
X2031650Y2765540D01*
X2024240Y2775070D01*
X2018950Y2789360D01*
X2016830Y2803640D01*
Y2821110D01*
X2018950Y2835390D01*
X2024240Y2848090D01*
X2030590Y2854450D01*
X2038000Y2857620D01*
X2046470Y2854450D01*
X2052820Y2848090D01*
X2057050Y2838570D01*
X2059170Y2825870D01*
X2057050Y2814760D01*
X2051760Y2803640D01*
X2045410Y2797290D01*
X2038000Y2795710D01*
X2029530Y2798880D01*
X2023180Y2806820D01*
X2016830Y2821110D01*
G01X1931320Y2762370D02*
Y2857620D01*
X1970480Y2789360D01*
X1917560D01*
G01X2240140Y2912370D02*
Y3007620D01*
X2213680D01*
X2205210Y3002860D01*
X2199920Y2996510D01*
X2197800Y2983810D01*
X2199920Y2971110D01*
X2206270Y2963170D01*
X2213680Y2958410D01*
X2240140D01*
G01X2213680D02*
X2197800Y2912370D01*
G01X2124990D02*
Y3007620D01*
X2137690Y2988570D01*
G01Y2912370D02*
X2112290D01*
G01X2031010D02*
Y3007620D01*
X2043710Y2988570D01*
G01Y2912370D02*
X2018310D01*
G01X1939150D02*
X1937030Y2933010D01*
X1933850Y2950470D01*
X1929620Y2966350D01*
X1924330Y2983810D01*
X1915860Y3007620D01*
X1958200D01*
G01X2472970Y-522690D02*
X2479320Y-517920D01*
X2486720Y-514750D01*
X2495190D01*
X2504720Y-519510D01*
X2512120Y-527450D01*
X2517420Y-536980D01*
X2521650Y-552850D01*
X2522710Y-567140D01*
X2520590Y-581430D01*
X2517420Y-590950D01*
X2511070Y-600480D01*
X2503660Y-606830D01*
X2496250Y-610000D01*
X2488840D01*
X2481430Y-606830D01*
X2475080Y-602060D01*
X2469790Y-595720D01*
G01X2402270Y-610000D02*
Y-514750D01*
X2414970Y-533800D01*
G01Y-610000D02*
X2389570D01*
G01X2331570Y-595720D02*
X2325220Y-603650D01*
X2317820Y-608410D01*
X2308290Y-610000D01*
X2298760Y-606830D01*
X2291360Y-600480D01*
X2286060Y-589360D01*
X2285010Y-576660D01*
X2287120Y-563960D01*
X2292420Y-556020D01*
X2299820Y-549680D01*
X2307230Y-548090D01*
X2314640Y-549680D01*
X2324160Y-556020D01*
X2320990Y-514750D01*
X2292420D01*
G01X2793150Y-3370000D02*
Y-3281100D01*
X2766690D01*
X2758220Y-3285550D01*
X2752930Y-3291470D01*
X2750810Y-3303330D01*
X2752930Y-3315180D01*
X2759280Y-3322590D01*
X2766690Y-3327030D01*
X2793150D01*
G01X2766690D02*
X2750810Y-3370000D01*
G01X2680120D02*
X2678000Y-3350740D01*
X2674820Y-3334440D01*
X2670590Y-3319620D01*
X2665300Y-3303330D01*
X2656830Y-3281100D01*
X2699170D01*
G01X2584020Y-3370000D02*
Y-3281100D01*
X2596720Y-3298880D01*
G01Y-3370000D02*
X2571320D01*
G01X2693150Y-2557630D02*
Y-2462380D01*
X2666690D01*
X2658220Y-2467140D01*
X2652930Y-2473490D01*
X2650810Y-2486190D01*
X2652930Y-2498890D01*
X2659280Y-2506830D01*
X2666690Y-2511590D01*
X2693150D01*
G01X2666690D02*
X2650810Y-2557630D01*
G01X2598110Y-2517950D02*
X2590700Y-2506830D01*
X2584350Y-2500480D01*
X2575880Y-2497310D01*
X2568470Y-2500480D01*
X2563180Y-2506830D01*
X2558950Y-2516360D01*
X2557890Y-2527470D01*
X2558950Y-2536990D01*
X2563180Y-2546520D01*
X2569530Y-2554460D01*
X2576940Y-2557630D01*
X2585410Y-2554460D01*
X2592820Y-2544930D01*
X2597050Y-2530640D01*
X2598110Y-2514770D01*
X2595990Y-2494130D01*
X2592820Y-2483020D01*
X2587530Y-2471910D01*
X2580120Y-2463970D01*
X2572710Y-2462380D01*
X2565300Y-2465550D01*
X2560010Y-2473490D01*
G01X2471320Y-2557630D02*
Y-2462380D01*
X2510480Y-2530640D01*
X2457560D01*
G01X2943150Y-2350000D02*
Y-2254750D01*
X2916690D01*
X2908220Y-2259510D01*
X2902930Y-2265860D01*
X2900810Y-2278560D01*
X2902930Y-2291260D01*
X2909280Y-2299200D01*
X2916690Y-2303960D01*
X2943150D01*
G01X2916690D02*
X2900810Y-2350000D01*
G01X2848110Y-2310320D02*
X2840700Y-2299200D01*
X2834350Y-2292850D01*
X2825880Y-2289680D01*
X2818470Y-2292850D01*
X2813180Y-2299200D01*
X2808950Y-2308730D01*
X2807890Y-2319840D01*
X2808950Y-2329360D01*
X2813180Y-2338890D01*
X2819530Y-2346830D01*
X2826940Y-2350000D01*
X2835410Y-2346830D01*
X2842820Y-2337300D01*
X2847050Y-2323010D01*
X2848110Y-2307140D01*
X2845990Y-2286500D01*
X2842820Y-2275390D01*
X2837530Y-2264280D01*
X2830120Y-2256340D01*
X2822710Y-2254750D01*
X2815300Y-2257920D01*
X2810010Y-2265860D01*
G01X2754130Y-2310320D02*
X2746720Y-2299200D01*
X2740370Y-2292850D01*
X2731900Y-2289680D01*
X2724490Y-2292850D01*
X2719200Y-2299200D01*
X2714970Y-2308730D01*
X2713910Y-2319840D01*
X2714970Y-2329360D01*
X2719200Y-2338890D01*
X2725550Y-2346830D01*
X2732960Y-2350000D01*
X2741430Y-2346830D01*
X2748840Y-2337300D01*
X2753070Y-2323010D01*
X2754130Y-2307140D01*
X2752010Y-2286500D01*
X2748840Y-2275390D01*
X2743550Y-2264280D01*
X2736140Y-2256340D01*
X2728730Y-2254750D01*
X2721320Y-2257920D01*
X2716030Y-2265860D01*
G01X2782970Y-702690D02*
X2789320Y-697920D01*
X2796720Y-694750D01*
X2805190D01*
X2814720Y-699510D01*
X2822120Y-707450D01*
X2827420Y-716980D01*
X2831650Y-732850D01*
X2832710Y-747140D01*
X2830590Y-761430D01*
X2827420Y-770950D01*
X2821070Y-780480D01*
X2813660Y-786830D01*
X2806250Y-790000D01*
X2798840D01*
X2791430Y-786830D01*
X2785080Y-782060D01*
X2779790Y-775720D01*
G01X2712270Y-790000D02*
X2704860Y-788410D01*
X2696400Y-783650D01*
X2691100Y-775720D01*
X2688990Y-764600D01*
X2691100Y-753490D01*
X2697450Y-743960D01*
X2706980Y-739200D01*
X2717560D01*
X2723910Y-736020D01*
X2729200Y-728090D01*
X2731320Y-716980D01*
X2728140Y-705860D01*
X2720740Y-697920D01*
X2712270Y-694750D01*
X2703800Y-697920D01*
X2696400Y-705860D01*
X2693220Y-716980D01*
X2695340Y-728090D01*
X2700630Y-736020D01*
X2706980Y-739200D01*
X2717560D01*
X2727090Y-743960D01*
X2733440Y-753490D01*
X2735550Y-764600D01*
X2733440Y-775720D01*
X2728140Y-783650D01*
X2719680Y-788410D01*
X2712270Y-790000D01*
G01X2598700Y-80310D02*
X2605050Y-75540D01*
X2612450Y-72370D01*
X2620920D01*
X2630450Y-77130D01*
X2637850Y-85070D01*
X2643150Y-94600D01*
X2647380Y-110470D01*
X2648440Y-124760D01*
X2646320Y-139050D01*
X2643150Y-148570D01*
X2636800Y-158100D01*
X2629390Y-164450D01*
X2621980Y-167620D01*
X2614570D01*
X2607160Y-164450D01*
X2600810Y-159680D01*
X2595520Y-153340D01*
G01X2528000Y-167620D02*
Y-72370D01*
X2540700Y-91420D01*
G01Y-167620D02*
X2515300D01*
G01X2421320D02*
Y-72370D01*
X2460480Y-140630D01*
X2407560D01*
G01X2933970Y-3494330D02*
X2939050Y-3490200D01*
X2944980Y-3487450D01*
X2951750D01*
X2959370Y-3491580D01*
X2965300Y-3498460D01*
X2969530Y-3506710D01*
X2972920Y-3520470D01*
X2973770Y-3532850D01*
X2972070Y-3545240D01*
X2969530Y-3553490D01*
X2964450Y-3561750D01*
X2958530Y-3567250D01*
X2952600Y-3570000D01*
X2946670D01*
X2940750Y-3567250D01*
X2935670Y-3563120D01*
X2931430Y-3557620D01*
G01X2876400Y-3570000D02*
Y-3487450D01*
X2886560Y-3503960D01*
G01Y-3570000D02*
X2866240D01*
G01X2800200Y-3487450D02*
X2806970Y-3490200D01*
X2812050Y-3497080D01*
X2815440Y-3505330D01*
X2817980Y-3516340D01*
X2818830Y-3528730D01*
X2817980Y-3541110D01*
X2815440Y-3552120D01*
X2812050Y-3560370D01*
X2806970Y-3567250D01*
X2800200Y-3570000D01*
X2793430Y-3567250D01*
X2788350Y-3560370D01*
X2784960Y-3552120D01*
X2782420Y-3541110D01*
X2781570Y-3528730D01*
X2782420Y-3516340D01*
X2784960Y-3505330D01*
X2788350Y-3497080D01*
X2793430Y-3490200D01*
X2800200Y-3487450D01*
G01X3146750Y-3440000D02*
X3029250D01*
G01X3001130Y-3140000D02*
Y-3063800D01*
X2979970D01*
X2973190Y-3067610D01*
X2968960Y-3072690D01*
X2967270Y-3082850D01*
X2968960Y-3093010D01*
X2974040Y-3099360D01*
X2979970Y-3103170D01*
X3001130D01*
G01X2979970D02*
X2967270Y-3140000D01*
G01X2909690D02*
X2908000Y-3123490D01*
X2905460Y-3109520D01*
X2902070Y-3096820D01*
X2897840Y-3082850D01*
X2891070Y-3063800D01*
X2924930D01*
G01X2831800D02*
X2838570Y-3066340D01*
X2843650Y-3072690D01*
X2847040Y-3080310D01*
X2849580Y-3090470D01*
X2850430Y-3101900D01*
X2849580Y-3113330D01*
X2847040Y-3123490D01*
X2843650Y-3131110D01*
X2838570Y-3137460D01*
X2831800Y-3140000D01*
X2825030Y-3137460D01*
X2819950Y-3131110D01*
X2816560Y-3123490D01*
X2814020Y-3113330D01*
X2813170Y-3101900D01*
X2814020Y-3090470D01*
X2816560Y-3080310D01*
X2819950Y-3072690D01*
X2825030Y-3066340D01*
X2831800Y-3063800D01*
G01X3001130Y-3240000D02*
Y-3163800D01*
X2979970D01*
X2973190Y-3167610D01*
X2968960Y-3172690D01*
X2967270Y-3182850D01*
X2968960Y-3193010D01*
X2974040Y-3199360D01*
X2979970Y-3203170D01*
X3001130D01*
G01X2979970D02*
X2967270Y-3240000D01*
G01X2924090Y-3208250D02*
X2918160Y-3199360D01*
X2913080Y-3194280D01*
X2906310Y-3191740D01*
X2900380Y-3194280D01*
X2896150Y-3199360D01*
X2892760Y-3206980D01*
X2891910Y-3215870D01*
X2892760Y-3223490D01*
X2896150Y-3231110D01*
X2901230Y-3237460D01*
X2907150Y-3240000D01*
X2913930Y-3237460D01*
X2919850Y-3229840D01*
X2923240Y-3218410D01*
X2924090Y-3205710D01*
X2922390Y-3189200D01*
X2919850Y-3180310D01*
X2915620Y-3171420D01*
X2909690Y-3165070D01*
X2903770Y-3163800D01*
X2897840Y-3166340D01*
X2893610Y-3172690D01*
G01X2847890Y-3176500D02*
X2842810Y-3168880D01*
X2836880Y-3165070D01*
X2830110Y-3163800D01*
X2821640Y-3166340D01*
X2815710Y-3172690D01*
X2814020Y-3180310D01*
X2814870Y-3187930D01*
X2818250Y-3194280D01*
X2835190Y-3206980D01*
X2842810Y-3215870D01*
X2847890Y-3228570D01*
X2849580Y-3240000D01*
X2814020D01*
G01X3146750Y-3280000D02*
X3029250D01*
G01X3036680Y-2980000D02*
Y-2910150D01*
X3021870D01*
X3015940Y-2913640D01*
X3011490Y-2918300D01*
X3007790Y-2925280D01*
X3004830Y-2933430D01*
X3004090Y-2945080D01*
X3004830Y-2956720D01*
X3007790Y-2964870D01*
X3011490Y-2971850D01*
X3015940Y-2976510D01*
X3021870Y-2980000D01*
X3036680D01*
G01X2969690Y-2950900D02*
X2964510Y-2942750D01*
X2960060Y-2938090D01*
X2954130Y-2935760D01*
X2948950Y-2938090D01*
X2945240Y-2942750D01*
X2942280Y-2949730D01*
X2941540Y-2957880D01*
X2942280Y-2964870D01*
X2945240Y-2971850D01*
X2949690Y-2977670D01*
X2954870Y-2980000D01*
X2960800Y-2977670D01*
X2965990Y-2970690D01*
X2968950Y-2960210D01*
X2969690Y-2948570D01*
X2968210Y-2933430D01*
X2965990Y-2925280D01*
X2962280Y-2917140D01*
X2957100Y-2911310D01*
X2951910Y-2910150D01*
X2946720Y-2912480D01*
X2943020Y-2918300D01*
G01X3190140Y-607620D02*
Y-512370D01*
X3163680D01*
X3155210Y-517130D01*
X3149920Y-523480D01*
X3147800Y-536180D01*
X3149920Y-548880D01*
X3156270Y-556820D01*
X3163680Y-561580D01*
X3190140D01*
G01X3163680D02*
X3147800Y-607620D01*
G01X3074990D02*
Y-512370D01*
X3087690Y-531420D01*
G01Y-607620D02*
X3062290D01*
G01X2968310D02*
Y-512370D01*
X3007470Y-580630D01*
X2954550D01*
G01X2907140Y-567940D02*
X2899730Y-556820D01*
X2893380Y-550470D01*
X2884910Y-547300D01*
X2877500Y-550470D01*
X2872210Y-556820D01*
X2867980Y-566350D01*
X2866920Y-577460D01*
X2867980Y-586980D01*
X2872210Y-596510D01*
X2878560Y-604450D01*
X2885970Y-607620D01*
X2894440Y-604450D01*
X2901850Y-594920D01*
X2906080Y-580630D01*
X2907140Y-564760D01*
X2905020Y-544120D01*
X2901850Y-533010D01*
X2896560Y-521900D01*
X2889150Y-513960D01*
X2881740Y-512370D01*
X2874330Y-515540D01*
X2869040Y-523480D01*
G01X3093150Y-477630D02*
Y-382380D01*
X3066690D01*
X3058220Y-387140D01*
X3052930Y-393490D01*
X3050810Y-406190D01*
X3052930Y-418890D01*
X3059280Y-426830D01*
X3066690Y-431590D01*
X3093150D01*
G01X3066690D02*
X3050810Y-477630D01*
G01X2965300D02*
Y-382380D01*
X3004460Y-450640D01*
X2951540D01*
G01X2884020Y-477630D02*
Y-382380D01*
X2896720Y-401430D01*
G01Y-477630D02*
X2871320D01*
G01X2979970Y-339840D02*
Y-269990D01*
X2961450D01*
X2955520Y-273480D01*
X2951820Y-278140D01*
X2950340Y-287450D01*
X2951820Y-296770D01*
X2956260Y-302590D01*
X2961450Y-306080D01*
X2979970D01*
G01X2961450D02*
X2950340Y-339840D01*
G01X2900390D02*
Y-269990D01*
X2909280Y-283960D01*
G01Y-339840D02*
X2891500D01*
G01X2849690Y-281630D02*
X2845250Y-274650D01*
X2840060Y-271150D01*
X2834130Y-269990D01*
X2826720Y-272320D01*
X2821540Y-278140D01*
X2820060Y-285120D01*
X2820800Y-292110D01*
X2823760Y-297930D01*
X2838580Y-309570D01*
X2845250Y-317720D01*
X2849690Y-329360D01*
X2851170Y-339840D01*
X2820060D01*
G01X2787140Y-329360D02*
X2782700Y-335180D01*
X2777510Y-338680D01*
X2770850Y-339840D01*
X2764180Y-337510D01*
X2758990Y-332860D01*
X2755290Y-324710D01*
X2754550Y-315390D01*
X2756030Y-306080D01*
X2759730Y-300260D01*
X2764920Y-295600D01*
X2770100Y-294440D01*
X2775290Y-295600D01*
X2781960Y-300260D01*
X2779740Y-269990D01*
X2759730D01*
G01X3173150Y2590000D02*
Y2685250D01*
X3146690D01*
X3138220Y2680490D01*
X3132930Y2674140D01*
X3130810Y2661440D01*
X3132930Y2648740D01*
X3139280Y2640800D01*
X3146690Y2636040D01*
X3173150D01*
G01X3146690D02*
X3130810Y2590000D01*
G01X3045300D02*
Y2685250D01*
X3084460Y2616990D01*
X3031540D01*
G01X2984130Y2669380D02*
X2977780Y2678900D01*
X2970370Y2683660D01*
X2961900Y2685250D01*
X2951320Y2682080D01*
X2943910Y2674140D01*
X2941790Y2664610D01*
X2942850Y2655090D01*
X2947090Y2647150D01*
X2968250Y2631270D01*
X2977780Y2620160D01*
X2984130Y2604280D01*
X2986250Y2590000D01*
X2941790D01*
G01X3275260Y3297620D02*
Y3229360D01*
X3271030Y3215070D01*
X3262560Y3205540D01*
X3251980Y3202370D01*
X3241400Y3205540D01*
X3232930Y3215070D01*
X3228700Y3229360D01*
Y3297620D01*
G01X3158000Y3202370D02*
Y3297620D01*
X3170700Y3278570D01*
G01Y3202370D02*
X3145300D01*
G01X3064020D02*
Y3297620D01*
X3076720Y3278570D01*
G01Y3202370D02*
X3051320D01*
G01X3280140Y3060000D02*
Y3155250D01*
X3253680D01*
X3245210Y3150490D01*
X3239920Y3144140D01*
X3237800Y3131440D01*
X3239920Y3118740D01*
X3246270Y3110800D01*
X3253680Y3106040D01*
X3280140D01*
G01X3253680D02*
X3237800Y3060000D01*
G01X3164990D02*
Y3155250D01*
X3177690Y3136200D01*
G01Y3060000D02*
X3152290D01*
G01X3091120Y3099680D02*
X3083710Y3110800D01*
X3077360Y3117150D01*
X3068890Y3120320D01*
X3061480Y3117150D01*
X3056190Y3110800D01*
X3051960Y3101270D01*
X3050900Y3090160D01*
X3051960Y3080640D01*
X3056190Y3071110D01*
X3062540Y3063170D01*
X3069950Y3060000D01*
X3078420Y3063170D01*
X3085830Y3072700D01*
X3090060Y3086990D01*
X3091120Y3102860D01*
X3089000Y3123500D01*
X3085830Y3134610D01*
X3080540Y3145720D01*
X3073130Y3153660D01*
X3065720Y3155250D01*
X3058310Y3152080D01*
X3053020Y3144140D01*
G01X3000310Y3074280D02*
X2993960Y3066350D01*
X2986560Y3061590D01*
X2977030Y3060000D01*
X2967500Y3063170D01*
X2960100Y3069520D01*
X2954800Y3080640D01*
X2953750Y3093340D01*
X2955860Y3106040D01*
X2961160Y3113980D01*
X2968560Y3120320D01*
X2975970Y3121910D01*
X2983380Y3120320D01*
X2992900Y3113980D01*
X2989730Y3155250D01*
X2961160D01*
G01X3130140Y3430000D02*
Y3525250D01*
X3103680D01*
X3095210Y3520490D01*
X3089920Y3514140D01*
X3087800Y3501440D01*
X3089920Y3488740D01*
X3096270Y3480800D01*
X3103680Y3476040D01*
X3130140D01*
G01X3103680D02*
X3087800Y3430000D01*
G01X3014990D02*
Y3525250D01*
X3027690Y3506200D01*
G01Y3430000D02*
X3002290D01*
G01X2941120Y3469680D02*
X2933710Y3480800D01*
X2927360Y3487150D01*
X2918890Y3490320D01*
X2911480Y3487150D01*
X2906190Y3480800D01*
X2901960Y3471270D01*
X2900900Y3460160D01*
X2901960Y3450640D01*
X2906190Y3441110D01*
X2912540Y3433170D01*
X2919950Y3430000D01*
X2928420Y3433170D01*
X2935830Y3442700D01*
X2940060Y3456990D01*
X2941120Y3472860D01*
X2939000Y3493500D01*
X2935830Y3504610D01*
X2930540Y3515720D01*
X2923130Y3523660D01*
X2915720Y3525250D01*
X2908310Y3522080D01*
X2903020Y3514140D01*
G01X2814330Y3430000D02*
Y3525250D01*
X2853490Y3456990D01*
X2800570D01*
G01X3290140Y3560000D02*
Y3655250D01*
X3263680D01*
X3255210Y3650490D01*
X3249920Y3644140D01*
X3247800Y3631440D01*
X3249920Y3618740D01*
X3256270Y3610800D01*
X3263680Y3606040D01*
X3290140D01*
G01X3263680D02*
X3247800Y3560000D01*
G01X3174990D02*
Y3655250D01*
X3187690Y3636200D01*
G01Y3560000D02*
X3162290D01*
G01X3101120Y3599680D02*
X3093710Y3610800D01*
X3087360Y3617150D01*
X3078890Y3620320D01*
X3071480Y3617150D01*
X3066190Y3610800D01*
X3061960Y3601270D01*
X3060900Y3590160D01*
X3061960Y3580640D01*
X3066190Y3571110D01*
X3072540Y3563170D01*
X3079950Y3560000D01*
X3088420Y3563170D01*
X3095830Y3572700D01*
X3100060Y3586990D01*
X3101120Y3602860D01*
X3099000Y3623500D01*
X3095830Y3634610D01*
X3090540Y3645720D01*
X3083130Y3653660D01*
X3075720Y3655250D01*
X3068310Y3652080D01*
X3063020Y3644140D01*
G01X3010310Y3579050D02*
X3003960Y3567940D01*
X2995500Y3561590D01*
X2985970Y3560000D01*
X2977500Y3561590D01*
X2969040Y3569520D01*
X2963750Y3579050D01*
X2962690Y3588570D01*
X2964800Y3599680D01*
X2972210Y3607620D01*
X2979620Y3610800D01*
X2989150D01*
G01X2979620D02*
X2973270Y3615560D01*
X2967980Y3623500D01*
X2965860Y3633020D01*
X2967980Y3642550D01*
X2973270Y3650490D01*
X2982800Y3655250D01*
X2992320Y3653660D01*
X3001850Y3647310D01*
G01X3270140Y3814740D02*
Y3909990D01*
X3243680D01*
X3235210Y3905230D01*
X3229920Y3898880D01*
X3227800Y3886180D01*
X3229920Y3873480D01*
X3236270Y3865540D01*
X3243680Y3860780D01*
X3270140D01*
G01X3243680D02*
X3227800Y3814740D01*
G01X3154990D02*
Y3909990D01*
X3167690Y3890940D01*
G01Y3814740D02*
X3142290D01*
G01X3081120Y3854420D02*
X3073710Y3865540D01*
X3067360Y3871890D01*
X3058890Y3875060D01*
X3051480Y3871890D01*
X3046190Y3865540D01*
X3041960Y3856010D01*
X3040900Y3844900D01*
X3041960Y3835380D01*
X3046190Y3825850D01*
X3052540Y3817910D01*
X3059950Y3814740D01*
X3068420Y3817910D01*
X3075830Y3827440D01*
X3080060Y3841730D01*
X3081120Y3857600D01*
X3079000Y3878240D01*
X3075830Y3889350D01*
X3070540Y3900460D01*
X3063130Y3908400D01*
X3055720Y3909990D01*
X3048310Y3906820D01*
X3043020Y3898880D01*
G01X2987140Y3894120D02*
X2980790Y3903640D01*
X2973380Y3908400D01*
X2964910Y3909990D01*
X2954330Y3906820D01*
X2946920Y3898880D01*
X2944800Y3889350D01*
X2945860Y3879830D01*
X2950100Y3871890D01*
X2971260Y3856010D01*
X2980790Y3844900D01*
X2987140Y3829020D01*
X2989260Y3814740D01*
X2944800D01*
G01X3223150Y4052370D02*
Y4147620D01*
X3196690D01*
X3188220Y4142860D01*
X3182930Y4136510D01*
X3180810Y4123810D01*
X3182930Y4111110D01*
X3189280Y4103170D01*
X3196690Y4098410D01*
X3223150D01*
G01X3196690D02*
X3180810Y4052370D01*
G01X3125990Y4063480D02*
X3118580Y4055540D01*
X3110120Y4052370D01*
X3101650Y4055540D01*
X3094240Y4065070D01*
X3088950Y4079360D01*
X3086830Y4093640D01*
Y4111110D01*
X3088950Y4125390D01*
X3094240Y4138090D01*
X3100590Y4144450D01*
X3108000Y4147620D01*
X3116470Y4144450D01*
X3122820Y4138090D01*
X3127050Y4128570D01*
X3129170Y4115870D01*
X3127050Y4104760D01*
X3121760Y4093640D01*
X3115410Y4087290D01*
X3108000Y4085710D01*
X3099530Y4088880D01*
X3093180Y4096820D01*
X3086830Y4111110D01*
G01X3016140Y4052370D02*
X3014020Y4073010D01*
X3010840Y4090470D01*
X3006610Y4106350D01*
X3001320Y4123810D01*
X2992850Y4147620D01*
X3035190D01*
G01X3391130Y-3610000D02*
Y-3527450D01*
X3369970D01*
X3363190Y-3531580D01*
X3358960Y-3537080D01*
X3357270Y-3548090D01*
X3358960Y-3559090D01*
X3364040Y-3565970D01*
X3369970Y-3570100D01*
X3391130D01*
G01X3369970D02*
X3357270Y-3610000D01*
G01X3314090Y-3575610D02*
X3308160Y-3565970D01*
X3303080Y-3560470D01*
X3296310Y-3557720D01*
X3290380Y-3560470D01*
X3286150Y-3565970D01*
X3282760Y-3574230D01*
X3281910Y-3583860D01*
X3282760Y-3592120D01*
X3286150Y-3600370D01*
X3291230Y-3607250D01*
X3297150Y-3610000D01*
X3303930Y-3607250D01*
X3309850Y-3599000D01*
X3313240Y-3586610D01*
X3314090Y-3572850D01*
X3312390Y-3554970D01*
X3309850Y-3545330D01*
X3305620Y-3535710D01*
X3299690Y-3528830D01*
X3293770Y-3527450D01*
X3287840Y-3530200D01*
X3283610Y-3537080D01*
G01X3221800Y-3610000D02*
X3215870Y-3608620D01*
X3209100Y-3604500D01*
X3204870Y-3597620D01*
X3203170Y-3587990D01*
X3204870Y-3578360D01*
X3209950Y-3570100D01*
X3217570Y-3565970D01*
X3226030D01*
X3231110Y-3563220D01*
X3235350Y-3556340D01*
X3237040Y-3546710D01*
X3234500Y-3537080D01*
X3228570Y-3530200D01*
X3221800Y-3527450D01*
X3215030Y-3530200D01*
X3209100Y-3537080D01*
X3206560Y-3546710D01*
X3208250Y-3556340D01*
X3212490Y-3563220D01*
X3217570Y-3565970D01*
X3226030D01*
X3233650Y-3570100D01*
X3238730Y-3578360D01*
X3240430Y-3587990D01*
X3238730Y-3597620D01*
X3234500Y-3604500D01*
X3227730Y-3608620D01*
X3221800Y-3610000D01*
G01X3441980Y-3470000D02*
X3450450Y-3468410D01*
X3457850Y-3462060D01*
X3464210Y-3452540D01*
X3468440Y-3441430D01*
X3470560Y-3428730D01*
Y-3416020D01*
X3468440Y-3403320D01*
X3464210Y-3392210D01*
X3457850Y-3382690D01*
X3450450Y-3376340D01*
X3441980Y-3374750D01*
X3433510Y-3376340D01*
X3426110Y-3382690D01*
X3419750Y-3392210D01*
X3415520Y-3403320D01*
X3413400Y-3416020D01*
Y-3428730D01*
X3415520Y-3441430D01*
X3419750Y-3452540D01*
X3426110Y-3462060D01*
X3433510Y-3468410D01*
X3441980Y-3470000D01*
G01X3433510Y-3444600D02*
X3420810Y-3470000D01*
G01X3348000D02*
Y-3374750D01*
X3360700Y-3393800D01*
G01Y-3470000D02*
X3335300D01*
G01X3254020Y-3374750D02*
X3262490Y-3377920D01*
X3268840Y-3385860D01*
X3273070Y-3395390D01*
X3276250Y-3408090D01*
X3277300Y-3422380D01*
X3276250Y-3436660D01*
X3273070Y-3449360D01*
X3268840Y-3458890D01*
X3262490Y-3466830D01*
X3254020Y-3470000D01*
X3245550Y-3466830D01*
X3239200Y-3458890D01*
X3234970Y-3449360D01*
X3231790Y-3436660D01*
X3230740Y-3422380D01*
X3231790Y-3408090D01*
X3234970Y-3395390D01*
X3239200Y-3385860D01*
X3245550Y-3377920D01*
X3254020Y-3374750D01*
G01X3381130Y-3260000D02*
Y-3177450D01*
X3359970D01*
X3353190Y-3181580D01*
X3348960Y-3187080D01*
X3347270Y-3198090D01*
X3348960Y-3209090D01*
X3354040Y-3215970D01*
X3359970Y-3220100D01*
X3381130D01*
G01X3359970D02*
X3347270Y-3260000D01*
G01X3304090Y-3225610D02*
X3298160Y-3215970D01*
X3293080Y-3210470D01*
X3286310Y-3207720D01*
X3280380Y-3210470D01*
X3276150Y-3215970D01*
X3272760Y-3224230D01*
X3271910Y-3233860D01*
X3272760Y-3242120D01*
X3276150Y-3250370D01*
X3281230Y-3257250D01*
X3287150Y-3260000D01*
X3293930Y-3257250D01*
X3299850Y-3249000D01*
X3303240Y-3236610D01*
X3304090Y-3222850D01*
X3302390Y-3204970D01*
X3299850Y-3195330D01*
X3295620Y-3185710D01*
X3289690Y-3178830D01*
X3283770Y-3177450D01*
X3277840Y-3180200D01*
X3273610Y-3187080D01*
G01X3230430Y-3243490D02*
X3225350Y-3253120D01*
X3218570Y-3258620D01*
X3210950Y-3260000D01*
X3204180Y-3258620D01*
X3197410Y-3251750D01*
X3193170Y-3243490D01*
X3192330Y-3235240D01*
X3194020Y-3225610D01*
X3199950Y-3218730D01*
X3205870Y-3215970D01*
X3213490D01*
G01X3205870D02*
X3200790Y-3211850D01*
X3196560Y-3204970D01*
X3194870Y-3196710D01*
X3196560Y-3188460D01*
X3200790Y-3181580D01*
X3208410Y-3177450D01*
X3216030Y-3178830D01*
X3223650Y-3184330D01*
G01X3381130Y-3150000D02*
Y-3067450D01*
X3359970D01*
X3353190Y-3071580D01*
X3348960Y-3077080D01*
X3347270Y-3088090D01*
X3348960Y-3099090D01*
X3354040Y-3105970D01*
X3359970Y-3110100D01*
X3381130D01*
G01X3359970D02*
X3347270Y-3150000D01*
G01X3304090Y-3115610D02*
X3298160Y-3105970D01*
X3293080Y-3100470D01*
X3286310Y-3097720D01*
X3280380Y-3100470D01*
X3276150Y-3105970D01*
X3272760Y-3114230D01*
X3271910Y-3123860D01*
X3272760Y-3132120D01*
X3276150Y-3140370D01*
X3281230Y-3147250D01*
X3287150Y-3150000D01*
X3293930Y-3147250D01*
X3299850Y-3139000D01*
X3303240Y-3126610D01*
X3304090Y-3112850D01*
X3302390Y-3094970D01*
X3299850Y-3085330D01*
X3295620Y-3075710D01*
X3289690Y-3068830D01*
X3283770Y-3067450D01*
X3277840Y-3070200D01*
X3273610Y-3077080D01*
G01X3226190Y-3140370D02*
X3220270Y-3147250D01*
X3213490Y-3150000D01*
X3206720Y-3147250D01*
X3200790Y-3139000D01*
X3196560Y-3126610D01*
X3194870Y-3114230D01*
Y-3099090D01*
X3196560Y-3086710D01*
X3200790Y-3075710D01*
X3205870Y-3070200D01*
X3211800Y-3067450D01*
X3218570Y-3070200D01*
X3223650Y-3075710D01*
X3227040Y-3083960D01*
X3228730Y-3094970D01*
X3227040Y-3104600D01*
X3222810Y-3114230D01*
X3217730Y-3119730D01*
X3211800Y-3121110D01*
X3205030Y-3118360D01*
X3199950Y-3111480D01*
X3194870Y-3099090D01*
G01X3256680Y-2980000D02*
Y-2910150D01*
X3241870D01*
X3235940Y-2913640D01*
X3231490Y-2918300D01*
X3227790Y-2925280D01*
X3224830Y-2933430D01*
X3224090Y-2945080D01*
X3224830Y-2956720D01*
X3227790Y-2964870D01*
X3231490Y-2971850D01*
X3235940Y-2976510D01*
X3241870Y-2980000D01*
X3256680D01*
G01X3166720D02*
Y-2910150D01*
X3194140Y-2960210D01*
X3157090D01*
G01X3630140Y-2047630D02*
Y-1952380D01*
X3603680D01*
X3595210Y-1957140D01*
X3589920Y-1963490D01*
X3587800Y-1976190D01*
X3589920Y-1988890D01*
X3596270Y-1996830D01*
X3603680Y-2001590D01*
X3630140D01*
G01X3603680D02*
X3587800Y-2047630D01*
G01X3514990D02*
Y-1952380D01*
X3527690Y-1971430D01*
G01Y-2047630D02*
X3502290D01*
G01X3421010Y-1952380D02*
X3429480Y-1955550D01*
X3435830Y-1963490D01*
X3440060Y-1973020D01*
X3443240Y-1985720D01*
X3444290Y-2000010D01*
X3443240Y-2014290D01*
X3440060Y-2026990D01*
X3435830Y-2036520D01*
X3429480Y-2044460D01*
X3421010Y-2047630D01*
X3412540Y-2044460D01*
X3406190Y-2036520D01*
X3401960Y-2026990D01*
X3398780Y-2014290D01*
X3397730Y-2000010D01*
X3398780Y-1985720D01*
X3401960Y-1973020D01*
X3406190Y-1963490D01*
X3412540Y-1955550D01*
X3421010Y-1952380D01*
G01X3329150Y-2047630D02*
X3327030Y-2026990D01*
X3323850Y-2009530D01*
X3319620Y-1993650D01*
X3314330Y-1976190D01*
X3305860Y-1952380D01*
X3348200D01*
G01X3313150Y2330000D02*
Y2425250D01*
X3286690D01*
X3278220Y2420490D01*
X3272930Y2414140D01*
X3270810Y2401440D01*
X3272930Y2388740D01*
X3279280Y2380800D01*
X3286690Y2376040D01*
X3313150D01*
G01X3286690D02*
X3270810Y2330000D01*
G01X3221280Y2344280D02*
X3214930Y2336350D01*
X3207530Y2331590D01*
X3198000Y2330000D01*
X3188470Y2333170D01*
X3181070Y2339520D01*
X3175770Y2350640D01*
X3174720Y2363340D01*
X3176830Y2376040D01*
X3182130Y2383980D01*
X3189530Y2390320D01*
X3196940Y2391910D01*
X3204350Y2390320D01*
X3213870Y2383980D01*
X3210700Y2425250D01*
X3182130D01*
G01X3104020Y2330000D02*
Y2425250D01*
X3116720Y2406200D01*
G01Y2330000D02*
X3091320D01*
G01X3493150Y2820000D02*
Y2915250D01*
X3466690D01*
X3458220Y2910490D01*
X3452930Y2904140D01*
X3450810Y2891440D01*
X3452930Y2878740D01*
X3459280Y2870800D01*
X3466690Y2866040D01*
X3493150D01*
G01X3466690D02*
X3450810Y2820000D01*
G01X3398110Y2899380D02*
X3391760Y2908900D01*
X3384350Y2913660D01*
X3375880Y2915250D01*
X3365300Y2912080D01*
X3357890Y2904140D01*
X3355770Y2894610D01*
X3356830Y2885090D01*
X3361070Y2877150D01*
X3382230Y2861270D01*
X3391760Y2850160D01*
X3398110Y2834280D01*
X3400230Y2820000D01*
X3355770D01*
G01X3284020D02*
Y2915250D01*
X3296720Y2896200D01*
G01Y2820000D02*
X3271320D01*
G01X3355260Y4287630D02*
Y4219370D01*
X3351030Y4205080D01*
X3342560Y4195550D01*
X3331980Y4192380D01*
X3321400Y4195550D01*
X3312930Y4205080D01*
X3308700Y4219370D01*
Y4287630D01*
G01X3238000Y4192380D02*
Y4287630D01*
X3250700Y4268580D01*
G01Y4192380D02*
X3225300D01*
G01X3167300Y4211430D02*
X3160950Y4200320D01*
X3152490Y4193970D01*
X3142960Y4192380D01*
X3134490Y4193970D01*
X3126030Y4201900D01*
X3120740Y4211430D01*
X3119680Y4220950D01*
X3121790Y4232060D01*
X3129200Y4240000D01*
X3136610Y4243180D01*
X3146140D01*
G01X3136610D02*
X3130260Y4247940D01*
X3124970Y4255880D01*
X3122850Y4265400D01*
X3124970Y4274930D01*
X3130260Y4282870D01*
X3139790Y4287630D01*
X3149310Y4286040D01*
X3158840Y4279690D01*
G01X3565140Y4395000D02*
Y4490250D01*
X3538680D01*
X3530210Y4485490D01*
X3524920Y4479140D01*
X3522800Y4466440D01*
X3524920Y4453740D01*
X3531270Y4445800D01*
X3538680Y4441040D01*
X3565140D01*
G01X3538680D02*
X3522800Y4395000D01*
G01X3449990D02*
Y4490250D01*
X3462690Y4471200D01*
G01Y4395000D02*
X3437290D01*
G01X3374000Y4406110D02*
X3366590Y4398170D01*
X3358130Y4395000D01*
X3349660Y4398170D01*
X3342250Y4407700D01*
X3336960Y4421990D01*
X3334840Y4436270D01*
Y4453740D01*
X3336960Y4468020D01*
X3342250Y4480720D01*
X3348600Y4487080D01*
X3356010Y4490250D01*
X3364480Y4487080D01*
X3370830Y4480720D01*
X3375060Y4471200D01*
X3377180Y4458500D01*
X3375060Y4447390D01*
X3369770Y4436270D01*
X3363420Y4429920D01*
X3356010Y4428340D01*
X3347540Y4431510D01*
X3341190Y4439450D01*
X3334840Y4453740D01*
G01X3285310Y4414050D02*
X3278960Y4402940D01*
X3270500Y4396590D01*
X3260970Y4395000D01*
X3252500Y4396590D01*
X3244040Y4404520D01*
X3238750Y4414050D01*
X3237690Y4423570D01*
X3239800Y4434680D01*
X3247210Y4442620D01*
X3254620Y4445800D01*
X3264150D01*
G01X3254620D02*
X3248270Y4450560D01*
X3242980Y4458500D01*
X3240860Y4468020D01*
X3242980Y4477550D01*
X3248270Y4485490D01*
X3257800Y4490250D01*
X3267320Y4488660D01*
X3276850Y4482310D01*
G01X3893150Y-3460000D02*
Y-3364750D01*
X3866690D01*
X3858220Y-3369510D01*
X3852930Y-3375860D01*
X3850810Y-3388560D01*
X3852930Y-3401260D01*
X3859280Y-3409200D01*
X3866690Y-3413960D01*
X3893150D01*
G01X3866690D02*
X3850810Y-3460000D01*
G01X3798110Y-3420320D02*
X3790700Y-3409200D01*
X3784350Y-3402850D01*
X3775880Y-3399680D01*
X3768470Y-3402850D01*
X3763180Y-3409200D01*
X3758950Y-3418730D01*
X3757890Y-3429840D01*
X3758950Y-3439360D01*
X3763180Y-3448890D01*
X3769530Y-3456830D01*
X3776940Y-3460000D01*
X3785410Y-3456830D01*
X3792820Y-3447300D01*
X3797050Y-3433010D01*
X3798110Y-3417140D01*
X3795990Y-3396500D01*
X3792820Y-3385390D01*
X3787530Y-3374280D01*
X3780120Y-3366340D01*
X3772710Y-3364750D01*
X3765300Y-3367920D01*
X3760010Y-3375860D01*
G01X3707300Y-3445720D02*
X3700950Y-3453650D01*
X3693550Y-3458410D01*
X3684020Y-3460000D01*
X3674490Y-3456830D01*
X3667090Y-3450480D01*
X3661790Y-3439360D01*
X3660740Y-3426660D01*
X3662850Y-3413960D01*
X3668150Y-3406020D01*
X3675550Y-3399680D01*
X3682960Y-3398090D01*
X3690370Y-3399680D01*
X3699890Y-3406020D01*
X3696720Y-3364750D01*
X3668150D01*
G01X3668700Y-2632690D02*
X3675050Y-2627920D01*
X3682450Y-2624750D01*
X3690920D01*
X3700450Y-2629510D01*
X3707850Y-2637450D01*
X3713150Y-2646980D01*
X3717380Y-2662850D01*
X3718440Y-2677140D01*
X3716320Y-2691430D01*
X3713150Y-2700950D01*
X3706800Y-2710480D01*
X3699390Y-2716830D01*
X3691980Y-2720000D01*
X3684570D01*
X3677160Y-2716830D01*
X3670810Y-2712060D01*
X3665520Y-2705720D01*
G01X3621280Y-2700950D02*
X3614930Y-2712060D01*
X3606470Y-2718410D01*
X3596940Y-2720000D01*
X3588470Y-2718410D01*
X3580010Y-2710480D01*
X3574720Y-2700950D01*
X3573660Y-2691430D01*
X3575770Y-2680320D01*
X3583180Y-2672380D01*
X3590590Y-2669200D01*
X3600120D01*
G01X3590590D02*
X3584240Y-2664440D01*
X3578950Y-2656500D01*
X3576830Y-2646980D01*
X3578950Y-2637450D01*
X3584240Y-2629510D01*
X3593770Y-2624750D01*
X3603290Y-2626340D01*
X3612820Y-2632690D01*
G01X3527300Y-2705720D02*
X3520950Y-2713650D01*
X3513550Y-2718410D01*
X3504020Y-2720000D01*
X3494490Y-2716830D01*
X3487090Y-2710480D01*
X3481790Y-2699360D01*
X3480740Y-2686660D01*
X3482850Y-2673960D01*
X3488150Y-2666020D01*
X3495550Y-2659680D01*
X3502960Y-2658090D01*
X3510370Y-2659680D01*
X3519890Y-2666020D01*
X3516720Y-2624750D01*
X3488150D01*
G01X3658700Y-2390310D02*
X3665050Y-2385540D01*
X3672450Y-2382370D01*
X3680920D01*
X3690450Y-2387130D01*
X3697850Y-2395070D01*
X3703150Y-2404600D01*
X3707380Y-2420470D01*
X3708440Y-2434760D01*
X3706320Y-2449050D01*
X3703150Y-2458570D01*
X3696800Y-2468100D01*
X3689390Y-2474450D01*
X3681980Y-2477620D01*
X3674570D01*
X3667160Y-2474450D01*
X3660810Y-2469680D01*
X3655520Y-2463340D01*
G01X3608110Y-2398240D02*
X3601760Y-2388720D01*
X3594350Y-2383960D01*
X3585880Y-2382370D01*
X3575300Y-2385540D01*
X3567890Y-2393480D01*
X3565770Y-2403010D01*
X3566830Y-2412530D01*
X3571070Y-2420470D01*
X3592230Y-2436350D01*
X3601760Y-2447460D01*
X3608110Y-2463340D01*
X3610230Y-2477620D01*
X3565770D01*
G01X3494020D02*
Y-2382370D01*
X3506720Y-2401420D01*
G01Y-2477620D02*
X3481320D01*
G01X3759520Y-2232270D02*
Y-2137020D01*
X3733060D01*
X3724590Y-2141780D01*
X3719300Y-2148130D01*
X3717180Y-2160830D01*
X3719300Y-2173530D01*
X3725650Y-2181470D01*
X3733060Y-2186230D01*
X3759520D01*
G01X3733060D02*
X3717180Y-2232270D01*
G01X3644370D02*
Y-2137020D01*
X3657070Y-2156070D01*
G01Y-2232270D02*
X3631670D01*
G01X3573670Y-2217990D02*
X3567320Y-2225920D01*
X3559920Y-2230680D01*
X3550390Y-2232270D01*
X3540860Y-2229100D01*
X3533460Y-2222750D01*
X3528160Y-2211630D01*
X3527110Y-2198930D01*
X3529220Y-2186230D01*
X3534520Y-2178290D01*
X3541920Y-2171950D01*
X3549330Y-2170360D01*
X3556740Y-2171950D01*
X3566260Y-2178290D01*
X3563090Y-2137020D01*
X3534520D01*
G01X3479690Y-2213220D02*
X3473340Y-2224330D01*
X3464880Y-2230680D01*
X3455350Y-2232270D01*
X3446880Y-2230680D01*
X3438420Y-2222750D01*
X3433130Y-2213220D01*
X3432070Y-2203700D01*
X3434180Y-2192590D01*
X3441590Y-2184650D01*
X3449000Y-2181470D01*
X3458530D01*
G01X3449000D02*
X3442650Y-2176710D01*
X3437360Y-2168770D01*
X3435240Y-2159250D01*
X3437360Y-2149720D01*
X3442650Y-2141780D01*
X3452180Y-2137020D01*
X3461700Y-2138610D01*
X3471230Y-2144960D01*
G01X4010140Y2330000D02*
Y2425250D01*
X3983680D01*
X3975210Y2420490D01*
X3969920Y2414140D01*
X3967800Y2401440D01*
X3969920Y2388740D01*
X3976270Y2380800D01*
X3983680Y2376040D01*
X4010140D01*
G01X3983680D02*
X3967800Y2330000D01*
G01X3894990D02*
Y2425250D01*
X3907690Y2406200D01*
G01Y2330000D02*
X3882290D01*
G01X3801010Y2425250D02*
X3809480Y2422080D01*
X3815830Y2414140D01*
X3820060Y2404610D01*
X3823240Y2391910D01*
X3824290Y2377620D01*
X3823240Y2363340D01*
X3820060Y2350640D01*
X3815830Y2341110D01*
X3809480Y2333170D01*
X3801010Y2330000D01*
X3792540Y2333170D01*
X3786190Y2341110D01*
X3781960Y2350640D01*
X3778780Y2363340D01*
X3777730Y2377620D01*
X3778780Y2391910D01*
X3781960Y2404610D01*
X3786190Y2414140D01*
X3792540Y2422080D01*
X3801010Y2425250D01*
G01X3707030Y2330000D02*
Y2425250D01*
X3719730Y2406200D01*
G01Y2330000D02*
X3694330D01*
G01X3613150D02*
Y2425250D01*
X3586690D01*
X3578220Y2420490D01*
X3572930Y2414140D01*
X3570810Y2401440D01*
X3572930Y2388740D01*
X3579280Y2380800D01*
X3586690Y2376040D01*
X3613150D01*
G01X3586690D02*
X3570810Y2330000D01*
G01X3521280Y2344280D02*
X3514930Y2336350D01*
X3507530Y2331590D01*
X3498000Y2330000D01*
X3488470Y2333170D01*
X3481070Y2339520D01*
X3475770Y2350640D01*
X3474720Y2363340D01*
X3476830Y2376040D01*
X3482130Y2383980D01*
X3489530Y2390320D01*
X3496940Y2391910D01*
X3504350Y2390320D01*
X3513870Y2383980D01*
X3510700Y2425250D01*
X3482130D01*
G01X3404020D02*
X3412490Y2422080D01*
X3418840Y2414140D01*
X3423070Y2404610D01*
X3426250Y2391910D01*
X3427300Y2377620D01*
X3426250Y2363340D01*
X3423070Y2350640D01*
X3418840Y2341110D01*
X3412490Y2333170D01*
X3404020Y2330000D01*
X3395550Y2333170D01*
X3389200Y2341110D01*
X3384970Y2350640D01*
X3381790Y2363340D01*
X3380740Y2377620D01*
X3381790Y2391910D01*
X3384970Y2404610D01*
X3389200Y2414140D01*
X3395550Y2422080D01*
X3404020Y2425250D01*
G01X3813150Y2860000D02*
Y2955250D01*
X3786690D01*
X3778220Y2950490D01*
X3772930Y2944140D01*
X3770810Y2931440D01*
X3772930Y2918740D01*
X3779280Y2910800D01*
X3786690Y2906040D01*
X3813150D01*
G01X3786690D02*
X3770810Y2860000D01*
G01X3718110Y2939380D02*
X3711760Y2948900D01*
X3704350Y2953660D01*
X3695880Y2955250D01*
X3685300Y2952080D01*
X3677890Y2944140D01*
X3675770Y2934610D01*
X3676830Y2925090D01*
X3681070Y2917150D01*
X3702230Y2901270D01*
X3711760Y2890160D01*
X3718110Y2874280D01*
X3720230Y2860000D01*
X3675770D01*
G01X3624130Y2939380D02*
X3617780Y2948900D01*
X3610370Y2953660D01*
X3601900Y2955250D01*
X3591320Y2952080D01*
X3583910Y2944140D01*
X3581790Y2934610D01*
X3582850Y2925090D01*
X3587090Y2917150D01*
X3608250Y2901270D01*
X3617780Y2890160D01*
X3624130Y2874280D01*
X3626250Y2860000D01*
X3581790D01*
G01X3760140Y2622380D02*
Y2717630D01*
X3733680D01*
X3725210Y2712870D01*
X3719920Y2706520D01*
X3717800Y2693820D01*
X3719920Y2681120D01*
X3726270Y2673180D01*
X3733680Y2668420D01*
X3760140D01*
G01X3733680D02*
X3717800Y2622380D01*
G01X3644990D02*
Y2717630D01*
X3657690Y2698580D01*
G01Y2622380D02*
X3632290D01*
G01X3551010D02*
Y2717630D01*
X3563710Y2698580D01*
G01Y2622380D02*
X3538310D01*
G01X3444330D02*
Y2717630D01*
X3483490Y2649370D01*
X3430570D01*
G01X3800140Y2990000D02*
Y3085250D01*
X3773680D01*
X3765210Y3080490D01*
X3759920Y3074140D01*
X3757800Y3061440D01*
X3759920Y3048740D01*
X3766270Y3040800D01*
X3773680Y3036040D01*
X3800140D01*
G01X3773680D02*
X3757800Y2990000D01*
G01X3684990D02*
Y3085250D01*
X3697690Y3066200D01*
G01Y2990000D02*
X3672290D01*
G01X3611120Y3029680D02*
X3603710Y3040800D01*
X3597360Y3047150D01*
X3588890Y3050320D01*
X3581480Y3047150D01*
X3576190Y3040800D01*
X3571960Y3031270D01*
X3570900Y3020160D01*
X3571960Y3010640D01*
X3576190Y3001110D01*
X3582540Y2993170D01*
X3589950Y2990000D01*
X3598420Y2993170D01*
X3605830Y3002700D01*
X3610060Y3016990D01*
X3611120Y3032860D01*
X3609000Y3053500D01*
X3605830Y3064610D01*
X3600540Y3075720D01*
X3593130Y3083660D01*
X3585720Y3085250D01*
X3578310Y3082080D01*
X3573020Y3074140D01*
G01X3515020Y3001110D02*
X3507610Y2993170D01*
X3499150Y2990000D01*
X3490680Y2993170D01*
X3483270Y3002700D01*
X3477980Y3016990D01*
X3475860Y3031270D01*
Y3048740D01*
X3477980Y3063020D01*
X3483270Y3075720D01*
X3489620Y3082080D01*
X3497030Y3085250D01*
X3505500Y3082080D01*
X3511850Y3075720D01*
X3516080Y3066200D01*
X3518200Y3053500D01*
X3516080Y3042390D01*
X3510790Y3031270D01*
X3504440Y3024920D01*
X3497030Y3023340D01*
X3488560Y3026510D01*
X3482210Y3034450D01*
X3475860Y3048740D01*
G01X3611040Y4062760D02*
Y4187760D01*
G01X3381440Y4062760D02*
Y4187760D01*
G01X3713670Y4309030D02*
X3717800Y4303950D01*
X3720550Y4298020D01*
Y4291250D01*
X3716420Y4283630D01*
X3709540Y4277700D01*
X3701290Y4273470D01*
X3687530Y4270080D01*
X3675150Y4269230D01*
X3662760Y4270930D01*
X3654510Y4273470D01*
X3646250Y4278550D01*
X3640750Y4284470D01*
X3638000Y4290400D01*
Y4296330D01*
X3640750Y4302250D01*
X3644880Y4307330D01*
X3650380Y4311570D01*
G01X3654510Y4347970D02*
X3644880Y4353050D01*
X3639380Y4359830D01*
X3638000Y4367450D01*
X3639380Y4374220D01*
X3646250Y4380990D01*
X3654510Y4385230D01*
X3662760Y4386070D01*
X3672390Y4384380D01*
X3679270Y4378450D01*
X3682030Y4372530D01*
Y4364910D01*
G01Y4372530D02*
X3686150Y4377610D01*
X3693030Y4381840D01*
X3701290Y4383530D01*
X3709540Y4381840D01*
X3716420Y4377610D01*
X3720550Y4369990D01*
X3719170Y4362370D01*
X3713670Y4354750D01*
G01X3638000Y4442800D02*
X3720550D01*
X3704040Y4432640D01*
G01X3638000D02*
Y4452960D01*
G01X4093150Y-3267630D02*
Y-3172380D01*
X4066690D01*
X4058220Y-3177140D01*
X4052930Y-3183490D01*
X4050810Y-3196190D01*
X4052930Y-3208890D01*
X4059280Y-3216830D01*
X4066690Y-3221590D01*
X4093150D01*
G01X4066690D02*
X4050810Y-3267630D01*
G01X3998110Y-3227950D02*
X3990700Y-3216830D01*
X3984350Y-3210480D01*
X3975880Y-3207310D01*
X3968470Y-3210480D01*
X3963180Y-3216830D01*
X3958950Y-3226360D01*
X3957890Y-3237470D01*
X3958950Y-3246990D01*
X3963180Y-3256520D01*
X3969530Y-3264460D01*
X3976940Y-3267630D01*
X3985410Y-3264460D01*
X3992820Y-3254930D01*
X3997050Y-3240640D01*
X3998110Y-3224770D01*
X3995990Y-3204130D01*
X3992820Y-3193020D01*
X3987530Y-3181910D01*
X3980120Y-3173970D01*
X3972710Y-3172380D01*
X3965300Y-3175550D01*
X3960010Y-3183490D01*
G01X3886140Y-3267630D02*
X3884020Y-3246990D01*
X3880840Y-3229530D01*
X3876610Y-3213650D01*
X3871320Y-3196190D01*
X3862850Y-3172380D01*
X3905190D01*
G01X4360140Y-2710000D02*
Y-2614750D01*
X4333680D01*
X4325210Y-2619510D01*
X4319920Y-2625860D01*
X4317800Y-2638560D01*
X4319920Y-2651260D01*
X4326270Y-2659200D01*
X4333680Y-2663960D01*
X4360140D01*
G01X4333680D02*
X4317800Y-2710000D01*
G01X4244990D02*
Y-2614750D01*
X4257690Y-2633800D01*
G01Y-2710000D02*
X4232290D01*
G01X4169000Y-2698890D02*
X4161590Y-2706830D01*
X4153130Y-2710000D01*
X4144660Y-2706830D01*
X4137250Y-2697300D01*
X4131960Y-2683010D01*
X4129840Y-2668730D01*
Y-2651260D01*
X4131960Y-2636980D01*
X4137250Y-2624280D01*
X4143600Y-2617920D01*
X4151010Y-2614750D01*
X4159480Y-2617920D01*
X4165830Y-2624280D01*
X4170060Y-2633800D01*
X4172180Y-2646500D01*
X4170060Y-2657610D01*
X4164770Y-2668730D01*
X4158420Y-2675080D01*
X4151010Y-2676660D01*
X4142540Y-2673490D01*
X4136190Y-2665550D01*
X4129840Y-2651260D01*
G01X4057030Y-2710000D02*
Y-2614750D01*
X4069730Y-2633800D01*
G01Y-2710000D02*
X4044330D01*
G01X3842490Y-2812750D02*
Y-2782750D01*
X4022490D01*
Y-2812750D01*
G01X3842490Y-2892750D02*
Y-2922750D01*
X4022490D01*
Y-2892750D01*
G01X4198700Y-2352690D02*
X4205050Y-2347920D01*
X4212450Y-2344750D01*
X4220920D01*
X4230450Y-2349510D01*
X4237850Y-2357450D01*
X4243150Y-2366980D01*
X4247380Y-2382850D01*
X4248440Y-2397140D01*
X4246320Y-2411430D01*
X4243150Y-2420950D01*
X4236800Y-2430480D01*
X4229390Y-2436830D01*
X4221980Y-2440000D01*
X4214570D01*
X4207160Y-2436830D01*
X4200810Y-2432060D01*
X4195520Y-2425720D01*
G01X4148110Y-2360620D02*
X4141760Y-2351100D01*
X4134350Y-2346340D01*
X4125880Y-2344750D01*
X4115300Y-2347920D01*
X4107890Y-2355860D01*
X4105770Y-2365390D01*
X4106830Y-2374910D01*
X4111070Y-2382850D01*
X4132230Y-2398730D01*
X4141760Y-2409840D01*
X4148110Y-2425720D01*
X4150230Y-2440000D01*
X4105770D01*
G01X4054130Y-2360620D02*
X4047780Y-2351100D01*
X4040370Y-2346340D01*
X4031900Y-2344750D01*
X4021320Y-2347920D01*
X4013910Y-2355860D01*
X4011790Y-2365390D01*
X4012850Y-2374910D01*
X4017090Y-2382850D01*
X4038250Y-2398730D01*
X4047780Y-2409840D01*
X4054130Y-2425720D01*
X4056250Y-2440000D01*
X4011790D01*
G01X4330140Y-2290000D02*
Y-2194750D01*
X4303680D01*
X4295210Y-2199510D01*
X4289920Y-2205860D01*
X4287800Y-2218560D01*
X4289920Y-2231260D01*
X4296270Y-2239200D01*
X4303680Y-2243960D01*
X4330140D01*
G01X4303680D02*
X4287800Y-2290000D01*
G01X4214990D02*
Y-2194750D01*
X4227690Y-2213800D01*
G01Y-2290000D02*
X4202290D01*
G01X4144290Y-2275720D02*
X4137940Y-2283650D01*
X4130540Y-2288410D01*
X4121010Y-2290000D01*
X4111480Y-2286830D01*
X4104080Y-2280480D01*
X4098780Y-2269360D01*
X4097730Y-2256660D01*
X4099840Y-2243960D01*
X4105140Y-2236020D01*
X4112540Y-2229680D01*
X4119950Y-2228090D01*
X4127360Y-2229680D01*
X4136880Y-2236020D01*
X4133710Y-2194750D01*
X4105140D01*
G01X4014330Y-2290000D02*
Y-2194750D01*
X4053490Y-2263010D01*
X4000570D01*
G01X4152970Y-1772690D02*
X4159320Y-1767920D01*
X4166720Y-1764750D01*
X4175190D01*
X4184720Y-1769510D01*
X4192120Y-1777450D01*
X4197420Y-1786980D01*
X4201650Y-1802850D01*
X4202710Y-1817140D01*
X4200590Y-1831430D01*
X4197420Y-1840950D01*
X4191070Y-1850480D01*
X4183660Y-1856830D01*
X4176250Y-1860000D01*
X4168840D01*
X4161430Y-1856830D01*
X4155080Y-1852060D01*
X4149790Y-1845720D01*
G01X4102380Y-1780620D02*
X4096030Y-1771100D01*
X4088620Y-1766340D01*
X4080150Y-1764750D01*
X4069570Y-1767920D01*
X4062160Y-1775860D01*
X4060040Y-1785390D01*
X4061100Y-1794910D01*
X4065340Y-1802850D01*
X4086500Y-1818730D01*
X4096030Y-1829840D01*
X4102380Y-1845720D01*
X4104500Y-1860000D01*
X4060040D01*
G01X4011570Y-1840950D02*
X4005220Y-1852060D01*
X3996760Y-1858410D01*
X3987230Y-1860000D01*
X3978760Y-1858410D01*
X3970300Y-1850480D01*
X3965010Y-1840950D01*
X3963950Y-1831430D01*
X3966060Y-1820320D01*
X3973470Y-1812380D01*
X3980880Y-1809200D01*
X3990410D01*
G01X3980880D02*
X3974530Y-1804440D01*
X3969240Y-1796500D01*
X3967120Y-1786980D01*
X3969240Y-1777450D01*
X3974530Y-1769510D01*
X3984060Y-1764750D01*
X3993580Y-1766340D01*
X4003110Y-1772690D01*
G01X4173150Y2632370D02*
Y2727620D01*
X4146690D01*
X4138220Y2722860D01*
X4132930Y2716510D01*
X4130810Y2703810D01*
X4132930Y2691110D01*
X4139280Y2683170D01*
X4146690Y2678410D01*
X4173150D01*
G01X4146690D02*
X4130810Y2632370D01*
G01X4045300D02*
Y2727620D01*
X4084460Y2659360D01*
X4031540D01*
G01X3966140Y2632370D02*
X3964020Y2653010D01*
X3960840Y2670470D01*
X3956610Y2686350D01*
X3951320Y2703810D01*
X3942850Y2727620D01*
X3985190D01*
G01X4190140Y3162380D02*
Y3257630D01*
X4163680D01*
X4155210Y3252870D01*
X4149920Y3246520D01*
X4147800Y3233820D01*
X4149920Y3221120D01*
X4156270Y3213180D01*
X4163680Y3208420D01*
X4190140D01*
G01X4163680D02*
X4147800Y3162380D01*
G01X4074990D02*
Y3257630D01*
X4087690Y3238580D01*
G01Y3162380D02*
X4062290D01*
G01X4001120Y3202060D02*
X3993710Y3213180D01*
X3987360Y3219530D01*
X3978890Y3222700D01*
X3971480Y3219530D01*
X3966190Y3213180D01*
X3961960Y3203650D01*
X3960900Y3192540D01*
X3961960Y3183020D01*
X3966190Y3173490D01*
X3972540Y3165550D01*
X3979950Y3162380D01*
X3988420Y3165550D01*
X3995830Y3175080D01*
X4000060Y3189370D01*
X4001120Y3205240D01*
X3999000Y3225880D01*
X3995830Y3236990D01*
X3990540Y3248100D01*
X3983130Y3256040D01*
X3975720Y3257630D01*
X3968310Y3254460D01*
X3963020Y3246520D01*
G01X3887030Y3162380D02*
X3879620Y3163970D01*
X3871160Y3168730D01*
X3865860Y3176660D01*
X3863750Y3187780D01*
X3865860Y3198890D01*
X3872210Y3208420D01*
X3881740Y3213180D01*
X3892320D01*
X3898670Y3216360D01*
X3903960Y3224290D01*
X3906080Y3235400D01*
X3902900Y3246520D01*
X3895500Y3254460D01*
X3887030Y3257630D01*
X3878560Y3254460D01*
X3871160Y3246520D01*
X3867980Y3235400D01*
X3870100Y3224290D01*
X3875390Y3216360D01*
X3881740Y3213180D01*
X3892320D01*
X3901850Y3208420D01*
X3908200Y3198890D01*
X3910310Y3187780D01*
X3908200Y3176660D01*
X3902900Y3168730D01*
X3894440Y3163970D01*
X3887030Y3162380D01*
G01X4123150Y3040000D02*
Y3135250D01*
X4096690D01*
X4088220Y3130490D01*
X4082930Y3124140D01*
X4080810Y3111440D01*
X4082930Y3098740D01*
X4089280Y3090800D01*
X4096690Y3086040D01*
X4123150D01*
G01X4096690D02*
X4080810Y3040000D01*
G01X3995300D02*
Y3135250D01*
X4034460Y3066990D01*
X3981540D01*
G01X3937300Y3059050D02*
X3930950Y3047940D01*
X3922490Y3041590D01*
X3912960Y3040000D01*
X3904490Y3041590D01*
X3896030Y3049520D01*
X3890740Y3059050D01*
X3889680Y3068570D01*
X3891790Y3079680D01*
X3899200Y3087620D01*
X3906610Y3090800D01*
X3916140D01*
G01X3906610D02*
X3900260Y3095560D01*
X3894970Y3103500D01*
X3892850Y3113020D01*
X3894970Y3122550D01*
X3900260Y3130490D01*
X3909790Y3135250D01*
X3919310Y3133660D01*
X3928840Y3127310D01*
G01X4270140Y3540000D02*
Y3635250D01*
X4243680D01*
X4235210Y3630490D01*
X4229920Y3624140D01*
X4227800Y3611440D01*
X4229920Y3598740D01*
X4236270Y3590800D01*
X4243680Y3586040D01*
X4270140D01*
G01X4243680D02*
X4227800Y3540000D01*
G01X4154990D02*
Y3635250D01*
X4167690Y3616200D01*
G01Y3540000D02*
X4142290D01*
G01X4081120Y3579680D02*
X4073710Y3590800D01*
X4067360Y3597150D01*
X4058890Y3600320D01*
X4051480Y3597150D01*
X4046190Y3590800D01*
X4041960Y3581270D01*
X4040900Y3570160D01*
X4041960Y3560640D01*
X4046190Y3551110D01*
X4052540Y3543170D01*
X4059950Y3540000D01*
X4068420Y3543170D01*
X4075830Y3552700D01*
X4080060Y3566990D01*
X4081120Y3582860D01*
X4079000Y3603500D01*
X4075830Y3614610D01*
X4070540Y3625720D01*
X4063130Y3633660D01*
X4055720Y3635250D01*
X4048310Y3632080D01*
X4043020Y3624140D01*
G01X3987140Y3579680D02*
X3979730Y3590800D01*
X3973380Y3597150D01*
X3964910Y3600320D01*
X3957500Y3597150D01*
X3952210Y3590800D01*
X3947980Y3581270D01*
X3946920Y3570160D01*
X3947980Y3560640D01*
X3952210Y3551110D01*
X3958560Y3543170D01*
X3965970Y3540000D01*
X3974440Y3543170D01*
X3981850Y3552700D01*
X3986080Y3566990D01*
X3987140Y3582860D01*
X3985020Y3603500D01*
X3981850Y3614610D01*
X3976560Y3625720D01*
X3969150Y3633660D01*
X3961740Y3635250D01*
X3954330Y3632080D01*
X3949040Y3624140D01*
G01X4270140Y3402380D02*
Y3497630D01*
X4243680D01*
X4235210Y3492870D01*
X4229920Y3486520D01*
X4227800Y3473820D01*
X4229920Y3461120D01*
X4236270Y3453180D01*
X4243680Y3448420D01*
X4270140D01*
G01X4243680D02*
X4227800Y3402380D01*
G01X4154990D02*
Y3497630D01*
X4167690Y3478580D01*
G01Y3402380D02*
X4142290D01*
G01X4081120Y3442060D02*
X4073710Y3453180D01*
X4067360Y3459530D01*
X4058890Y3462700D01*
X4051480Y3459530D01*
X4046190Y3453180D01*
X4041960Y3443650D01*
X4040900Y3432540D01*
X4041960Y3423020D01*
X4046190Y3413490D01*
X4052540Y3405550D01*
X4059950Y3402380D01*
X4068420Y3405550D01*
X4075830Y3415080D01*
X4080060Y3429370D01*
X4081120Y3445240D01*
X4079000Y3465880D01*
X4075830Y3476990D01*
X4070540Y3488100D01*
X4063130Y3496040D01*
X4055720Y3497630D01*
X4048310Y3494460D01*
X4043020Y3486520D01*
G01X3969150Y3402380D02*
X3967030Y3423020D01*
X3963850Y3440480D01*
X3959620Y3456360D01*
X3954330Y3473820D01*
X3945860Y3497630D01*
X3988200D01*
G01X4320140Y3282380D02*
Y3377630D01*
X4293680D01*
X4285210Y3372870D01*
X4279920Y3366520D01*
X4277800Y3353820D01*
X4279920Y3341120D01*
X4286270Y3333180D01*
X4293680Y3328420D01*
X4320140D01*
G01X4293680D02*
X4277800Y3282380D01*
G01X4204990D02*
Y3377630D01*
X4217690Y3358580D01*
G01Y3282380D02*
X4192290D01*
G01X4111010D02*
X4103600Y3283970D01*
X4095140Y3288730D01*
X4089840Y3296660D01*
X4087730Y3307780D01*
X4089840Y3318890D01*
X4096190Y3328420D01*
X4105720Y3333180D01*
X4116300D01*
X4122650Y3336360D01*
X4127940Y3344290D01*
X4130060Y3355400D01*
X4126880Y3366520D01*
X4119480Y3374460D01*
X4111010Y3377630D01*
X4102540Y3374460D01*
X4095140Y3366520D01*
X4091960Y3355400D01*
X4094080Y3344290D01*
X4099370Y3336360D01*
X4105720Y3333180D01*
X4116300D01*
X4125830Y3328420D01*
X4132180Y3318890D01*
X4134290Y3307780D01*
X4132180Y3296660D01*
X4126880Y3288730D01*
X4118420Y3283970D01*
X4111010Y3282380D01*
G01X4035020Y3293490D02*
X4027610Y3285550D01*
X4019150Y3282380D01*
X4010680Y3285550D01*
X4003270Y3295080D01*
X3997980Y3309370D01*
X3995860Y3323650D01*
Y3341120D01*
X3997980Y3355400D01*
X4003270Y3368100D01*
X4009620Y3374460D01*
X4017030Y3377630D01*
X4025500Y3374460D01*
X4031850Y3368100D01*
X4036080Y3358580D01*
X4038200Y3345880D01*
X4036080Y3334770D01*
X4030790Y3323650D01*
X4024440Y3317300D01*
X4017030Y3315720D01*
X4008560Y3318890D01*
X4002210Y3326830D01*
X3995860Y3341120D01*
G01X3922970Y3757310D02*
X3929320Y3762080D01*
X3936720Y3765250D01*
X3945190D01*
X3954720Y3760490D01*
X3962120Y3752550D01*
X3967420Y3743020D01*
X3971650Y3727150D01*
X3972710Y3712860D01*
X3970590Y3698570D01*
X3967420Y3689050D01*
X3961070Y3679520D01*
X3953660Y3673170D01*
X3946250Y3670000D01*
X3938840D01*
X3931430Y3673170D01*
X3925080Y3677940D01*
X3919790Y3684280D01*
G01X3875550Y3689050D02*
X3869200Y3677940D01*
X3860740Y3671590D01*
X3851210Y3670000D01*
X3842740Y3671590D01*
X3834280Y3679520D01*
X3828990Y3689050D01*
X3827930Y3698570D01*
X3830040Y3709680D01*
X3837450Y3717620D01*
X3844860Y3720800D01*
X3854390D01*
G01X3844860D02*
X3838510Y3725560D01*
X3833220Y3733500D01*
X3831100Y3743020D01*
X3833220Y3752550D01*
X3838510Y3760490D01*
X3848040Y3765250D01*
X3857560Y3763660D01*
X3867090Y3757310D01*
G01X3758290Y3765250D02*
X3766760Y3762080D01*
X3773110Y3754140D01*
X3777340Y3744610D01*
X3780520Y3731910D01*
X3781570Y3717620D01*
X3780520Y3703340D01*
X3777340Y3690640D01*
X3773110Y3681110D01*
X3766760Y3673170D01*
X3758290Y3670000D01*
X3749820Y3673170D01*
X3743470Y3681110D01*
X3739240Y3690640D01*
X3736060Y3703340D01*
X3735010Y3717620D01*
X3736060Y3731910D01*
X3739240Y3744610D01*
X3743470Y3754140D01*
X3749820Y3762080D01*
X3758290Y3765250D01*
G01X4070140Y3820000D02*
Y3915250D01*
X4043680D01*
X4035210Y3910490D01*
X4029920Y3904140D01*
X4027800Y3891440D01*
X4029920Y3878740D01*
X4036270Y3870800D01*
X4043680Y3866040D01*
X4070140D01*
G01X4043680D02*
X4027800Y3820000D01*
G01X3954990D02*
Y3915250D01*
X3967690Y3896200D01*
G01Y3820000D02*
X3942290D01*
G01X3881120Y3859680D02*
X3873710Y3870800D01*
X3867360Y3877150D01*
X3858890Y3880320D01*
X3851480Y3877150D01*
X3846190Y3870800D01*
X3841960Y3861270D01*
X3840900Y3850160D01*
X3841960Y3840640D01*
X3846190Y3831110D01*
X3852540Y3823170D01*
X3859950Y3820000D01*
X3868420Y3823170D01*
X3875830Y3832700D01*
X3880060Y3846990D01*
X3881120Y3862860D01*
X3879000Y3883500D01*
X3875830Y3894610D01*
X3870540Y3905720D01*
X3863130Y3913660D01*
X3855720Y3915250D01*
X3848310Y3912080D01*
X3843020Y3904140D01*
G01X3767030Y3820000D02*
Y3915250D01*
X3779730Y3896200D01*
G01Y3820000D02*
X3754330D01*
G01X4070140Y3950000D02*
Y4045250D01*
X4043680D01*
X4035210Y4040490D01*
X4029920Y4034140D01*
X4027800Y4021440D01*
X4029920Y4008740D01*
X4036270Y4000800D01*
X4043680Y3996040D01*
X4070140D01*
G01X4043680D02*
X4027800Y3950000D01*
G01X3954990D02*
Y4045250D01*
X3967690Y4026200D01*
G01Y3950000D02*
X3942290D01*
G01X3861010D02*
Y4045250D01*
X3873710Y4026200D01*
G01Y3950000D02*
X3848310D01*
G01X3790310Y3969050D02*
X3783960Y3957940D01*
X3775500Y3951590D01*
X3765970Y3950000D01*
X3757500Y3951590D01*
X3749040Y3959520D01*
X3743750Y3969050D01*
X3742690Y3978570D01*
X3744800Y3989680D01*
X3752210Y3997620D01*
X3759620Y4000800D01*
X3769150D01*
G01X3759620D02*
X3753270Y4005560D01*
X3747980Y4013500D01*
X3745860Y4023020D01*
X3747980Y4032550D01*
X3753270Y4040490D01*
X3762800Y4045250D01*
X3772320Y4043660D01*
X3781850Y4037310D01*
G01X3883670Y4304030D02*
X3887800Y4298950D01*
X3890550Y4293020D01*
Y4286250D01*
X3886420Y4278630D01*
X3879540Y4272700D01*
X3871290Y4268470D01*
X3857530Y4265080D01*
X3845150Y4264230D01*
X3832760Y4265930D01*
X3824510Y4268470D01*
X3816250Y4273550D01*
X3810750Y4279470D01*
X3808000Y4285400D01*
Y4291330D01*
X3810750Y4297250D01*
X3814880Y4302330D01*
X3820380Y4306570D01*
G01X3876790Y4345510D02*
X3885050Y4350590D01*
X3889170Y4356520D01*
X3890550Y4363290D01*
X3887800Y4371760D01*
X3880920Y4377690D01*
X3872670Y4379380D01*
X3864410Y4378530D01*
X3857530Y4375150D01*
X3843770Y4358210D01*
X3834140Y4350590D01*
X3820380Y4345510D01*
X3808000Y4343820D01*
Y4379380D01*
G01X3817630Y4423410D02*
X3810750Y4429330D01*
X3808000Y4436110D01*
X3810750Y4442880D01*
X3819000Y4448810D01*
X3831390Y4453040D01*
X3843770Y4454730D01*
X3858910D01*
X3871290Y4453040D01*
X3882290Y4448810D01*
X3887800Y4443730D01*
X3890550Y4437800D01*
X3887800Y4431030D01*
X3882290Y4425950D01*
X3874040Y4422560D01*
X3863030Y4420870D01*
X3853400Y4422560D01*
X3843770Y4426790D01*
X3838270Y4431870D01*
X3836890Y4437800D01*
X3839640Y4444570D01*
X3846520Y4449650D01*
X3858910Y4454730D01*
G01X4028240Y4200260D02*
X3991240D01*
Y4240260D01*
G01X4148180Y4430260D02*
Y4500110D01*
X4129660D01*
X4123730Y4496620D01*
X4120030Y4491960D01*
X4118550Y4482650D01*
X4120030Y4473330D01*
X4124470Y4467510D01*
X4129660Y4464020D01*
X4148180D01*
G01X4129660D02*
X4118550Y4430260D01*
G01X4068600D02*
Y4500110D01*
X4077490Y4486140D01*
G01Y4430260D02*
X4059710D01*
G01X4005310D02*
X4003830Y4445390D01*
X4001600Y4458200D01*
X3998640Y4469840D01*
X3994930Y4482650D01*
X3989010Y4500110D01*
X4018640D01*
G01X3939060D02*
X3944980Y4497780D01*
X3949430Y4491960D01*
X3952390Y4484980D01*
X3954610Y4475660D01*
X3955350Y4465180D01*
X3954610Y4454710D01*
X3952390Y4445390D01*
X3949430Y4438410D01*
X3944980Y4432590D01*
X3939060Y4430260D01*
X3933130Y4432590D01*
X3928680Y4438410D01*
X3925720Y4445390D01*
X3923500Y4454710D01*
X3922760Y4465180D01*
X3923500Y4475660D01*
X3925720Y4484980D01*
X3928680Y4491960D01*
X3933130Y4497780D01*
X3939060Y4500110D01*
G01X4238270Y-2897620D02*
Y-2802370D01*
X4217110D01*
X4208640Y-2807130D01*
X4202290Y-2813480D01*
X4197000Y-2823010D01*
X4192760Y-2834120D01*
X4191710Y-2850000D01*
X4192760Y-2865870D01*
X4197000Y-2876980D01*
X4202290Y-2886510D01*
X4208640Y-2892860D01*
X4217110Y-2897620D01*
X4238270D01*
G01X4144290Y-2883340D02*
X4137940Y-2891270D01*
X4130540Y-2896030D01*
X4121010Y-2897620D01*
X4111480Y-2894450D01*
X4104080Y-2888100D01*
X4098780Y-2876980D01*
X4097730Y-2864280D01*
X4099840Y-2851580D01*
X4105140Y-2843640D01*
X4112540Y-2837300D01*
X4119950Y-2835710D01*
X4127360Y-2837300D01*
X4136880Y-2843640D01*
X4133710Y-2802370D01*
X4105140D01*
G01X4400140Y2330000D02*
Y2425250D01*
X4373680D01*
X4365210Y2420490D01*
X4359920Y2414140D01*
X4357800Y2401440D01*
X4359920Y2388740D01*
X4366270Y2380800D01*
X4373680Y2376040D01*
X4400140D01*
G01X4373680D02*
X4357800Y2330000D01*
G01X4284990D02*
Y2425250D01*
X4297690Y2406200D01*
G01Y2330000D02*
X4272290D01*
G01X4191010Y2425250D02*
X4199480Y2422080D01*
X4205830Y2414140D01*
X4210060Y2404610D01*
X4213240Y2391910D01*
X4214290Y2377620D01*
X4213240Y2363340D01*
X4210060Y2350640D01*
X4205830Y2341110D01*
X4199480Y2333170D01*
X4191010Y2330000D01*
X4182540Y2333170D01*
X4176190Y2341110D01*
X4171960Y2350640D01*
X4168780Y2363340D01*
X4167730Y2377620D01*
X4168780Y2391910D01*
X4171960Y2404610D01*
X4176190Y2414140D01*
X4182540Y2422080D01*
X4191010Y2425250D01*
G01X4097030D02*
X4105500Y2422080D01*
X4111850Y2414140D01*
X4116080Y2404610D01*
X4119260Y2391910D01*
X4120310Y2377620D01*
X4119260Y2363340D01*
X4116080Y2350640D01*
X4111850Y2341110D01*
X4105500Y2333170D01*
X4097030Y2330000D01*
X4088560Y2333170D01*
X4082210Y2341110D01*
X4077980Y2350640D01*
X4074800Y2363340D01*
X4073750Y2377620D01*
X4074800Y2391910D01*
X4077980Y2404610D01*
X4082210Y2414140D01*
X4088560Y2422080D01*
X4097030Y2425250D01*
G01X4403150Y3040000D02*
Y3135250D01*
X4376690D01*
X4368220Y3130490D01*
X4362930Y3124140D01*
X4360810Y3111440D01*
X4362930Y3098740D01*
X4369280Y3090800D01*
X4376690Y3086040D01*
X4403150D01*
G01X4376690D02*
X4360810Y3040000D01*
G01X4275300D02*
Y3135250D01*
X4314460Y3066990D01*
X4261540D01*
G01X4181320Y3040000D02*
Y3135250D01*
X4220480Y3066990D01*
X4167560D01*
G01X4348700Y4007310D02*
X4355050Y4012080D01*
X4362450Y4015250D01*
X4370920D01*
X4380450Y4010490D01*
X4387850Y4002550D01*
X4393150Y3993020D01*
X4397380Y3977150D01*
X4398440Y3962860D01*
X4396320Y3948570D01*
X4393150Y3939050D01*
X4386800Y3929520D01*
X4379390Y3923170D01*
X4371980Y3920000D01*
X4364570D01*
X4357160Y3923170D01*
X4350810Y3927940D01*
X4345520Y3934280D01*
G01X4298110Y3999380D02*
X4291760Y4008900D01*
X4284350Y4013660D01*
X4275880Y4015250D01*
X4265300Y4012080D01*
X4257890Y4004140D01*
X4255770Y3994610D01*
X4256830Y3985090D01*
X4261070Y3977150D01*
X4282230Y3961270D01*
X4291760Y3950160D01*
X4298110Y3934280D01*
X4300230Y3920000D01*
X4255770D01*
G01X4184020Y4015250D02*
X4192490Y4012080D01*
X4198840Y4004140D01*
X4203070Y3994610D01*
X4206250Y3981910D01*
X4207300Y3967620D01*
X4206250Y3953340D01*
X4203070Y3940640D01*
X4198840Y3931110D01*
X4192490Y3923170D01*
X4184020Y3920000D01*
X4175550Y3923170D01*
X4169200Y3931110D01*
X4164970Y3940640D01*
X4161790Y3953340D01*
X4160740Y3967620D01*
X4161790Y3981910D01*
X4164970Y3994610D01*
X4169200Y4004140D01*
X4175550Y4012080D01*
X4184020Y4015250D01*
G01X4355260Y4287620D02*
Y4219360D01*
X4351030Y4205070D01*
X4342560Y4195540D01*
X4331980Y4192370D01*
X4321400Y4195540D01*
X4312930Y4205070D01*
X4308700Y4219360D01*
Y4287620D01*
G01X4238000Y4192370D02*
Y4287620D01*
X4250700Y4268570D01*
G01Y4192370D02*
X4225300D01*
G01X4164130Y4271750D02*
X4157780Y4281270D01*
X4150370Y4286030D01*
X4141900Y4287620D01*
X4131320Y4284450D01*
X4123910Y4276510D01*
X4121790Y4266980D01*
X4122850Y4257460D01*
X4127090Y4249520D01*
X4148250Y4233640D01*
X4157780Y4222530D01*
X4164130Y4206650D01*
X4166250Y4192370D01*
X4121790D01*
G01X4044240Y4290260D02*
X4081240D01*
Y4250260D01*
G01X4915690Y-2490320D02*
X4922040Y-2485550D01*
X4929440Y-2482380D01*
X4937910D01*
X4947440Y-2487140D01*
X4954840Y-2495080D01*
X4960140Y-2504610D01*
X4964370Y-2520480D01*
X4965430Y-2534770D01*
X4963310Y-2549060D01*
X4960140Y-2558580D01*
X4953790Y-2568110D01*
X4946380Y-2574460D01*
X4938970Y-2577630D01*
X4931560D01*
X4924150Y-2574460D01*
X4917800Y-2569690D01*
X4912510Y-2563350D01*
G01X4869330Y-2577630D02*
Y-2482380D01*
X4820650Y-2577630D01*
Y-2482380D01*
G01X4751010Y-2577630D02*
Y-2482380D01*
X4763710Y-2501430D01*
G01Y-2577630D02*
X4738310D01*
G01X4657030Y-2482380D02*
X4665500Y-2485550D01*
X4671850Y-2493490D01*
X4676080Y-2503020D01*
X4679260Y-2515720D01*
X4680310Y-2530010D01*
X4679260Y-2544290D01*
X4676080Y-2556990D01*
X4671850Y-2566520D01*
X4665500Y-2574460D01*
X4657030Y-2577630D01*
X4648560Y-2574460D01*
X4642210Y-2566520D01*
X4637980Y-2556990D01*
X4634800Y-2544290D01*
X4633750Y-2530010D01*
X4634800Y-2515720D01*
X4637980Y-2503020D01*
X4642210Y-2493490D01*
X4648560Y-2485550D01*
X4657030Y-2482380D01*
G01X4445000Y1905000D02*
X4953000D01*
Y-2413000D01*
X4445000D01*
Y1905000D01*
G01Y4597400D02*
X4953000D01*
Y2057400D01*
X4445000D01*
Y4597400D01*
G01X5095310Y4419300D02*
X5100080Y4412950D01*
X5103250Y4405550D01*
Y4397080D01*
X5098490Y4387550D01*
X5090550Y4380150D01*
X5081020Y4374850D01*
X5065150Y4370620D01*
X5050860Y4369560D01*
X5036570Y4371680D01*
X5027050Y4374850D01*
X5017520Y4381200D01*
X5011170Y4388610D01*
X5008000Y4396020D01*
Y4403430D01*
X5011170Y4410840D01*
X5015940Y4417190D01*
X5022280Y4422480D01*
G01X5008000Y4465660D02*
X5103250D01*
X5008000Y4514340D01*
X5103250D01*
G01X5008000Y4581860D02*
X5028640Y4583980D01*
X5046100Y4587160D01*
X5061980Y4591390D01*
X5079440Y4596680D01*
X5103250Y4605150D01*
Y4562810D01*
G54D13*
G01X4665140Y-5715450D02*
X4644820Y-5730790D01*
X4621960Y-5740000D01*
X4601640D01*
X4581320Y-5730790D01*
X4566080Y-5715450D01*
X4558460Y-5693960D01*
X4563540Y-5672480D01*
X4576240Y-5654060D01*
X4599100Y-5641790D01*
X4629580Y-5635650D01*
X4647360Y-5623370D01*
X4654980Y-5601890D01*
X4649900Y-5580400D01*
X4637200Y-5565060D01*
X4619420Y-5555850D01*
X4601640D01*
X4583860Y-5561990D01*
X4568620Y-5577340D01*
G01X4423840Y-5555850D02*
X4362880D01*
G01X4393360D02*
Y-5740000D01*
G01X4423840D02*
X4362880D01*
G01X4225720Y-5555850D02*
Y-5740000D01*
X4124120D01*
G01X4012360D02*
Y-5555850D01*
G01X3915840D02*
X4012360Y-5669410D01*
G01X3900600Y-5740000D02*
X3969180Y-5617240D01*
G01X3791380Y-5715450D02*
X3771060Y-5730790D01*
X3748200Y-5740000D01*
X3727880D01*
X3707560Y-5730790D01*
X3692320Y-5715450D01*
X3684700Y-5693960D01*
X3689780Y-5672480D01*
X3702480Y-5654060D01*
X3725340Y-5641790D01*
X3755820Y-5635650D01*
X3773600Y-5623370D01*
X3781220Y-5601890D01*
X3776140Y-5580400D01*
X3763440Y-5565060D01*
X3745660Y-5555850D01*
X3727880D01*
X3710100Y-5561990D01*
X3694860Y-5577340D01*
G01X3463720Y-5571200D02*
X3478960Y-5561990D01*
X3496740Y-5555850D01*
X3517060D01*
X3539920Y-5565060D01*
X3557700Y-5580400D01*
X3570400Y-5598820D01*
X3580560Y-5629510D01*
X3583100Y-5657130D01*
X3578020Y-5684760D01*
X3570400Y-5703170D01*
X3555160Y-5721590D01*
X3537380Y-5733860D01*
X3519600Y-5740000D01*
X3501820D01*
X3484040Y-5733860D01*
X3468800Y-5724660D01*
X3456100Y-5712380D01*
G01X3351960Y-5740000D02*
Y-5555850D01*
X3288460D01*
X3268140Y-5565060D01*
X3255440Y-5577340D01*
X3250360Y-5601890D01*
X3255440Y-5626440D01*
X3270680Y-5641790D01*
X3288460Y-5651000D01*
X3351960D01*
G01X3288460D02*
X3250360Y-5740000D01*
G01X3031920D02*
X3133520D01*
Y-5555850D01*
X3031920D01*
G01X3072560Y-5644850D02*
X3133520D01*
G01X2813480Y-5740000D02*
X2915080D01*
Y-5555850D01*
X2813480D01*
G01X2854120Y-5644850D02*
X2915080D01*
G01X2704260Y-5740000D02*
Y-5555850D01*
X2587420Y-5740000D01*
Y-5555850D01*
G01X2188640Y-5641790D02*
X2178480Y-5632580D01*
X2170860Y-5617240D01*
X2165780Y-5595750D01*
X2170860Y-5577340D01*
X2181020Y-5565060D01*
X2198800Y-5555850D01*
X2267380D01*
Y-5740000D01*
X2183560D01*
X2165780Y-5727730D01*
X2155620Y-5709310D01*
X2150540Y-5687820D01*
X2155620Y-5666340D01*
X2170860Y-5647930D01*
X2188640Y-5641790D01*
X2267380D01*
G01X1990520Y-5740000D02*
X2010840Y-5736930D01*
X2028620Y-5724660D01*
X2043860Y-5706240D01*
X2054020Y-5684760D01*
X2059100Y-5660200D01*
Y-5635650D01*
X2054020Y-5611090D01*
X2043860Y-5589610D01*
X2028620Y-5571200D01*
X2010840Y-5558920D01*
X1990520Y-5555850D01*
X1970200Y-5558920D01*
X1952420Y-5571200D01*
X1937180Y-5589610D01*
X1927020Y-5611090D01*
X1921940Y-5635650D01*
Y-5660200D01*
X1927020Y-5684760D01*
X1937180Y-5706240D01*
X1952420Y-5724660D01*
X1970200Y-5736930D01*
X1990520Y-5740000D01*
G01X1772080Y-5555850D02*
Y-5740000D01*
G01X1830500Y-5555850D02*
X1713660D01*
G01X1553640D02*
Y-5740000D01*
G01X1612060Y-5555850D02*
X1495220D01*
G01X1335200Y-5740000D02*
X1355520Y-5736930D01*
X1373300Y-5724660D01*
X1388540Y-5706240D01*
X1398700Y-5684760D01*
X1403780Y-5660200D01*
Y-5635650D01*
X1398700Y-5611090D01*
X1388540Y-5589610D01*
X1373300Y-5571200D01*
X1355520Y-5558920D01*
X1335200Y-5555850D01*
X1314880Y-5558920D01*
X1297100Y-5571200D01*
X1281860Y-5589610D01*
X1271700Y-5611090D01*
X1266620Y-5635650D01*
Y-5660200D01*
X1271700Y-5684760D01*
X1281860Y-5706240D01*
X1297100Y-5724660D01*
X1314880Y-5736930D01*
X1335200Y-5740000D01*
G01X1182800D02*
Y-5555850D01*
X1116760Y-5709310D01*
X1050720Y-5555850D01*
Y-5740000D01*
G01X4665140Y-5240000D02*
Y-5055850D01*
G01X4558460D02*
Y-5240000D01*
G01Y-5147930D02*
X4665140D01*
G01X4393360Y-5240000D02*
Y-5157130D01*
X4444160Y-5055850D01*
G01X4342560D02*
X4393360Y-5157130D01*
G01X4225720Y-5240000D02*
Y-5055850D01*
X4164760D01*
X4144440Y-5065060D01*
X4129200Y-5086540D01*
X4124120Y-5111090D01*
X4129200Y-5135650D01*
X4141900Y-5154060D01*
X4164760Y-5163280D01*
X4225720D01*
G01X4032680Y-5301380D02*
X3880280D01*
G01X3738040Y-5240000D02*
X3758360Y-5236930D01*
X3776140Y-5224660D01*
X3791380Y-5206240D01*
X3801540Y-5184760D01*
X3806620Y-5160200D01*
Y-5135650D01*
X3801540Y-5111090D01*
X3791380Y-5089610D01*
X3776140Y-5071200D01*
X3758360Y-5058920D01*
X3738040Y-5055850D01*
X3717720Y-5058920D01*
X3699940Y-5071200D01*
X3684700Y-5089610D01*
X3674540Y-5111090D01*
X3669460Y-5135650D01*
Y-5160200D01*
X3674540Y-5184760D01*
X3684700Y-5206240D01*
X3699940Y-5224660D01*
X3717720Y-5236930D01*
X3738040Y-5240000D01*
G01X3519600Y-5055850D02*
Y-5240000D01*
G01X3578020Y-5055850D02*
X3461180D01*
M02*
