G04 ================== begin FILE IDENTIFICATION RECORD ==================*
G04 Layout Name:  hyp_ot_evt_042624.brd*
G04 Film Name:    layer2*
G04 File Format:  Gerber RS274X*
G04 File Origin:  Cadence Allegro 22.1-P001*
G04 Origin Date:  Fri Apr 26 16:23:38 2024*
G04 *
G04 Layer:  VIA CLASS/L2SGND*
G04 Layer:  PIN/L2SGND*
G04 Layer:  ETCH/L2SGND*
G04 Layer:  DRAWING FORMAT/L2*
G04 *
G04 Offset:    (0.0000 0.0000)*
G04 Mirror:    No*
G04 Mode:      Positive*
G04 Rotation:  0*
G04 FullContactRelief:  No*
G04 UndefLineWidth:     0.0001*
G04 ================== end FILE IDENTIFICATION RECORD ====================*
%FSLAX55Y55*MOMM*%
%IR0*IPPOS*OFA0.00000B0.00000*MIA0B0*SFA1.00000B1.00000*%
%ADD15O,.8X1.4*%
%ADD10C,.4064*%
%ADD13C,2.3*%
%ADD11C,1.5*%
%ADD14C,1.55*%
%ADD12C,1.65*%
%ADD16C,.254*%
%ADD17C,.6068*%
%ADD19C,1.0504*%
%ADD26R,1.7004X1.7004*%
%ADD28C,2.6004*%
%ADD18C,1.7004*%
%ADD23C,2.1804*%
%ADD25C,1.7504*%
%ADD24C,1.8504*%
%ADD22C,1.5904*%
%ADD27R,1.8504X1.8504*%
%ADD20C,1.9904*%
%ADD21C,1.9878*%
G75*
%LPD*%
G75*
G36*
G01X5124960Y4599960D02*
Y-3749960D01*
X-974960D01*
Y-1768200D01*
G02X-961750Y-1758730I10000J-1D01*
G03X-952000Y-1760340I9750J28718D01*
G03X-921660Y-1730000I0J30340D01*
G03X-936910Y-1703680I-30338J0D01*
G02Y-1686320I4967J8680D01*
G03X-921660Y-1660000I-15088J26320D01*
G03X-952000Y-1629660I-30340J0D01*
G03X-961750Y-1631270I0J-30328D01*
G02X-974960Y-1621800I-3210J9471D01*
G01Y4599960D01*
X1742950D01*
G02X1751630Y4585010I-7J-9999D01*
G03X1747660Y4570010I26371J-15005D01*
G01Y4570000D01*
G03X1808340I30340J0D01*
G01Y4570010D01*
G03X1804370Y4585010I-30341J-5D01*
G02X1813050Y4599960I8687J4951D01*
G01X5124960D01*
G37*
%LPC*%
G75*
G36*
G01X-432340Y405000D02*
G02X-425120Y424640I30338J-6D01*
G03X-430080Y440760I-7621J6478D01*
G02X-452340Y470000I8074J29240D01*
G02X-391660I30340J0D01*
G02X-398880Y450360I-30338J6D01*
G03X-393920Y434240I7621J-6478D01*
G02X-371660Y405000I-8074J-29240D01*
G02X-432340I-30340J0D01*
G37*
G36*
G01X3458500Y-2780980D02*
X3488500D01*
G02Y-2886020I0J-52520D01*
G01X3458500D01*
G02Y-2780980I0J52520D01*
G37*
G36*
G01X2475840Y139990D02*
G03X2460800I-7520J-6598D01*
G02X2438000Y129660I-22800J19997D01*
G02Y190340I0J30340D01*
G02X2460800Y180010I0J-30327D01*
G03X2475840I7520J6598D01*
G02X2498640Y190340I22800J-19997D01*
G02Y129660I0J-30340D01*
G02X2475840Y139990I0J30327D01*
G37*
G36*
G01X-134800Y629990D02*
G03X-149840I-7520J-6598D01*
G02X-172640Y619660I-22800J19997D01*
G02Y680340I0J30340D01*
G02X-149840Y670010I0J-30327D01*
G03X-134800I7520J6598D01*
G02X-112000Y680340I22800J-19997D01*
G02Y619660I0J-30340D01*
G02X-134800Y629990I0J30327D01*
G37*
G36*
G01X1727990Y4302160D02*
G03Y4317200I-6598J7520D01*
G02X1717660Y4340000I19997J22800D01*
G02X1778340I30340J0D01*
G02X1768010Y4317200I-30327J0D01*
G03Y4302160I6598J-7520D01*
G02X1778340Y4279360I-19997J-22800D01*
G02X1717660I-30340J0D01*
G02X1727990Y4302160I30327J0D01*
G37*
G36*
G01X-500320Y-2244910D02*
G02X-447680I26320J-15088D01*
G03X-430320I8680J4967D01*
G02X-404000Y-2229660I26320J-15088D01*
G02Y-2290340I0J-30340D01*
G02X-430320Y-2275090I0J30338D01*
G03X-447680I-8680J-4967D01*
G02X-500320I-26320J15088D01*
G03X-517680I-8680J-4967D01*
G02X-570320I-26320J15088D01*
G03X-587680I-8680J-4967D01*
G02X-614000Y-2290340I-26320J15088D01*
G02Y-2229660I0J30340D01*
G02X-587680Y-2244910I0J-30338D01*
G03X-570320I8680J4967D01*
G02X-517680I26320J-15088D01*
G03X-500320I8680J4967D01*
G37*
G36*
G01X-799090Y-2016320D02*
G02X-814340Y-1990000I15088J26320D01*
G02X-753660I30340J0D01*
G02X-768910Y-2016320I-30338J0D01*
G03Y-2033680I4967J-8680D01*
G02X-753660Y-2060000I-15088J-26320D01*
G02X-768190Y-2085890I-30331J0D01*
G03X-767690Y-2103250I5212J-8537D01*
G02X-751660Y-2130000I-14304J-26750D01*
G02X-812340I-30340J0D01*
G02X-797810Y-2104110I30331J0D01*
G03X-798310Y-2086750I-5212J8537D01*
G02X-814340Y-2060000I14304J26750D01*
G02X-799090Y-2033680I30338J0D01*
G03Y-2016320I-4967J8680D01*
G37*
G36*
G01X-407680Y-1755090D02*
G02X-434000Y-1770340I-26320J15088D01*
G02Y-1709660I0J30340D01*
G02X-407680Y-1724910I0J-30338D01*
G03X-390320I8680J4967D01*
G02X-364000Y-1709660I26320J-15088D01*
G02Y-1770340I0J-30340D01*
G02X-390320Y-1755090I0J30338D01*
G03X-407680I-8680J-4967D01*
G37*
G36*
G01X3932910Y-986320D02*
G02X3917660Y-960000I15088J26320D01*
G02X3978340I30340J0D01*
G02X3963090Y-986320I-30338J0D01*
G03Y-1003680I4967J-8680D01*
G02X3978340Y-1030000I-15088J-26320D01*
G02X3948000Y-1060340I-30340J0D01*
G02X3921680Y-1045090I0J30338D01*
G03X3904320I-8680J-4967D01*
G02X3878000Y-1060340I-26320J15088D01*
G02Y-999660I0J30340D01*
G02X3904320Y-1014910I0J-30338D01*
G03X3921680I8680J4967D01*
G02X3932910Y-1003680I26320J-15090D01*
G03Y-986320I-4967J8680D01*
G37*
G36*
G01X2404320Y684910D02*
G02X2378000Y669660I-26320J15088D01*
G02Y730340I0J30340D01*
G02X2404320Y715090I0J-30338D01*
G03X2421680I8680J4967D01*
G02X2448000Y730340I26320J-15088D01*
G02Y669660I0J-30340D01*
G02X2421680Y684910I0J30338D01*
G03X2404320I-8680J-4967D01*
G37*
G36*
G01X454320Y834910D02*
G02X428000Y819660I-26320J15088D01*
G02Y880340I0J30340D01*
G02X454320Y865090I0J-30338D01*
G03X471680I8680J4967D01*
G02X498000Y880340I26320J-15088D01*
G02Y819660I0J-30340D01*
G02X471680Y834910I0J30338D01*
G03X454320I-8680J-4967D01*
G37*
G36*
G01X3386130Y2412170D02*
G02X3359920Y2397110I-26210J15278D01*
G02Y2457790I0J30340D01*
G02X3384910Y2444650I0J-30333D01*
G03X3401790Y2445280I8240J5667D01*
G02X3428000Y2460340I26210J-15278D01*
G02Y2399660I0J-30340D01*
G02X3403010Y2412800I0J30333D01*
G03X3386130Y2412170I-8240J-5667D01*
G37*
G36*
G01X3554830Y2631130D02*
G02X3539580Y2657450I15088J26320D01*
G02X3600260I30340J0D01*
G02X3585010Y2631130I-30338J0D01*
G03Y2613770I4967J-8680D01*
G02X3600260Y2587450I-15088J-26320D01*
G02X3539580I-30340J0D01*
G02X3554830Y2613770I30338J0D01*
G03Y2631130I-4967J8680D01*
G37*
G36*
G01X3154830Y2691130D02*
G02X3139580Y2717450I15088J26320D01*
G02X3200260I30340J0D01*
G02X3185010Y2691130I-30338J0D01*
G03Y2673770I4967J-8680D01*
G02Y2621130I-15088J-26320D01*
G03Y2603770I4967J-8680D01*
G02X3200260Y2577450I-15088J-26320D01*
G02X3139580I-30340J0D01*
G02X3154830Y2603770I30338J0D01*
G03Y2621130I-4967J8680D01*
G02Y2673770I15088J26320D01*
G03Y2691130I-4967J8680D01*
G37*
G36*
G01X3754830Y2761130D02*
G02X3739580Y2787450I15088J26320D01*
G02X3800260I30340J0D01*
G02X3785010Y2761130I-30338J0D01*
G03Y2743770I4967J-8680D01*
G02Y2691130I-15088J-26320D01*
G03Y2673770I4967J-8680D01*
G02Y2621130I-15088J-26320D01*
G03Y2603770I4967J-8680D01*
G02X3800260Y2577450I-15088J-26320D01*
G02X3739580I-30340J0D01*
G02X3754830Y2603770I30338J0D01*
G03Y2621130I-4967J8680D01*
G02Y2673770I15088J26320D01*
G03Y2691130I-4967J8680D01*
G02Y2743770I15088J26320D01*
G03Y2761130I-4967J8680D01*
G37*
G36*
G01X4126240Y2782360D02*
G02X4099920Y2767110I-26320J15088D01*
G02Y2827790I0J30340D01*
G02X4126240Y2812540I0J-30338D01*
G03X4143600I8680J4967D01*
G02X4169920Y2827790I26320J-15088D01*
G02X4200260Y2797450I0J-30340D01*
G02X4185010Y2771130I-30338J0D01*
G03Y2753770I4967J-8680D01*
G02Y2701130I-15088J-26320D01*
G03Y2683770I4967J-8680D01*
G02Y2631130I-15088J-26320D01*
G03Y2613770I4967J-8680D01*
G02X4200260Y2587450I-15088J-26320D01*
G02X4139580I-30340J0D01*
G02X4154830Y2613770I30338J0D01*
G03Y2631130I-4967J8680D01*
G02Y2683770I15088J26320D01*
G03Y2701130I-4967J8680D01*
G02Y2753770I15088J26320D01*
G03Y2771130I-4967J8680D01*
G02X4143600Y2782360I15090J26320D01*
G03X4126240I-8680J-4967D01*
G37*
G36*
G01X3692870Y3055270D02*
G03X3707280Y3059540I5331J8460D01*
G02X3734830Y3077170I27550J-12711D01*
G02Y3016490I0J-30340D01*
G02X3718640Y3021170I0J30344D01*
G03X3704230Y3016900I-5331J-8460D01*
G02X3676680Y2999270I-27550J12711D01*
G02X3670410Y2999930I24J30338D01*
G03X3658340Y2990110I-2069J-9785D01*
G01Y2990000D01*
G02X3628000Y3020340I-30340J0D01*
G02X3634270Y3019680I-24J-30338D01*
G03X3646340Y3029500I2069J9785D01*
G01Y3029610D01*
G02X3676680Y3059950I30340J0D01*
G02X3692870Y3055270I0J-30344D01*
G37*
G36*
G01X4925270Y3540540D02*
G02X4918000Y3539660I-7254J29462D01*
G02X4948340Y3570000I0J30340D01*
G02X4948330Y3569370I-30337J166D01*
G03X4960730Y3559460I9998J-203D01*
G02X4968000Y3560340I7254J-29462D01*
G02X4937660Y3530000I0J-30340D01*
G02X4937670Y3530630I30337J-166D01*
G03X4925270Y3540540I-9998J203D01*
G37*
G36*
G01X3354320Y3764910D02*
G02X3328000Y3749660I-26320J15088D01*
G02Y3810340I0J30340D01*
G02X3354320Y3795090I0J-30338D01*
G03X3371680I8680J4967D01*
G02X3398000Y3810340I26320J-15088D01*
G02Y3749660I0J-30340D01*
G02X3371680Y3764910I0J30338D01*
G03X3354320I-8680J-4967D01*
G37*
G36*
G01X3924610Y3834610D02*
G02X3908000Y3829660I-16610J25393D01*
G02Y3890340I0J30340D01*
G02X3936520Y3870350I0J-30340D01*
G03X3951390Y3865390I9400J3411D01*
G02X3968000Y3870340I16610J-25393D01*
G02Y3809660I0J-30340D01*
G02X3939480Y3829650I0J30340D01*
G03X3924610Y3834610I-9400J-3411D01*
G37*
G36*
G01X1689320Y4020590D02*
G02X1666000Y4009660I-23320J19413D01*
G02Y4070340I0J30340D01*
G02X1689320Y4059410I0J-30343D01*
G03X1704680I7680J6403D01*
G02X1728000Y4070340I23320J-19413D01*
G02Y4009660I0J-30340D01*
G02X1704680Y4020590I0J30343D01*
G03X1689320I-7680J-6403D01*
G37*
G36*
G01X3341150Y4118940D02*
G02X3325900Y4145260I15088J26320D01*
G02X3386580I30340J0D01*
G02X3371330Y4118940I-30338J0D01*
G03Y4101580I4967J-8680D01*
G02X3386580Y4075260I-15088J-26320D01*
G02X3325900I-30340J0D01*
G02X3341150Y4101580I30338J0D01*
G03Y4118940I-4967J8680D01*
G37*
G36*
G01X1540910Y4423680D02*
G02X1525660Y4450000I15088J26320D01*
G02X1586340I30340J0D01*
G02X1571090Y4423680I-30338J0D01*
G03Y4406320I4967J-8680D01*
G02X1586340Y4380000I-15088J-26320D01*
G02X1525660I-30340J0D01*
G02X1540910Y4406320I30338J0D01*
G03Y4423680I-4967J8680D01*
G37*
G36*
G01X1630910D02*
G02X1615660Y4450000I15088J26320D01*
G02X1676340I30340J0D01*
G02X1661090Y4423680I-30338J0D01*
G03Y4406320I4967J-8680D01*
G02X1676340Y4380000I-15088J-26320D01*
G02X1615660I-30340J0D01*
G02X1630910Y4406320I30338J0D01*
G03Y4423680I-4967J8680D01*
G37*
G54D17*
X1503000Y3830000D03*
X1113000Y3820000D03*
X-432000Y330000D03*
X-242000Y140000D03*
X-383000Y-3121000D03*
X378000Y-3130000D03*
X628000D03*
X508000D03*
X818000Y-3050000D03*
X1138000Y-3130000D03*
X2468000Y-3364000D03*
X3013000Y-3155000D03*
X2924000Y-3240000D03*
X3263000Y-3245000D03*
X3178000Y-3160000D03*
X3598000Y-3235000D03*
X-492000Y-2740000D03*
X3054720Y-3030000D03*
X3133000D03*
X3103000Y-2850000D03*
X3812490Y-2782750D03*
X4242490Y-2922750D03*
X4122490Y-2822750D03*
X-582000Y-2550000D03*
X-162000Y-2410000D03*
X2828000Y-2575000D03*
X2768000Y-2397500D03*
X3188500Y-2690000D03*
X3074720Y-2625000D03*
X3153000D03*
X3283000Y-2515000D03*
X3643000Y-2575000D03*
X3733000Y-2589250D03*
X4262490Y-2532750D03*
X4398000Y-2390000D03*
X-222000Y-2370000D03*
X1248000Y-2290000D03*
X2693000Y-2355000D03*
X2488000Y-2200000D03*
X2778000Y-2060000D03*
X3041440Y-2182600D03*
X3261440D03*
X3660200Y-2244850D03*
X3523000Y-2290000D03*
X3858000D03*
X4096500Y-2192650D03*
X-844000Y-1930000D03*
X-802000Y-1780000D03*
X-882000D03*
X458000Y-1840640D03*
Y-1750000D03*
X2078000Y-1820000D03*
X3051440Y-1952600D03*
X3041440Y-2042600D03*
X3261440D03*
X3636500Y-2042650D03*
X4096500D03*
X-482000Y-1590000D03*
X-307000Y-1430000D03*
X2228000Y-1530000D03*
X2418000Y-1430000D03*
X-732000Y-1270000D03*
X568000Y-1260000D03*
X1298000Y-1360000D03*
X1648000Y-1270000D03*
X2358000Y-1190000D03*
X3608000Y-1330000D03*
X4428000Y-1270000D03*
X-682000Y-1020000D03*
X-882000Y-910000D03*
X668000Y-750000D03*
X818000Y-864860D03*
X1198000Y-740000D03*
X1788000Y-930000D03*
X2368000Y-760000D03*
X2128000Y-970000D03*
X3708000Y-810000D03*
X3648000Y-850000D03*
X3748000Y-890000D03*
X668000Y-410000D03*
X808000Y-533500D03*
X1358000Y-420000D03*
Y-660000D03*
Y-550000D03*
X1728000Y-680000D03*
X1788000Y-440000D03*
X2038000Y-540000D03*
X1998000Y-460000D03*
X1868000Y-440000D03*
X2238000Y-540000D03*
X2138000Y-630000D03*
X3318700Y-529300D03*
X3428000Y-530000D03*
X4328000Y-450000D03*
X4388000Y-730000D03*
X-892000Y-280000D03*
X-852000Y-180000D03*
X-812000Y-280000D03*
X668000Y-170000D03*
X1318000Y-270000D03*
X1618000D03*
X1738000Y-140000D03*
Y-240000D03*
X1638000Y-140000D03*
X2038000Y-400000D03*
X1838000Y-240000D03*
X1748000Y-340000D03*
X1938000D03*
X1838000Y-140000D03*
X2273000Y-340000D03*
X2388000D03*
X2138000D03*
X2188000Y-140000D03*
X2238000Y-90000D03*
X2138000D03*
X2418000Y-230000D03*
X3368000Y-130000D03*
X398000Y30000D03*
X668000Y-70000D03*
X1008000Y160000D03*
X868000D03*
X1358000Y80000D03*
Y-10000D03*
X1738000Y170000D03*
Y-40000D03*
X1638000D03*
X1428000Y190000D03*
X1638000Y60000D03*
X1738000D03*
X1838000Y160000D03*
X2038000Y10000D03*
X2088000Y60000D03*
X2188000Y10000D03*
X2498000Y80000D03*
X458000Y560000D03*
X518000Y480000D03*
X748000D03*
X628000Y510000D03*
X918000Y470000D03*
X878000Y290000D03*
X768000Y250000D03*
X1358000Y400000D03*
X1738000Y540000D03*
X1568000Y490000D03*
X1738000Y260000D03*
X1813000D03*
X1998000Y400000D03*
X1838000Y460000D03*
X1928000Y360000D03*
X2058000Y340000D03*
X1838000Y360000D03*
X2031400Y500000D03*
X2338000Y360000D03*
X2238000Y430000D03*
Y340000D03*
Y260000D03*
X2158000Y340000D03*
X2338000Y260000D03*
X2138000Y430000D03*
Y510000D03*
X2438000Y260000D03*
X3038000Y350000D03*
X2958000Y430000D03*
X3338000Y555000D03*
X-442000Y880000D03*
X698000Y710000D03*
X1638000Y600000D03*
X1838000Y620000D03*
X2098000Y900000D03*
X2638000Y890000D03*
X3388000Y630000D03*
X-202000Y1169870D03*
X558000Y1070000D03*
X828000Y1220000D03*
X1318000Y990000D03*
X2338000Y920000D03*
X2738000Y1060000D03*
X2908000Y1020000D03*
X3104420Y1120000D03*
X-702000Y1470000D03*
X-612000Y1560000D03*
X-492000Y1490000D03*
X878000Y1290000D03*
X1668000Y1350000D03*
X2658000Y1400000D03*
X2418000Y1440000D03*
X2678000Y1330000D03*
X2558000Y1440000D03*
X2468000Y1360000D03*
X2508000Y1250000D03*
X2758000Y1470000D03*
X2748000Y1280000D03*
X-822000Y1600000D03*
X-232000Y1650000D03*
X588000Y1790000D03*
X798000Y1650000D03*
X1308000Y1780000D03*
X1278000Y1600000D03*
X1398000Y1780000D03*
X2758000Y1650000D03*
X598000Y2060000D03*
X708000Y1940000D03*
X883000Y2000000D03*
X2028000Y2020000D03*
X2333000Y2005000D03*
X588000Y2460000D03*
Y2370000D03*
X1538000Y2220000D03*
X1938000Y2520000D03*
X3178000Y2310000D03*
X3279920Y2427450D03*
X3508000Y2430000D03*
X4039920Y2427450D03*
X3879920D03*
X3959920D03*
X4119920D03*
X4408000Y2430000D03*
X1673050Y2742360D03*
Y2592360D03*
X2183050D03*
X3498000Y2860000D03*
X3839920Y2807450D03*
X4268000Y2550000D03*
X4968000D03*
X5038000Y2820000D03*
X1703050Y2882360D03*
X1853050D03*
X2258000Y3110000D03*
X3388000Y2960000D03*
X3478000Y3070000D03*
X3838000Y2960000D03*
X3918000Y3087800D03*
X4048000Y3110000D03*
X4068000Y2930000D03*
X4238000Y3060000D03*
X4968000Y3070000D03*
X1642180Y3228860D03*
X2062180D03*
X2392180D03*
X2812180D03*
X3168000Y3330000D03*
X3131180Y3424550D03*
X3271180Y3364550D03*
X3958000Y3240000D03*
X3878000Y3250000D03*
X3988000Y3390000D03*
X4018000Y3500000D03*
X3778000Y3240000D03*
X4158000Y3210000D03*
X4088000Y3220000D03*
X4158000Y3450000D03*
Y3360000D03*
X4408000Y3260000D03*
X4983000Y3295000D03*
X4968000Y3225000D03*
X5068000Y3470000D03*
X5071580Y3380000D03*
X-812000Y3820000D03*
Y3740000D03*
X1652180Y3678860D03*
X2072180D03*
X2488000Y3690000D03*
X2812180Y3678860D03*
X3696240Y3775260D03*
X3558000Y3660000D03*
X3798000Y3670000D03*
X4353000Y3800000D03*
X4248000Y3780000D03*
X-872000Y3900000D03*
X-552000Y4170000D03*
X1746000Y4160000D03*
X2708000Y4140000D03*
X2488000D03*
X4258000Y3985000D03*
X-272000Y4460000D03*
X-432000D03*
X-352000D03*
X18000D03*
X98000D03*
X178000D03*
X628000D03*
X468000D03*
X548000D03*
X1078000D03*
X918000D03*
X998000D03*
X1170500Y4467500D03*
X1396000Y4470000D03*
X1843240Y4430230D03*
X3366240Y4325260D03*
X3646240Y4295260D03*
X3956240Y4205260D03*
X4178000Y4310000D03*
Y4440000D03*
X4968000Y4350000D03*
X-312000Y225000D03*
X-222000Y3705000D03*
X-137000Y3795000D03*
X248000Y3705000D03*
X1388000Y3960000D03*
X1455830Y3907750D03*
G54D19*
X2753500Y-2833500D03*
G54D26*
X-807800Y0D03*
Y2286000D03*
G54D28*
X2648000Y2630000D03*
X1068000Y3490000D03*
G54D18*
X-553800Y254000D03*
Y0D03*
X-807800Y254000D03*
Y508000D03*
X-553800Y762000D03*
X-807800D03*
X-553800Y1270000D03*
X-807800D03*
X-553800Y2286000D03*
Y2540000D03*
X-807800D03*
X-553800Y2794000D03*
X-807800D03*
X-553800Y3048000D03*
X-807800D03*
X-553800Y3556000D03*
X-807800D03*
X-553800Y508000D03*
G54D23*
X4068000Y2148000D03*
G54D25*
X4078000Y-547000D03*
X911000Y1780000D03*
X1714180Y3378860D03*
X1968180D03*
X2718180D03*
X2464180D03*
X1724180Y3828860D03*
X1978180D03*
X2718180D03*
X2464180D03*
X2718180Y4278860D03*
X2464180D03*
G54D24*
X0Y-2286000D03*
Y-2032000D03*
X254000Y-2286000D03*
Y-2032000D03*
X4572000Y-2286000D03*
Y-2032000D03*
X4826000Y-2286000D03*
Y-2032000D03*
X0Y-1778000D03*
X254000D03*
X4572000D03*
X4826000D03*
X254000Y-1524000D03*
X4826000D03*
X0Y-1270000D03*
Y-1016000D03*
X254000Y-1270000D03*
Y-1016000D03*
X4572000Y-1270000D03*
Y-1016000D03*
X4826000Y-1270000D03*
Y-1016000D03*
X0Y-762000D03*
X254000D03*
X4572000D03*
X0Y-508000D03*
X254000D03*
X4572000D03*
X4826000D03*
X0Y-254000D03*
X254000D03*
X4826000D03*
X0Y0D03*
Y254000D03*
X254000D03*
X4572000Y0D03*
Y254000D03*
X4826000Y0D03*
Y254000D03*
X0Y508000D03*
X254000D03*
X4572000D03*
X4826000D03*
X0Y762000D03*
X254000D03*
X4572000D03*
X4826000D03*
X0Y1016000D03*
X254000D03*
Y1270000D03*
X4572000Y1016000D03*
X4826000D03*
Y1270000D03*
X4572000Y1524000D03*
X4826000D03*
X0Y1778000D03*
X254000D03*
X4826000D03*
X254000Y2032000D03*
X4572000Y2184400D03*
X4826000D03*
X0Y2540000D03*
X254000Y2286000D03*
Y2540000D03*
X4572000Y2438400D03*
X4826000D03*
X0Y2794000D03*
X254000D03*
X4572000Y2692400D03*
X4826000D03*
X0Y3048000D03*
X254000D03*
X4572000Y2946400D03*
Y3200400D03*
X4826000Y2946400D03*
Y3200400D03*
X0Y3302000D03*
X254000D03*
X4572000Y3454400D03*
X4826000D03*
X4572000Y3708400D03*
Y3962400D03*
Y4216400D03*
X4826000Y3962400D03*
Y4216400D03*
Y4470400D03*
X254000Y3556000D03*
G54D22*
X4068000Y1132000D03*
G54D27*
X0Y1270000D03*
X4572000Y1778000D03*
X0Y3556000D03*
X4572000Y4470400D03*
G54D20*
X1121500Y-1106500D03*
X3204500D03*
X1121500Y976500D03*
X3204500D03*
G54D21*
X1213000Y-65000D03*
X3113000D03*
%LPD*%
G75*
G54D10*
X-942000Y-1795000D03*
X-892000Y-390000D03*
X-767000Y-2215000D03*
X-612000Y-2000000D03*
X-852000Y-2015000D03*
Y-1850000D03*
X-732000Y-1540000D03*
X-862000Y1690000D03*
X-712000Y4040000D03*
X-722000Y3960000D03*
X-512000Y-2100000D03*
X-537000Y-2330000D03*
X-302000Y-2210000D03*
X-512000Y-1900000D03*
X-412000Y-2000000D03*
X-512000D03*
X-237000Y-1490000D03*
X-372000Y-1485000D03*
X-302000Y-1340000D03*
X-422000Y200000D03*
X-467000Y415000D03*
X-257000Y4035000D03*
X-362000Y3970000D03*
X-482000Y4040000D03*
X-532000Y4430000D03*
X-162000Y-1830000D03*
Y-830000D03*
X-137000Y555000D03*
X-217000Y3780000D03*
X-12000Y4030000D03*
X-137000Y3975000D03*
X-177000Y3865000D03*
X-172000Y4420000D03*
X-82000Y4430000D03*
X379000Y-2435000D03*
X125000D03*
X408000Y-1590000D03*
X193000Y3775000D03*
X398000Y3660000D03*
X208000Y4035000D03*
X108000Y3975000D03*
X303000D03*
X368000Y4430000D03*
X633000Y-2435000D03*
X468000Y1820000D03*
Y2630000D03*
X448000Y3865000D03*
X887000Y-2435000D03*
X1043000Y105000D03*
X818000Y4430000D03*
X1338000Y-3050000D03*
X1395000Y-2435000D03*
X1141000D03*
X1113000Y3755000D03*
X1246000Y4080000D03*
X1158000Y4340000D03*
X1649000Y-2435000D03*
X1478000Y-1590000D03*
X1658000Y380000D03*
X1458000Y1650000D03*
X1673050Y2662360D03*
X1478000Y4120000D03*
X1598000D03*
X1466000Y4510000D03*
X1598000Y4240000D03*
X1903000Y-2435000D03*
X2038000Y-90000D03*
X1938000Y550000D03*
X2038000Y2110000D03*
X2048000Y2530000D03*
X2043050Y2792360D03*
X1773050Y2882360D03*
X2058000Y3080000D03*
Y3540000D03*
X2363000Y-1485000D03*
Y-1365000D03*
X2338000Y-410000D03*
X2208000Y2210000D03*
X2218000Y3270000D03*
X2668000Y-2515000D03*
X2493000Y-1490000D03*
Y-1365000D03*
X2433000Y-520000D03*
X2608000Y-230000D03*
X2558000Y1520000D03*
X2473000Y2025000D03*
X2898000Y-3510000D03*
X2970500Y-3095000D03*
X2848000Y-3215000D03*
X2773000Y-3290000D03*
X2768000Y-2735000D03*
X2903000Y-3030000D03*
X2968000Y-2395000D03*
X3008000Y-2605000D03*
X2928000Y-1820000D03*
X2833000Y-640000D03*
X2868000Y-540000D03*
X2753000Y1345000D03*
X2898000Y2020000D03*
X2968000Y2700000D03*
X2878000Y3900000D03*
X3058000Y-3605000D03*
X3215500Y-3090000D03*
X3283000Y-3310000D03*
X3173000Y-2850000D03*
X3223000Y-2625000D03*
X3178000Y-1890000D03*
X3118000Y-740000D03*
X3273000Y2005000D03*
X3283000Y2270000D03*
X3218000Y2430000D03*
X3339920Y2697450D03*
Y2637450D03*
X3278000Y2920000D03*
X3176240Y3765260D03*
X3593000Y-3155000D03*
X3388500Y-2695000D03*
X3669980Y-2335010D03*
X3418000Y-2200000D03*
X3593000Y-760000D03*
X3428000Y-595000D03*
X3578000Y140000D03*
X3448000Y1740000D03*
X3608000Y2030000D03*
X3628000Y2200000D03*
X3518000Y2350000D03*
X3399920Y2697450D03*
Y2637450D03*
X3481180Y3144550D03*
X3533000Y3300000D03*
X3428000Y3405000D03*
X3533000Y3505000D03*
Y3405000D03*
X3633000D03*
X3658000Y4105000D03*
Y3965000D03*
X3428000Y4120000D03*
X3698000Y4350000D03*
X3728000Y-3370000D03*
X3948000Y-2410000D03*
X3848000D03*
X4002490Y-2642750D03*
X3738000Y-2265000D03*
X3848000Y-2120000D03*
X4036500Y-1912650D03*
X3758000Y-1730000D03*
X3913000Y-1090000D03*
X3768000Y-785000D03*
X3833000Y-880000D03*
X4013000Y-1055000D03*
X3798000Y2430000D03*
X3939920Y2697450D03*
X3999920D03*
Y2637450D03*
X3939920D03*
X3838000Y2880000D03*
X3878000Y3670000D03*
X3973000Y4030000D03*
X3758000Y4283280D03*
X3956240Y4275260D03*
X4052490Y-2922750D03*
X4323000Y-515000D03*
X4219920Y2507450D03*
X4118000Y3060000D03*
X4068000Y3465000D03*
X4256240Y4055260D03*
X4233000Y3905000D03*
X4253000Y4310000D03*
X4423000Y-2740000D03*
X4428000Y-2080000D03*
X4483000Y-1135000D03*
X4443000Y-830000D03*
X4398000Y1480000D03*
X4418000Y3320000D03*
X4738000Y-2460000D03*
X4828000Y1990000D03*
X4993000Y3365000D03*
X5003000Y3620000D03*
X5038000Y-2160000D03*
Y2910000D03*
G54D11*
X-553800Y1016000D03*
X-807800D03*
X-553800Y3302000D03*
X-807800D03*
G54D12*
X0Y-1524000D03*
Y2032000D03*
Y2286000D03*
X254000Y0D03*
X4572000Y-1524000D03*
Y-254000D03*
Y1270000D03*
X4826000Y-762000D03*
Y3708400D03*
G54D13*
X814000Y3236000D03*
Y3744000D03*
X1322000Y3236000D03*
Y3744000D03*
X2394000Y2376000D03*
Y2884000D03*
X2902000Y2376000D03*
Y2884000D03*
G54D14*
X1165000Y1780000D03*
X4078000Y-293000D03*
G54D15*
X2664500Y-3553500D03*
X2700500Y-2958500D03*
X3562500Y-3553500D03*
X3526500Y-2958500D03*
G54D16*
G01X-286600Y-5555850D02*
Y-5740000D01*
X-185000D01*
G01X-80860D02*
X-17360Y-5555850D01*
X46140Y-5740000D01*
G01X23280Y-5675550D02*
X-58000D01*
G01X201080Y-5740000D02*
Y-5657130D01*
X150280Y-5555850D01*
G01X251880D02*
X201080Y-5657130D01*
G01X470320Y-5740000D02*
X368720D01*
Y-5555850D01*
X470320D01*
G01X429680Y-5644850D02*
X368720D01*
G01X587160Y-5740000D02*
Y-5555850D01*
X650660D01*
X670980Y-5565060D01*
X683680Y-5577340D01*
X688760Y-5601890D01*
X683680Y-5626440D01*
X668440Y-5641790D01*
X650660Y-5651000D01*
X587160D01*
G01X650660D02*
X688760Y-5740000D01*
G01X1026580Y-5586540D02*
X1041820Y-5568130D01*
X1059600Y-5558920D01*
X1079920Y-5555850D01*
X1105320Y-5561990D01*
X1123100Y-5577340D01*
X1128180Y-5595750D01*
X1125640Y-5614170D01*
X1115480Y-5629510D01*
X1064680Y-5660200D01*
X1041820Y-5681690D01*
X1026580Y-5712380D01*
X1021500Y-5740000D01*
X1128180D01*
G01X-289140Y-5240000D02*
Y-5055850D01*
G01X-182460D02*
Y-5240000D01*
G01Y-5147930D02*
X-289140D01*
G01X-17360Y-5240000D02*
Y-5157130D01*
X-68160Y-5055850D01*
G01X33440D02*
X-17360Y-5157130D01*
G01X150280Y-5240000D02*
Y-5055850D01*
X211240D01*
X231560Y-5065060D01*
X246800Y-5086540D01*
X251880Y-5111090D01*
X246800Y-5135650D01*
X234100Y-5154060D01*
X211240Y-5163280D01*
X150280D01*
G01X343320Y-5301380D02*
X495720D01*
G01X637960Y-5240000D02*
X617640Y-5236930D01*
X599860Y-5224660D01*
X584620Y-5206240D01*
X574460Y-5184760D01*
X569380Y-5160200D01*
Y-5135650D01*
X574460Y-5111090D01*
X584620Y-5089610D01*
X599860Y-5071200D01*
X617640Y-5058920D01*
X637960Y-5055850D01*
X658280Y-5058920D01*
X676060Y-5071200D01*
X691300Y-5089610D01*
X701460Y-5111090D01*
X706540Y-5135650D01*
Y-5160200D01*
X701460Y-5184760D01*
X691300Y-5206240D01*
X676060Y-5224660D01*
X658280Y-5236930D01*
X637960Y-5240000D01*
G01X856400Y-5055850D02*
Y-5240000D01*
G01X797980Y-5055850D02*
X914820D01*
M02*
