G04 ================== begin FILE IDENTIFICATION RECORD ==================*
G04 Layout Name:  hyp_ot_evt_042624.brd*
G04 Film Name:    top_paste*
G04 File Format:  Gerber RS274X*
G04 File Origin:  Cadence Allegro 22.1-P001*
G04 Origin Date:  Fri Apr 26 16:23:38 2024*
G04 *
G04 Layer:  DRAWING FORMAT/OUTLINE*
G04 Layer:  VIA CLASS/PASTEMASK_TOP*
G04 Layer:  PIN/PASTEMASK_TOP*
G04 Layer:  PACKAGE GEOMETRY/PASTEMASK_TOP*
G04 *
G04 Offset:    (0.0000 0.0000)*
G04 Mirror:    No*
G04 Mode:      Positive*
G04 Rotation:  0*
G04 FullContactRelief:  No*
G04 UndefLineWidth:     0.1016*
G04 ================== end FILE IDENTIFICATION RECORD ====================*
%FSLAX55Y55*MOMM*%
%IR0*IPPOS*OFA0.00000B0.00000*MIA0B0*SFA1.00000B1.00000*%
%AMMACRO23*
4,1,40,-.205,.16,
-.205,-.16,
-.203481,-.177365,
-.198969,-.194202,
-.191603,-.21,
-.181604,-.224279,
-.169279,-.236604,
-.155,-.246603,
-.139202,-.253969,
-.122365,-.258481,
-.105,-.26,
.105,-.26,
.122365,-.258481,
.139202,-.253969,
.155,-.246603,
.169279,-.236604,
.181604,-.224279,
.191603,-.21,
.198969,-.194202,
.203481,-.177365,
.205,-.16,
.205,.16,
.203481,.177365,
.198969,.194202,
.191603,.21,
.181604,.224279,
.169279,.236604,
.155,.246603,
.139202,.253969,
.122365,.258481,
.105,.26,
-.105,.26,
-.122365,.258481,
-.139202,.253969,
-.155,.246603,
-.169279,.236604,
-.181604,.224279,
-.191603,.21,
-.198969,.194202,
-.203481,.177365,
-.205,.16,
0.0*
%
%ADD23MACRO23*%
%AMMACRO17*
4,1,40,.16,.205,
-.16,.205,
-.177365,.203481,
-.194202,.198969,
-.21,.191603,
-.224279,.181604,
-.236604,.169279,
-.246603,.155,
-.253969,.139202,
-.258481,.122365,
-.26,.105,
-.26,-.105,
-.258481,-.122365,
-.253969,-.139202,
-.246603,-.155,
-.236604,-.169279,
-.224279,-.181604,
-.21,-.191603,
-.194202,-.198969,
-.177365,-.203481,
-.16,-.205,
.16,-.205,
.177365,-.203481,
.194202,-.198969,
.21,-.191603,
.224279,-.181604,
.236604,-.169279,
.246603,-.155,
.253969,-.139202,
.258481,-.122365,
.26,-.105,
.26,.105,
.258481,.122365,
.253969,.139202,
.246603,.155,
.236604,.169279,
.224279,.181604,
.21,.191603,
.194202,.198969,
.177365,.203481,
.16,.205,
0.0*
%
%ADD17MACRO17*%
%AMMACRO40*
4,1,40,-.25,-.25,
.25,-.25,
.267365,-.248481,
.284202,-.243969,
.3,-.236603,
.314279,-.226604,
.326604,-.214279,
.336603,-.2,
.343969,-.184202,
.348481,-.167365,
.35,-.15,
.35,.15,
.348481,.167365,
.343969,.184202,
.336603,.2,
.326604,.214279,
.314279,.226604,
.3,.236603,
.284202,.243969,
.267365,.248481,
.25,.25,
-.25,.25,
-.267365,.248481,
-.284202,.243969,
-.3,.236603,
-.314279,.226604,
-.326604,.214279,
-.336603,.2,
-.343969,.184202,
-.348481,.167365,
-.35,.15,
-.35,-.15,
-.348481,-.167365,
-.343969,-.184202,
-.336603,-.2,
-.326604,-.214279,
-.314279,-.226604,
-.3,-.236603,
-.284202,-.243969,
-.267365,-.248481,
-.25,-.25,
0.0*
%
%ADD40MACRO40*%
%AMMACRO15*
4,1,40,-.25,.175,
-.25,-.175,
-.248481,-.192365,
-.243969,-.209202,
-.236603,-.225,
-.226604,-.239279,
-.214279,-.251604,
-.2,-.261603,
-.184202,-.268969,
-.167365,-.273481,
-.15,-.275,
.15,-.275,
.167365,-.273481,
.184202,-.268969,
.2,-.261603,
.214279,-.251604,
.226604,-.239279,
.236603,-.225,
.243969,-.209202,
.248481,-.192365,
.25,-.175,
.25,.175,
.248481,.192365,
.243969,.209202,
.236603,.225,
.226604,.239279,
.214279,.251604,
.2,.261603,
.184202,.268969,
.167365,.273481,
.15,.275,
-.15,.275,
-.167365,.273481,
-.184202,.268969,
-.2,.261603,
-.214279,.251604,
-.226604,.239279,
-.236603,.225,
-.243969,.209202,
-.248481,.192365,
-.25,.175,
0.0*
%
%ADD15MACRO15*%
%AMMACRO26*
4,1,40,-.235,.2,
-.235,-.2,
-.233481,-.217365,
-.228969,-.234202,
-.221603,-.25,
-.211604,-.264279,
-.199279,-.276604,
-.185,-.286603,
-.169202,-.293969,
-.152365,-.298481,
-.135,-.3,
.135,-.3,
.152365,-.298481,
.169202,-.293969,
.185,-.286603,
.199279,-.276604,
.211604,-.264279,
.221603,-.25,
.228969,-.234202,
.233481,-.217365,
.235,-.2,
.235,.2,
.233481,.217365,
.228969,.234202,
.221603,.25,
.211604,.264279,
.199279,.276604,
.185,.286603,
.169202,.293969,
.152365,.298481,
.135,.3,
-.135,.3,
-.152365,.298481,
-.169202,.293969,
-.185,.286603,
-.199279,.276604,
-.211604,.264279,
-.221603,.25,
-.228969,.234202,
-.233481,.217365,
-.235,.2,
0.0*
%
%ADD26MACRO26*%
%AMMACRO35*
4,1,40,.08,.13,
-.08,.13,
-.092155,.128937,
-.103941,.125778,
-.115,.120622,
-.124995,.113623,
-.133623,.104995,
-.140622,.095,
-.145778,.083941,
-.148937,.072155,
-.15,.06,
-.15,-.06,
-.148937,-.072155,
-.145778,-.083941,
-.140622,-.095,
-.133623,-.104995,
-.124995,-.113623,
-.115,-.120622,
-.103941,-.125778,
-.092155,-.128937,
-.08,-.13,
.08,-.13,
.092155,-.128937,
.103941,-.125778,
.115,-.120622,
.124995,-.113623,
.133623,-.104995,
.140622,-.095,
.145778,-.083941,
.148937,-.072155,
.15,-.06,
.15,.06,
.148937,.072155,
.145778,.083941,
.140622,.095,
.133623,.104995,
.124995,.113623,
.115,.120622,
.103941,.125778,
.092155,.128937,
.08,.13,
0.0*
%
%ADD35MACRO35*%
%AMMACRO16*
4,1,40,.2,.235,
-.2,.235,
-.217365,.233481,
-.234202,.228969,
-.25,.221603,
-.264279,.211604,
-.276604,.199279,
-.286603,.185,
-.293969,.169202,
-.298481,.152365,
-.3,.135,
-.3,-.135,
-.298481,-.152365,
-.293969,-.169202,
-.286603,-.185,
-.276604,-.199279,
-.264279,-.211604,
-.25,-.221603,
-.234202,-.228969,
-.217365,-.233481,
-.2,-.235,
.2,-.235,
.217365,-.233481,
.234202,-.228969,
.25,-.221603,
.264279,-.211604,
.276604,-.199279,
.286603,-.185,
.293969,-.169202,
.298481,-.152365,
.3,-.135,
.3,.135,
.298481,.152365,
.293969,.169202,
.286603,.185,
.276604,.199279,
.264279,.211604,
.25,.221603,
.234202,.228969,
.217365,.233481,
.2,.235,
0.0*
%
%ADD16MACRO16*%
%ADD31O,.8X1.4*%
%AMMACRO37*
4,1,40,.125,-.225,
.125,.225,
.12424,.233682,
.121985,.242101,
.118301,.25,
.113302,.257139,
.107139,.263302,
.1,.268301,
.092101,.271985,
.083682,.27424,
.075,.275,
-.075,.275,
-.083682,.27424,
-.092101,.271985,
-.1,.268301,
-.107139,.263302,
-.113302,.257139,
-.118301,.25,
-.121985,.242101,
-.12424,.233682,
-.125,.225,
-.125,-.225,
-.12424,-.233682,
-.121985,-.242101,
-.118301,-.25,
-.113302,-.257139,
-.107139,-.263302,
-.1,-.268301,
-.092101,-.271985,
-.083682,-.27424,
-.075,-.275,
.075,-.275,
.083682,-.27424,
.092101,-.271985,
.1,-.268301,
.107139,-.263302,
.113302,-.257139,
.118301,-.25,
.121985,-.242101,
.12424,-.233682,
.125,-.225,
0.0*
%
%ADD37MACRO37*%
%AMMACRO45*
4,1,40,.21,.225,
-.21,.225,
-.225628,.223633,
-.240782,.219572,
-.255,.212942,
-.267851,.203944,
-.278944,.192851,
-.287942,.18,
-.294572,.165782,
-.298633,.150628,
-.3,.135,
-.3,-.135,
-.298633,-.150628,
-.294572,-.165782,
-.287942,-.18,
-.278944,-.192851,
-.267851,-.203944,
-.255,-.212942,
-.240782,-.219572,
-.225628,-.223633,
-.21,-.225,
.21,-.225,
.225628,-.223633,
.240782,-.219572,
.255,-.212942,
.267851,-.203944,
.278944,-.192851,
.287942,-.18,
.294572,-.165782,
.298633,-.150628,
.3,-.135,
.3,.135,
.298633,.150628,
.294572,.165782,
.287942,.18,
.278944,.192851,
.267851,.203944,
.255,.212942,
.240782,.219572,
.225628,.223633,
.21,.225,
0.0*
%
%ADD45MACRO45*%
%AMMACRO29*
4,1,40,.275,-.3,
.275,.3,
.272721,.326047,
.265954,.351303,
.254904,.375,
.239907,.396418,
.221418,.414907,
.2,.429904,
.176303,.440954,
.151047,.447721,
.125,.45,
-.125,.45,
-.151047,.447721,
-.176303,.440954,
-.2,.429904,
-.221418,.414907,
-.239907,.396418,
-.254904,.375,
-.265954,.351303,
-.272721,.326047,
-.275,.3,
-.275,-.3,
-.272721,-.326047,
-.265954,-.351303,
-.254904,-.375,
-.239907,-.396418,
-.221418,-.414907,
-.2,-.429904,
-.176303,-.440954,
-.151047,-.447721,
-.125,-.45,
.125,-.45,
.151047,-.447721,
.176303,-.440954,
.2,-.429904,
.221418,-.414907,
.239907,-.396418,
.254904,-.375,
.265954,-.351303,
.272721,-.326047,
.275,-.3,
0.0*
%
%ADD29MACRO29*%
%AMMACRO52*
4,1,40,-.435,.15,
-.435,-.15,
-.432721,-.176047,
-.425954,-.201303,
-.414904,-.225,
-.399907,-.246418,
-.381418,-.264907,
-.36,-.279904,
-.336303,-.290954,
-.311047,-.297721,
-.285,-.3,
.285,-.3,
.311047,-.297721,
.336303,-.290954,
.36,-.279904,
.381418,-.264907,
.399907,-.246418,
.414904,-.225,
.425954,-.201303,
.432721,-.176047,
.435,-.15,
.435,.15,
.432721,.176047,
.425954,.201303,
.414904,.225,
.399907,.246418,
.381418,.264907,
.36,.279904,
.336303,.290954,
.311047,.297721,
.285,.3,
-.285,.3,
-.311047,.297721,
-.336303,.290954,
-.36,.279904,
-.381418,.264907,
-.399907,.246418,
-.414904,.225,
-.425954,.201303,
-.432721,.176047,
-.435,.15,
0.0*
%
%ADD52MACRO52*%
%AMMACRO20*
4,1,40,-.3,.285,
-.3,-.285,
-.297721,-.311047,
-.290954,-.336303,
-.279904,-.36,
-.264907,-.381418,
-.246418,-.399907,
-.225,-.414904,
-.201303,-.425954,
-.176047,-.432721,
-.15,-.435,
.15,-.435,
.176047,-.432721,
.201303,-.425954,
.225,-.414904,
.246418,-.399907,
.264907,-.381418,
.279904,-.36,
.290954,-.336303,
.297721,-.311047,
.3,-.285,
.3,.285,
.297721,.311047,
.290954,.336303,
.279904,.36,
.264907,.381418,
.246418,.399907,
.225,.414904,
.201303,.425954,
.176047,.432721,
.15,.435,
-.15,.435,
-.176047,.432721,
-.201303,.425954,
-.225,.414904,
-.246418,.399907,
-.264907,.381418,
-.279904,.36,
-.290954,.336303,
-.297721,.311047,
-.3,.285,
0.0*
%
%ADD20MACRO20*%
%AMMACRO34*
4,1,40,.15,.435,
-.15,.435,
-.176047,.432721,
-.201303,.425954,
-.225,.414904,
-.246418,.399907,
-.264907,.381418,
-.279904,.36,
-.290954,.336303,
-.297721,.311047,
-.3,.285,
-.3,-.285,
-.297721,-.311047,
-.290954,-.336303,
-.279904,-.36,
-.264907,-.381418,
-.246418,-.399907,
-.225,-.414904,
-.201303,-.425954,
-.176047,-.432721,
-.15,-.435,
.15,-.435,
.176047,-.432721,
.201303,-.425954,
.225,-.414904,
.246418,-.399907,
.264907,-.381418,
.279904,-.36,
.290954,-.336303,
.297721,-.311047,
.3,-.285,
.3,.285,
.297721,.311047,
.290954,.336303,
.279904,.36,
.264907,.381418,
.246418,.399907,
.225,.414904,
.201303,.425954,
.176047,.432721,
.15,.435,
0.0*
%
%ADD34MACRO34*%
%AMMACRO25*
4,1,40,.285,.3,
-.285,.3,
-.311047,.297721,
-.336303,.290954,
-.36,.279904,
-.381418,.264907,
-.399907,.246418,
-.414904,.225,
-.425954,.201303,
-.432721,.176047,
-.435,.15,
-.435,-.15,
-.432721,-.176047,
-.425954,-.201303,
-.414904,-.225,
-.399907,-.246418,
-.381418,-.264907,
-.36,-.279904,
-.336303,-.290954,
-.311047,-.297721,
-.285,-.3,
.285,-.3,
.311047,-.297721,
.336303,-.290954,
.36,-.279904,
.381418,-.264907,
.399907,-.246418,
.414904,-.225,
.425954,-.201303,
.432721,-.176047,
.435,-.15,
.435,.15,
.432721,.176047,
.425954,.201303,
.414904,.225,
.399907,.246418,
.381418,.264907,
.36,.279904,
.336303,.290954,
.311047,.297721,
.285,.3,
0.0*
%
%ADD25MACRO25*%
%ADD11C,.22*%
%AMMACRO49*
4,1,40,-.175,.2988,
-.175,-.2988,
-.173842,-.312032,
-.170405,-.324862,
-.164791,-.3369,
-.157173,-.34778,
-.14778,-.357173,
-.1369,-.364791,
-.124862,-.370405,
-.112032,-.373842,
-.0988,-.375,
.0988,-.375,
.112032,-.373842,
.124862,-.370405,
.1369,-.364791,
.14778,-.357173,
.157173,-.34778,
.164791,-.3369,
.170405,-.324862,
.173842,-.312032,
.175,-.2988,
.175,.2988,
.173842,.312032,
.170405,.324862,
.164791,.3369,
.157173,.34778,
.14778,.357173,
.1369,.364791,
.124862,.370405,
.112032,.373842,
.0988,.375,
-.0988,.375,
-.112032,.373842,
-.124862,.370405,
-.1369,.364791,
-.14778,.357173,
-.157173,.34778,
-.164791,.3369,
-.170405,.324862,
-.173842,.312032,
-.175,.2988,
0.0*
%
%ADD49MACRO49*%
%AMMACRO50*
4,1,14,1.715,.635,
1.715,-.635,
-.7136,-.635,
-.83519,-.515035,
-.975765,-.418006,
-1.131054,-.346862,
-1.296337,-.303764,
-1.46,-.29,
-1.51698,-.291667,
-1.573768,-.296644,
-1.630169,-.304915,
-1.685995,-.316451,
-1.715,-.3238,
-1.715,.635,
1.715,.635,
0.0*
%
%ADD50MACRO50*%
%AMMACRO48*
4,1,15,-1.715,-.635,
-1.715,.635,
.36,.635,
.486877,.45359,
.643329,.296969,
.8246,.169894,
1.025184,.076227,
1.238986,.018814,
1.459509,-.0006,
1.4602,-.0006,
1.534045,.001542,
1.60764,.007975,
1.680737,.018675,
1.715,.0252,
1.715,-.635,
-1.715,-.635,
0.0*
%
%ADD48MACRO48*%
%ADD28C,.25*%
%AMMACRO18*
4,1,40,-.16,-.205,
.16,-.205,
.177365,-.203481,
.194202,-.198969,
.21,-.191603,
.224279,-.181604,
.236604,-.169279,
.246603,-.155,
.253969,-.139202,
.258481,-.122365,
.26,-.105,
.26,.105,
.258481,.122365,
.253969,.139202,
.246603,.155,
.236604,.169279,
.224279,.181604,
.21,.191603,
.194202,.198969,
.177365,.203481,
.16,.205,
-.16,.205,
-.177365,.203481,
-.194202,.198969,
-.21,.191603,
-.224279,.181604,
-.236604,.169279,
-.246603,.155,
-.253969,.139202,
-.258481,.122365,
-.26,.105,
-.26,-.105,
-.258481,-.122365,
-.253969,-.139202,
-.246603,-.155,
-.236604,-.169279,
-.224279,-.181604,
-.21,-.191603,
-.194202,-.198969,
-.177365,-.203481,
-.16,-.205,
0.0*
%
%ADD18MACRO18*%
%AMMACRO13*
4,1,40,.205,-.16,
.205,.16,
.203481,.177365,
.198969,.194202,
.191603,.21,
.181604,.224279,
.169279,.236604,
.155,.246603,
.139202,.253969,
.122365,.258481,
.105,.26,
-.105,.26,
-.122365,.258481,
-.139202,.253969,
-.155,.246603,
-.169279,.236604,
-.181604,.224279,
-.191603,.21,
-.198969,.194202,
-.203481,.177365,
-.205,.16,
-.205,-.16,
-.203481,-.177365,
-.198969,-.194202,
-.191603,-.21,
-.181604,-.224279,
-.169279,-.236604,
-.155,-.246603,
-.139202,-.253969,
-.122365,-.258481,
-.105,-.26,
.105,-.26,
.122365,-.258481,
.139202,-.253969,
.155,-.246603,
.169279,-.236604,
.181604,-.224279,
.191603,-.21,
.198969,-.194202,
.203481,-.177365,
.205,-.16,
0.0*
%
%ADD13MACRO13*%
%AMMACRO27*
4,1,40,-.1,.25,
-.1,-.25,
-.09924,-.258682,
-.096985,-.267101,
-.093301,-.275,
-.088302,-.282139,
-.082139,-.288302,
-.075,-.293301,
-.067101,-.296985,
-.058682,-.29924,
-.05,-.3,
.05,-.3,
.058682,-.29924,
.067101,-.296985,
.075,-.293301,
.082139,-.288302,
.088302,-.282139,
.093301,-.275,
.096985,-.267101,
.09924,-.258682,
.1,-.25,
.1,.25,
.09924,.258682,
.096985,.267101,
.093301,.275,
.088302,.282139,
.082139,.288302,
.075,.293301,
.067101,.296985,
.058682,.29924,
.05,.3,
-.05,.3,
-.058682,.29924,
-.067101,.296985,
-.075,.293301,
-.082139,.288302,
-.088302,.282139,
-.093301,.275,
-.096985,.267101,
-.09924,.258682,
-.1,.25,
0.0*
%
%ADD27MACRO27*%
%AMMACRO24*
4,1,40,.25,.1,
-.25,.1,
-.258682,.09924,
-.267101,.096985,
-.275,.093301,
-.282139,.088302,
-.288302,.082139,
-.293301,.075,
-.296985,.067101,
-.29924,.058682,
-.3,.05,
-.3,-.05,
-.29924,-.058682,
-.296985,-.067101,
-.293301,-.075,
-.288302,-.082139,
-.282139,-.088302,
-.275,-.093301,
-.267101,-.096985,
-.258682,-.09924,
-.25,-.1,
.25,-.1,
.258682,-.09924,
.267101,-.096985,
.275,-.093301,
.282139,-.088302,
.288302,-.082139,
.293301,-.075,
.296985,-.067101,
.29924,-.058682,
.3,-.05,
.3,.05,
.29924,.058682,
.296985,.067101,
.293301,.075,
.288302,.082139,
.282139,.088302,
.275,.093301,
.267101,.096985,
.258682,.09924,
.25,.1,
0.0*
%
%ADD24MACRO24*%
%AMMACRO43*
4,1,40,.625,.225,
-.625,.225,
-.642365,.223481,
-.659202,.218969,
-.675,.211603,
-.689279,.201604,
-.701604,.189279,
-.711603,.175,
-.718969,.159202,
-.723481,.142365,
-.725,.125,
-.725,-.125,
-.723481,-.142365,
-.718969,-.159202,
-.711603,-.175,
-.701604,-.189279,
-.689279,-.201604,
-.675,-.211603,
-.659202,-.218969,
-.642365,-.223481,
-.625,-.225,
.625,-.225,
.642365,-.223481,
.659202,-.218969,
.675,-.211603,
.689279,-.201604,
.701604,-.189279,
.711603,-.175,
.718969,-.159202,
.723481,-.142365,
.725,-.125,
.725,.125,
.723481,.142365,
.718969,.159202,
.711603,.175,
.701604,.189279,
.689279,.201604,
.675,.211603,
.659202,.218969,
.642365,.223481,
.625,.225,
0.0*
%
%ADD43MACRO43*%
%AMMACRO41*
4,1,40,.5,.425,
-.5,.425,
-.53473,.421962,
-.568404,.412939,
-.6,.398205,
-.628558,.378209,
-.653209,.353558,
-.673205,.325,
-.687939,.293404,
-.696962,.25973,
-.7,.225,
-.7,-.225,
-.696962,-.25973,
-.687939,-.293404,
-.673205,-.325,
-.653209,-.353558,
-.628558,-.378209,
-.6,-.398205,
-.568404,-.412939,
-.53473,-.421962,
-.5,-.425,
.5,-.425,
.53473,-.421962,
.568404,-.412939,
.6,-.398205,
.628558,-.378209,
.653209,-.353558,
.673205,-.325,
.687939,-.293404,
.696962,-.25973,
.7,-.225,
.7,.225,
.696962,.25973,
.687939,.293404,
.673205,.325,
.653209,.353558,
.628558,.378209,
.6,.398205,
.568404,.412939,
.53473,.421962,
.5,.425,
0.0*
%
%ADD41MACRO41*%
%AMMACRO36*
4,1,40,-.15,.175,
-.15,-.175,
-.14924,-.183682,
-.146985,-.192101,
-.143301,-.2,
-.138302,-.207139,
-.132139,-.213302,
-.125,-.218301,
-.117101,-.221985,
-.108682,-.22424,
-.1,-.225,
.1,-.225,
.108682,-.22424,
.117101,-.221985,
.125,-.218301,
.132139,-.213302,
.138302,-.207139,
.143301,-.2,
.146985,-.192101,
.14924,-.183682,
.15,-.175,
.15,.175,
.14924,.183682,
.146985,.192101,
.143301,.2,
.138302,.207139,
.132139,.213302,
.125,.218301,
.117101,.221985,
.108682,.22424,
.1,.225,
-.1,.225,
-.108682,.22424,
-.117101,.221985,
-.125,.218301,
-.132139,.213302,
-.138302,.207139,
-.143301,.2,
-.146985,.192101,
-.14924,.183682,
-.15,.175,
0.0*
%
%ADD36MACRO36*%
%AMMACRO19*
4,1,40,.13,-.08,
.13,.08,
.128937,.092155,
.125778,.103941,
.120622,.115,
.113623,.124995,
.104995,.133623,
.095,.140622,
.083941,.145778,
.072155,.148937,
.06,.15,
-.06,.15,
-.072155,.148937,
-.083941,.145778,
-.095,.140622,
-.104995,.133623,
-.113623,.124995,
-.120622,.115,
-.125778,.103941,
-.128937,.092155,
-.13,.08,
-.13,-.08,
-.128937,-.092155,
-.125778,-.103941,
-.120622,-.115,
-.113623,-.124995,
-.104995,-.133623,
-.095,-.140622,
-.083941,-.145778,
-.072155,-.148937,
-.06,-.15,
.06,-.15,
.072155,-.148937,
.083941,-.145778,
.095,-.140622,
.104995,-.133623,
.113623,-.124995,
.120622,-.115,
.125778,-.103941,
.128937,-.092155,
.13,-.08,
0.0*
%
%ADD19MACRO19*%
%AMMACRO33*
4,1,40,-.08,-.13,
.08,-.13,
.092155,-.128937,
.103941,-.125778,
.115,-.120622,
.124995,-.113623,
.133623,-.104995,
.140622,-.095,
.145778,-.083941,
.148937,-.072155,
.15,-.06,
.15,.06,
.148937,.072155,
.145778,.083941,
.140622,.095,
.133623,.104995,
.124995,.113623,
.115,.120622,
.103941,.125778,
.092155,.128937,
.08,.13,
-.08,.13,
-.092155,.128937,
-.103941,.125778,
-.115,.120622,
-.124995,.113623,
-.133623,.104995,
-.140622,.095,
-.145778,.083941,
-.148937,.072155,
-.15,.06,
-.15,-.06,
-.148937,-.072155,
-.145778,-.083941,
-.140622,-.095,
-.133623,-.104995,
-.124995,-.113623,
-.115,-.120622,
-.103941,-.125778,
-.092155,-.128937,
-.08,-.13,
0.0*
%
%ADD33MACRO33*%
%ADD32R,.3X.7*%
%AMMACRO53*
4,1,40,.435,-.15,
.435,.15,
.432721,.176047,
.425954,.201303,
.414904,.225,
.399907,.246418,
.381418,.264907,
.36,.279904,
.336303,.290954,
.311047,.297721,
.285,.3,
-.285,.3,
-.311047,.297721,
-.336303,.290954,
-.36,.279904,
-.381418,.264907,
-.399907,.246418,
-.414904,.225,
-.425954,.201303,
-.432721,.176047,
-.435,.15,
-.435,-.15,
-.432721,-.176047,
-.425954,-.201303,
-.414904,-.225,
-.399907,-.246418,
-.381418,-.264907,
-.36,-.279904,
-.336303,-.290954,
-.311047,-.297721,
-.285,-.3,
.285,-.3,
.311047,-.297721,
.336303,-.290954,
.36,-.279904,
.381418,-.264907,
.399907,-.246418,
.414904,-.225,
.425954,-.201303,
.432721,-.176047,
.435,-.15,
0.0*
%
%ADD53MACRO53*%
%AMMACRO44*
4,1,40,-.285,-.3,
.285,-.3,
.311047,-.297721,
.336303,-.290954,
.36,-.279904,
.381418,-.264907,
.399907,-.246418,
.414904,-.225,
.425954,-.201303,
.432721,-.176047,
.435,-.15,
.435,.15,
.432721,.176047,
.425954,.201303,
.414904,.225,
.399907,.246418,
.381418,.264907,
.36,.279904,
.336303,.290954,
.311047,.297721,
.285,.3,
-.285,.3,
-.311047,.297721,
-.336303,.290954,
-.36,.279904,
-.381418,.264907,
-.399907,.246418,
-.414904,.225,
-.425954,.201303,
-.432721,.176047,
-.435,.15,
-.435,-.15,
-.432721,-.176047,
-.425954,-.201303,
-.414904,-.225,
-.399907,-.246418,
-.381418,-.264907,
-.36,-.279904,
-.336303,-.290954,
-.311047,-.297721,
-.285,-.3,
0.0*
%
%ADD44MACRO44*%
%AMMACRO30*
4,1,40,-.15,-.435,
.15,-.435,
.176047,-.432721,
.201303,-.425954,
.225,-.414904,
.246418,-.399907,
.264907,-.381418,
.279904,-.36,
.290954,-.336303,
.297721,-.311047,
.3,-.285,
.3,.285,
.297721,.311047,
.290954,.336303,
.279904,.36,
.264907,.381418,
.246418,.399907,
.225,.414904,
.201303,.425954,
.176047,.432721,
.15,.435,
-.15,.435,
-.176047,.432721,
-.201303,.425954,
-.225,.414904,
-.246418,.399907,
-.264907,.381418,
-.279904,.36,
-.290954,.336303,
-.297721,.311047,
-.3,.285,
-.3,-.285,
-.297721,-.311047,
-.290954,-.336303,
-.279904,-.36,
-.264907,-.381418,
-.246418,-.399907,
-.225,-.414904,
-.201303,-.425954,
-.176047,-.432721,
-.15,-.435,
0.0*
%
%ADD30MACRO30*%
%AMMACRO14*
4,1,40,-.2,.195,
-.2,-.195,
-.198785,-.208892,
-.195175,-.222362,
-.189282,-.235,
-.181284,-.246423,
-.171423,-.256284,
-.16,-.264282,
-.147362,-.270175,
-.133892,-.273785,
-.12,-.275,
.12,-.275,
.133892,-.273785,
.147362,-.270175,
.16,-.264282,
.171423,-.256284,
.181284,-.246423,
.189282,-.235,
.195175,-.222362,
.198785,-.208892,
.2,-.195,
.2,.195,
.198785,.208892,
.195175,.222362,
.189282,.235,
.181284,.246423,
.171423,.256284,
.16,.264282,
.147362,.270175,
.133892,.273785,
.12,.275,
-.12,.275,
-.133892,.273785,
-.147362,.270175,
-.16,.264282,
-.171423,.256284,
-.181284,.246423,
-.189282,.235,
-.195175,.222362,
-.198785,.208892,
-.2,.195,
0.0*
%
%ADD14MACRO14*%
%AMMACRO10*
4,1,40,.3,-.285,
.3,.285,
.297721,.311047,
.290954,.336303,
.279904,.36,
.264907,.381418,
.246418,.399907,
.225,.414904,
.201303,.425954,
.176047,.432721,
.15,.435,
-.15,.435,
-.176047,.432721,
-.201303,.425954,
-.225,.414904,
-.246418,.399907,
-.264907,.381418,
-.279904,.36,
-.290954,.336303,
-.297721,.311047,
-.3,.285,
-.3,-.285,
-.297721,-.311047,
-.290954,-.336303,
-.279904,-.36,
-.264907,-.381418,
-.246418,-.399907,
-.225,-.414904,
-.201303,-.425954,
-.176047,-.432721,
-.15,-.435,
.15,-.435,
.176047,-.432721,
.201303,-.425954,
.225,-.414904,
.246418,-.399907,
.264907,-.381418,
.279904,-.36,
.290954,-.336303,
.297721,-.311047,
.3,-.285,
0.0*
%
%ADD10MACRO10*%
%AMMACRO39*
4,1,40,.225,.125,
-.225,.125,
-.233682,.12424,
-.242101,.121985,
-.25,.118301,
-.257139,.113302,
-.263302,.107139,
-.268301,.1,
-.271985,.092101,
-.27424,.083682,
-.275,.075,
-.275,-.075,
-.27424,-.083682,
-.271985,-.092101,
-.268301,-.1,
-.263302,-.107139,
-.257139,-.113302,
-.25,-.118301,
-.242101,-.121985,
-.233682,-.12424,
-.225,-.125,
.225,-.125,
.233682,-.12424,
.242101,-.121985,
.25,-.118301,
.257139,-.113302,
.263302,-.107139,
.268301,-.1,
.271985,-.092101,
.27424,-.083682,
.275,-.075,
.275,.075,
.27424,.083682,
.271985,.092101,
.268301,.1,
.263302,.107139,
.257139,.113302,
.25,.118301,
.242101,.121985,
.233682,.12424,
.225,.125,
0.0*
%
%ADD39MACRO39*%
%ADD21C,2.3*%
%ADD22C,2.4*%
%AMMACRO51*
4,1,15,1.715,.635,
1.715,-.635,
-.36,-.635,
-.486877,-.45359,
-.643329,-.296969,
-.8246,-.169894,
-1.025184,-.076227,
-1.238986,-.018814,
-1.459509,.0006,
-1.4602,.0006,
-1.534045,-.001542,
-1.60764,-.007975,
-1.680737,-.018675,
-1.715,-.0252,
-1.715,.635,
1.715,.635,
0.0*
%
%ADD51MACRO51*%
%ADD47R,3.43X1.27*%
%AMMACRO42*
4,1,40,-.21,-.225,
.21,-.225,
.225628,-.223633,
.240782,-.219572,
.255,-.212942,
.267851,-.203944,
.278944,-.192851,
.287942,-.18,
.294572,-.165782,
.298633,-.150628,
.3,-.135,
.3,.135,
.298633,.150628,
.294572,.165782,
.287942,.18,
.278944,.192851,
.267851,.203944,
.255,.212942,
.240782,.219572,
.225628,.223633,
.21,.225,
-.21,.225,
-.225628,.223633,
-.240782,.219572,
-.255,.212942,
-.267851,.203944,
-.278944,.192851,
-.287942,.18,
-.294572,.165782,
-.298633,.150628,
-.3,.135,
-.3,-.135,
-.298633,-.150628,
-.294572,-.165782,
-.287942,-.18,
-.278944,-.192851,
-.267851,-.203944,
-.255,-.212942,
-.240782,-.219572,
-.225628,-.223633,
-.21,-.225,
0.0*
%
%ADD42MACRO42*%
%ADD38R,1.1X1.1*%
%ADD12R,1.27X5.08*%
%AMMACRO46*
4,1,14,-1.715,-.635,
-1.715,.635,
.7136,.635,
.83519,.515035,
.975765,.418006,
1.131054,.346862,
1.296337,.303764,
1.46,.29,
1.51698,.291667,
1.573768,.296644,
1.630169,.304915,
1.685995,.316451,
1.715,.3238,
1.715,-.635,
-1.715,-.635,
0.0*
%
%ADD46MACRO46*%
%ADD54C,.254*%
G75*
%LPD*%
G75*
G36*
G01X1529500Y4111500D02*
X1469500D01*
Y4171500D01*
X1529500D01*
Y4111500D01*
G37*
G36*
G01X1606500D02*
X1546500D01*
Y4171500D01*
X1606500D01*
Y4111500D01*
G37*
G36*
G01X1529500Y4188500D02*
X1469500D01*
Y4248500D01*
X1529500D01*
Y4188500D01*
G37*
G36*
G01X1606500D02*
X1546500D01*
Y4248500D01*
X1606500D01*
Y4188500D01*
G37*
G36*
G01X3648240Y3855270D02*
Y3928600D01*
G03X3623240Y3953600I-25000J0D01*
G01X3523240D01*
G03X3498240Y3928600I0J-25000D01*
G01Y3855270D01*
G03X3523240Y3830270I25000J0D01*
G01X3623240D01*
G03X3648240Y3855270I0J25000D01*
G37*
G36*
G01X3818240D02*
Y3928600D01*
G03X3793240Y3953600I-25000J0D01*
G01X3693240D01*
G03X3668240Y3928600I0J-25000D01*
G01Y3855270D01*
G03X3693240Y3830270I25000J0D01*
G01X3793240D01*
G03X3818240Y3855270I0J25000D01*
G37*
G36*
G01Y4141930D02*
Y4215260D01*
G03X3793240Y4240260I-25000J0D01*
G01X3693240D01*
G03X3668240Y4215260I0J-25000D01*
G01Y4141930D01*
G03X3693240Y4116930I25000J0D01*
G01X3793240D01*
G03X3818240Y4141930I0J25000D01*
G37*
G36*
G01X3648240D02*
Y4215260D01*
G03X3623240Y4240260I-25000J0D01*
G01X3523240D01*
G03X3498240Y4215260I0J-25000D01*
G01Y4141930D01*
G03X3523240Y4116930I25000J0D01*
G01X3623240D01*
G03X3648240Y4141930I0J25000D01*
G37*
G36*
G01Y3998600D02*
Y4071930D01*
G03X3623240Y4096930I-25000J0D01*
G01X3523240D01*
G03X3498240Y4071930I0J-25000D01*
G01Y3998600D01*
G03X3523240Y3973600I25000J0D01*
G01X3623240D01*
G03X3648240Y3998600I0J25000D01*
G37*
G36*
G01X3818240D02*
Y4071930D01*
G03X3793240Y4096930I-25000J0D01*
G01X3693240D01*
G03X3668240Y4071930I0J-25000D01*
G01Y3998600D01*
G03X3693240Y3973600I25000J0D01*
G01X3793240D01*
G03X3818240Y3998600I0J25000D01*
G37*
G54D10*
X-655500Y3830000D03*
Y3960000D03*
X-528500Y3830000D03*
Y3960000D03*
X591500Y2540000D03*
X464500D03*
X591500Y2290000D03*
X464500D03*
X1751550Y2582360D03*
X1878550D03*
X1987680Y3158860D03*
X1997680Y3608860D03*
X2114680Y3158860D03*
X2124680Y3608860D03*
X2737680Y3158860D03*
Y3608860D03*
Y4058860D03*
X2864680Y3158860D03*
Y3608860D03*
Y4058860D03*
X4014500Y-770000D03*
X4141500D03*
G54D11*
X-612000Y4060000D03*
Y4100000D03*
X-652000Y4060000D03*
Y4100000D03*
G54D20*
X464500Y1710000D03*
X591500D03*
X464500Y2140000D03*
X591500D03*
X464500Y1940000D03*
X591500D03*
X1587680Y3158860D03*
X1714680D03*
X1597680Y3608860D03*
X1724680D03*
X1787680Y3158860D03*
X1914680D03*
X1797680Y3608860D03*
X1924680D03*
X2337680Y3158860D03*
Y3608860D03*
Y4058860D03*
X2464680Y3158860D03*
X2537680D03*
X2664680D03*
X2464680Y3608860D03*
X2537680D03*
X2664680D03*
X2464680Y4058860D03*
X2537680D03*
X2664680D03*
G54D12*
X-383000Y-3423000D03*
Y-2737000D03*
X125000Y-3423000D03*
X-129000D03*
Y-2737000D03*
X125000D03*
X379000Y-3423000D03*
Y-2737000D03*
X633000Y-3423000D03*
Y-2737000D03*
X887000Y-3423000D03*
Y-2737000D03*
X1395000Y-3423000D03*
X1141000D03*
X1395000Y-2737000D03*
X1141000D03*
X1649000Y-3423000D03*
Y-2737000D03*
X1903000Y-3423000D03*
Y-2737000D03*
G54D21*
X814000Y3236000D03*
Y3744000D03*
X1322000Y3236000D03*
Y3744000D03*
X2394000Y2376000D03*
Y2884000D03*
X2902000Y2376000D03*
Y2884000D03*
G54D30*
X1979520Y2592360D03*
X2106520D03*
X4056960Y-2532750D03*
X4183960D03*
X4154500Y-2350000D03*
X4281500D03*
G54D22*
X1068000Y3490000D03*
X2648000Y2630000D03*
G54D13*
X-476000Y4100000D03*
X-548000D03*
X3179440Y-1952600D03*
X3107440D03*
G54D31*
X2664500Y-3553500D03*
X2700500Y-2958500D03*
X3562500Y-3553500D03*
X3526500Y-2958500D03*
G54D40*
X3278240Y3844760D03*
Y3971760D03*
Y4098760D03*
Y4225760D03*
X4038240Y3844760D03*
Y3971760D03*
Y4098760D03*
Y4225760D03*
G54D14*
X-279500Y4262500D03*
Y4397500D03*
X-424500Y4262500D03*
Y4397500D03*
X25500Y4262500D03*
Y4397500D03*
X170500Y4262500D03*
Y4397500D03*
X620500Y4262500D03*
Y4397500D03*
X475500Y4262500D03*
Y4397500D03*
X1070500Y4262500D03*
Y4397500D03*
X925500Y4262500D03*
Y4397500D03*
G54D32*
X2813500Y-2937500D03*
X2863500D03*
X2913500D03*
X2963500D03*
X3013500D03*
X3038500Y-2767500D03*
X2988500D03*
X2938500D03*
X2888500D03*
X2838500D03*
X3063500Y-2937500D03*
X3113500D03*
X3163500D03*
X3213500D03*
X3263500D03*
X3313500D03*
X3363500D03*
X3338500Y-2767500D03*
X3288500D03*
X3238500D03*
X3188500D03*
X3138500D03*
X3088500D03*
X3388500D03*
G54D41*
X3178240Y3845760D03*
Y3972760D03*
Y4099760D03*
Y4226760D03*
X4138240Y3845760D03*
Y4099760D03*
Y3972760D03*
Y4226760D03*
G54D50*
X4214000Y1259000D03*
G54D23*
X1250000Y4140000D03*
X1322000D03*
X1777050Y2682360D03*
X1849050D03*
X3333920Y2877450D03*
X3405920D03*
X3933920D03*
X4005920D03*
X4114490Y-2922750D03*
X4186490D03*
G54D42*
X3523000Y-2350000D03*
X3733000D03*
G54D51*
X4214000Y2275000D03*
G54D33*
X3041440Y-2090100D03*
Y-2135100D03*
X4096500Y-2100150D03*
Y-2145150D03*
G54D24*
X1403000Y4100000D03*
Y4140000D03*
Y4180000D03*
Y4220000D03*
Y4260000D03*
X1673000Y4100000D03*
Y4180000D03*
Y4140000D03*
Y4260000D03*
Y4220000D03*
G54D15*
X-352000Y4262500D03*
Y4397500D03*
X98000Y4262500D03*
Y4397500D03*
X548000Y4262500D03*
Y4397500D03*
X998000Y4262500D03*
Y4397500D03*
G54D43*
X3528500Y-2200150D03*
Y-2135150D03*
Y-2070150D03*
Y-2005150D03*
X3968500Y-2070150D03*
Y-2135150D03*
Y-2200150D03*
Y-2005150D03*
G54D25*
X1318000Y4503500D03*
Y4376500D03*
X3812490Y-2716250D03*
Y-2589250D03*
G54D34*
X3314500Y-2350000D03*
X3441500D03*
G54D52*
X4338000Y4116500D03*
Y4243500D03*
G54D16*
X-492000Y4369000D03*
Y4291000D03*
X-42000Y4369000D03*
Y4291000D03*
X408000Y4369000D03*
Y4291000D03*
X858000Y4369000D03*
Y4291000D03*
G54D44*
X3932490Y-2928250D03*
Y-2801250D03*
Y-2716250D03*
Y-2589250D03*
G54D53*
X4338000Y3886500D03*
Y4013500D03*
G54D35*
X3261440Y-2135100D03*
Y-2090100D03*
G54D26*
X1247000Y4220000D03*
X1325000D03*
X1774050Y2962360D03*
X1852050D03*
G54D17*
X-212000Y4366000D03*
Y4294000D03*
X1466000Y4456000D03*
Y4384000D03*
X4096500Y-1916650D03*
Y-1988650D03*
G54D54*
G01X-289140Y-5715450D02*
X-268820Y-5730790D01*
X-245960Y-5740000D01*
X-225640D01*
X-205320Y-5730790D01*
X-190080Y-5715450D01*
X-182460Y-5693960D01*
X-187540Y-5672480D01*
X-200240Y-5654060D01*
X-223100Y-5641790D01*
X-253580Y-5635650D01*
X-271360Y-5623370D01*
X-278980Y-5601890D01*
X-273900Y-5580400D01*
X-261200Y-5565060D01*
X-243420Y-5555850D01*
X-225640D01*
X-207860Y-5561990D01*
X-192620Y-5577340D01*
G01X-17360Y-5740000D02*
X-37680Y-5736930D01*
X-55460Y-5724660D01*
X-70700Y-5706240D01*
X-80860Y-5684760D01*
X-85940Y-5660200D01*
Y-5635650D01*
X-80860Y-5611090D01*
X-70700Y-5589610D01*
X-55460Y-5571200D01*
X-37680Y-5558920D01*
X-17360Y-5555850D01*
X2960Y-5558920D01*
X20740Y-5571200D01*
X35980Y-5589610D01*
X46140Y-5611090D01*
X51220Y-5635650D01*
Y-5660200D01*
X46140Y-5684760D01*
X35980Y-5706240D01*
X20740Y-5724660D01*
X2960Y-5736930D01*
X-17360Y-5740000D01*
G01X150280Y-5555850D02*
Y-5740000D01*
X251880D01*
G01X363640D02*
Y-5555850D01*
X414440D01*
X434760Y-5565060D01*
X450000Y-5577340D01*
X462700Y-5595750D01*
X472860Y-5617240D01*
X475400Y-5647930D01*
X472860Y-5678620D01*
X462700Y-5700100D01*
X450000Y-5718520D01*
X434760Y-5730790D01*
X414440Y-5740000D01*
X363640D01*
G01X688760D02*
X587160D01*
Y-5555850D01*
X688760D01*
G01X648120Y-5644850D02*
X587160D01*
G01X805600Y-5740000D02*
Y-5555850D01*
X869100D01*
X889420Y-5565060D01*
X902120Y-5577340D01*
X907200Y-5601890D01*
X902120Y-5626440D01*
X886880Y-5641790D01*
X869100Y-5651000D01*
X805600D01*
G01X869100D02*
X907200Y-5740000D01*
G01X1024040D02*
Y-5555850D01*
X1085000D01*
X1105320Y-5565060D01*
X1120560Y-5586540D01*
X1125640Y-5611090D01*
X1120560Y-5635650D01*
X1107860Y-5654060D01*
X1085000Y-5663280D01*
X1024040D01*
G01X1229780Y-5740000D02*
X1293280Y-5555850D01*
X1356780Y-5740000D01*
G01X1333920Y-5675550D02*
X1252640D01*
G01X1458380Y-5715450D02*
X1478700Y-5730790D01*
X1501560Y-5740000D01*
X1521880D01*
X1542200Y-5730790D01*
X1557440Y-5715450D01*
X1565060Y-5693960D01*
X1559980Y-5672480D01*
X1547280Y-5654060D01*
X1524420Y-5641790D01*
X1493940Y-5635650D01*
X1476160Y-5623370D01*
X1468540Y-5601890D01*
X1473620Y-5580400D01*
X1486320Y-5565060D01*
X1504100Y-5555850D01*
X1521880D01*
X1539660Y-5561990D01*
X1554900Y-5577340D01*
G01X1730160Y-5555850D02*
Y-5740000D01*
G01X1671740Y-5555850D02*
X1788580D01*
G01X1999400Y-5740000D02*
X1897800D01*
Y-5555850D01*
X1999400D01*
G01X1958760Y-5644850D02*
X1897800D01*
G01X2385480Y-5555850D02*
Y-5740000D01*
G01X2327060Y-5555850D02*
X2443900D01*
G01X2603920Y-5740000D02*
X2583600Y-5736930D01*
X2565820Y-5724660D01*
X2550580Y-5706240D01*
X2540420Y-5684760D01*
X2535340Y-5660200D01*
Y-5635650D01*
X2540420Y-5611090D01*
X2550580Y-5589610D01*
X2565820Y-5571200D01*
X2583600Y-5558920D01*
X2603920Y-5555850D01*
X2624240Y-5558920D01*
X2642020Y-5571200D01*
X2657260Y-5589610D01*
X2667420Y-5611090D01*
X2672500Y-5635650D01*
Y-5660200D01*
X2667420Y-5684760D01*
X2657260Y-5706240D01*
X2642020Y-5724660D01*
X2624240Y-5736930D01*
X2603920Y-5740000D01*
G01X2771560D02*
Y-5555850D01*
X2832520D01*
X2852840Y-5565060D01*
X2868080Y-5586540D01*
X2873160Y-5611090D01*
X2868080Y-5635650D01*
X2855380Y-5654060D01*
X2832520Y-5663280D01*
X2771560D01*
G01X-289140Y-5240000D02*
Y-5055850D01*
G01X-182460D02*
Y-5240000D01*
G01Y-5147930D02*
X-289140D01*
G01X-17360Y-5240000D02*
Y-5157130D01*
X-68160Y-5055850D01*
G01X33440D02*
X-17360Y-5157130D01*
G01X150280Y-5240000D02*
Y-5055850D01*
X211240D01*
X231560Y-5065060D01*
X246800Y-5086540D01*
X251880Y-5111090D01*
X246800Y-5135650D01*
X234100Y-5154060D01*
X211240Y-5163280D01*
X150280D01*
G01X343320Y-5301380D02*
X495720D01*
G01X637960Y-5240000D02*
X617640Y-5236930D01*
X599860Y-5224660D01*
X584620Y-5206240D01*
X574460Y-5184760D01*
X569380Y-5160200D01*
Y-5135650D01*
X574460Y-5111090D01*
X584620Y-5089610D01*
X599860Y-5071200D01*
X617640Y-5058920D01*
X637960Y-5055850D01*
X658280Y-5058920D01*
X676060Y-5071200D01*
X691300Y-5089610D01*
X701460Y-5111090D01*
X706540Y-5135650D01*
Y-5160200D01*
X701460Y-5184760D01*
X691300Y-5206240D01*
X676060Y-5224660D01*
X658280Y-5236930D01*
X637960Y-5240000D01*
G01X856400Y-5055850D02*
Y-5240000D01*
G01X797980Y-5055850D02*
X914820D01*
G54D36*
X3201440Y-2180100D03*
X3151440D03*
X3101440D03*
X3151440Y-2045100D03*
X3101440D03*
X3201440D03*
G54D27*
X1618000Y4045000D03*
X1578000D03*
X1538000D03*
X1498000D03*
X1458000D03*
X1618000Y4315000D03*
X1458000D03*
X1498000D03*
X1538000D03*
X1578000D03*
G54D18*
X198000Y3834000D03*
X288000D03*
X198000Y3906000D03*
X288000D03*
X2218000Y3324000D03*
Y3396000D03*
G54D45*
X3853000Y-2350000D03*
X4063000D03*
G54D46*
X3922000Y1005000D03*
G54D19*
X245500Y3770000D03*
X290500D03*
G54D28*
X2038000Y-140000D03*
Y-190000D03*
Y-240000D03*
X1988000Y-90000D03*
Y-140000D03*
Y-190000D03*
Y-240000D03*
X1938000Y-90000D03*
Y-140000D03*
Y-190000D03*
Y-240000D03*
X2038000Y60000D03*
Y-40000D03*
Y160000D03*
Y110000D03*
X1988000Y160000D03*
Y110000D03*
Y60000D03*
Y10000D03*
Y-40000D03*
X1938000Y160000D03*
Y110000D03*
Y60000D03*
Y10000D03*
Y-40000D03*
X2088000Y-140000D03*
X2138000D03*
X2238000D03*
X2338000Y-90000D03*
Y-140000D03*
Y-190000D03*
Y-240000D03*
X2288000Y-90000D03*
Y-140000D03*
Y-190000D03*
Y-240000D03*
X2238000Y-190000D03*
Y-240000D03*
X2188000Y-90000D03*
Y-190000D03*
Y-240000D03*
X2138000Y-190000D03*
Y-240000D03*
X2088000Y-90000D03*
Y-190000D03*
Y-240000D03*
X2238000Y-40000D03*
Y10000D03*
Y60000D03*
X2188000D03*
X2138000D03*
X2338000Y160000D03*
Y110000D03*
Y60000D03*
Y10000D03*
Y-40000D03*
X2288000Y160000D03*
Y110000D03*
Y60000D03*
Y10000D03*
Y-40000D03*
X2238000Y160000D03*
Y110000D03*
X2188000Y160000D03*
Y110000D03*
Y-40000D03*
X2138000Y160000D03*
Y110000D03*
Y10000D03*
Y-40000D03*
X2088000Y160000D03*
Y110000D03*
Y10000D03*
Y-40000D03*
G54D37*
X3344920Y2529950D03*
X3294920D03*
Y2804950D03*
X3344920D03*
X3444920Y2529950D03*
X3394920D03*
Y2804950D03*
X3444920D03*
X3994920Y2529950D03*
X3944920D03*
X3894920D03*
Y2804950D03*
X3944920D03*
X3994920D03*
X4044920Y2529950D03*
Y2804950D03*
G54D38*
X3369920Y2667450D03*
X3969920D03*
G54D47*
X3922000Y1513000D03*
X4214000Y1767000D03*
G54D29*
X2045050Y2711860D03*
X1950050D03*
Y2952860D03*
X2140050Y2711860D03*
Y2952860D03*
G54D39*
X3232420Y2592450D03*
Y2642450D03*
Y2692450D03*
Y2742450D03*
X3507420D03*
Y2692450D03*
Y2642450D03*
Y2592450D03*
X3832420D03*
Y2642450D03*
Y2692450D03*
Y2742450D03*
X4107420D03*
Y2692450D03*
Y2642450D03*
Y2592450D03*
G54D48*
X3922000Y2021000D03*
G54D49*
X4185490Y-2822250D03*
X4055490D03*
Y-2643250D03*
X4120490D03*
X4185490D03*
M02*
